<svg height="44" viewBox="0 0 48 44" width="48" xmlns="http://www.w3.org/2000/svg"><g fill="none" fill-rule="evenodd"><g transform="translate(.556421 1)"><path d="m26.2826689 2.72030302 20.2911948 36.35847748c.6674533 1.1959663.2390089 2.7065664-.9569575 3.3740197-.3694299.206174-.7854635.3144082-1.2085311.3144082h-40.58238954c-1.36960919 0-2.47989681-1.1102876-2.47989681-2.4798968 0-.4230676.10823419-.8391012.31440823-1.2085311l20.29119482-36.35847748c.6674533-1.19596632 2.1780533-1.62441078 3.3740196-.95695748.4015392.22409381.7328637.5554183.9569575.95695748z" fill="#ffefd5"/><path d="m25.0721749 1.46895353 20.2911948 36.35847747c.6674533 1.1959663.2390088 2.7065664-.9569575 3.3740197-.3694299.206174-.7854635.3144082-1.2085311.3144082h-40.58238955c-1.36960919 0-2.47989681-1.1102876-2.47989681-2.4798968 0-.4230676.10823419-.8391012.31440823-1.2085311l20.29119483-36.35847747c.6674533-1.19596632 2.1780533-1.62441078 3.3740196-.95695749.4015392.22409381.7328637.5554183.9569575.95695749z" stroke="#f5a623" stroke-width="1.3"/></g><path d="m11.5683135 23.550968c0-1.0839366-.0035227-2.1209259.0008288-3.157846.0071143-1.7167918.0176821-3.4336527.0323251-5.1503754.0011742-.1342043-.0316344-.1732003-.1683943-.1743066-1.90489976-.0156952-3.80979951-.0374057-5.71469927-.0574568-.08468063-.0008297-.16929219-.0000692-.28353506-.0000692 2.03703193-4.2159235 4.06142393-8.40564222 6.08588503-12.5954301.0111203.00290395.0221716.00580791.033292.00878101 0 .03166696-.0002072.06326478.0000691.09493174.0237603 2.67890047.0492474 5.35773179.0671367 8.03663225.000967.1554309.0426166.1835716.1889082.1850236 1.8530277.0184608 3.7060554.044389 5.5590831.0683121.0384033.000484.0768066.0000691.1430453.0000691-1.9826733 4.2501487-3.9551241 8.4783795-5.9439447 12.7417343" fill="#ffefd5" transform="matrix(.8660254 .5 -.5 .8660254 20.90481 10.571812)"/><path d="m10.9644425 22.947097c0-1.0839366-.0035226-2.1209258.0008288-3.157846.0071143-1.7167918.0176821-3.4336527.0323251-5.1503754.0011742-.1342043-.0316344-.1732003-.1683943-.1743065-1.90489973-.0156952-3.80979949-.0374058-5.71469925-.0574569-.08468063-.0008297-.16929219-.0000692-.28353506-.0000692 2.03703193-4.2159235 4.06142393-8.4056422 6.08588501-12.59543008.0111204.00290396.0221717.00580792.0332921.00878102 0 .03166696-.0002073.06326478.000069.09493174.0237603 2.67890046.0492474 5.35773179.0671367 8.03663225.000967.15543087.0426166.18357157.1889083.18502357 1.8530277.0184609 3.7060553.044389 5.559083.0683121.0384033.000484.0768066.0000692.1430454.0000692-1.9826733 4.2501487-3.9551242 8.4783794-5.9439448 12.7417342" fill="#f5a623" transform="matrix(.8660254 .5 -.5 .8660254 20.521971 10.792844)"/></g></svg>