<svg width="27" height="26" viewBox="0 0 27 26" xmlns="http://www.w3.org/2000/svg"><title>6A66D5AD-B7E3-45EA-9008-812DA8E2FBD5</title><path d="M14.104 13.463c5.12-4.747 8.16-7.62 9.909-9.284.45-.429 1.124.261.774.773-.953 1.392-10.739 14.604-10.739 14.604a2.02 2.02 0 0 1-2.867-.124c-1.632-1.798-5.933-8.204-6.215-8.655-.315-.503.267-1.084.77-.77.45.283 1.706 1.374 5.133 3.766.867.606 1.909.918 3.235-.31zm-.791 12.49c-7.094 0-12.865-5.77-12.865-12.865C.448 5.994 6.219.223 13.313.223c2.197 0 4.368.564 6.275 1.632a.802.802 0 0 1-.783 1.398 11.27 11.27 0 0 0-5.492-1.427c-6.21 0-11.263 5.052-11.263 11.262 0 6.21 5.052 11.262 11.263 11.262 6.21 0 11.262-5.052 11.262-11.262 0-.743-.073-1.487-.216-2.21a.802.802 0 0 1 1.571-.312c.164.825.248 1.674.248 2.522 0 7.094-5.771 12.865-12.865 12.865z" fill="#7ED321" fill-rule="evenodd"/></svg>