<svg height="11" viewBox="0 0 17 11" width="17" xmlns="http://www.w3.org/2000/svg"><g fill="none" fill-rule="evenodd"><path d="m-1.784946-4h19.354839v19.354839h-19.354839z"/><path d="m8.89247312 10.6774194c-2.94551867 0-5.61218533-1.66666671-8-5.00000005 2.38781467-3.33333333 5.05448133-4.99999999 8-4.99999999 2.94551868 0 5.61218538 1.66666666 7.99999998 4.99999999-2.3878146 3.33333334-5.0544813 5.00000005-7.99999998 5.00000005zm0-2.00000005c1.65685428 0 2.99999998-1.34314575 2.99999998-3 0-1.65685424-1.3431457-3-2.99999998-3-1.65685425 0-3 1.34314576-3 3 0 1.65685425 1.34314575 3 3 3z" fill="#b2b2b2" transform="translate(-.607527 .177419)"/></g></svg>