<svg height="30" viewBox="0 0 16 30" width="16" xmlns="http://www.w3.org/2000/svg"><path d="m15.2012015 1.41478246c-.0353605-.22114516-.1844066-.40634447-.3885847-.4833155-1.2459802-.46729614-2.892712-.93029442-4.6599736-.93146657-1.38628129-.00039071-2.8550703.29030188-4.22043953 1.10846085-.68743736.41064235-1.22925054.92990371-1.641789 1.51441461-.6208989.8779385-.95130989 1.88832967-1.13761758 2.91395876-.15018682.82948974-.20683956 1.67460811-.23725714 2.49393923-.35588572.00859575-.7592989.01133076-1.12659121.01133076-.32128572 0-.6151956-.00195358-.82925934-.00429787-.10684176-.00117215-.19315165-.00195358-.25322637-.00273501-.06007473-.00117215-.09201319-.00156287-.09277363-.00156287-.16121319-.00234429-.31938461.06329597-.43459121.17933857-.11482637.11682404-.18022417.27897112-.17908351.44502535l.02395384 4.12595933c.00228132.3438299.2729978.646244.60683077.646244h.42166374c.59124175 0 1.69463955-.026178 2.54290988-.0089865.12547253 2.8342527.15512967 7.0817247.15512967 10.3774128 0 1.3893856-.0057033 2.600214-.01026593 3.4722917-.00304176.4348668-.00532308.7806503-.0076044 1.0205498-.0019011.2395088-.00304176.3676636-.00304176.368445-.00152088.1656636.06159561.3254663.17604176.4434625.11406593.1172148.26995604.182855.43154945.1820736l5.37402636-.0277408c.16159341-.0007814.31368134-.0672031.42698684-.18559.1136857-.1179962.1756615-.2754547.1741406-.4418997 0 0-.0281362-3.3957114-.0612154-7.0586724-.0281362-3.1499511-.0593142-6.4929159-.0771846-8.0499185.3315517-.0058607.717855-.008205 1.0935121-.0078143.4391539 0 .8665209.002735 1.1836242.00547.1581714.0011721.2893472.002735.3802198.0039072.0916329.0011721.1425824.0015628.1425824.0015628.1615934.0023443.3171033-.0621238.4323099-.1785571s.1802242-.275064.1806044-.4411182l.0068439-3.82159168c.0003803-.16605423-.0631165-.37899436-.1775626-.4958184-.1140659-.11682404-.2676747-.23638309-.4296484-.23638309h-.200756c-.1285143 0-.3114.05626308-.5307868.05626308-.6741297 0-1.6938791.0246151-2.5007055.01054933.01444835-.42392669.05170989-.78455741.11254505-1.10416297.05855385-.31100981.13916045-.56302153.23421535-.77049165.0714814-.1555049.1509473-.27818968.2361165-.38094794.1292747-.15394205.2691956-.25787246.4494198-.3352342.179844-.0765803.4060747-.12229406.6958022-.12268477.5144374-.00156286 1.2208857.15472347 2.1056571.50597702.0064638.00273501.0136879.00351644.0205319.00625145.0072242.00234429.0129275.00664217.0201517.00859575.0129274.00429787.0258549.00468859.0387824.00781431.0205318.00507931.0406835.0097679.0608351.01250291.0197715.0023443.0391627.00312573.0581737.00390716.0201516.00039072.0395428.00078143.0596945-.00039072.0197714-.00156286.0387824-.00429787.0574132-.00781431.0193912-.00312573.0387824-.00703289.0574131-.01211219.0182506-.00507931.0365011-.01172148.0539912-.01875436.0186308-.00664217.0368814-.01406577.0543715-.02305224.0171099-.00859575.0330791-.01836364.0494285-.02852226.0167297-.01054932.0334594-.02188008.0494286-.03399227.0152088-.01133076.0288967-.02422439.0425846-.03750872.0152088-.01406578.0296572-.02813155.0425846-.04336946.0129275-.01484721.0243341-.03047584.0361209-.04649519.0117868-.01641006.0235737-.03321085.0338396-.05118377.0098857-.0171915.0186308-.03633658.0273758-.05548165.0057033-.01250291.0129275-.02383367.0178703-.03711801.0030418-.00703288.0038022-.01445649.0064638-.0222708.0019011-.00664217.0060835-.01250291.0079846-.01953579.1220505-.41337737.3315516-1.10611656.5113956-1.8371459.0897319-.36649146.173-.74314153.2345956-1.10611655.0612154-.36336574.1026593-.71032141.1030396-1.03383413-.0007605-.14300199-.0091253-.28170612-.0307978-.42001953z" fill="#3b5998" fill-rule="evenodd" transform="translate(.6112 .578669)"/></svg>