<svg height="52" viewBox="0 0 79 52" width="79" xmlns="http://www.w3.org/2000/svg" xmlns:xlink="http://www.w3.org/1999/xlink"><mask id="a" fill="#fff"><use fill="none" xlink:href="#c"/></mask><mask id="b" fill="#fff"/><g fill="none" fill-rule="evenodd"><path d="m-.5-2h82v56h-82z"/><rect fill="#f5f5f5" fill-rule="nonzero" height="33.749099" rx="2.772" width="49.631028" x="11.652322" y="17.374175"/><text fill="#fff" font-family="Roboto-Bold, Roboto" font-size="17.82" font-weight="bold" transform="translate(17.645152 21.367969)"><tspan x=".485365" y="17.93">$$$</tspan></text><g stroke-dasharray="4.95 2.97" transform="translate(7.645152 15.367969)"><path id="c" d="m2.80868794.02096457h46.07226956c1.5309333 0 2.772 1.24106665 2.772 2.77199994v28.20509939c0 1.5309333-1.2410667 2.7719999-2.772 2.7719999h-46.07226956c-1.5309333 0-2.77199994-1.2410666-2.77199994-2.7719999v-28.20509939c0-1.53093329 1.24106664-2.77199994 2.77199994-2.77199994z" mask="url(#a)" stroke="#00c8e5" stroke-width="2.97"/></g><text fill="#7ed321" font-family="Roboto-Bold, Roboto" font-size="17.82" font-weight="bold" transform="translate(16.645152 20.367969)"><tspan x=".495365" y="17.94">$$$</tspan></text><path d="m20.0987482 16.7086954-5.0519803-3.0755889 5.088823-3.2122811c.4976377-.3140632.6464294-.97211846.3323425-1.46975614-.3141342-.49756665-.9721184-.6464057-1.4697561-.33231883l-5.9837278 3.77711667-2.2330831-1.3594409c.1010571-.5036282.0733066-1.0356225-.0875371-1.5607265-.25726-.83994856-.82948298-1.56468064-1.61123136-2.04067675-.78179573-.47597244-1.68825542-.65166219-2.55254483-.49467795-.90567832.16453748-1.65690593.66975208-2.11530939 1.42258978-.45840346.75293242-.56246767 1.65228872-.29289518 2.53241862.25723632.8399723.82941192 1.5646807 1.61116029 2.0406531.78181941.4760435 1.68830278.6517096 2.55261587.4947253.51203382-.093054.97460458-.2950262 1.36292156-.5890342l1.35397134.8242501-1.22845498.7754501c-.40614641-.314442-.89495224-.5261932-1.43682018-.6156718-.86672823-.1430854-1.77029922.0471189-2.54425758.5356169-.77400571.4885454-1.33455548 1.2223224-1.57827174 2.0662962-.25538944.8843209-.13697644 1.7818541.33343169 2.5272096.47050285.7454738 1.22978093 1.2386364 2.13799278 1.3885646.86670456.1431801 1.7703229-.0470242 2.54423391-.5355222.7740058-.4885217 1.3345318-1.2223224 1.5782244-2.0663199.144435-.4999344.1692494-1.0040835.0785632-1.4826368l2.1476533-1.3557235 5.9555512 3.625673c.5026574.3060837 1.1582738.146637 1.4643339-.3559257.3059654-.5027284.146637-1.1582264-.3559493-1.4642628zm-11.01577141-5.4821597c-.54331228.8939815-1.75381943 1.1507679-2.70370432.5735016-.94988489-.5772427-1.27950445-1.7699441-.73621584-2.66397289.54331228-.89402881 1.75377207-1.15079157 2.70370432-.57354891.94988489.57729002 1.27950444 1.7699677.73621584 2.6640202zm-.58261754 7.4972644c-.93949031.5940776-2.15430683.3588617-2.71350695-.5253408-.55908174-.8842262-.25079594-2.0825629.68869437-2.6766879.93944295-.5940539 2.15428315-.3588617 2.7134596.5253645.55908173.8842261.25081962 2.0825865-.68864702 2.6766642zm4.51399555-4.466474c-.3138501 0-.5682688-.2544187-.5682688-.5682688s.2544187-.5682687.5682688-.5682687c.31385 0 .5682687.2544186.5682687.5682687s-.2544187.5682688-.5682687.5682688z" fill="#00c8e5" fill-rule="nonzero" mask="url(#b)" transform="matrix(.81915204 .57357644 -.57357644 .81915204 7.547047 -6.590924)"/><circle cx="63.645152" cy="15.367969" fill="#fff" fill-rule="nonzero" r="14" stroke="#00c8e5" stroke-width=".98"/><text fill="#00c8e5" font-family="PTSans-Bold, PT Sans" font-size="15" font-weight="bold" transform="translate(60.645152 8.367969)"><tspan x="0" y="13">?</tspan></text></g></svg>