<svg height="39" viewBox="0 0 39 39" width="39" xmlns="http://www.w3.org/2000/svg"><g fill="none" fill-rule="evenodd" transform="translate(.5 1.5)"><path d="m36.952298 18.4128756c0 10.0312692-8.1314615 18.1627307-18.1620192 18.1627307-10.03198078 0-18.16344232-8.1314615-18.16344232-18.1627307 0-10.03126926 8.13146154-18.16273079 18.16344232-18.16273079 10.0305577 0 18.1620192 8.13146153 18.1620192 18.16273079" fill="#fff"/><g stroke="#a0a0a0"><path d="m36.952298 18.4128756c0 10.0312692-8.1314615 18.1627307-18.1620192 18.1627307-10.03198078 0-18.16344232-8.1314615-18.16344232-18.1627307 0-10.03126926 8.13146154-18.16273079 18.16344232-18.16273079 10.0305577 0 18.1620192 8.13146153 18.1620192 18.16273079z" stroke-width="1.85"/><path d="m36.5381115 18.9969063h-2.1346154" stroke-linecap="round" stroke-linejoin="round" stroke-width="1.85"/><path d="m3.17848456 18.9969063h-2.13461539" stroke-linecap="round" stroke-linejoin="round" stroke-width="1.85"/><path d="m19.5148887 7.99912294c4.3447949.33442038 8.186958 3.38625666 9.3190477 7.84319256 1.4204522 5.5903606-1.9604644 11.2728371-7.5501575 12.6926218-5.5896931 1.4204522-11.2721696-1.9591294-12.6919543-7.5488225" stroke-linecap="round" stroke-width="1.85"/></g><path d="m13.1110633 7.97029111 7-3.5v6.99999999z" fill="#a0a0a0"/><path d="m21.1795458 21.8447416c-.4441635.4239742-1.0302634.6827636-1.7601352.7769801v.8363242c0 .1566196-.0452729.2820377-.1358186.3762541-.0899339.0936047-.209234.140713-.3591239.140713-.1486662 0-.2685781-.0471083-.3585121-.140713-.0905457-.0942164-.1352067-.2196345-.1352067-.3762541v-.813076c-.4710824-.0391549-.9244228-.1352068-1.3606329-.2881556-.4349865-.1529489-.8051227-.3627947-1.1116321-.6295374-.1492781-.1101232-.2239171-.2667428-.2239171-.4710824 0-.1413248.0373195-.2612367.1119585-.3591239.0746391-.0984991.1664084-.1468309.2765315-.1468309.1101232 0 .2434946.050779.4001142.152337.7537319.5108492 1.5148053.765356 2.283832.765356.5805938 0 1.0308752-.1174647 1.3477852-.3523941.3181335-.236153.4765885-.5695815.4765885-1.001509 0-.2587894-.0838159-.4686352-.2526714-.6295374-.1682438-.1609022-.3805367-.2881556-.6356554-.3823721-.2551187-.0948283-.6062892-.1963863-1.0535116-.3065095-.5885471-.1486662-1.0675829-.2979443-1.4364955-.4472224-.3689126-.1486662-.684599-.3805367-.947671-.6943877s-.3939962-.7304836-.3939962-1.2480625c0-.6356553.2294233-1.1752588.6888816-1.6181987.4588465-.4441634 1.0651357-.708459 1.8182558-.7953339v-.8234766c0-.1578432.0458846-.2826494.1358185-.3768659.089934-.0948283.2098458-.1413247.3591239-.1413247.1486663 0 .2685782.0464964.3591239.1413247.0899339.0942165.1352067.2190227.1352067.3768659v.8234766c.400726.0397667.7830981.1352067 1.1477281.2881556.36463.1535606.6882698.3591238.9709192.6185251.1572314.125418.236153.2826494.236153.4710824 0 .1333714-.0397667.2514479-.1180765.3530059-.0783098.1021698-.1725263.1529488-.2826494.1529488-.1101232 0-.2434946-.050779-.4001142-.1529488-.337711-.2594012-.6595154-.451505-.9660248-.576923-.3052859-.1260298-.6662452-.188433-1.082266-.188433-.5420507 0-.9733664.1254181-1.2951707.376866-.3224162.2514479-.4827066.5922179-.4827066 1.0241454 0 .289991.0899339.5255322.2710254.7060118.1804796.1810914.4037849.319969.6711395.418468.2661309.0978873.630761.2018925 1.0945018.3120157.5726405.1407129 1.0357696.283873 1.3887755.4294803.3530059.1449955.6558446.36463.9066807.6595154.2508361.2936617.3768659.6925523.3768659 1.1942245 0 .6209723-.2214699 1.1428337-.6650215 1.5661961" fill="#a0a0a0" stroke="#a0a0a0" stroke-width=".5"/><path d="m18.7899942.76444481v1.13000011" stroke="#a0a0a0" stroke-linecap="round" stroke-linejoin="round" stroke-width="1.85"/><path d="m18.7899942 33.926691v2.1346153" stroke="#a0a0a0" stroke-linecap="round" stroke-linejoin="round" stroke-width="1.85"/></g></svg>