<svg height="37" viewBox="0 0 31 37" width="31" xmlns="http://www.w3.org/2000/svg"><g fill="none" fill-rule="evenodd" transform="translate(1.055625 -.031762)"><path d="m28.239615 22.2513388c0 7.339192-6.2295327 13.289017-13.913748 13.289017-7.68421541 0-13.91457131-5.949825-13.91457131-13.289017s6.2303559-19.11224985 13.91457131-19.11224985c7.6842153 0 13.913748 11.77305785 13.913748 19.11224985" fill="#fff"/><path d="m28.239615 23.8749285c0 6.442524-6.2295327 11.6654273-13.913748 11.6654273-7.68421541 0-13.91457131-5.2229033-13.91457131-11.6654273s6.2303559-16.77720487 13.91457131-16.77720487c7.6842153 0 13.913748 10.33468087 13.913748 16.77720487z" stroke="#a0a0a0" stroke-width="2"/><g transform="translate(4.9395 .550872)"><path d="m17.0211874 9.82943789 1.491729-6.87449708c.306249-1.40509279-.935212-2.63877527-2.2482957-2.23541064l-4.8695237 1.49315681c-1.261219.38763892-2.61875819.39078406-3.88162367.00786286l-5.01276917-1.5159591c-1.31143723-.39707435-2.54631221.83503556-2.24170971 2.23698321l1.49419872 6.88786394" fill="#fafbfc"/><path d="m17.0211874 9.82943789 1.491729-6.87449708c.306249-1.40509279-.935212-2.63877527-2.2482957-2.23541064l-4.8695237 1.49315681c-1.261219.38763892-2.61875819.39078406-3.88162367.00786286l-5.01276917-1.5159591c-1.31143723-.39707435-2.54631221.83503556-2.24170971 2.23698321l1.49419872 6.88786394" fill="#fff" stroke="#a0a0a0" stroke-width="2"/></g><path d="m21.1776943 12.6017245h-13.70464255c-1.31884647 0-2.39812721-1.0308207-2.39812721-2.2904506 0-1.25962996 1.07928074-2.28966441 2.39812721-2.28966441h13.70464255c1.3196697 0 2.3981272 1.03003445 2.3981272 2.28966441 0 1.2596299-1.0784575 2.2904506-2.3981272 2.2904506" fill="#f4f4f4"/><g stroke="#a0a0a0"><path d="m21.1776943 12.6017245h-13.70464255c-1.31884647 0-2.39812721-1.0308207-2.39812721-2.2904506 0-1.25962996 1.07928074-2.28966441 2.39812721-2.28966441h13.70464255c1.3196697 0 2.3981272 1.03003445 2.3981272 2.28966441 0 1.2596299-1.0784575 2.2904506-2.3981272 2.2904506z" stroke-width="2"/><path d="m16.9616147 27.738445c-.5807044.5303564-1.348559.8540135-2.3043338.9709714v1.0460011c0 .196401-.0593027.3530805-.1779081.470774-.1178353.1176936-.2741788.1765403-.4698007.1765403-.1948518 0-.3519655-.0588467-.4698007-.1765403-.1186054-.1176935-.177138-.274373-.177138-.470774v-1.0165777c-.6169022-.0485486-1.2099293-.1684488-1.7806216-.3604364-.5706923-.1912519-1.0551261-.45312-1.4563821-.7870753-.19562193-.1375543-.2934329-.3332198-.2934329-.5892031 0-.1765403.04929057-.3258639.14710153-.4487065.09781097-.1228427.21795667-.1838962.36197757-.1838962s.3180782.0639959.5237122.1905164c.9865815.6392229 1.9831751.9569954 2.990551.9569954.7601529 0 1.3493291-.1471169 1.7652183-.4406151.4158891-.2949694.6238337-.7120458.6238337-1.2527003 0-.3229216-.1101336-.5855252-.3304008-.7870754-.2210374-.2008145-.499067-.3604363-.8325485-.4781298-.3342516-.1176936-.7948103-.2449497-1.3801357-.3832395-.7701651-.1861029-1.3978496-.3729413-1.8807431-.5590442s-.8964721-.4759231-1.2407359-.8687252c-.3442638-.3920665-.5160106-.9128603-.5160106-1.5601746 0-.7951668.3003644-1.4696977.9018633-2.0243284.6007287-.5546306 1.3939987-.8856436 2.3813503-.9945101v-1.0298183c0-.1971366.0593027-.3538161.177138-.4715096.1178352-.1176935.2749489-.1765402.4698007-.1765402.1948517 0 .3519654.0588467.4705708.1765402.1178353.1176935.177138.274373.177138.4715096v1.0298183c.5244824.0500197 1.0250897.16992 1.502592.3604363.4782725.1919876.9018633.4494421 1.2723127.7730993.2048639.157415.308066.3538161.308066.5892031 0 .1677133-.051601.3148301-.154033.4420863-.1032021.1272561-.2264285.1905163-.3696792.1905163-.1447911 0-.3196185-.0632602-.5244824-.1905163-.4420748-.3243928-.8633551-.5649289-1.2646111-.7216084-.3997156-.157415-.8733671-.235387-1.4178738-.235387-.7085519 0-1.273853.1566795-1.6959035.470774-.4212803.3140946-.6315353.7407336-.6315353 1.2813881 0 .3626432.1178352.6568769.3550461.8827014.2364406.2258244.5283332.4001579.8787583.5230005.3488848.1228426.8263871.253041 1.4332772.3898597.7501407.1765403 1.3562606.3552873 1.8183597.5377123.4628692.1816893.8579638.4560623 1.1868243.8245901.3288605.3677922.4936758.8657829.4936758 1.493972 0 .7760416-.2903522 1.4277694-.8710567 1.9581258" fill="#a0a0a0" stroke-width=".5"/></g></g></svg>