<svg height="21" viewBox="0 0 21 21" width="21" xmlns="http://www.w3.org/2000/svg"><g fill="none" fill-rule="evenodd"><ellipse cx="10.40039" cy="10.255654" fill="#000" fill-rule="nonzero" rx="9.84375" ry="9.49375"/><ellipse cx="10.40039" cy="10.255654" fill="#fff" rx="9.84375" ry="9.49375" stroke="#cdcdcd"/><path d="m11.7515464 16.0206651h-2.67070677v-8.24544269h2.67070677zm-2.82873675-10.37157809c0-.36578857.13695795-.66552748.41087796-.89922573s.62948391-.35054562 1.06670239-.35054562c.4372185 0 .7927824.11684737 1.0667024.35054562s.410878.53343716.410878.89922573c0 .36578856-.136958.66552747-.410878.89922573-.27392.23369825-.6294839.35054562-1.0667024.35054562-.43721848 0-.79278238-.11684737-1.06670239-.35054562-.27392001-.23369826-.41087796-.53343717-.41087796-.89922573z" fill="#cdcdcd" fill-rule="nonzero"/></g></svg>