<svg height="19" viewBox="0 0 12 19" width="12" xmlns="http://www.w3.org/2000/svg"><path d="m11.6198245 5.03967237c0-2.24607543-1.79017326-4.0666994-3.9980844-4.0666994h-2.99847087c-2.20809598 0-3.99826923 1.82043596-3.99826923 4.0666994v10.30464893c0 2.0043032 1.59738536 3.6286517 3.56759255 3.6286517h3.8648149c1.97039205 0 3.56759255-1.6243485 3.56759255-3.6286517zm-4.84095379 8.39077533v1.7420386c0 .3679224-.29260136.6653436-.65396313.6653436-.36136176 0-.65414797-.2974212-.65414797-.6653436v-1.7420386c-.27522643-.2058636-.45581489-.5343054-.45581489-.908056 0-.6236069.49703416-1.1291478 1.10996286-1.1291478s1.10996286.5053529 1.10996286 1.1291478c0 .3737506-.1807733.7021924-.45599973.908056zm3.41380589-4.79803226c-.59592348-.45402797-1.33343419-.72663276-2.13545399-.72663276h-3.8648149c-.80405304 0-1.54359699.27410881-2.14025979.73058083v-3.59669114c0-1.44142131 1.15358505-2.61474991 2.57112131-2.61474991h2.99865571c1.41753625 0 2.57075166 1.1733286 2.57075166 2.61474991z" fill="#9e9e9e" transform="translate(-.117926 -.583608)"/></svg>