<svg height="108" viewBox="0 0 109 108" width="109" xmlns="http://www.w3.org/2000/svg" xmlns:xlink="http://www.w3.org/1999/xlink"><mask id="a" fill="#fff"><path d="m.01230543.0355733h6.30018645v5.79699881h-6.30018645z" fill="none"/></mask><g fill="none" fill-rule="evenodd" transform=""><path d="m9.20481703 72.1368293c-.33407254-1.5439372-.62155958-3.0957173-.83993782-4.6610825-.39310881-2.8200942-.50362694-5.6529333-.46753368-8.4976767.02769948-2.1708115.27223834-4.314873.6748601-6.4417081.38485493-2.0341204.83280311-4.0584372 1.59230057-5.9897592.6112072-1.554161 1.2094041-3.1128037 2.0510207-4.5736898.7315181-1.2691544 1.5019274-2.5090379 2.3371088-3.7081662.233487-.3351453.2270518-.5960628.0961088-.9594987-.6854922-1.9027513-1.3876321-3.8053626-1.7474456-5.8037696-.4384352-2.4345301-.6486995-4.8916087-.4929948-7.3661937.1301036-2.0680131.4364767-4.1081558 1.0615337-6.0939582.1095388-.3474699.2585285-.5502657.6154041-.6599267 1.9206373-.5908809 3.8763886-.9837277 5.8887979-.9940916 1.2775337-.0064424 2.5543679-.0532199 3.8351192.1093809 1.7421295.2212827 3.4134715.6679097 5.0610311 1.2576702 2.2577876.8083822 4.268658 2.0110117 6.0922072 3.5668534.5849068.4988665 1.1857617.9688822 1.6649068 1.5732081.1740311.219462.3584145.2226832.614285.1467748 1.0248808-.3043337 2.0518601-.6082473 3.1044404-.8036204 1.4603782-.2714214 2.9155803-.6256138 4.3896684-.7555824 1.8947564-.1669424 3.7801399-.4299608 5.6873471-.50811 1.6303523-.066945 3.2577669-.0556008 4.8861606-.0605026 1.9526736-.0060223 3.8916373.2295458 5.832.425339 2.5048446.2527945 4.938342.8446558 7.364285 1.4921178 1.8446736.492144 3.6200985 1.1705576 5.4100725 1.8229215 1.5997151.583178 3.0738032 1.420411 4.6263731 2.0950432.6577928.2858468 1.2696995.679534 1.895456 1.0365275 1.4956321.8530589 2.9546114 1.7684411 4.3493782 2.7763979 1.0541192.7616047 2.0929896 1.5451976 3.1056995 2.3660445.9939637.8057212 1.9788342 1.6279685 2.8951554 2.5102984 1.0194249.9813469 2.0307358 1.9814607 2.9588083 3.0591636 1.8245285 2.118712 3.4618757 4.3641715 4.7934093 6.8297932.3859741.7146872.7733472 1.4225118 1.0847565 2.1768338.6780776 1.6426741 1.8168346 3.0216295 2.6771966 4.5629057.600715 1.0763024 1.176669 2.1647893 1.706316 3.2747042.539441 1.1303626.977177 2.3090432 1.493534 3.4513102.355197.7855537.885824 1.4683089 1.39001 2.1643691.911145 1.2573901 1.596218 2.6251414 1.85013 4.1683783.166896 1.0152395.056798 2.0237566-.60813 2.8510458-.532865.6631479-.475228 1.4397382-.568119 2.1838364-.183684 1.4706898-.697243 2.8265367-1.595518 3.9676833-1.18772 1.5086439-2.709653 2.4727643-4.763332 2.2413979-.581689-.0655445-1.151487-.1438338-1.6860306-.4025105-.3076321.4082526-.4757876.8723861-.7204663 1.2926832-.1663368.2857068-.1005855.4876623.137658.6586663.2694404.1935523.4567617.4492879.6466011.7166479.3228808.4550301.7464868.7914358 1.2163988 1.1132761 1.185902.8121637 1.740591 2.0203953 1.855306 3.437305.125347 1.5472984-.317705 2.937178-1.13442 4.2412055-.804544 1.2841401-1.8821657 2.2912566-3.0507201 3.2276466-1.279772 1.0254634-2.6962228 1.8426689-4.1568808 2.5423704-2.0289171.9721034-4.113513 1.8356663-6.2785492 2.4848089-1.1130156.3337448-2.214.7180485-3.3523368.9487147-1.8187928.3684777-3.6445803.7064241-5.4754042 1.0087971-1.0972072.1810877-2.2095233.270161-3.3151243.4002696-.1866218.0219883-.3661088.0670851-.5303472.1621807-.1372383.2104987-.3553367.2925693-.5795906.3634358-4.8171917 1.5201281-9.7476995 2.4824281-14.7604664 3.0726091-3.5280466.415255-7.0682642.498866-10.6065233.37688-3.213-.110921-6.4050155-.50979-9.5669533-1.139185-2.5196736-.501528-5.007171-1.0988512-7.4118498-2.0140933-.2586684-.0984568-.5451761-.1448142-.7306787-.3836034-.6780778-.4132945-1.4441503-.6323364-2.1562228-.9747644-1.2778135-.6142697-2.598855-1.1415668-3.7797202-1.9400053-.3414871-.2310864-.6355493-.2250641-.9566114.005182-1.3141866.9425523-2.810798 1.5384751-4.275513 2.1771138-2.5228912 1.0995511-5.1639948 1.8565341-7.8898756 2.2154883-2.91655963.3841633-5.83871507.3533523-8.73191196-.3106362-.5668601-.1301086-1.12406736-.2894882-1.68798964-.4243586-.27-.0647042-.38373575-.190051-.45046632-.4456466-.24062176-.9233652-.40807772-1.8601754-.5439171-2.8030078-.25265285-1.7548561-.32679792-3.520216-.2775544-5.2906178.07148704-2.5769634.5902228-5.0612121 1.46513471-7.4884595.60449223-1.677407 1.42764249-3.2331086 2.42076684-4.692034.73011917-1.0725209 1.56460104-2.0752958 2.52191192-2.9717709.56140414-.5257566 1.13945596-1.0247631 1.76815026-1.4601859.29672021-.2054568.37520207-.4431257.31350777-.7667867-.04700518-.1641413-.09932642-.3287028.0348342-.4792591.43102072.3739398.88554402.1617604 1.33712952.0516793.1573834.0338927.2518135.122966.2575492.2910288-.0716269.3740798-.3626114.5925615-.6123264.8286898-1.7390518 1.6443547-3.20432642 3.4941662-4.3927461 5.5805262-1.35769431 2.3836911-2.14069431 4.959674-2.68908809 7.618568-.46319689 2.2453194-.64590155 4.5218704-.57665285 6.8146676.03175648 1.0484319.14115544 2.0909816.28650777 3.1305903.06994819.4994267.29518135.8223874.80146633.9218246 2.58458549.5076898 5.16623316.952216 7.82804144.6876571 2.208544-.2194621 4.3965233-.5099307 6.52057-1.1685969 3.0151865-.9352696 5.9282487-2.1027461 8.5701917-3.8695065.213202-.1424333.4233264-.2934097.6626891-.3879451.1881606-.0742277.4349378-.2225432.5644818.0075629.1149949.2046164-.0956891.385284-.2504145.5225353-.314487.2787042-.6730414.5006872-1.0120103.7473194-.3602332.2618979-.3301555.4425654.0530207.6460615.927513.4927042 1.8768497.9368102 2.8503886 1.3285366 4.6823316 1.8851047 9.5619171 2.9706506 14.5669896 3.4760995 1.2187772.123106 2.4578394.209658 3.6931244.180527 1.2565492-.004201 2.5247098.180668 3.7615337.090614 1.6497979-.120165 3.3015544-.092714 4.9499533-.182628 2.1937151-.119885 4.3668653-.3491504 6.523228-.7152473 3.8372176-.6513835 7.6312073-1.4716701 11.3472746-2.6855039 3.1292021-1.0221021 6.0710829-2.3786492 8.8165493-4.1687984 1.6324507-1.064538 3.1478082-2.2912566 4.6420414-3.6555066-1.000399.0469176-1.9065078.3880851-2.8387772.1361309-.1060414-.0656846-.1966943-.1382317-.1266062-.2829058.2532124-.2448115.5864456-.2453717.9038705-.307695 2.2541502-.4429856 4.5627202-.543123 6.8002228-1.0884869.5640621-.1376715 1.1223886-.2941099 1.6706424-.4826204 1.3132073-.4016702 2.6252954-.7814922 3.7562177-1.6341309 2.5592642-1.9292212 2.1511862-3.5874411.8209119-5.5033573-.3684871-.5307985-.7960104-1.0349869-1.2871866-1.4705498-1.0199844-.8342919-1.8708342-1.8549934-2.9245336-2.6530117-.1961348-.1484555-.44557-.2717016-.4350778-.5820576.0346943-.1099411.1127565-.1689032.2225752-.1908914.6675855.0315118 1.1535855.4586715 1.674.7947971.3508601.2267448.7158497.4322016 1.0581761.6684699.3788394.2611977.5865855.2116191.8095803-.2043364.9054094-1.687911 1.5208135-3.488144 2.1244667-5.2959398.145632-.4359829-.031477-.5819175-.4307413-.6550248-.8445544-.1548979-1.6872901-.3225406-2.5255492-.5089503-.2595078-.0577016-.5730155-.0551806-.6563938-.4088128.1156943-.1985943.3167254-.2154005.5123006-.246072 1.4538031.0049018 2.9101247-.1011178 4.3591707.1088207.204529.0296911.414233.0491583.616244-.0246492 1.040409-.085432 2.080399-.1446741 3.099824-.4298207 2.18616-.6114686 3.099124-2.3090432 2.373062-4.4708914-.388912-1.158233-1.044327-2.180055-1.626156-3.2392709-1.046564-1.6842697-2.339207-3.1758273-3.718585-4.5841937-.813358-.8303705-1.513539-1.7591977-2.3512385-2.5658993-.2379637-.2292657-.506285-.492284-.502228-.8835903.0435078-.1103612.126886-.1637212.2431399-.1701636.5092226.1239463.7338966.6102081 1.1924766.9379306-.664508-2.3264096-1.4164507-4.5327945-2.4813419-6.6442238-1.2373834-2.4535772-2.7489637-4.7061793-4.4933316-6.8152277-1.9842901-2.3992369-4.2534093-4.499322-6.6748756-6.4475903-2.2398809-1.8023338-4.619798-3.3959896-7.1065959-4.8260642-2.6524352-1.5254502-5.4338549-2.8039882-8.3182383-3.8071832-4.1943731-1.4587854-8.523886-2.3856519-12.9500674-2.7817199-2.0608135-.1843089-4.1333782-.377161-6.2017461-.2879477-1.3211813.0570013-2.6503368.0341728-3.9667617.2047566-2.9985388.2310864-5.9825285.6390589-8.91 1.2848403-4.3190207.9526361-8.4072124 2.5736021-12.2823419 4.7392317-3.630171 2.0287984-6.9076632 4.5007225-9.7317513 7.5496623-2.0659897 2.2306138-3.7871347 4.7099607-5.2062435 7.4143717-2.2605855 4.3078704-3.35009849 8.9192343-3.8123161 13.7217696-.2199171 2.2838338-.18494301 4.5727095-.0811399 6.8496807.10352332 2.276411.38219689 4.5517015.84973057 6.7929594.09107254.4366832.13248187.8763076.02741969 1.3185929-.04770466.1100812-.10855959.203216-.24971503.1894909" fill="#8a3e46"/><path d="m7.40138549.40622186c.29084456-.0264699.54559586.09887696.80538342.19691361 1.63245078.61693063 3.29749739 1.13414398 4.99975649 1.50920419 2.6051502.57393455 5.2289067 1.06509817 7.8844197 1.33329843.9212176.09299476 1.8529274.13949215 2.7772228.21175916 2.371943.18542932 4.743886.15279712 7.1128912.06890576 1.4792642-.05237958 2.9592279-.18500916 4.436114-.34284817 1.7554196-.18767015 3.49643-.45264921 5.2357616-.74087696 3.0034352-.49788613 5.9688187-1.15725262 8.8671917-2.10274607.5034871-.16428142 1.0246011-.27450262 1.5374612-.40965314.222715.18809031.494114.23402748.7709689.264839 2.2756943.25321466 4.4621347.84185471 6.5769482 1.7181623.4114352.17072383.8323834.32436126 1.1646373.61539006.781601.68471596.9487772 1.32853665.1414352 2.11717146-.5362228.52365576-1.221715.74409817-1.8823057 1.00697644-1.6246166.64620157-3.3177824 1.10543325-5.0348705 1.36467016-1.8306839.27618325-3.6578704.59788351-5.506601.77140838-1.3832953.12982853-2.7622539.30573429-4.1491865.4165157-1.4574404.11638351-2.9169793.18809032-4.3734404.29228927-1.2091244.08669241-2.4190881.02913089-3.6209379.12590707-2.930829.23584817-5.8641761.10784031-8.7940259.08193063-1.3431451-.01190445-2.6962228-.0326322-4.0388083-.12604712-1.4812228-.10307854-2.9679015-.13697121-4.4438083-.27954451-1.9584093-.18921073-3.9186373-.36259555-5.8720103-.62477356-1.4696114-.19733377-2.93068914-.45278926-4.40281867-.63765837-1.33237306-.16708246-2.63550777-.54102226-3.91989637-.94493325-.68633161-.21582068-1.35937306-.47687827-2.02765803-.74465838-.58756477-.23556806-1.12938342-.54214267-1.4659741-1.12195942-.25125388-.43304189-.24104145-.83779319.05693783-1.23736257.32987565-.44228534.76607254-.73849607 1.26955958-.95263612 1.65203627-.70222252 3.36478757-1.20066885 5.11824871-1.57390838.26174611-.05560078.55832642-.05181937.77740414-.2557356" fill="#000" opacity=".15" transform="translate(24.304882 98.071388)"/><g fill="#b1b1b1"><path d="m48.375116 9.27533763c.6611503-.1396322 1.2759948-.40811256 1.8957357-.66720942.2967203-.12408639.610228-.23738875.9305907-.04201571.27.16428141.4894974.36301571.4876788.71062565-.0018187.35377226-.1372384.65950655-.4666943.79451705-.7518031.307835-1.5057047.6208521-2.2819897.8551597-.8185336.2470523-1.6425233.4676348-2.4280414.8124437-.2543316.1116217-.5128601.2125994-.8045441.2067173-.6163834-.0123247-.9819326-.5345799-.7373937-1.093949.1110777-.2543351.2453782-.502928.4016425-.7319136.9831917-1.43931808 1.9784145-2.87065316 2.9616062-4.30997122.1533264-.22436387.2658031-.47645811.422487-.76230497-.7126321-.0205877-1.3417461.14691492-1.9798135.22380366-.5286683.06372382-1.0538393.16960341-1.5840466.20657723-.5590259.0387945-.9294715-.35321204-.915342-.90207723.0111918-.44382591.2425804-.67323167.826228-.77462958.5700777-.09887696 1.1433731-.17898691 1.7163886-.25895681 1.0555182-.14705497 2.111456-.29060863 3.1679534-.42954057.2069067-.02717016.4177306-.04187566.6261762-.03711388.7631347.01722644 1.1117564.64382069.6917875 1.30108639-.6765388 1.05907592-1.3690259 2.10918848-2.0967668 3.13339136-.3648498.51343194-.6853523 1.04983246-1.0132694 1.5841322-.0439275.16358115.005316.2345877.1796269.18122775"/><path d="m56.7501802 4.62132781c.0439275.00784294.0863161.002661.1271658-.01568586.0644923-.01722644.113456-.06652487.1765493-.08627225.2855285-.09285471.5651813-.22128272.8579844-.2704411.4774663-.08025.777684.13417016.893798.57337435.126886.47897905-.0699482.89927617-.5065648 1.06481806-1.1485492.43528272-2.2982176.86734424-3.4473264 1.30108639-.0218239.00826308-.0416892.0208678-.0630933.0299712-.3719845.157839-.7329171.1546178-1.0429275-.12618717-.2460777-.22324346-.295601-.81468456-.0677098-1.18204189.379399-.61174869.7997876-1.19800785 1.1991917-1.79743194.3830363-.57449476.7611762-1.15221073 1.1982124-1.81479842-.571057-.04369634-1.0251606.11848429-1.4851399.1637212-.1811658.01778665-.3662487.05181937-.5499326.06036257-.5518912.02506937-.8985544-.23612828-.9438808-.69830105-.0500829-.50993063.236145-.88148953.7809015-.97056283.615684-.1008377 1.233886-.18977094 1.8537669-.26119764.6666062-.07688875 1.3361502-.13304974 2.0052746-.18753011.3312746-.02717015.7210259-.03067146.8702953.29635079.1601814.35111125.1730518.76650654-.0843575 1.1235-.6242176.86608377-1.2386425 1.73860994-1.7943109 2.65105104.0165078.0473377-.1238083.11862435.0221036.14621466"/><path d="m3.70123834 3.99862081c.1506684.21329974.35421762.13276964.53048705.16288089.4626373.07884948.80524352.50012696.7673316.93106806-.03511398.40082985-.40360103.73569503-.8677772.7398966-.29811917.002661-.59847668-.04537696-.8949171-.09005366-.75879792-.11414267-1.52668911-.11344241-2.28744559-.19145157-.62295855-.06386388-.93506736-.40489137-.93660622-.91972383-.00111917-.36427617.16997409-.58023691.49033679-.76300523.92401554-.52715707 1.82578756-1.0938089 2.83527979-1.70499738-.48516062-.1837487-.87729015-.32758246-1.26592228-.48023953-.56490155-.22184293-.80328497-.64704189-.64730052-1.14044634.12954404-.41021335.7096943-.6184712 1.23654404-.44634686.99102591.32352095 1.97911399.65712566 2.97559586.96342016.5475544.16820288.70731606.53654058.67066321.99493194-.02168394.27002094-.12366839.48976309-.36778756.63219633-.74005182.43150131-1.47828498.86594372-2.23848187 1.31187042" mask="url(#a)" transform="translate(60.957732 .174792)"/><path d="m71.1679844 4.69642389c-.3746425-.22954581-.6016943-.4844411-.9111451-.65362435-.3781399-.20671728-.5071243-.75474214-.2997979-1.08246466.2056477-.32562173.6470207-.39732853 1.0476839-.14201309.7821606.49830629 1.4921347 1.10221205 2.2941606 1.57418848.3116892.18346859.4289223.49130367.3288964.84549608-.0993264.35153141-.3479223.49508508-.7155699.55278665-.66157.10391885-1.3127876.27310209-1.9694612.41511518.051342.24845288.2774145.22618456.4321399.30979581.3554767.19243194.5324456.55824869.4230467.85922121-.132342.36427617-.5169171.60124476-.8995337.47043586-.9408031-.3212801-1.8709741-.67771335-2.7625337-1.12111911-.2648238-.13164921-.3856943-.38766492-.3586943-.70376309.0281192-.32912304.2256529-.49592539.5157979-.57295419.9184197-.24411125 1.8386581-.48093979 2.8750104-.75110078"/><path d="m77.697074 11.7806922c.1257669.1001374.261886.189771.3752021.302373.2779741.2763233.3227409.6728116.1207306.9456336-.2095648.2829057-.592741.3676374-.936886.1602199-.5156581-.3107762-1.0170467-.6457815-1.5153576-.9838678-.2291502-.1553181-.4350777-.3448089-.6545751-.5148325-.275316-.2131597-.5836477-.4058717-.4570414-.8377932.1077202-.3676374.3200829-.4927042.8746321-.4959254.7676114-.0042016 1.5352228.0011204 2.3026943-.0033613.1078601-.0007002.2301295.0429961.3609326-.0970562-.0678497-.26287831-.3217616-.40363093-.4952331-.59886391-.2203368-.24803272-.4066788-.49704581-.3830363-.86076178.037772-.58415838.5086632-.85193848 1.0198446-.55502749.1180725.06862566.2333471.16218063.314487.27072121.515658.6898979 1.1598808 1.26299214 1.717228 1.91437567.1870414.2186217.3316943.4411649.2280311.7403167-.1270259.3666571-.4069586.4613325-.7699897.4534896-.6895492-.0145655-1.3797979-.0042016-2.0697668-.0042016-.010772.0549005-.0212642.109661-.0318964.1645615"/><path d="m84.9888927 16.7561082c-.0016788.4114738-.3072125.7331741-.685772.7219699-.3055337-.0091034-.6510778-.3752003-.6649275-.7047435-.0156684-.3698783.2653834-.6610471.6482798-.6719712.4756477-.013445.7040984.1994346.7024197.6547448"/><path d="m85.822815 19.3122037c.0064352-.4532094.2386632-.6697303.6969637-.6498429.3809378.0166662.7292798.3667971.7040984.7079647-.0211243.2855667-.4140932.634157-.7273212.6452212-.3889119.0137251-.6794767-.2896283-.6737409-.703343"/><path d="m82.8907269 14.2638905c.0013989.3562932-.3039948.7104856-.6149845.7134267-.3384093.0030812-.7375337-.3908861-.7206062-.7113259.0190259-.3581139.3224611-.6453613.6822746-.6457814.3841555-.0005602.6516373.2631584.6533161.6436806"/><path d="m89.2441207 22.4183829c.3465233.0014005.6797564.3267422.6815751.6652487.0019585.328983-.3504404.7075445-.6583523.7075445-.3544975-.00014-.6391866-.3025131-.6450622-.6854162-.0061555-.4047513.2508342-.6890576.6218394-.687377"/></g><path d="m9.57874305 72.8461104c-.14112.125627-.09842.3044738-.13258.4610524-.17122001-.3714189-.16226001-.7799516-.24136001-1.1702775.04816-.0572814.09632-.1145629.14448-.1717042.37198001.216661.43582001.513572.22946001.8809293" fill="#974b56"/><path d="m48.3753967 9.27526988c-.0175.01372-.03402.02898-.05278.04088-.09464.0595-.23324.14966-.2975.05516-.09772-.14392.07616-.20412.17052-.2772.05992.06034.11984.12068.17976.18116" fill="#afafaf"/><path d="m56.7502824 4.62127316c-.0301.06566-.08274.09744-.12082.02296-.0441-.08582001-.0007-.15120001.0987-.16912001.00742.04886.0147.09744.02212.14616001" fill="#a0a0a0"/><path d="m57.0540121 4.51943637c-.03206.08344-.08638.1218-.17668.0861.03304-.0819.09142-.11186.17668-.0861" fill="#a0a0a0"/><path d="m9.57846626 72.8461104c-.04308809-.302233-.07218653-.6082474-.22943006-.8807893.03637306-.8709856-.16381865-1.714661-.33309326-2.5559555-.17948705-.8915733-.2544715-1.7936505-.36960622-2.6915261-.36582901-2.8504856-.38625388-5.7146964-.27643523-8.5800275.06253368-1.6272683.31532642-3.2357697.57917098-4.84161.4012228-2.4433534 1.08181863-4.8026754 1.98484973-7.1089175.8360207-2.1348181 1.9093057-4.127483 3.1570415-6.048021.6611502-1.0179005 1.3772798-1.9923848 2.1346787-2.9256937.8918394-1.0991309 1.8646788-2.1387395 2.8989327-3.116445 1.3374093-1.2642526 2.7484041-2.4434935 4.2508912-3.4955668 1.366088-.9564175 2.791772-1.8276832 4.2546684-2.6440484 1.9778549-1.1038926 4.0399274-2.014373 6.1427098-2.8179934 2.126285-.8127239 4.2983161-1.5671859 6.5478497-1.9274006 1.7849379-.2857068 3.5603627-.6644083 5.3686632-.8128638.9708809-.0798299 1.9316892-.2724019 2.9104042-.2750629 2.188399-.1289882 4.3653264-.0056021 6.536658.2810851 4.4814404.5913011 8.812772 1.7356689 13.0002902 3.4472487 5.3998601 2.206945 10.2517461 5.2782932 14.6745699 9.0756728 2.975456 2.554555 5.5909586 5.4207264 7.7308135 8.6962709 2.093829 3.2048181 3.5709948 6.6867998 4.4249223 10.4413233.711373 3.1272291.832943 6.2865301.6945855 9.4595563-.0822591 1.885945-.4678135 3.7434594-.8915596 5.5887893-.8344819 3.6329581-2.3390674 6.9809097-4.2897824 10.1299869-1.5387202 2.4836885-3.3625492 4.7585589-5.3853109 6.8677474-1.7440881 1.8184398-3.5490311 3.5732958-5.5548653 5.1072892-2.8684352 2.1932199-5.961544 3.9786074-9.3750155 5.1879595-5.2524093 1.8610157-10.6602435 3.0181282-16.1874093 3.6730127-1.8530674.219602-3.7061347.280805-5.5663368.282346-.1583627.00014-.3273575-.047058-.4728498.063164-7.6819896-.188511-15.0097616-1.8233421-21.9322538-5.3612047.5563678-.7278521 1.4356165-1.0149594 2.1020829-1.7642395-.4339586.0542003-.6568135.2186217-.8767306.371839-1.6899482 1.1764398-3.5301451 2.0786571-5.4214042 2.8591688-1.9557513.8069817-3.9620051 1.5142461-6.0471606 1.8904267-1.2505337.2256244-2.5135181.4383639-3.7952487.5068495-.6722021.0359935-1.3434249.0792697-2.01716579.0858521-1.51619689.0147055-3.00987047-.1857094-4.49934715-.4477474-.59386011-.104479-1.18520207-.2076976-1.77150777-.3550327-.46151814-.1159633-.70102073-.3389267-.76271503-.8268691-.18997927-1.5019215-.34428497-3.0059437-.32120207-4.52075.04098964-2.6866243.41283419-5.3261911 1.11301554-7.9236021.61610363-2.2860746 1.5236114-4.4400798 2.78141969-6.4433887 1.14337306-1.8209608 2.5224715-3.4472487 4.10623838-4.8995917.1541658-.1414528.3301554-.2600772.422487-.457551.0699482-.3788416-.1548653-.2100785-.3114093-.1680628-.2844093.1513966-.5688187.3025131-.84581349.4497081-.19725388-.1659621-.20774611-.3861244-.28329015-.5753351" fill="#f5a1c5"/><path d="m47.9384854 100.425627c.0798809-.042156.1589223-.119045.2396425-.120866.9047099-.022128 1.8059223-.061343 2.7103523-.130809 1.3620311-.104479 2.716228-.2541946 4.0715441-.4159551 2.0234611-.2411701 4.0245388-.6027853 6.0215596-1.0001139 1.8880414-.3757604 3.7625129-.8023599 5.5934767-1.3998232 1.3888911-.4534896 2.8032435-.818326 4.1637357-1.3726532 1.6567928-.6750523 3.2937202-1.3732133 4.824886-2.308483 1.7618549-1.0760222 3.4337565-2.2656269 5.0397669-3.5710549 1.7794818-1.4464608 3.3460414-3.1013194 4.938202-4.7305485 1.0187254-1.0425497 1.9135026-2.2082055 2.7982073-3.3734411 1.2671813-1.6688639 2.3687254-3.4357644 3.3598912-5.2855759 1.0945492-2.0418233 1.9663834-4.1721597 2.577171-6.3897487.4282228-1.554161.7338963-3.1494974.9766165-4.7574385.3434456-2.2757107.2670622-4.552822.2210363-6.8271322-.0274197-1.3578076-.2961606-2.7123939-.5786114-4.0514345-.3938083-1.8668979-.8760311-3.7064856-1.6386062-5.4606414-.6295337-1.4481413-1.2951606-2.873034-2.103342-4.2402251-.8308445-1.4055655-1.7529015-2.7388639-2.7657513-4.0073181-.6459015-.8086623-1.3022953-1.6107421-2.0353523-2.3583416-.7302591-.7450785-1.4270829-1.5341335-2.187-2.2507814-1.0107513-.9529162-2.0652902-1.861856-3.1626373-2.7164555-.6583523-.5127317-1.3329327-1.0043155-1.9986995-1.5073835-1.4088964-1.0648181-2.909285-1.9876231-4.4155492-2.9058063-1.2920829-.7876544-2.6359275-1.4730707-3.9972591-2.1216531-1.5078031-.7184686-3.0582746-1.3467435-4.6290311-1.9136754-1.898114-.6854163-3.8388963-1.2443652-5.7917098-1.7442121-1.1388964-.291589-2.319342-.4216976-3.4818808-.6194515-1.1174923-.1901911-2.2433783-.3097959-3.3694042-.4389241-1.5706166-.1801074-3.1419326-.2644189-4.7198238-.2815053.4405337-.2256243.9126839-.0956557 1.3679067-.1030785.9995596-.0162461 1.9903057-.1831885 2.9922435-.1480353 2.5517099.0897735 5.1020208.1690432 7.6376425.5212748 2.3242384.3226807 4.6356062.7005419 6.9078031 1.2925432 1.0343938.2696008 2.0382902.652644 3.0682073.9235053 1.9017513.4998468 3.6540933 1.36425 5.4600155 2.0958835.8390985.3400471 1.6229379.8142644 2.4425907 1.2048704 1.4521244.6919987 2.7989067 1.564805 4.1623368 2.4079201 1.4844404.9177631 2.8902591 1.9491087 4.2576062 3.0340943 1.4020415 1.112716 2.7383316 2.2950379 4.0439845 3.5234372 1.7894145 1.6838494 3.3393264 3.5627918 4.8187305 5.5064384.5902228.7753299 1.1107772 1.610322 1.5988757 2.455538 1.5791502 2.7341021 2.7958295 5.6225419 3.5791085 8.6874476.039591.1546178.056518.3151178.099886.5637108-.649119-.3207199-.956891-.9265864-1.4747873-1.2775576-.2341865-.0789895-.4020621-.2583966-.5986165-.3948076-.0523213-.0690458-.1329016-.1127422-.172912-.1929922-.0081139.0710066.0681296.0808103.0955493.1308089.1871813.1957932.4627772.3096558.5265699.6074071.3128083.3992893.6661866.7663665.9882276 1.1526309.830006.9957723 1.766332 1.8925275 2.597037 2.8852186.133461.1593796.268461.3204398.420388.4617526 1.042368.9695825 1.815575 2.1465825 2.573534 3.335627-2.330814 1.4127081-3.425922 3.6241348-3.927031 6.1887735-.143534.7344346-.275736 1.5159267.173611 2.2264123-.293083.2225432-.643103.1456545-.941642.0953757-.949197-.1599398-1.8999329-.0586819-2.84885-.0907539-.464316-.0156859-.928772-.0191872-1.393228-.0281506-.1650777-.0163861-.4047202-.2525144-.429202.1459346 1.1451917.2865471 2.3064715.492144 3.46901.6897578.464736.0788495.524052.1151231.396746.5086702-.6930462 2.142661-1.4065177 4.2784594-2.5703156 6.2267278-.0222435.0371138-.0693886.0592421-.105342.0879528-1.1390363-.5638508-2.0796995-1.4708298-3.2930207-1.9055523-.1811658-.0780092-.197114.0102238-.1561244.1557382 1.0805596.7613246 1.9253938 1.7902893 2.9546114 2.6105759.1594819.1270275.2811917.3015327.4203886.4541898-.0268601.2259045-.1894196.3666571-.3291761.5202945-1.5860052 1.7416911-2.4588187 3.8113848-2.8038031 6.1218285-.0691088.4628731-.0612746.928127.0172072 1.3907199.0467254.2757631.1155544.5543273-.101285.7964778-.8985544.4567107-1.8807668.6495628-2.8545854.8152447-2.2116218.3764608-4.4471659.6026453-6.6552902 1.008377-.2122228.2184817-.5556684.0655445-.8690363.3361257.3876529-.2857068.7214456-.1441139 1.0346736-.1747854 1.0697876.007843 2.120829-.1941125 3.2699378-.3428481-.3070725.5862591-.800487.8662238-1.2008704 1.2071112-1.2554301 1.0684594-2.5630415 2.0751558-3.9410208 2.9840956-2.201829 1.4523429-4.5383782 2.650911-7.0218186 3.5308599-2.2310674.7905956-4.4838187 1.5414162-6.8009223 2.0344005-2.3811762.5065694-4.7588549 1.0370877-7.1758446 1.3739136-1.2859274.179127-2.5766114.3159584-3.8618393.4978864-.4112954.058262-.8392384-.013165-1.2558498.020027-1.5306062.121846-3.0677875.099577-4.5958756.192292-1.5604042.094676-3.1051399-.112042-4.65757-.049858" fill="#ee8cb7"/><path d="m15.2377082 37.270081c-.3855544-.5417226-.5199948-1.1192985-.6548549-1.6725053-.3301554-1.3551466-.7350155-2.6925065-.9622073-4.0735628-.1887202-1.1482893-.3803782-2.2937775-.3963264-3.4608338-.0054559-.3955078-.12143-.7768704-.1093989-1.1791008.0823989-2.7562303.4044404-5.4701649 1.2943212-8.0982473.1126166-.3327644.2778342-.4857016.6042124-.5655315.8600829-.2103586 1.7369534-.2963507 2.6107462-.4134345 1.4830414-.1987343 2.9722383-.216521 4.4600362-.1218456 2.4081762.1533574 4.7185648.6921388 6.9301866 1.7017762 1.3028549.5946623 2.4916943 1.3585079 3.652974 2.1671702.7404715.5156727 1.3918291 1.1620144 2.0686477 1.7660602.2841295.2533547.2449586.3893455-.1145751.5348599-.7334767.296911-1.4683523.5896204-2.2042073.879949-.3253989.128428-.6284145.1592395-.8634404-.1848691-.6528964-.9562775-1.6407046-1.4923979-2.6069689-2.049106-1.354057-.7800917-2.8554249-1.0824647-4.3724611-1.3468836-1.755-.3061544-3.5234301-.2816452-5.2897617-.2406099-.8553264.0200275-1.7070155.1788469-2.5610829.2680602-.2947617.0308115-.3759016.197894-.3890518.4721165-.0279793.5852788.1141554 1.1543115.120171 1.73889.0218238 2.1463024.3670881 4.2603927.7354352 6.3674804.1278653.7314935.3620518 1.4445.5528705 2.1646492.1487098.5604896.2028497 1.1484294.4678134 1.6753063.0916322.1824882.0198653.3032134-.1005854.433322-.3161658.3414476-.5928809.7268717-.9422021 1.0286846-.7283005.6292552-1.1579223 1.5143861-1.9302902 2.2082055" fill="#f5a1c5"/><path d="m100.765356 80.1349952c.731519.6861165 1.117772 1.4824542 1.311529 2.3932147.259368 1.2192958-.022244 2.3465772-.532865 3.4452879-.778524 1.6750262-2.0489227 2.9109883-3.5308449 3.9497566-.6852125.4802395-1.4115544.9019372-2.1097772 1.36425-.704798.4665144-1.5136788.7111858-2.2635234 1.0826047-1.1888393.5892003-2.4490259 1.0128586-3.7199844 1.3954817-1.3348912.4020903-2.6570518.8576806-4.0097099 1.1872238-1.9861088.4837408-3.9477357 1.0582356-5.9353834 1.5330131-.0565181.0135851-.1222694-.0128848-.2652435-.0309516.8333627-.4670746 1.5897824-.920144 2.3744611-1.3176126.3561762-.1803874.6814353-.4002696 1.0064146-.6193115 1.1360984-.7658063 2.2590466-1.5467382 3.3460414-2.3874725.9200984-.711606 1.7270207-1.5471584 2.6580311-2.2430785.4412332-.3298233.7888756-.7884948 1.1626787-1.2033299.2529327-.2808049.5678394-.4016701.9262539-.4165157 1.9077669-.0778691 3.7010985-.6434005 5.4712073-1.2945039.6968238-.2562958 1.3970052-.5159529 2.014228-.9508154.8065026-.5679123 1.5252906-1.2244778 1.9875076-2.1063875.508104-.9694424.615964-1.9919646.257549-3.044178-.06743-.198034-.137798-.3950877-.203409-.5936819-.005596-.0169464.015249-.0424359.054839-.1429935" fill="#ee8cb7"/><path d="m17.7005139 27.2035518c-.2825906-.0378142-.3642901-.2162409-.3984248-.4827605-.1808861-1.4145288-.1495493-2.8350798-.1473109-4.2549306.0008394-.5630105.0586166-.6833155.6119067-.7058639.6745803-.0275903 1.3354508-.1774463 2.0108705-.1714241.6990622.0061623 1.3996632-.0273102 2.0971865.0067225 2.215399.1082605 4.3574922.4896231 6.401658 1.4433796.9865493.4603521 1.7547202 1.1185982 2.4879171 1.8660576.3027358.3085353.3020363.3813626-.0857564.5411623-.7122125.2939699-1.3589534.7104856-2.052 1.0384882-.5658809.2676401-1.1240674.5522265-1.6853316.82911-.2672021-.0229686-.4645959-.1787068-.6740208-.328843-.8723938-.6257539-1.8001865-1.1425471-2.8551451-1.3992631-1.4077772-.3427081-2.7058756.0544804-3.9796321.5941021-.6212798.2628783-1.1644974.6653888-1.7319171 1.0240629" fill="#c06589"/><path d="m17.7005139 27.2035518c.0281192-.2291257.1730518-.3515314.3606529-.4751977 1.2431191-.8193063 2.6037513-1.3447827 4.0778394-1.4715301.854487-.0736675 1.6984818.1820681 2.4813419.5540471.8378394.3978888 1.6496581.8433953 2.3208809 1.5026218-.549513.3868246-1.1270052.7233704-1.7126114 1.0547343-.7038187.3983089-1.340627.9142617-2.014228 1.3677513-.9791347.6593665-1.8685959 1.4351165-2.8022643 2.1533049-.292943.2253443-.5447565.5046087-.814057.7604843-.2469171.2348678-.4920155.4716964-.8176943.7842932-.6901088-2.1037264-.939544-4.1571741-1.0798601-6.2305091" fill="#e582ac"/><path d="m102.238367 69.2129562c-.25629-.008123-.439134-.069606-.444031-.393267-.015109-.9967526-.003637-1.9837016.331834-2.9444607.274897-.7873744.522793-1.5849725.947239-2.3073626.564622-.9606191 1.248855-1.8232016 2.153285-2.4925118.227891-.168623.468792-.2991518.765093-.2775837.900093 1.377695 1.802425 2.7643534 1.967363 4.4557657.176549 1.8104568-.66185 2.8518861-2.505265 3.5129332-1.027119.3681977-2.112715.5209948-3.215518.4464869" fill="#f5a1c5"/><path d="m94.5243973 86.9927709c.0664508-.425339-.1412953-.8166453-.1456321-1.2370825-.0149689-1.4414188.3490415-2.7947447.9223368-4.0997526.1958549-.4463469.4283627-.8767278.6499586-1.3115903.4370362-.8576806 1.0585958-1.5650851 1.7903937-2.1808953.9219171.797178 1.6356684 1.7398704 2.1520259 2.8553874.6924868 1.4957592.1913778 2.6518914-.7348756 3.6193731-1.2447979 1.3006662-2.874171 1.9928049-4.6342073 2.3545602" fill="#f5a1c5"/><path d="m106.761637 69.356706c.156963.486962-.002518.896335-.071767 1.2989856-.397586 2.3076426-1.475907 4.1407879-3.6997 5.1336191-1.039849.4641335-2.083896.3383665-3.1237457-.0151257-.2203368-.0747879-.2813316-.2057369-.1810259-.4261793.153886-.3382264.2863679-.6862566.4370366-1.0260236.491176-1.107534.844554-2.2589044 1.146031-3.4311426.192357-.7478796.221036-.7348547.970881-.7057239 1.026279.0397749 2.042207-.0572814 3.034911-.3176387.490617-.1285681.962767-.3280026 1.487379-.5107709" fill="#ee8cb7"/><path d="m102.622117 55.7675239c-.642404-.1600799-.599736-.692839-.653176-1.1740589.346523.3149777.552591.7100654.678637 1.1512304z" fill="#df80a6"/><path d="m85.180159 88.9776557c-.3398083.22064-.7029793.04872-1.0559378.0847.2620259-.23618.5679793-.2737.8903005-.24584z" fill="#a15060"/><path d="m99.4126984 52.9626533c-.2374042-.1410327-.4072384-.3540523-.5893834-.5540471.0653316-.0794097.1404559-.0903338.2255129-.0324921.248456.0542002.3964663.2266047.513.436123-.0496632.0501388-.0994663.1002775-.1491295.1504162" fill="#a15060"/><path d="m10.7076119 72.9717071c.191658-.16156.3925492-.2961.6731813-.2632-.0309171.25802-.2311088.31318-.361772.43106-.0646321-.12866-.1860622-.15204-.3114093-.16786" fill="#9e505e"/><path d="m96.6255709 69.33527c-.1377979-.00532-.2853886.00658-.3294559-.23128.265943-.05684.518316-.10934.7585181.08554-.1491295.03052-.3283368-.02744-.4290622.14574" fill="#a65466"/><path d="m94.3665998 75.0985969c-.09912-.05684-.2499-.14938-.17752-.2429.1113-.1435.24108-.0252.33376.08722-.05208.0518-.10416.10374-.15624.15568" fill="#a95669"/><path d="m102.794232 55.8959383c.08162.04578.15288.13818.04956.18102-.11242.04662-.15974-.09282-.20202-.18634.05236-.04424.10304-.04032.15246.00532" fill="#b35e75"/><path d="m102.794248 55.8958955-.1526-.00532c-.0182-.03934-.02464-.0805-.01932-.12334-.00014.00028.02492-.02212.02506-.02226.08064.0196.12432.07504.14686.15092" fill="#e182a9"/><path d="m52.9821414 60.9259323c-1.2461969.1802473-2.5009275.1436937-3.7545389.1600798-2.3446632.0305314-4.5277461-.5459241-6.6450777-1.5444974-2.1455907-1.0118782-3.948715-2.4520366-5.4640725-4.2273403-1.0038964-1.1765798-1.8283057-2.5027356-2.4375544-3.9567592-.6780778-1.6180248-1.154285-3.2843678-1.3963057-5.0128939-.0959689-.6866767-.0250415-1.3959019-.0418291-2.0946231-.0615544-2.5992316.4637565-5.0743769 1.5576063-7.4296374.0804404-.1729647.1288445-.3480301.1396165-.5358403.3392488-.3204398.4633368-.7904555.7809016-1.1267212 2.5712953-3.9489163 6.2169948-6.3599176 10.7511762-7.4540066 3.6303108-.8760275 7.1808808-.5407421 10.5844197.98961 1.7985077.8085222 3.4470466 1.9276806 4.7374507 3.4101348 2.1104767 2.4244463 3.597855 5.1920209 4.0944871 8.4410955.7818808 5.1152723-.4465492 9.6881218-3.4824404 13.843055-1.3553161 1.8551335-2.9965803 3.3682592-4.918057 4.5927369-.9845907.6275746-2.0559171 1.0889071-3.1395544 1.5169071-.4595596.1288482-.9254145.2390694-1.366228.4287003" fill="#ef65a1"/><path d="m54.235459 60.3799522c1.647-.700822 3.2707772-1.4423993 4.6465181-2.6254215.210684-.1810877.436057-.3453691.6572332-.5138521.7764249-.5914411 1.4160311-1.3258757 2.0381503-2.0629712.6109274-.7237906 1.1486891-1.511445 1.659031-2.3153456.776285-1.2229371 1.320342-2.5539947 1.855026-3.889534.3209222-.8016597.4328393-1.6627016.5783316-2.5042762.1810259-1.0480117.3123886-2.1096086.3126684-3.1803089.0002797-.9784057-.1576633-1.9418259-.3072125-2.9016047-.2446787-1.5701269-.7443886-3.0653259-1.4910155-4.4731322-.545456-1.0286845-1.2296891-1.958212-1.9107047-2.9013246-.7242435-1.0027749-1.6230777-1.7872081-2.5789896-2.5027356-1.1507876-.8617421-2.3691451-1.6674633-3.7569171-2.1005052-1.7228239-.5378011-3.4631347-.9485746-5.3044508-.9749045-2.053399-.029411-4.0369896.2936898-5.9482539.93611-1.7610155.5921413-3.3909482 1.5044424-4.8745492 2.6621152-1.0115907.7894751-1.9540726 1.6415536-2.8077202 2.597411-.4650156.5209947-.8291658 1.1143966-1.2403213 1.6741858-.1263264.0285707-.1899792-.0057421-.1467513-.147055.6054715-1.1838625 1.2801918-2.3230484 2.2309275-3.2678416.3807979-.3785615.6633886-.8342919 1.0502021-1.2104725 1.6137046-1.5690065 3.3931865-2.9216322 5.4449067-3.8346335 1.9090259-.8496976 3.8968135-1.4949188 6.016943-1.6467356.6015544-.0431361 1.20157-.1141427 1.8048031-.1013979 2.2751347.0487382 4.437513.5499856 6.5572228 1.4073861 1.8113783.732894 3.3173627 1.8636767 4.7220622 3.1494974.9928446.9087997 1.8084404 1.990284 2.5426166 3.1307304 1.3334922 2.0709542 2.0899119 4.3581492 2.4705699 6.7611675.2136218 1.3475838.2148809 2.7168757.0910726 4.0996126-.2046684 2.2838337-.8356011 4.4388193-1.764513 6.4970288-.6289741 1.3929607-1.421487 2.7237382-2.4649741 3.8751086-.2490155.2746427-.4654352.5792566-.6962642.8704254-.0865959.1092408-.1582228.2341675-.2599275.326322-1.150228 1.0436701-2.2356839 2.1601675-3.5619015 3.0000615-1.5440363.9778456-3.2006892 1.696034-4.9300881 2.2612853-.1085596.0355733-.2285907.0362736-.3434456.0532199-.1543057.0644241-.3025959.1168037-.290285-.1476151" fill="#bd5589"/><path d="m13.1038828 63.0639295c-.0204248-1.2045903.1965544-2.2299136.8516892-3.1398338.5496528-.7632853 1.3245388-1.0361073 2.1984715-.9132814.9149222.1285681 1.4434507.7428377 1.7138704 1.6302095.3673679 1.2058507.4170311 2.4647814.6815752 3.6867382.1860621.8602015.3287564 1.7297866.4841813 2.5964306.122829.6854162.2790933 1.3600484.4715907 2.0311793.1182124.411894.3175647.7726689.484601 1.1543115.4790052 1.094089.3256788 1.9559712-.5145388 2.7235982-.5124405.468195-1.1042021.5532068-1.7443679.2935497-.691228-.2805248-1.2021296-.7638455-1.6237772-1.3764345-.4901969-.7118861-.9780156-1.4276937-1.2978187-2.2290733-.6708031-1.6810484-1.3250984-3.3689594-1.5812487-5.1819372-.0651917-.4618926-.1464715-.9165026-.124228-1.2754568" fill="#f3c0d9"/><path d="m20.3783543 92.3105168c-1.0171865.7285524-2.2040673 1.0838652-3.3565336 1.5066833-1.3098498.4805196-2.6454405.8942343-4.0210415 1.1345641-1.324399.2316466-2.6587306.4088128-3.99222279.5826178-.85015026.1107814-1.70673575.1708639-2.56024352.2546152-.64324352.0630235-.68745078.0441165-.77810363-.6159503-.42696373-3.1098625-.43311917-6.2030589.19697409-9.3008769.31924353-1.5688665.96150778-2.9776532 1.85348705-4.2497487.93996373-1.3407212 2.2863264-2.2296335 3.8604404-2.7320013.3784197-.1208652.7295596.0112041 1.0809793.1565785 2.2170777.917623 4.1575803 2.2259921 5.868373 3.9227264 1.8571244 1.8419686 3.1564819 4.004377 4.0404871 6.4424084.0390311.1077003.0474249.2268848.0699482.3406073.0604352.1322095-.0076943.1892108-.1260467.2170812-.3335129-.107-.4131139-.4243586-.542658-.6865367-1.4649948-2.9628075-3.6142228-5.3257709-6.2900207-7.2325837-.3627513-.2583966-.7544611-.4544699-1.165057-.620572-.5967979-.4137147-1.2503938-.716928-1.9063679-1.0214018-.5103419-.2371087-.9721399-.2026558-1.4679326.045657-1.60740935.8046008-2.73959069 2.033-3.47754406 3.6734333-.9451399 2.1005052-1.37238342 4.298767-1.35951296 6.5875026.00657513 1.1634149-.06421243 2.3269699.08799482 3.4917853.07554404.5789765.32553886.7494202.86120208.7152474 1.57887046-.1004175 3.15018652-.2639987 4.71380832-.5022277 2.6345285-.5019477 5.2515699-1.0635576 7.6924818-2.2346754.1685752-.0808102.3433057-.1474752.5380415-.1154032.1152746.0386545.2080259.0942553.1790673.2404699" fill="#8a3e46"/><path d="m19.1194269 53.9467032c.1438134 1.112716-.7317979 2.1181518-1.6226581 2.4041388-1.6586114.5326191-3.2884041-.6202919-3.2823886-2.3434961.0037772-1.0446505.2505545-1.9646545 1.2368239-2.4710838 1.7529015-.8999764 3.5339223.3527919 3.6664041 1.9912644.0111917.1387919.0015389.2794045.0018187.4191767" fill="#f3c0d9"/><path d="m25.1547802 42.8028353c.0454664-.1520969.1028239-.4270197.2081658-.6821951.6390467-1.5482787 1.3297151-3.0699476 2.3958653-4.384479.145912-.1799673.2873472-.3702984.4626373-.5180537.1730519-.1457945.3752021-.2964908.625057-.1117618.233627.1728247.3609327.5491453.2374042.7977383-.0924715.1865497-.2208964.3551727-.3322539.532339-.6674456 1.062157-1.3381088 2.1222133-1.9989793 3.1882919-.1829844.2949502-.3423264.5963429-.3953471.9587984-.0524612.3590942-.2667824.6363979-.6400259.7590838-.3987047.1309489-.5706373.0088233-.5625234-.5397618" fill="#8b3f47"/><path d="m24.9650108 49.0176586c.0250415-.2822055-.0261606-.4815.1834042-.5331793.2274715-.056021.4620777-.0722671.6368083.149996.2034093.2586767.3504404.5490053.4907564.8440956.4899171 1.0300851.9959223 2.0502264 1.748285 2.9235929.0741451.0862723.1559845.1945327.1682953.3002723.0307772.264839.1657772.602085-.1282849.7613246-.2368446.1281479-.4229068-.1340301-.5725959-.3001322-.4658549-.5170733-.9521347-1.0135589-1.2688601-1.6544385-.3088912-.6247736-.7832798-1.158233-1.0457254-1.813538-.1040829-.2593769-.2319482-.5120314-.2120829-.6779934" fill="#8b3f47"/><path d="m22.4877258 89.9255232c.0509223-.0575615.1019845-.114983.1530467-.1725445.3890518.7260314.3957668.7551623-.2220156 1.2649529-.6243575.5152526-1.2950207.9651008-2.0403886 1.2925432-.058057-.0549005-.1159741-.1099411-.1740311-.1649817.3557565-.5873796 1.0486633-.7148272 1.5385804-1.1253207.3623316-.3037735.722145-.5743547.7448082-1.0946492" fill="#994b58"/><path d="m54.235459 60.3799522c.062114.1175039.17557.1336099.2901451.1476151-.4907565.2252042-1.0099119.3404673-1.5436166.3983089.3462435-.3470497.8530881-.3240811 1.2534715-.545924" fill="#ce6296"/><path d="m35.6155875 35.156845c.0489637.0490183.0979275.0980366.1468912.147195-.3207824.2876675-.3750622.7994188-.8225907.9803665.2129223-.3833233.2958808-.8445157.6756995-1.1275615" fill="#cf6396"/><path d="m99.0488839 52.376044c-.0751244.0107841-.1501088.0215681-.2253731.0323521-.2010311-.1140026-.3490414-.2759031-.5078238-.5480248.4020622.045657.5502124.3060144.7331969.5156727" fill="#9e4e5d"/><path d="m43.3689103 40.4628405c-1.0392902.1145628-1.9567306-.147055-2.7446269-.8886322-.4910363-.4620327-.7312384-1.0172003-.7964301-1.6562592-.1576632-1.5454777.2623057-2.9461413 1.1284041-4.2194973.274057-.4030707.573855-.7886348.862741-1.1816218.5569274-.7579633 1.2853679-1.3600484 2.0177254-1.9087735 1.3035544-.9772854 2.7317564-1.770682 4.3651865-2.0905615.9396839-.1840288 1.8676166-.2025157 2.8092591.0683455 1.1783471.3392068 2.0226217 1.5797906 2.0914507 2.7762579.0437876.7596439-.114715 1.4856754-.3852746 2.1804751-.7446684 1.9132552-2.0115699 3.4405262-3.6217772 4.6780288-1.1646373.8950746-2.4518238 1.5786701-3.8625388 2.0234764-.6096684.1922919-1.2208757.2743626-1.8641192.2187618" fill="#8a3e46"/><path d="m46.9661777 51.632282c.0436476.5208547-.078342 1.0250432-.1982332 1.5187278-.2035492.8383534-1.0290777 1.4631269-1.9000725 1.495339-1.3123679.0480379-2.3898498-.4714163-3.2997358-1.3865184-.0986269-.0992971-.1901192-.2057369-.2921036-.3012526-1.661829-1.5589228-2.5658394-3.5158743-2.9457979-5.7280013-.1536063-.8938141.0249015-1.7671806.4599792-2.5675798.4170311-.7672068 1.3964456-1.1861034 2.2561088-1.0331663 1.0876943.1936924 1.9655441.7109058 2.7923316 1.4569647 1.2848083 1.1594934 2.0973265 2.5880275 2.7325959 4.1511518.3109896.7652461.3407876 1.5841322.3949275 2.3943351" fill="#8a3e46"/><path d="m22.4877258 89.9255232c.1772487.5635707.1645182.5485851-.2614663.9125812-.6172228.5272971-1.3402072.8835903-2.0216425 1.3075288-.3235803.0719869-.5821088.2819254-.8781295.4125942-2.2573679.9966126-4.6414819 1.5457579-7.0530155 1.9971466-.0899534.0169464-.184943.0067225-.2776943.0093835-.4756477.1610602-.7838394-.034733-1.0500622-.4322015-.8009068-1.1959071-1.36133163-2.4724843-1.58026945-3.9125027-.12059067-.7932565-.00951295-1.5320327.22425389-2.2656269.53999996-1.6947736 1.48136266-3.1569202 2.72616066-4.4091283.7487253-.7530615 1.4033005-1.6138233 2.3278756-2.1810353.4978912.0324921.8533679.3564332 1.2281503.6239332 1.2506735.8932539 2.4444093 1.8689987 3.4411709 3.0357749.7650933.8956348 1.5257099 1.8080759 2.0855752 2.8723337.3568756.6782736.7284404 1.3513652 1.0890932 2.0292186" fill="#e582ac"/><path d="m14.6436942 81.3642768c-.1018445.2473324-.3177046.3983089-.4959326.5789764-.9475181.9596388-1.9798135 1.8509319-2.7672902 2.9474018-.7974093 1.1104752-1.49031602 2.2993796-1.77304659 3.6718927-.34890156 1.6944935.20536787 3.2003364.98067359 4.6566008.1414352.2656793.3475026.4983063.4770466.7687474.1933368.4033508.4718705.6240733.9305907.5767356-.3420466.2569961-.772228.1781466-1.1400156.2116191-1.33698959.1210052-2.66488597.3806623-4.01614504.3282827-.5590259-.0217081-.51985492-.021428-.6053316-.5908809-.2120829-1.4138285-.15094819-2.8347997-.12101036-4.2504489.0461658-2.1778142.48823834-4.2727173 1.39924352-6.2740655.59693782-1.3111701 1.46135751-2.3612827 2.62123838-3.1818495.3398083-.2403298.7094145-.446907 1.0865751-.6239332.2886062-.1352906.6100881-.3069948.9366062-.1634411.864.3803822 1.7840985.6631479 2.4867979 1.3443626" fill="#c06589"/></g></svg>