<svg height="30" viewBox="0 0 28 30" width="28" xmlns="http://www.w3.org/2000/svg"><path d="m23.2174904 6.04685253c3.8550936 5.82445407 3.2003676 13.72264147-1.9644014 18.84275557-5.8601787 5.8105031-15.3274729 5.8594119-21.253089.1533807 3.58899752 1.6302094 7.91874749 1.1368667 11.0582555-1.4824512-3.57557579-.1393405-6.82160219-2.5077305-7.88369845-6.100415-.99162961-3.3537489.20067496-6.8272746 2.74971675-8.9270275 1.18646674 3.0680236 4.02067731 5.1105251 7.1839294 5.4102898-1.8429684-1.1665173-3.0650591-3.2121159-3.0650591-5.54071337 0-3.62782401 2.9662451-6.56875645 6.6252939-6.56875645 1.1111543 0 2.1584201.27120482 3.0781322.75049251l5.7441833-2.58440759-2.7813572 3.38876389 4.2639357-1.91850432z" fill="#1da1f2" fill-rule="evenodd" transform="translate(.292972 .578669)"/></svg>