<?xml version="1.0" encoding="UTF-8"?>
<svg width="43px" height="30px" viewBox="0 0 43 30" version="1.1" xmlns="http://www.w3.org/2000/svg" xmlns:xlink="http://www.w3.org/1999/xlink">
    <!-- Generator: sketchtool 50.2 (55047) - http://www.bohemiancoding.com/sketch -->
    <title>EF1882F1-82F5-47A2-8201-C259A222A26C</title>
    <desc>Created with sketchtool.</desc>
    <defs>
        <path d="M0.378077315,26.0999993 C4.98371248,23.8589969 8.15781053,19.1340832 8.15781053,13.6678191 C8.15781053,8.05321704 4.80910396,3.22074728 3.10862447e-15,1.05871904 L0,0 L21.5999994,0 L21.5999994,26.0999993 L0.378077315,26.0999993 Z" id="path-1"></path>
    </defs>
    <g id="p-click---with-flows" stroke="none" stroke-width="1" fill="none" fill-rule="evenodd">
        <g id="earnings-menu" transform="translate(-95.000000, -314.000000)">
            <g id="Group-27-Copy" transform="translate(48.652344, 107.621094)">
                <g id="Group-31-Copy" transform="translate(18.000000, 185.000000)">
                    <g id="Group-30" transform="translate(0.310547, 0.740234)">
                        <g id="Group-16" transform="translate(27.758840, 15.680949)">
                            <g id="Group-29" transform="translate(-0.000000, -0.000000)">
                                <g id="Group-28" transform="translate(0.500000, 0.500000)">
                                    <g id="home-address" transform="translate(0.374740, 0.100001)">
                                        <g id="address" transform="translate(0.000000, 3.600000)">
                                            <g id="Group" transform="translate(20.699999, 1.800000)">
                                                <mask id="mask-2" fill="white">
                                                    <use xlink:href="#path-1"></use>
                                                </mask>
                                                <g id="Combined-Shape"></g>
                                                <g mask="url(#mask-2)" id="Line" stroke="#A0A0A0" stroke-linecap="round" stroke-width="1.52999996">
                                                    <g transform="translate(-11.700000, 2.046202)">
                                                        <path d="M0.197586578,3.13775152 C2.80831981,1.0153366 5.48866146,0.114164214 8.23861152,0.434234373 C12.3635366,0.914339611 19.4227602,5.3839277 23.4254226,5.84126867 C26.0938641,6.14616265 28.9186823,5.24499027 31.8998772,3.13775152" transform="translate(16.048732, 3.135198) rotate(-360.000000) translate(-16.048732, -3.135198) "></path>
                                                        <path d="M0.197586578,7.53306515 C2.80831981,5.41065023 5.48866146,4.50947784 8.23861152,4.829548 C12.3635366,5.30965324 19.4227602,9.77924133 23.4254226,10.2365823 C26.0938641,10.5414763 28.9186823,9.6403039 31.8998772,7.53306515" transform="translate(16.048732, 7.530512) rotate(-360.000000) translate(-16.048732, -7.530512) "></path>
                                                        <path d="M0.197586578,11.9283788 C2.80831981,9.80596386 5.48866146,8.90479147 8.23861152,9.22486163 C12.3635366,9.70496687 19.4227602,14.174555 23.4254226,14.6318959 C26.0938641,14.9367899 28.9186823,14.0356175 31.8998772,11.9283788" transform="translate(16.048732, 11.925826) rotate(-360.000000) translate(-16.048732, -11.925826) "></path>
                                                        <path d="M0.197586578,16.3236924 C2.80831981,14.2012775 5.48866146,13.3001051 8.23861152,13.6201753 C12.3635366,14.1002805 19.4227602,18.5698686 23.4254226,19.0272096 C26.0938641,19.3321035 28.9186823,18.4309312 31.8998772,16.3236924" transform="translate(16.048732, 16.321139) rotate(-360.000000) translate(-16.048732, -16.321139) "></path>
                                                        <path d="M0.197586578,20.719006 C2.80831981,18.5965911 5.48866146,17.6954187 8.23861152,18.0154889 C12.3635366,18.4955941 19.4227602,22.9651822 23.4254226,23.4225232 C26.0938641,23.7274172 28.9186823,22.8262448 31.8998772,20.719006" transform="translate(16.048732, 20.716453) rotate(-360.000000) translate(-16.048732, -20.716453) "></path>
                                                    </g>
                                                </g>
                                            </g>
                                            <g id="Group-2" transform="translate(0.629999, 0.450000)">
                                                <g id="Group-3" transform="translate(0.000000, 0.755998)" stroke="#979797" stroke-width="1.79999995">
                                                    <circle id="Oval" cx="14.4100822" cy="14.2618211" r="13.8177285"></circle>
                                                </g>
                                                <g id="home-address" transform="translate(4.186801, 5.362936)">
                                                    <g id="Group-3">
                                                        <path d="M19.8068199,9.50720271 L15.218889,2.76842372 C15.1442848,2.65866363 15.0198492,2.59297109 14.886829,2.59297109 L13.9923149,2.59297109 L13.9923149,0.840161726 C13.9923149,0.618188806 13.8123247,0.438239489 13.5903926,0.438239489 L11.8025091,0.438239489 C11.5805771,0.438239489 11.4005869,0.618188806 11.4005869,0.840120847 L11.4005869,2.59297109 L4.95969308,2.59297109 L4.95871199,2.59297109 C4.92907472,2.59313461 4.89923305,2.59714075 4.87000458,2.6038449 C4.86092944,2.60601149 4.85254925,2.60920005 4.84351499,2.61189807 C4.82405659,2.61778464 4.80504786,2.62477495 4.78620265,2.63385008 C4.7759829,2.63871468 4.76637633,2.64423335 4.7565245,2.64995641 C4.74892101,2.65445309 4.74082697,2.65747814 4.73342787,2.66254713 C4.72431185,2.66855635 4.71728067,2.6762416 4.70881872,2.68298663 C4.70043852,2.68981342 4.69197657,2.69635406 4.68412781,2.70395755 C4.66667248,2.72051354 4.65134285,2.73809151 4.637444,2.75685497 C4.63425544,2.76122902 4.63041281,2.76425406 4.62722425,2.76842372 L0.222594752,9.23821895 C0.138588426,9.36142823 0.129962959,9.52061102 0.199457243,9.65236401 C0.269115044,9.784117 0.405855268,9.86656992 0.554613915,9.86656992 L2.71061277,9.86656992 L2.71061277,17.1050128 C2.71061277,17.3269857 2.89056209,17.5069351 3.11253501,17.5069351 L5.80985345,17.5069351 L6.16558243,17.5069351 C6.26291531,17.5069351 6.34181176,17.4279977 6.34181176,17.3306648 L6.34181176,16.7030906 L6.33498497,16.7030906 L6.33498497,11.9494771 L7.07146087,11.5032421 L7.82028222,11.9177142 L7.82028222,16.7030906 L7.8185653,16.7030906 L7.8185653,17.3306648 C7.8185653,17.4279977 7.89750263,17.5069351 7.99483551,17.5069351 L7.99487639,17.5069351 L11.8025091,17.5069351 L17.5632582,17.5069351 C17.7852312,17.5069351 17.9651805,17.3269449 17.9651805,17.1050128 L17.9651805,10.1347361 L19.4743511,10.1353902 C19.6234776,10.1353902 19.7600543,10.0529781 19.8295486,9.92138865 C19.8994517,9.78979918 19.8903766,9.63041199 19.8068199,9.50720271 Z" id="Path" fill="#F4F4F4"></path>
                                                        <path d="M11.8083957,9.32888856 C11.8064335,9.32888856 11.8044304,9.32839801 11.8025091,9.32839801 C11.8006287,9.32839801 11.7986256,9.32888856 11.7966634,9.32888856 L9.75798726,9.32839801 L6.5767842,4.65601112 C6.57641629,4.65503002 6.57563959,4.65404893 6.5750264,4.65335399 L5.71959264,3.39681557 L11.4005869,3.39681557 L11.4005869,5.14946142 C11.4005869,5.37135258 11.5803727,5.55138365 11.8025091,5.55138365 C12.0242368,5.55138365 12.2044313,5.37135258 12.2044313,5.14946142 L12.2044313,1.24204308 L13.1884704,1.24204308 L13.1884704,6.37583114 C13.1884704,6.5977223 13.3682153,6.77775338 13.5903926,6.77775338 C13.8121612,6.77775338 13.9923149,6.5977223 13.9923149,6.37583114 L13.9923149,3.39681557 L14.6740538,3.39681557 L18.7144106,9.3309325 L11.8083957,9.32888856 Z M17.161336,16.7030906 L12.2044313,16.7030906 L12.2044313,10.1330601 L17.161336,10.1345726 L17.161336,16.7030906 Z M11.4005869,16.7030906 L9.88520268,16.7030906 L8.51522506,16.7030906 L8.51522506,11.7128695 C8.51522506,11.5865126 8.44663012,11.4700483 8.33605245,11.4088525 L7.23187003,10.7977525 C7.12288664,10.7374559 6.99002992,10.7400313 6.88349927,10.8045792 L5.80744159,11.4565991 C5.7035272,11.5195528 5.64004213,11.6322562 5.64004213,11.7537485 L5.64004213,16.7030906 L5.40793122,16.7030906 L4.15633916,16.7030906 L3.51445724,16.7030906 L3.51445724,9.58834751 L6.23842879,5.58727541 L9.21319295,9.95642194 C9.2882059,10.0665091 9.41264155,10.1322425 9.54549827,10.1322425 L11.4005869,10.132733 L11.4005869,16.7030906 Z M2.89984162,9.06272545 L1.31455435,9.06272545 L4.95969308,3.70888578 L5.75213232,4.87307856 L2.89984162,9.06272545 Z M19.8068199,9.50720271 L15.218889,2.76842372 C15.1442848,2.65866363 15.0198492,2.59297109 14.886829,2.59297109 L13.9923149,2.59297109 L13.9923149,0.840161726 C13.9923149,0.618188806 13.8123247,0.438239489 13.5903926,0.438239489 L11.8025091,0.438239489 C11.5805771,0.438239489 11.4005869,0.618188806 11.4005869,0.840120847 L11.4005869,2.59297109 L4.95969308,2.59297109 L4.95871199,2.59297109 C4.92907472,2.59313461 4.89923305,2.59714075 4.87000458,2.6038449 C4.86092944,2.60601149 4.85254925,2.60920005 4.84351499,2.61189807 C4.82405659,2.61778464 4.80504786,2.62477495 4.78620265,2.63385008 C4.7759829,2.63871468 4.76637633,2.64423335 4.7565245,2.64995641 C4.74892101,2.65445309 4.74082697,2.65747814 4.73342787,2.66254713 C4.72431185,2.66855635 4.71728067,2.6762416 4.70881872,2.68298663 C4.70043852,2.68981342 4.69197657,2.69635406 4.68412781,2.70395755 C4.66667248,2.72051354 4.65134285,2.73809151 4.637444,2.75685497 C4.63425544,2.76122902 4.63041281,2.76425406 4.62722425,2.76842372 L0.222594752,9.23821895 C0.138588426,9.36142823 0.129962959,9.52061102 0.199457243,9.65236401 C0.269115044,9.784117 0.405855268,9.86656992 0.554613915,9.86656992 L2.71061277,9.86656992 L2.71061277,17.1050128 C2.71061277,17.3269857 2.89056209,17.5069351 3.11253501,17.5069351 L5.80985345,17.5069351 L6.16558243,17.5069351 C6.26291531,17.5069351 6.34181176,17.4279977 6.34181176,17.3306648 L6.34181176,16.7030906 L6.33498497,16.7030906 L6.33498497,11.9494771 L7.07146087,11.5032421 L7.82028222,11.9177142 L7.82028222,16.7030906 L7.8185653,16.7030906 L7.8185653,17.3306648 C7.8185653,17.4279977 7.89750263,17.5069351 7.99483551,17.5069351 L7.99487639,17.5069351 L11.8025091,17.5069351 L17.5632582,17.5069351 C17.7852312,17.5069351 17.9651805,17.3269449 17.9651805,17.1050128 L17.9651805,10.1347361 L19.4743511,10.1353902 C19.6234776,10.1353902 19.7600543,10.0529781 19.8295486,9.92138865 C19.8994517,9.78979918 19.8903766,9.63041199 19.8068199,9.50720271 Z" id="Fill-1" stroke="#979797" stroke-width="0.5" fill="#979797"></path>
                                                    </g>
                                                </g>
                                            </g>
                                        </g>
                                    </g>
                                </g>
                            </g>
                        </g>
                    </g>
                </g>
            </g>
        </g>
    </g>
</svg>