<?xml version="1.0" encoding="UTF-8"?>
<svg width="66px" height="50px" viewBox="0 0 66 50" version="1.1" xmlns="http://www.w3.org/2000/svg" xmlns:xlink="http://www.w3.org/1999/xlink">
    <!-- Generator: Sketch 50.2 (55047) - http://www.bohemiancoding.com/sketch -->
    <title>found-coupons</title>
    <desc>Created with Sketch.</desc>
    <defs>
        <path d="M2.80868794,0.0209645705 L48.8809575,0.0209645705 C50.4118908,0.0209645705 51.6529575,1.26203122 51.6529575,2.79296451 L51.6529575,30.9980639 C51.6529575,32.5289972 50.4118908,33.7700638 48.8809575,33.7700638 L2.80868794,33.7700638 C1.27775464,33.7700638 0.0366879985,32.5289972 0.0366879985,30.9980639 L0.0366879985,2.79296451 C0.0366879985,1.26203122 1.27775464,0.0209645705 2.80868794,0.0209645705 Z" id="path-1"></path>
        <mask id="mask-2" maskContentUnits="userSpaceOnUse" maskUnits="objectBoundingBox" x="0" y="0" width="51.6162695" height="33.7490993" fill="white">
            <use xlink:href="#path-1"></use>
        </mask>
        <rect id="path-3" x="-0.601733687" y="0.358409959" width="23.7599999" height="13.3353002"></rect>
    </defs>
    <g id="p-click---with-flows" stroke="none" stroke-width="1" fill="none" fill-rule="evenodd">
        <g id="Ext-NC-p_icon2-couponsToTryActivate" transform="translate(-1182.000000, -79.000000)">
            <g id="Group-27-Copy-11" transform="translate(1052.000000, 0.000000)">
                <g id="found-coupons-check" transform="translate(129.835000, 78.869375)">
                    <g id="found-coupons" transform="translate(-0.990000, -0.990000)">
                        <g id="Group-5" transform="translate(0.835672, 0.357784)">
                            <g id="coupon" transform="translate(1.980000, 14.058000)">
                                <rect id="Combined-Shape" fill="#F1F1F1" x="4.00717026" y="2.0062057" width="49.6310283" height="33.7490993" rx="2.77199994"></rect>
                                <text id="$$$" font-family="Roboto-Bold, Roboto" font-size="17.8199999" font-weight="bold" letter-spacing="0.605879927" fill="#FFFFFF">
                                    <tspan x="10.4853646" y="23.93">$$$</tspan>
                                </text>
                                <use id="Combined-Shape" stroke="#00C8E5" mask="url(#mask-2)" stroke-width="2.96999999" stroke-dasharray="4.949999976158139,2.969999985694884" xlink:href="#path-1"></use>
                                <path d="M16.3692904,19.4374511 C16.3692904,18.9617846 16.237324,18.5832874 15.9733871,18.3019482 C15.7094502,18.0206089 15.2613444,17.7610265 14.6290561,17.5231933 C13.9967677,17.2853601 13.4514998,17.0489806 12.9932357,16.8140478 C12.5349717,16.579115 12.1419727,16.3093813 11.814227,16.0048388 C11.4864812,15.7002963 11.2312494,15.3421016 11.0485238,14.9302441 C10.8657983,14.5183865 10.7744369,14.0282254 10.7744369,13.459746 C10.7744369,12.4794091 11.087676,11.6760089 11.7141635,11.0495214 C12.340651,10.4230339 13.1730548,10.0575884 14.2113998,9.95317378 L14.2113998,8.09112301 L15.6035873,8.09112301 L15.6035873,9.9792773 C16.6303307,10.1242976 17.4337309,10.5521009 18.0138119,11.2627001 C18.5938929,11.9732994 18.8839291,12.8941642 18.8839291,14.0253222 L16.3692904,14.0253222 C16.3692904,13.329225 16.2257225,12.8086101 15.9385824,12.4634619 C15.6514423,12.1183136 15.2671444,11.9457421 14.7856771,11.9457421 C14.3100107,11.9457421 13.9416648,12.0806089 13.6806283,12.3503466 C13.4195919,12.6200843 13.2890756,12.9927808 13.2890756,13.4684472 C13.2890756,13.9093088 13.4166915,14.2631529 13.6719272,14.5299902 C13.9271628,14.7968274 14.4013719,15.0694614 15.0945687,15.3479003 C15.7877656,15.6263392 16.3576866,15.8888219 16.804349,16.1353564 C17.2510114,16.3818908 17.6280584,16.6603255 17.9355014,16.9706689 C18.2429443,17.2810122 18.4778736,17.6348563 18.6402963,18.0322118 C18.802719,18.4295673 18.8839291,18.892175 18.8839291,19.4200487 C18.8839291,20.4061865 18.5764908,21.2066863 17.9616049,21.8215722 C17.346719,22.436458 16.4998134,22.7990032 15.4208627,22.9092186 L15.4208627,24.6407518 L14.0373764,24.6407518 L14.0373764,22.9179198 C12.8482103,22.790302 11.9273455,22.3682994 11.2747543,21.6518993 C10.6221632,20.9354992 10.2958725,19.9827305 10.2958725,18.7935644 L12.8105111,18.7935644 C12.8105111,19.4838608 12.9743816,20.0131768 13.3021274,20.3815282 C13.6298731,20.7498797 14.1011819,20.9340526 14.7160678,20.9340526 C15.2265391,20.9340526 15.6296893,20.7991858 15.9255307,20.5294481 C16.221372,20.2597105 16.3692904,19.8957151 16.3692904,19.4374511 Z M27.1990472,19.4374511 C27.1990472,18.9617846 27.0670808,18.5832874 26.8031439,18.3019482 C26.539207,18.0206089 26.0911012,17.7610265 25.4588129,17.5231933 C24.8265245,17.2853601 24.2812566,17.0489806 23.8229926,16.8140478 C23.3647285,16.579115 22.9717295,16.3093813 22.6439838,16.0048388 C22.316238,15.7002963 22.0610062,15.3421016 21.8782806,14.9302441 C21.6955551,14.5183865 21.6041937,14.0282254 21.6041937,13.459746 C21.6041937,12.4794091 21.9174328,11.6760089 22.5439203,11.0495214 C23.1704078,10.4230339 24.0028116,10.0575884 25.0411566,9.95317378 L25.0411566,8.09112301 L26.4333441,8.09112301 L26.4333441,9.9792773 C27.4600875,10.1242976 28.2634877,10.5521009 28.8435687,11.2627001 C29.4236497,11.9732994 29.7136859,12.8941642 29.7136859,14.0253222 L27.1990472,14.0253222 C27.1990472,13.329225 27.0554793,12.8086101 26.7683392,12.4634619 C26.4811991,12.1183136 26.0969012,11.9457421 25.6154339,11.9457421 C25.1397675,11.9457421 24.7714216,12.0806089 24.5103851,12.3503466 C24.2493487,12.6200843 24.1188324,12.9927808 24.1188324,13.4684472 C24.1188324,13.9093088 24.2464483,14.2631529 24.501684,14.5299902 C24.7569196,14.7968274 25.2311287,15.0694614 25.9243255,15.3479003 C26.6175224,15.6263392 27.1874434,15.8888219 27.6341058,16.1353564 C28.0807682,16.3818908 28.4578152,16.6603255 28.7652582,16.9706689 C29.0727011,17.2810122 29.3076304,17.6348563 29.4700531,18.0322118 C29.6324758,18.4295673 29.7136859,18.892175 29.7136859,19.4200487 C29.7136859,20.4061865 29.4062476,21.2066863 28.7913617,21.8215722 C28.1764758,22.436458 27.3295702,22.7990032 26.2506195,22.9092186 L26.2506195,24.6407518 L24.8671332,24.6407518 L24.8671332,22.9179198 C23.6779671,22.790302 22.7571023,22.3682994 22.1045111,21.6518993 C21.45192,20.9354992 21.1256293,19.9827305 21.1256293,18.7935644 L23.6402679,18.7935644 C23.6402679,19.4838608 23.8041384,20.0131768 24.1318842,20.3815282 C24.4596299,20.7498797 24.9309387,20.9340526 25.5458246,20.9340526 C26.0562959,20.9340526 26.4594461,20.7991858 26.7552875,20.5294481 C27.0511288,20.2597105 27.1990472,19.8957151 27.1990472,19.4374511 Z M38.028804,19.4374511 C38.028804,18.9617846 37.8968376,18.5832874 37.6329007,18.3019482 C37.3689638,18.0206089 36.920858,17.7610265 36.2885697,17.5231933 C35.6562813,17.2853601 35.1110134,17.0489806 34.6527494,16.8140478 C34.1944853,16.579115 33.8014863,16.3093813 33.4737406,16.0048388 C33.1459948,15.7002963 32.890763,15.3421016 32.7080374,14.9302441 C32.5253119,14.5183865 32.4339505,14.0282254 32.4339505,13.459746 C32.4339505,12.4794091 32.7471896,11.6760089 33.3736771,11.0495214 C34.0001646,10.4230339 34.8325684,10.0575884 35.8709134,9.95317378 L35.8709134,8.09112301 L37.2631009,8.09112301 L37.2631009,9.9792773 C38.2898443,10.1242976 39.0932445,10.5521009 39.6733255,11.2627001 C40.2534065,11.9732994 40.5434427,12.8941642 40.5434427,14.0253222 L38.028804,14.0253222 C38.028804,13.329225 37.8852361,12.8086101 37.598096,12.4634619 C37.3109559,12.1183136 36.926658,11.9457421 36.4451908,11.9457421 C35.9695243,11.9457421 35.6011784,12.0806089 35.3401419,12.3503466 C35.0791055,12.6200843 34.9485892,12.9927808 34.9485892,13.4684472 C34.9485892,13.9093088 35.0762051,14.2631529 35.3314408,14.5299902 C35.5866764,14.7968274 36.0608855,15.0694614 36.7540824,15.3479003 C37.4472792,15.6263392 38.0172002,15.8888219 38.4638626,16.1353564 C38.910525,16.3818908 39.287572,16.6603255 39.595015,16.9706689 C39.9024579,17.2810122 40.1373872,17.6348563 40.2998099,18.0322118 C40.4622326,18.4295673 40.5434427,18.892175 40.5434427,19.4200487 C40.5434427,20.4061865 40.2360044,21.2066863 39.6211185,21.8215722 C39.0062326,22.436458 38.159327,22.7990032 37.0803763,22.9092186 L37.0803763,24.6407518 L35.69689,24.6407518 L35.69689,22.9179198 C34.5077239,22.790302 33.5868591,22.3682994 32.9342679,21.6518993 C32.2816768,20.9354992 31.9553861,19.9827305 31.9553861,18.7935644 L34.4700247,18.7935644 C34.4700247,19.4838608 34.6338952,20.0131768 34.961641,20.3815282 C35.2893867,20.7498797 35.7606955,20.9340526 36.3755814,20.9340526 C36.8860527,20.9340526 37.2892029,20.7991858 37.5850443,20.5294481 C37.8808856,20.2597105 38.028804,19.8957151 38.028804,19.4374511 Z" id="$$$" fill="#7ED321"></path>
                            </g>
                            <g id="Shape" transform="translate(0.805562, 0.762926)">
                                <mask id="mask-4" fill="white">
                                    <use xlink:href="#path-3"></use>
                                </mask>
                                <g id="Mask"></g>
                                <path d="M17.1287479,12.7486956 L12.0767676,9.67310675 L17.1655906,6.46082557 C17.6632283,6.14676238 17.81202,5.48870717 17.4979331,4.99106949 C17.1837989,4.49350284 16.5258147,4.34466378 16.028177,4.65875066 L10.0444492,8.43586729 L7.81136609,7.07642638 C7.91242322,6.5727982 7.88467276,6.04080393 7.72382903,5.51569993 C7.46656903,4.67575136 6.89434607,3.95101929 6.1125977,3.47502317 C5.33080197,2.99905074 4.42434228,2.82336099 3.56005286,2.98034523 C2.65437454,3.14488271 1.90314694,3.65009731 1.44474348,4.40293501 C0.986340019,5.15586742 0.882275804,6.05522375 1.15184829,6.93535366 C1.40908461,7.7753259 1.98126021,8.5000343 2.76300859,8.97600674 C3.544828,9.4520502 4.45131136,9.62771628 5.31562445,9.47073204 C5.82765828,9.37767803 6.29022904,9.17570585 6.67854602,8.8816978 L8.03251735,9.70594795 L6.80406238,10.481398 C6.39791597,10.166956 5.90911013,9.95520483 5.3672422,9.86572618 C4.50051397,9.72264084 3.59694298,9.91284513 2.82298462,10.4013432 C2.0489789,10.8898885 1.48842914,11.6236656 1.24471288,12.4676394 C0.98932343,13.3519602 1.10773643,14.2494934 1.57814457,14.9948489 C2.04864741,15.7403228 2.8079255,16.2334853 3.71613735,16.3834136 C4.5828419,16.5265936 5.48646025,16.3363893 6.26037125,15.8478913 C7.03437697,15.3593696 7.59490305,14.6255689 7.83859564,13.7815714 C7.98303061,13.281637 8.00784501,12.7774879 7.91715879,12.2989346 L10.0648121,10.9432111 L16.0203633,14.5688841 C16.5230207,14.8749678 17.1786371,14.7155211 17.4846972,14.2129584 C17.7906626,13.71023 17.6313342,13.054732 17.1287479,12.7486956 Z M6.11297654,7.26653595 C5.56966426,8.1605174 4.35915712,8.41730385 3.40927222,7.84003751 C2.45938733,7.26279485 2.12976778,6.07009345 2.67305638,5.17606464 C3.21636866,4.28203583 4.42682845,4.02527307 5.3767607,4.60251573 C6.32664559,5.17980575 6.65626515,6.37248346 6.11297654,7.26653595 Z M5.53035901,14.7638003 C4.5908687,15.3578779 3.37605218,15.122662 2.81685205,14.2384595 C2.25777031,13.3542333 2.56605611,12.1558966 3.50554642,11.5617716 C4.44498937,10.9677177 5.65982957,11.2029099 6.21900602,12.0871361 C6.77808776,12.9713622 6.46982564,14.1697227 5.53035901,14.7638003 Z M10.0443545,10.2973263 C9.73050437,10.2973263 9.47608572,10.0429076 9.47608572,9.72905754 C9.47608572,9.41520745 9.73050437,9.16078879 10.0443545,9.16078879 C10.3582046,9.16078879 10.6126232,9.41520745 10.6126232,9.72905754 C10.6126232,10.0429076 10.3582046,10.2973263 10.0443545,10.2973263 Z" fill="#00C8E5" fill-rule="nonzero" mask="url(#mask-4)" transform="translate(9.333798, 9.677120) rotate(35.000000) translate(-9.333798, -9.677120) "></path>
                            </g>
                            <g id="Group-28" transform="translate(38.015999, 1.980000)">
                                <circle id="Oval-5" stroke="#00C8E5" stroke-width="0.970199979" fill="#FFFFFF" cx="13.8599997" cy="13.8599997" r="13.8599997"></circle>
                                <path d="M11.5304528,14.8317409 L17.980619,8.38157477 C18.6787039,7.68348985 19.8105232,7.68348985 20.5086081,8.38157477 C21.206693,9.07965969 21.206693,10.211479 20.5086081,10.9095639 L11.5561837,19.8619883 L11.3051507,19.6109554 L11.2794199,19.6366863 L7.2113913,15.5686577 C6.51330637,14.8705728 6.51330637,13.7387535 7.2113913,13.0406685 C7.90947623,12.3425836 9.04129553,12.3425836 9.73938046,13.0406685 L11.5304528,14.8317409 Z" id="Combined-Shape" fill="#7ED321"></path>
                            </g>
                        </g>
                    </g>
                </g>
            </g>
        </g>
    </g>
</svg>