<?xml version="1.0" encoding="UTF-8"?>
<svg width="21px" height="22px" viewBox="0 0 21 22" version="1.1" xmlns="http://www.w3.org/2000/svg" xmlns:xlink="http://www.w3.org/1999/xlink">
    <!-- Generator: Sketch 50.2 (55047) - http://www.bohemiancoding.com/sketch -->
    <title>siteInfo</title>
    <desc>Created with Sketch.</desc>
    <defs></defs>
    <g id="Symbols" stroke="none" stroke-width="1" fill="none" fill-rule="evenodd">
        <g id="site-info" transform="translate(-3.000000, -3.000000)">
            <g id="siteInfo">
                <rect id="Rectangle-7" x="0" y="0" width="27" height="27"></rect>
                <g id="Group" transform="translate(3.000000, 3.000000)">
                    <rect id="Rectangle-4" stroke="#CDCDCD" stroke-width="2" x="1.5" y="1.54999995" width="18" height="19" rx="3"></rect>
                    <circle id="Oval" fill="#CDCDCD" cx="4" cy="4" r="1"></circle>
                    <circle id="Oval" fill="#CDCDCD" cx="7" cy="4" r="1"></circle>
                    <path d="M2,6.5 L19,6.5" id="Line" stroke="#CDCDCD" stroke-width="2" stroke-linecap="square"></path>
                    <path d="M10.5,17.4208984 C10.253262,17.4208984 10.0495192,17.3536073 9.88876563,17.2190229 C9.72801206,17.0844385 9.64763648,16.8863033 9.64763648,16.6246115 L9.64763648,12.5310235 C9.64763648,12.2693316 9.72988126,12.0711965 9.89437329,11.9366121 C10.0588653,11.8020277 10.2607389,11.7347365 10.5,11.7347365 C10.7392611,11.7347365 10.9392655,11.8020277 11.1000191,11.9366121 C11.2607726,12.0711965 11.3411482,12.2693316 11.3411482,12.5310235 L11.3411482,16.6246115 C11.3411482,16.8863033 11.2607726,17.0844385 11.1000191,17.2190229 C10.9392655,17.3536073 10.7392611,17.4208984 10.5,17.4208984 Z M10.5,10.8375117 C10.2009236,10.8375117 9.96540444,10.7608746 9.7934355,10.6075979 C9.62146656,10.4543212 9.53548338,10.2468401 9.53548338,9.98514822 C9.53548338,9.72345635 9.62146656,9.5178444 9.7934355,9.36830619 C9.96540444,9.21876798 10.2009236,9.144 10.5,9.144 C10.7915995,9.144 11.0252495,9.22063718 11.2009568,9.37391385 C11.3766642,9.52719051 11.4645166,9.73093326 11.4645166,9.98514822 C11.4645166,10.2468401 11.3785334,10.4543212 11.2065645,10.6075979 C11.0345956,10.7608746 10.7990764,10.8375117 10.5,10.8375117 Z" id="i" fill="#CDCDCD"></path>
                </g>
            </g>
        </g>
    </g>
</svg>