<svg height="23" viewBox="0 0 23 23" width="23" xmlns="http://www.w3.org/2000/svg"><g fill="none" fill-rule="evenodd"><path d="m-2-2h27v27h-27z"/><g fill="#cdcdcd" fill-rule="nonzero" transform=""><path d="m22.4063994 11.2016247c-.035325-1.54417496-1.301625-2.78977492-2.8543499-2.78977492-1.552725 0-2.8185749 1.24582496-2.8541249 2.78977492-.0009.0162-.001575.032175-.001575.04815 0 1.3536-.48195 2.3271749-1.473525 2.9769749-.3861.253125-.85365.45585-1.3905.6057.108-.297675.1674-.61875.1674-.953775 0-1.5302249-1.2345749-2.7769499-2.7600749-2.7983249-.0099-.00045-.0198-.00045-.029925-.000675-.003375 0-.0063-.000225-.00945-.000225h-10.34212472c-.42299999 0-.76612498.343125-.76612498.766125v.735075c0 1.5068249.29924999 2.9076749.88942497 4.1629499.56407499 1.1996999 1.38284997 2.2463999 2.43337494 3.1115249 2.00024995 1.6463249 4.78282487 2.5528499 7.83517479 2.5528499 2.9805749 0 5.7824998-1.160775 7.8898498-3.2681249 2.0994749-2.099475 3.2588999-4.8883499 3.2676749-7.8560998.000225-.0054.00045-.010575.00045-.015975 0-.002025-.000225-.003825-.000225-.005625 0-.00405.000225-.007875.000225-.011925 0-.016425-.0009-.0324-.001575-.0486zm-11.1563997 9.6738747c-4.78214987 0-9.60704974-2.5555499-9.62482474-8.2635747h9.57532474c.698625 0 1.266975.56835 1.266975 1.2667499 0 .69885-.568125 1.266975-1.266975 1.266975h-5.05304986c-.42299999 0-.76612498.343125-.76612498.76635s.34312499.766125.76612498.766125h5.20447486c.0108 0 .02205-.000225.03285-.0009 1.9466999-.0171 3.5201249-.40995 4.6781999-1.16865 1.4080499-.922725 2.1561749-2.3827499 2.1656249-4.2236999 0-.005625.000225-.0117.000225-.017325 0-.7299.593775-1.32322496 1.323225-1.32322496.72765 0 1.3200749.59062496 1.3229999 1.31714996-.006075 5.3021249-4.3213498 9.6140247-9.6250497 9.6140247z"/><path d="m6.37784983 10.7358747c.42299999 0 .76612498-.342675.76612498-.76612496 0-1.99349995 1.62179996-3.61507491 3.61507489-3.61507491 1.9935 0 3.6152999 1.62179996 3.6152999 3.61507491v2.24369996c0 .423225.3429.76635.766125.76635.423 0 .766125-.343125.766125-.76635v-2.24369996c0-2.04052495-1.193175-3.8072249-2.9186999-4.63972488.5354999-.55642499.8651249-1.31242497.8651249-2.14379994 0-1.70617496-1.3880249-3.09397492-3.0939749-3.09397492-1.70594994 0-3.0941999 1.38779996-3.0941999 3.09397492 0 .83159997.32984999 1.58737495.86534997 2.14379994-1.72529995.83227498-2.91869992 2.59919993-2.91869992 4.63972488 0 .42322496.34289999.76612496.76634998.76612496zm4.38142487-9.11137474c.8613 0 1.561725.70064998 1.561725 1.56149996 0 .86129997-.700425 1.56172495-1.561725 1.56172495-.86129996 0-1.56172494-.70064998-1.56172494-1.56172495-.000225-.86084998.70042498-1.56149996 1.56172494-1.56149996z"/></g></g></svg>