<svg height="23" viewBox="0 0 23 23" width="23" xmlns="http://www.w3.org/2000/svg"><g fill="none" fill-rule="evenodd" transform="translate(-2 -2)"><path d="m0 0h27v27h-27z"/><path d="m16.452381 10.4761905c0-.0476191 0-.0714286 0-.0952381l.2619047-3.95238097c0-.02380953 0-.02380953 0-.04761905.0476191-.33333333.3095238-.57142857.6428572-.57142857.3333333 0 .6190476.26190476.6428571.59523809l.2380952 3.5952381c0 .0952381.0476191.2142857.1190477.2857143l1.5952381 1.9047619s.0238095.0238095.0238095.0238095c.1904762.2619048.1666666.6190476-.0476191.8571429-.2380952.2380952-.6190476.2619047-.8809524.0238095l-2.2142857-1.8571429c-.047619-.0238095-.0714285-.0714285-.1190476-.0952381-.1666667-.1666666-.2619047-.4047619-.2619047-.6666666 0 .0238095 0 .0238095 0 0zm.9761904-7.69047621c-3.3095238 0-6.1428571 2.14285714-7.1666666 5.11904761.6666666.07142858 1.3095238.21428572 1.9285714.42857143.8095238-2.09523809 2.8571428-3.59523809 5.2380952-3.59523809 3.0952381 0 5.6190476 2.52380952 5.6190476 5.61904766 0 2.8095238-2.0714285 5.1190476-4.7380952 5.547619.0476191.3571429.0714286.7380952.0714286 1.1190476 0 .2857143-.0238095.5714286-.0476191.8571429 3.7380953-.452381 6.6666667-3.6428572 6.6666667-7.5 0-4.19047621-3.4047619-7.59523811-7.5714286-7.59523811zm-8.21428569 7.02380952c3.97619049 0 7.19047619 3.21428569 7.19047619 7.19047619s-3.2142857 7.2142857-7.19047619 7.2142857c-3.97619047 0-7.21428571-3.2380952-7.21428571-7.2142857 0-3.952381 3.23809524-7.19047619 7.21428571-7.19047619zm2.95537939 8.79103579c0-.488267-.1202699-.8777977-.3608132-1.1686037-.2405433-.2908061-.5277548-.5026246-.8616433-.635462-.3338884-.1328373-.7629107-.2638776-1.28707965-.3931247-.37338062-.0933452-.66418233-.1759185-.87241383-.2477225-.20823151-.0718039-.38055845-.1705329-.51698598-.2961898-.13642754-.125657-.20464029-.2890086-.20464029-.4900597 0-.2872158.1166797-.5169851.35004259-.6893146.2333629-.1723295.5439104-.258493.93165182-.258493.33747864 0 .62289513.0466719.85625804.140017.2333629.0933452.4972385.2333608.7916348.4200511.1220667.071804.2172055.1184759.2854193.1400171s.1418117.0323116.2207961.0323116c.1436079 0 .2710581-.0682127.3823542-.2046403.1112962-.1364275.1669434-.2943939.1669434-.4739038 0-.1292471-.0233359-.2405416-.0700085-.3338868-.0466726-.0933451-.1238607-.1759185-.2315666-.2477224-.5672514-.4021022-1.1739858-.6462321-1.82022151-.7323968v-.5923798c0-.1938707-.05923739-.350042-.17771394-.4685185-.11847654-.1184766-.27464783-.177714-.46851854-.177714-.18669031 0-.34106653.0592374-.46313327.177714-.12206675.1184765-.1830992.2746478-.1830992.4685185v.6139209c-.6677769.1148863-1.20809365.380557-1.62096646.79702s-.61930612.9154931-.61930612 1.4971052c0 .4954474.12385999.8903633.37158368 1.1847596.24772368.2943962.5439106.5098049.88856965.6462324.34465904.1364276.78265667.2728531 1.31400603.4092806.36620023.1005256.6462315.1830989.84010221.2477225.19387067.0646235.35722227.1543771.49005967.2692635.1328373.1148863.199255.2620823.199255.4415922 0 .2943962-.1148847.5223704-.3446573.6839293-.22977274.161559-.56006604.2423372-.99088984.2423372-.32311785 0-.63366535-.0448768-.93165182-.1346317-.29798646-.089755-.61212411-.2315657-.94242236-.4254364-.2010511-.1148864-.3697879-.1723287-.50621543-.1723287-.14360794 0-.27105807.0682128-.38235422.2046403s-.16694339.2943939-.16694339.4739038c0 .1364276.02333594.2495171.07000852.3392721.04667258.0897549.12745083.1705332.24233718.2423371.28003547.2010512.60494355.3661978.97473398.4954449.36979043.1292472.75214082.2118205 1.14706264.2477225v.5816092c0 .1938707.06103246.350042.1830992.4685186.12206675.1184765.27644296.1777139.46313328.1777139.19387071 0 .35004199-.0592374.46851854-.1777139.11847654-.1184766.17771393-.2746479.17771393-.4685186v-.6139208c.67495729-.1148864 1.21168389-.3715817 1.61019589-.7700937s.5977651-.8885668.5977651-1.4701789z" fill="#cdcdcd" fill-rule="nonzero"/></g></svg>