<svg height="22" viewBox="0 0 23 22" width="23" xmlns="http://www.w3.org/2000/svg"><g fill="none" fill-rule="evenodd"><path d="m-2-2h27v27h-27z"/><g stroke="#cdcdcd" stroke-width="2" transform="translate(1 1.5)"><path d="m2.93884426 14.0168335c-.07790051-.4674031-.1208801-.9482372-.1208801-1.4371301 0-3.70161711 2.33432896-6.8552445 5.61152266-8.07479035"/><path d="m16.020642 17.4119914c-1.4908545 1.2356632-3.4034462 1.9770611-5.4906426 1.9770611-2.08719628 0-3.99978801-.7413979-5.49064252-1.9770611"/><path d="m12.6305121 4.50222683c3.2771937 1.21954585 5.6115226 4.37317323 5.6115226 8.07479037 0 .4888928-.0402933.969727-.1208801 1.43713"/><path d="m13.5788641 3.0676682c0 .18266326-.0161174.36264029-.0456658.53724487-.2525051 1.42638513-1.5015994 2.51161977-3.0005126 2.51161977-1.49891322 0-2.74800754-1.08254841-3.00051263-2.51161977-.02954847-.17460458-.04566581-.35458161-.04566581-.53724487 0-1.68426266 1.36460196-3.04886463 3.04886464-3.04886463 1.6842627 0 3.0434922 1.36460197 3.0434922 3.04886463z"/><path d="m20.6275168 17.5061241c-.8407883 1.4586198-2.705028 1.9582575-4.1636478 1.1147831-.1584872-.0913317-.3062295-.1960944-.443227-.311602-1.1067244-.9348061-1.4210127-2.5545994-.6715561-3.8520458.7494566-1.3001325 2.310153-1.8373774 3.6747549-1.3431121.1665459.0617831.3304056.1369974.4888929.228329 1.4559336.8434745 1.9555713 2.7077142 1.1147831 4.1636478z"/><path d="m5.03935688 18.3119914c-.13431122.1155076-.28473978.2175841-.44322702.311602-1.45861982.8407882-3.32285952.3411505-4.16364774-1.1147831s-.34115049-3.3201733 1.1147831-4.1636477c.15848724-.0913317.32234693-.166546.48889284-.2283291 1.36191574-.4942653 2.92261209.0456658 3.6747549 1.3431122.7494566 1.2974463.43516835 2.9172396-.67155608 3.8520457z"/></g></g></svg>