<svg height="23" viewBox="0 0 25 23" width="25" xmlns="http://www.w3.org/2000/svg"><g fill="none" fill-rule="evenodd" transform="translate(-1 -2)"><path d="m0 0h27v27h-27z"/><path d="m16.5489441 16.0447268c3.4568199.6095307 6.7647537-1.7067095 7.3742843-5.1635294.6095306-3.45681985-1.7067095-6.76475359-5.1635294-7.3742842s-6.7647537 1.70670952-7.3742843 5.16352941c-.046936.26618743-.3008241.44417311-.5672526.39719457s-.4441306-.30106521-.3971946-.56725263c.7032751-3.98847141 4.5203181-6.66119367 8.5087895-5.95791855s6.6611937 4.52031809 5.9579186 8.5087895c-.7032751 3.9884714-4.5203181 6.6611937-8.5087895 5.9579185-.2661875-.046936-.4441731-.300824-.3971946-.5672526.0469785-.2664285.3010652-.4441306.5672526-.3971946zm1.8436681-9.66505956c-.8920209 0-1.8480531.59796324-1.9695759 1.93392658l.7817247.07110169c.1051753-1.15850455.9979841-1.21719791 1.1772155-1.21719791.2771193 0 1.1695342.07267735 1.1695342 1.00940765 0 .49416659-.2883459.73445485-.7185013 1.08523632-.3931274.32025304-.9312155.71889521-.9312155 1.45059263v.3939152h.7878304v-.3939152c0-.3409336.2627414-.5319824.640506-.84022106.4386246-.35728106 1.0328457-.80220826 1.0328457-1.69560789 0-1.07499453-.7921635-1.79723801-1.9703638-1.79723801zm.2970121 6.49979746h-.7878304v.7878303h.7878304zm-5.7946297-2.5098239h-8.81392822c-1.07995104 0-2.08106638.8786996-2.08106638 1.9586507v8.3242655c0 1.0801959 1.00111534 1.9586507 2.08106638 1.9586507h2.69314473l1.32208923 1.7625408c.09230141.123395.23773123.1961099.39173014.1961099s.29942873-.0727149.39173014-.1961099l1.32208928-1.7625408h2.6931447c1.0801959 0 1.836235-.8784548 1.836235-1.9586507v-8.3242655c0-1.0799511-.7560391-1.9586507-1.836235-1.9586507zm.8569097 10.2829162c0 .5398531-.3170566.9793254-.8569097.9793254h-2.93797608c-.15399892 0-.29942873.0727149-.39173015.1961099l-1.07725789 1.4359358-1.07725789-1.4359358c-.09230141-.123395-.23773123-.1961099-.39173014-.1961099h-2.93797607c-.54009793 0-1.10174102-.4394723-1.10174102-.9793254v-8.3242655c0-.540098.56164309-.9793254 1.10174102-.9793254h8.81392822c.5398531 0 .8569097.4392274.8569097.9793254zm-5.7941785-2.6916757-2.06147987-2.0614799-.69238303.692383 2.44831339 2.4483134c.09181175.0923014.21667574.1434712.34619151.1434712.00905876 0 .01811752-.0004897.02717628-.0009794.13857454-.0075897.26833515-.0741839.35525028-.1826441l3.91730144-4.8966268-.765098-.6120784z" fill="#00c8e5" fill-rule="nonzero" stroke="#00c8e5" stroke-width=".81"/></g></svg>