<svg height="17" viewBox="0 0 14 17" width="14" xmlns="http://www.w3.org/2000/svg"><path d="m9.8441567 8.96501559c-1.58614711 1.18681651-3.28077464.61027129-4.85222441-.30737694.20576287-1.696123.51487376-3.14292915.61425583-3.34891439.22675908-.47067093.68680939-3.07910576 3.20332195-2.38110397 2.51674583.69800179 2.17124153 5.18698578 1.03464663 6.0373953m.3025787-7.14565991c-1.6866956-.8807203-3.87566726-.03308571-4.91311339 1.19706239-.75772993.89822371-1.64143713 2.22592131-1.87472836 5.00085197.03872634.01045935-2.09962112-1.28073723-2.09962112-1.28073723l-.84614731.85894777c1.54602101 1.27561428 2.71247719 1.91598289 2.66885173 1.93455358-.37279939 3.85843434.88020783 6.48629374.88020783 6.48629374l1.73078768-.1402408c-.48314615-1.8634726-.96722547-3.8170238-.82701743-5.7334336.74956474.3641563 1.29756585.4721651 1.49982935.5061046 2.03406628.3398223 4.44069862-.1252988 5.46718012-2.67204474 1.0267147-2.54695943 0-5.27663738-1.6862291-6.15735768" fill="#00c8e5" fill-rule="evenodd" stroke="#00c8e5" stroke-width="1.04" transform="translate(1.078125 -.421875)"/></svg>