<?xml version="1.0" encoding="UTF-8"?>
<svg width="85px" height="86px" viewBox="0 0 85 86" version="1.1" xmlns="http://www.w3.org/2000/svg" xmlns:xlink="http://www.w3.org/1999/xlink">
    <!-- Generator: sketchtool 50.2 (55047) - http://www.bohemiancoding.com/sketch -->
    <title>235C2F0C-B3AB-4068-AC74-545D0F1F7E5D</title>
    <desc>Created with sketchtool.</desc>
    <defs>
        <linearGradient x1="50%" y1="79.3865525%" x2="50%" y2="3.061617e-15%" id="linearGradient-1">
            <stop stop-color="#FFFFFF" offset="0%"></stop>
            <stop stop-color="#434555" offset="100%"></stop>
        </linearGradient>
    </defs>
    <g id="p-click---with-flows" stroke="none" stroke-width="1" fill="none" fill-rule="evenodd">
        <g id="earnings-verifyAddress" transform="translate(-358.000000, -2880.000000)">
            <g id="Group-27-Copy-3" transform="translate(243.000000, 2709.000000)">
                <g id="address" transform="translate(115.000000, 118.000000)">
                    <g id="mail-address" transform="translate(0.000000, 53.000000)">
                        <path d="M44.1102009,85.3447266 L44.1102009,85.3447266 C45.9617908,85.3447266 47.462801,83.8437164 47.462801,81.9921265 L47.462801,55.200001 L40.7576009,55.200001 L40.7576009,81.9921265 C40.7576009,83.8437164 42.2586111,85.3447266 44.1102009,85.3447266 Z" id="Fill-4" fill="url(#linearGradient-1)"></path>
                        <path d="M84.6500015,58.400001 L0.920400252,58.400001 L0.920400252,27.2000006 C0.920400252,16.1544004 9.87480039,7.20000027 20.9204006,7.20000027 L64.6500012,7.20000027 C75.6956014,7.20000027 84.6500015,16.1544004 84.6500015,27.2000006 L84.6500015,58.400001 Z" id="Fill-6" fill="#EE8C78"></path>
                        <path d="M41.1466809,58.406241 L0.920680252,58.406241 L0.920680252,27.1998406 C0.920680252,16.1542404 9.87468039,7.19984027 20.9206806,7.19984027 L21.1466806,7.19984027 C32.1922807,7.19984027 41.1466809,16.1542404 41.1466809,27.1998406 L41.1466809,58.406241 Z" id="Fill-8" fill="#E05F45"></path>
                        <path d="M39.6468009,56.906401 L39.6468009,27.2000006 C39.6468009,16.9828275 31.3639736,8.70000027 21.1468006,8.70000027 L20.9204006,8.70000027 C10.7032275,8.70000027 2.42040025,16.9828275 2.42040025,27.2000006 L2.42040025,56.906401 L39.6468009,56.906401 Z" id="Fill-10" stroke="#BE6351" stroke-width="3" fill="#D27A68"></path>
                        <path d="M33.5989561,51.0993303 L33.5989561,27.9932646 C33.5989561,21.0973967 28.0086303,15.507071 21.1127624,15.507071 L20.9544387,15.507071 C14.0585708,15.507071 8.46824503,21.0973967 8.46824503,27.9932646 L8.46824503,51.0993303 L33.5989561,51.0993303 Z" id="Fill-10" stroke="#BE6351" stroke-width="3" fill="#BE6351"></path>
                        <polygon id="Fill-15" fill="#6A6A6A" points="50.463201 24.4000005 52.331601 24.4000005 52.331601 1.20000018 50.463201 1.20000018"></polygon>
                        <path d="M54.200001,24.1000005 C54.200001,26.2540006 53.010001,28.0000006 51.541601,28.0000006 C50.074001,28.0000006 48.883601,26.2540006 48.883601,24.1000005 C48.883601,21.9460005 50.074001,20.2000005 51.541601,20.2000005 C53.010001,20.2000005 54.200001,21.9460005 54.200001,24.1000005" id="Fill-17" fill="#F5ED95"></path>
                        <polygon id="Fill-18" fill="#F5ED95" points="50.463201 7.19984027 62.2496012 7.19984027 62.2496012 0.199840167 50.463201 0.199840167"></polygon>
                    </g>
                </g>
            </g>
        </g>
    </g>
</svg>