<svg width="135" height="57" viewBox="0 0 135 57" fill="none" xmlns="http://www.w3.org/2000/svg">
<path fill-rule="evenodd" clip-rule="evenodd" d="M30.3651 51.6704C30.3636 51.591 30.3629 51.5117 30.3606 51.4323C30.3421 50.7835 30.3421 50.7833 29.7108 50.6752C25.9236 50.0276 22.7336 48.2847 20.1602 45.4105C19.8169 45.0269 19.8164 45.0276 19.4527 45.4115C19.0028 45.8862 18.5313 46.3353 17.974 46.6845C16.7998 47.4191 15.7337 47.3779 14.6279 46.5422C13.8372 45.9445 13.2358 45.1722 12.6754 44.3647C11.1802 42.2113 10.1521 39.8287 9.2845 37.3675C7.9158 33.4863 6.79296 29.5309 5.74707 25.5517C6.03018 25.5303 6.19837 25.7079 6.35522 25.9066C6.45337 26.5657 6.66078 27.1987 6.82995 27.84C7.67535 31.0427 8.59867 34.2221 9.67711 37.3544C10.5255 39.8193 11.5561 42.1954 13.0409 44.3508C13.5657 45.1129 14.1495 45.8205 14.8863 46.3869C15.1468 46.5871 15.4365 46.7361 15.7483 46.839C16.4001 47.0538 17.0181 46.939 17.6028 46.6186C18.2847 46.2451 18.8674 45.7409 19.3959 45.173C19.6073 44.9458 19.5986 44.8944 19.3858 44.6534C18.9996 44.2154 18.6386 43.7556 18.2943 43.2847C18.1249 43.0525 17.9397 42.9878 17.662 43.0255C17.1949 43.0885 16.7305 43.1959 16.2536 43.1701C16.1924 43.149 16.1315 43.1277 16.1404 43.0436C16.2602 42.9223 16.4245 42.9119 16.5757 42.8769C17.5853 42.6451 18.5984 42.4276 19.6154 42.2314C20.5656 42.0484 21.4127 41.6401 22.196 41.0913C23.7511 40.0018 25.0168 38.6214 26.1196 37.0826C26.3019 36.8279 26.2922 36.7994 26.0128 36.6332C25.962 36.6029 25.9063 36.5781 25.8614 36.5402C25.6059 36.3262 25.3702 36.3934 25.1055 36.5474C23.927 37.2341 22.6764 37.7403 21.3264 37.96C20.157 38.15 18.9838 38.236 17.7937 38.1443C16.9774 38.0815 16.1643 38.0111 15.3557 37.8866C15.22 37.8658 15.0802 37.8541 14.9655 37.7631C14.9421 37.71 14.9692 37.6704 14.9986 37.6312C15.0755 37.4985 15.001 37.3789 14.9576 37.2631C14.3579 35.661 13.9426 34.0123 13.7332 32.3135C13.5744 31.0239 13.5354 29.7315 13.6202 28.4315C13.7026 27.1716 13.8883 25.9314 14.1697 24.7035C14.2123 24.5167 14.1887 24.3885 13.964 24.3784C13.9048 24.3756 13.8474 24.3583 13.7978 24.3226C13.7393 24.1928 13.8516 24.1998 13.9184 24.17C14.7174 24.1259 15.511 24.2236 16.3036 24.2948C17.5202 24.4041 18.7306 24.5698 19.9279 24.8196C21.3023 25.1062 22.6451 25.4902 23.909 26.1203C24.7339 26.5315 25.4212 27.1079 26.0205 27.8105C26.655 28.5542 27.3354 29.2576 27.9823 29.9909C28.42 30.4872 28.9017 30.9428 29.3263 31.4514C29.4149 31.5573 29.5111 31.659 29.6243 31.7389C29.7106 31.7999 29.8095 31.9142 29.9081 31.8549C30.0215 31.7867 29.9712 31.6394 29.953 31.5243C29.914 31.2793 29.8543 31.0392 29.7769 30.8031C29.2176 29.0961 28.3266 27.5781 27.1926 26.196C26.4304 25.2672 25.5638 24.4498 24.6264 23.7045C24.5415 23.6371 24.45 23.5753 24.4143 23.464C24.544 23.1758 24.69 23.1175 24.9337 23.277C25.2811 23.5046 25.5973 23.776 25.9063 24.052C27.7581 25.7064 29.2526 27.6262 30.1752 29.9592C30.4191 30.5752 30.6625 31.198 30.6095 31.8852C30.592 32.1121 30.7338 32.1805 30.9217 32.188C31.4043 32.2071 31.8842 32.2175 32.3575 32.0717C32.7619 31.9472 33.1711 31.844 33.6066 31.9479C34.1893 32.0866 34.5933 32.5079 34.6845 33.1086C34.8088 33.925 34.5861 34.6715 34.1612 35.3456C33.1937 36.8795 31.8085 37.6805 29.9799 37.7162C28.9823 37.7358 28.0415 37.5372 27.13 37.1597C26.9396 37.0811 26.8252 37.1056 26.7125 37.2832C26.004 38.3995 25.1684 39.4116 24.2081 40.3178C23.8416 40.6635 23.4537 40.9852 23.0527 41.2902C22.6086 41.5846 22.157 41.8653 21.6808 42.1081C21.0135 42.4486 20.3156 42.6726 19.5737 42.7636C19.2896 42.7988 19.2758 42.8283 19.461 43.0585C21.0243 45.0011 22.8051 46.6902 25.003 47.9007C25.6446 48.2541 26.3068 48.555 26.9904 48.8131C28.0871 49.2477 29.2311 49.4986 30.3863 49.7099C30.5523 49.7682 30.5451 49.9192 30.5653 50.0534C30.7025 50.9733 30.8186 51.8971 31.0709 52.7948C31.1922 53.3186 31.3797 53.8151 31.684 54.2623C32.0061 54.736 32.4894 54.886 33.03 54.6898C33.6465 54.4659 34.0877 54.014 34.5067 53.5403C34.9447 53.0448 35.3309 52.5074 35.6878 51.9496C36.2801 51.0655 36.8094 50.1437 37.3068 49.2028C37.3968 49.0326 37.4543 48.833 37.655 48.7459C37.7053 48.7608 37.7275 48.7988 37.7379 48.8471C37.7475 48.9295 37.7255 49.0083 37.6829 49.0733C37.4547 49.4215 37.4686 49.7918 37.5425 50.1831C37.6409 50.7064 37.7386 51.2292 37.8802 51.7426C38.0044 52.2557 38.1874 52.7438 38.4853 53.184C38.8089 53.6616 39.2891 53.8151 39.8299 53.6209C40.4479 53.399 40.8906 52.9469 41.3101 52.4727C41.7485 51.9769 42.1352 51.439 42.4931 50.881C43.1755 49.8823 43.7483 48.8181 44.3225 47.7557C44.4722 47.4789 44.6177 47.2805 44.9602 47.1751C45.5508 46.9933 46.1008 46.6825 46.6421 46.3765C48.0436 45.5851 49.3043 44.602 50.4197 43.4409C51.132 42.6996 51.7887 41.9065 52.3145 41.0142C52.369 40.9517 52.4474 40.8984 52.3971 40.7952C52.4506 40.5675 52.5966 40.387 52.7068 40.1896C53.5707 38.6388 54.1653 36.9869 54.5698 35.2607C54.6193 35.0509 54.5747 34.952 54.3577 34.9046C53.8812 34.801 53.4447 34.5993 53.0408 34.3218C52.3401 33.8399 52.0385 33.1532 51.9981 32.3241C51.965 31.6471 52.0873 31.0028 52.3914 30.3962C52.4442 30.2913 52.4859 30.1754 52.6028 30.1189C52.66 30.1149 52.6881 30.1479 52.7017 30.1987C52.712 30.3017 52.6745 30.3944 52.6366 30.4854C52.3978 31.0551 52.4178 31.6508 52.4819 32.2438C52.5722 33.0796 53.0484 33.6648 53.7897 33.9895C54.9288 34.488 56.0911 34.5425 57.2063 33.9111C57.8611 33.5401 58.1874 32.9236 58.2608 32.1783C58.3084 31.6987 58.248 31.2242 58.0862 30.7714C57.8034 29.9778 57.2475 29.4674 56.4374 29.2447C56.0366 29.1346 55.6297 29.0634 55.2107 29.0788C55.0748 29.084 54.933 29.1026 54.807 29.0222C54.7838 28.9964 54.7779 28.9672 54.7893 28.9342C54.9409 28.832 54.9567 28.6916 54.9372 28.518C54.6391 25.8887 53.8896 23.3965 52.677 21.0497C51.8141 19.3796 50.7527 17.8494 49.4784 16.4633C47.4833 14.2928 45.0593 12.8115 42.2938 11.8765C40.7004 11.3378 39.057 11.0244 37.3822 10.8547C36.0246 10.7171 34.666 10.7434 33.3077 10.757C32.6709 10.7635 32.0356 10.8684 31.3964 10.884C31.3365 10.7146 31.3636 10.6749 31.5782 10.6147C32.826 10.5169 34.0729 10.4133 35.3275 10.4269C37.0276 10.4455 38.7125 10.5941 40.3737 10.9634C40.6087 11.0157 40.7133 10.9537 40.8339 10.754C42.3278 8.28417 44.4904 6.61684 47.1048 5.49314C47.2668 5.42345 47.3028 5.48942 47.3561 5.61392C47.9953 7.09946 48.4873 8.63038 48.7613 10.2278C48.96 11.3879 49.0407 12.5493 48.763 13.7105C48.6937 13.9999 48.6034 14.2829 48.4683 14.5477C48.4061 14.6698 48.4002 14.7449 48.5198 14.8476C50.8 16.8043 52.4955 19.2005 53.7525 21.9226C53.8272 22.0843 53.9318 22.1617 54.0923 22.2076C54.6561 22.3685 55.1767 22.6217 55.6475 22.9749C56.6169 23.7025 56.9676 24.6856 56.8354 25.8718C56.7311 26.8066 56.4176 27.6798 56.0724 28.5446C56.0324 28.6453 55.9935 28.7462 55.9422 28.8771C56.8038 28.9763 57.5627 29.2608 58.0875 29.9832C58.5299 30.5926 58.6781 31.2972 58.6858 32.0308C58.7008 33.4545 57.9287 34.3188 56.1168 34.9006C56.2517 35.014 56.3664 35.1092 56.4795 35.2057C57.3457 35.9452 57.3207 36.8916 56.4098 37.5788C55.8822 37.9766 55.2771 38.2157 54.645 38.3804C54.4403 38.4337 54.337 38.5272 54.2563 38.7221C52.7601 42.3417 50.3975 45.2109 46.9913 47.1709C46.1693 47.6441 45.301 48.0183 44.4285 48.3819C44.23 48.4647 44.1133 48.5847 44.0189 48.7717C43.3518 50.0993 42.6164 51.3859 41.7108 52.5669C41.6931 52.6235 41.6928 52.6887 41.6529 52.7338C41.0358 53.4325 40.419 54.1323 39.4383 54.3161C38.872 54.4225 38.4146 54.2298 38.0446 53.8012C37.6515 53.3459 37.4755 52.7909 37.3329 52.2207C37.2372 51.8073 37.1628 51.3901 37.1403 50.9651C37.1351 50.8671 37.1351 50.7525 37.0173 50.721C36.8902 50.6871 36.8168 50.7798 36.762 50.8773C36.5253 51.2979 36.2952 51.7225 36.0313 52.1275C35.4949 53.0079 34.9055 53.8461 34.1462 54.5512C33.7057 54.9602 33.2236 55.29 32.6154 55.3919C32.0482 55.4869 31.5905 55.2962 31.2282 54.8605C30.6938 54.2179 30.5523 53.427 30.3925 52.6384C30.3266 52.312 30.4149 51.9913 30.3651 51.6704Z" fill="#8F4A50"/>
<mask id="mask0" mask-type="alpha" maskUnits="userSpaceOnUse" x="19" y="51" width="29" height="6">
<path fill-rule="evenodd" clip-rule="evenodd" d="M47.4175 56.9673H19.8898L19.8898 51.6701H47.4175V56.9673Z" fill="white"/>
</mask>
<g mask="url(#mask0)">
<path opacity="0.2" fill-rule="evenodd" clip-rule="evenodd" d="M37.3899 52.2102C37.5119 52.5753 37.6103 52.948 37.7899 53.2925C38.2917 54.2557 39.0967 54.5199 40.0636 54.0291C40.7389 53.6861 41.2284 53.1303 41.7108 52.5668C41.7907 52.6757 41.9103 52.6735 42.0277 52.6923C43.5022 52.9299 44.973 53.1831 46.3654 53.7605C46.6502 53.8788 46.9106 54.0323 47.1489 54.2287C47.5111 54.5273 47.5074 54.9482 47.1348 55.2309C46.7025 55.5585 46.2016 55.743 45.6906 55.8888C44.3271 56.2775 42.931 56.4836 41.5224 56.6264C40.437 56.7363 39.3514 56.8154 38.2621 56.8724C37.8098 56.8962 37.358 56.9032 36.9062 56.9171C36.2374 56.9377 35.5681 56.9766 34.8998 56.9654C33.5225 56.9424 32.1439 56.9265 30.769 56.8447C28.202 56.6924 25.6424 56.4501 23.1242 55.8963C22.2401 55.7019 21.3622 55.4732 20.5607 55.0273C20.2494 54.8542 19.8941 54.6823 19.8899 54.2706C19.8854 53.8547 20.2386 53.6754 20.5557 53.5145C21.4435 53.0636 22.4095 52.8751 23.3755 52.6896C24.5815 52.4577 25.8024 52.3379 27.0227 52.2276C27.8738 52.1507 28.7305 52.1351 29.5848 52.0936C29.6928 52.0884 29.8013 52.0939 29.9098 52.0904C30.3184 52.0768 30.335 52.0609 30.3653 51.6701C30.4477 52.2764 30.477 52.8905 30.6496 53.4827C30.7609 53.8641 30.8889 54.2381 31.1069 54.5729C31.5989 55.3284 32.2825 55.5354 33.1037 55.1734C33.7908 54.8705 34.2998 54.3465 34.7757 53.7848C35.2241 53.2555 35.5906 52.6675 35.9797 52.0959C36.4552 52.0671 36.9361 51.9672 37.3899 52.2102Z" fill="black"/>
</g>
<path fill-rule="evenodd" clip-rule="evenodd" d="M6.30928 25.8876C6.12186 25.7757 5.93443 25.6636 5.747 25.5518C4.61628 24.8499 3.50158 24.1208 2.3494 23.4572C1.63397 23.0447 1.08402 22.4736 0.488941 21.8112C0.865521 21.9458 1.13556 22.1249 1.3987 22.2995C1.62435 22.4493 1.7558 22.4262 1.93361 22.2251C2.74028 21.3134 3.48728 20.3554 4.19284 19.3636C4.24783 19.1593 4.40665 19.0204 4.51368 18.8488C4.9645 18.222 5.49398 17.6663 6.04442 17.1291C6.11396 17.0624 6.18104 16.9932 6.25823 16.9347C6.62347 16.6363 6.98377 16.3318 7.36824 16.0587C7.5278 15.9451 7.52016 15.8397 7.4114 15.6904C7.13939 15.3167 6.8686 14.9417 6.58401 14.5771C6.5152 14.4772 6.38105 14.4192 6.3882 14.2704C5.64367 13.3054 4.75611 12.4966 3.72255 11.858C2.57406 11.1482 1.43495 10.4184 0.180427 9.90227C-0.0301814 9.81572 0.0465156 9.61633 0.00681072 9.46877C-0.0358535 9.31128 0.132337 9.32269 0.221858 9.28946C3.16594 8.19899 6.111 7.111 9.05582 6.02251C9.15743 5.98506 9.26273 5.95406 9.35842 5.90471C9.86817 5.64207 10.1296 5.67853 10.5274 6.10361C11.0418 6.65368 11.3503 7.33147 11.6586 8.00703C12.0574 8.88 12.3861 9.7815 12.6922 10.6899C12.8196 11.0689 13.0931 10.8697 13.3023 10.8992C13.523 10.9302 13.465 10.7202 13.483 10.6021C13.7992 8.51172 14.3351 6.49619 15.453 4.67535C15.8387 4.04691 16.3139 3.49213 16.8459 2.9862C17.8563 2.02544 18.8713 1.06963 19.8807 0.108121C19.9927 0.00147954 20.0602 -0.0550652 20.2134 0.0763766C22.0785 1.6817 23.9496 3.28058 25.8266 4.87177C26.0054 5.02355 26.0076 5.08877 25.8226 5.23088C25.5178 5.46524 25.2369 5.73135 24.9476 5.98605C24.884 6.04185 24.7994 6.08476 24.8347 6.20256C25.0672 6.97583 25.2574 7.76101 25.4502 8.58686C25.9334 7.93015 26.3987 7.31634 26.9176 6.74618C27.7211 5.86304 28.5896 5.06249 29.6925 4.56499C29.8447 4.49654 30.0042 4.44322 30.1628 4.39089C30.697 4.21481 31.1717 4.2287 31.697 4.55036C33.6479 5.7445 35.6339 6.8811 37.6068 8.03927C37.6907 8.08862 37.7743 8.13823 37.9319 8.23098C37.4342 8.29521 37.011 8.3339 36.5933 8.40632C34.8231 8.71335 33.167 9.30012 31.7488 10.4521C31.6881 10.5015 31.6348 10.5602 31.5781 10.6148C31.4923 10.6746 31.4084 10.7366 31.3566 10.8318C31.3594 10.896 31.3275 10.9469 31.2856 10.9885C30.6106 11.6594 30.2326 12.5212 29.7842 13.3386C29.6681 13.5502 29.6217 13.8073 29.4064 13.9586C29.2037 13.8547 29.1147 13.6774 29.0873 13.4596C29.3226 12.9572 29.4999 12.4297 29.7354 11.9272C30.5339 10.2222 31.8906 9.12925 33.57 8.38871C34.2139 8.10499 34.8872 7.91577 35.6172 7.7558C35.2539 7.49242 34.8988 7.28881 34.5535 7.07181C33.4664 6.38881 32.3737 5.71399 31.2984 5.01214C31.018 4.82912 30.7492 4.82019 30.455 4.89037C29.8114 5.04438 29.2402 5.35389 28.7085 5.73978C27.5445 6.58448 26.6222 7.66776 25.7388 8.78948C25.6211 8.93903 25.6224 9.09502 25.6589 9.26689C25.8214 10.0335 25.9334 10.8087 26.031 11.5857C26.0507 11.7427 26.123 11.9146 26.0059 12.0696C25.7953 12.0914 25.5891 12.0926 25.4179 11.9374C25.212 11.2341 25.0909 10.5101 24.9104 9.80035C24.6611 8.82123 24.4098 7.84285 24.1341 6.87118C24.046 6.56117 24.0105 6.54356 23.6931 6.61003C21.2334 7.1229 18.7692 7.61519 16.3117 8.13971C16.2922 8.14393 16.273 8.1474 16.2538 8.15162C15.9272 8.22081 15.9238 8.22924 16.1243 8.48345C16.5776 9.05757 17.0348 9.62873 17.49 10.2014C17.638 10.3871 17.7783 10.5781 17.9147 10.7725C18.0612 10.9818 18.1914 11.21 18.4651 11.2849C18.5122 11.2978 18.5428 11.3442 18.5095 11.402C18.3002 11.5158 18.0965 11.4538 17.8932 11.3826C17.6449 11.24 17.5058 10.991 17.3295 10.7812C16.6358 9.95683 15.9322 9.1414 15.2256 8.32844C14.8473 7.89345 14.8557 7.84707 15.4061 7.71191C18.1633 7.03436 20.9246 6.37343 23.6823 5.69762C24.0598 5.60512 24.3363 5.39927 24.6063 5.14904C24.7496 5.01636 24.6473 4.93948 24.5587 4.86309C24.0736 4.44273 23.613 3.99558 23.1353 3.56727C22.4297 2.93462 21.7276 2.29824 21.0272 1.65988C20.772 1.42725 20.4965 1.21645 20.2637 0.958773C20.0938 0.770538 19.9436 0.872468 19.8082 1.00416C19.4753 1.3278 19.1211 1.62764 18.7766 1.93839C18.168 2.48697 17.5406 3.01522 16.9487 3.58116C16.1033 4.38941 15.4843 5.35984 14.9899 6.4213C14.3997 7.68785 14.0261 9.01789 13.7556 10.3824C13.6705 10.8112 13.6697 10.8211 14.1107 10.872C14.6204 10.9305 15.1248 11.0208 15.6276 11.1182C15.7036 11.1329 15.9026 11.0843 15.8266 11.2988C15.5687 11.3915 15.3011 11.3233 15.0394 11.3499C14.9413 11.3595 14.8157 11.299 14.7566 11.4394C14.7504 11.4706 14.7423 11.5012 14.7339 11.5317C14.6939 11.6368 14.6944 11.7618 14.5866 11.8335C14.1459 11.8744 13.7154 11.7216 13.2749 11.764C13.1632 11.7687 13.0515 11.7618 12.9402 11.7618C11.7064 11.7191 10.5417 12.0416 9.39714 12.455C8.94312 12.6189 8.49823 12.8089 8.06715 13.0289C7.8124 13.1591 7.80574 13.1846 8.02374 13.3656C8.74484 13.9648 9.4615 14.5695 10.1826 15.1684C11.7005 16.4295 13.2118 17.6988 14.7181 18.9737C14.906 19.1327 15.0855 19.3031 15.2954 19.435C15.3904 19.5228 15.4382 19.627 15.4047 19.7587C15.2424 19.8881 15.1477 19.7316 15.0518 19.6577C14.0663 18.8979 13.0855 18.1318 12.0998 17.3721C11.2704 16.733 10.4443 16.09 9.626 15.4365C9.47679 15.3174 9.34584 15.2976 9.16976 15.3938C7.39636 16.3628 5.94281 17.6883 4.78225 19.3448C4.03279 20.4146 3.27642 21.4796 2.43645 22.4803C2.29169 22.6529 2.28306 22.7221 2.49465 22.8446C4.29716 23.8872 6.10065 24.9281 7.90611 25.9657C8.28244 26.182 8.66025 26.3967 9.02968 26.6247C9.22204 26.7432 9.33031 26.7293 9.44202 26.5096C9.93944 25.5334 10.68 24.7483 11.4685 24.0119C12.6766 22.8838 14.0096 21.9104 15.34 20.9362C15.4643 20.8452 15.5763 20.7165 15.7578 20.7522C15.9107 20.8551 15.9758 20.9984 15.9539 21.1817C15.6493 21.547 15.2661 21.8278 14.909 22.1343C13.8236 23.0653 12.7126 23.9688 11.7301 25.0126C11.0813 25.7021 10.4381 26.4022 10.0773 27.3064C9.9752 27.5624 9.73722 27.6819 9.51181 27.8056C9.42402 27.854 9.33844 27.8233 9.25977 27.7766C8.30982 27.2134 7.37885 26.6192 6.43579 26.0446C6.37611 26.0084 6.32457 25.9617 6.30928 25.8876Z" fill="#5F9D45"/>
<path fill-rule="evenodd" clip-rule="evenodd" d="M6.38827 14.2704C6.46768 14.3612 6.54733 14.452 6.62674 14.5427C6.62107 14.6826 6.49702 14.7054 6.40874 14.756C5.73351 15.1441 5.07159 15.5541 4.4304 15.997C4.35247 16.0508 4.25234 16.0818 4.19759 16.2145C4.74878 16.4025 5.29799 16.5803 5.843 16.77C5.99664 16.8234 6.17692 16.8318 6.28099 16.989C6.21366 17.0488 6.14658 17.1088 6.07926 17.1688C5.95077 17.2395 5.82993 17.182 5.71008 17.1423C5.26198 16.9937 4.81585 16.84 4.36702 16.6942C4.12706 16.6163 4.10955 16.6344 4.1643 16.8869C4.27552 17.3985 4.39242 17.9086 4.51351 18.418C4.54976 18.5705 4.60401 18.7231 4.54976 18.8835C4.45481 19.0613 4.33446 19.2206 4.19291 19.3637C3.94013 18.3384 3.68759 17.3132 3.43432 16.2879C3.40448 16.1664 3.48093 16.1094 3.56478 16.0506C4.47873 15.4132 5.406 14.7979 6.38827 14.2704Z" fill="#8F4A51"/>
<path fill-rule="evenodd" clip-rule="evenodd" d="M29.3979 13.9247C29.7878 13.2424 30.0953 12.515 30.5161 11.8496C30.7531 11.4749 31.0132 11.1183 31.3565 10.8318C32.8379 10.6694 34.3248 10.6141 35.8131 10.6704C39.2127 10.7991 42.4667 11.5109 45.466 13.1896C48.7921 15.0511 51.1291 17.8424 52.8428 21.2046C54.0268 23.5276 54.7387 25.9963 55.026 28.5901C55.0465 28.7764 55.0751 28.9579 54.7994 28.9522C54.7062 29.0303 54.5945 29.0586 54.4781 29.0752C54.3959 29.0817 54.318 29.109 54.2381 29.1258C54.1358 29.1452 54.0366 29.1739 53.9479 29.232C53.8379 29.2781 53.7333 29.3386 53.6147 29.3634C53.4635 29.3793 53.3358 29.4438 53.2302 29.5534C53.1348 29.6399 53.0369 29.724 52.9407 29.8098C52.8161 29.9016 52.7681 30.0707 52.6169 30.1362C52.0773 31.0156 51.9483 31.9714 52.1643 32.9637C52.3091 33.6276 52.7547 34.0911 53.3348 34.4234C53.6872 34.6258 54.0588 34.786 54.462 34.844C54.6788 34.8753 54.723 34.9589 54.6749 35.1694C54.2842 36.8744 53.7054 38.5083 52.8726 40.0472C52.7269 40.3162 52.5685 40.5789 52.4159 40.8442C52.3843 40.9276 52.3362 41.003 52.3002 41.0843C51.7133 41.7405 50.9902 42.2251 50.2637 42.701C48.8656 43.6172 47.3255 44.2342 45.7719 44.817C44.1518 45.4246 42.4993 45.9201 40.8028 46.2634C39.5259 46.522 38.241 46.7073 36.9369 46.7678C36.4151 46.7921 35.8937 46.8296 35.3719 46.8152C32.6456 46.7408 30.0302 46.1914 27.5892 44.9289C25.877 44.0432 24.4 42.8493 23.0996 41.4278C23.053 41.3767 23.0047 41.3261 22.9956 41.2524C23.9581 40.4888 24.8452 39.6484 25.6119 38.6829C25.9939 38.2025 26.3643 37.7134 26.6817 37.1877C26.7964 36.9975 26.8921 36.9689 27.099 37.0592C28.2992 37.5852 29.5466 37.7792 30.8512 37.5723C32.6046 37.2938 34.183 35.8303 34.579 34.0933C34.6732 33.6804 34.6853 33.2662 34.5452 32.8625C34.3255 32.2293 33.7169 31.8851 33.0054 32.0037C32.6569 32.0619 32.3176 32.174 31.9703 32.2417C31.5405 32.3258 31.1084 32.3124 30.6783 32.2216C30.5829 32.2016 30.5055 32.184 30.523 32.0582C30.6391 31.21 30.3109 30.4559 29.9915 29.7138C28.8766 27.1247 27.1249 25.0429 24.9068 23.3374C24.6627 23.1497 24.5623 23.3253 24.4195 23.4463C24.0841 23.7932 23.7152 24.0941 23.2698 24.291C22.3642 24.4544 21.4582 24.5382 20.54 24.3907C19.1348 24.1648 18.0603 23.4327 17.2472 22.2747C16.4995 21.2095 16.0852 20.0057 15.7843 18.756C15.44 17.3256 15.2928 15.8695 15.2223 14.4001C15.1897 13.726 15.1816 13.0535 15.1786 12.3801C15.1764 11.9191 15.264 11.835 15.7093 11.8333C16.5276 11.8303 17.3471 11.8038 18.1641 11.8385C19.7183 11.9047 21.2757 11.904 22.8274 12.02C24.2025 12.1229 25.5751 12.2544 26.9379 12.4828C28.2467 12.702 29.0889 13.4413 29.5163 14.6868C29.8795 15.745 29.9491 16.8323 29.8428 17.9394C29.8014 18.3719 29.7345 18.8002 29.6746 19.2292C29.6524 19.3274 29.6497 19.4326 29.5984 19.5154C29.6578 19.44 29.6529 19.3351 29.6763 19.2404C29.8102 18.48 29.9074 17.7117 29.8998 16.9431C29.8909 16.033 29.8243 15.1198 29.449 14.2659C29.4019 14.1586 29.3439 14.0489 29.3979 13.9247Z" fill="#F4A3C5"/>
<path fill-rule="evenodd" clip-rule="evenodd" d="M23.3137 24.2347C23.6824 23.9718 24.0511 23.7092 24.4195 23.4463C26.5276 25.0531 28.2082 27.0148 29.3281 29.4388C29.6268 30.0856 29.8894 30.7468 30.0199 31.4536C30.0549 31.6433 30.1141 31.8863 29.9552 31.9717C29.828 32.0404 29.6317 31.8749 29.5081 31.741C28.6842 30.848 27.8694 29.9457 27.0368 29.0608C26.3539 28.3352 25.769 27.5128 24.9805 26.8911C23.9783 26.1007 22.8037 25.6677 21.5985 25.3148C19.9605 24.8356 18.283 24.5715 16.5868 24.4085C15.715 24.325 14.8445 24.2342 13.9675 24.234C13.6254 24.2116 13.279 24.2731 12.9401 24.1856C13.2173 24.259 13.514 24.1896 13.7877 24.2895C14.3535 24.3329 14.3692 24.2037 14.2188 24.8683C13.9589 26.0151 13.7934 27.176 13.711 28.3523C13.4908 31.5047 14.006 34.536 15.1313 37.4741C15.1734 37.5835 15.258 37.7112 15.0284 37.6862C14.8462 37.6738 14.6652 37.6539 14.4879 37.6048C14.4479 37.6056 14.477 37.6574 14.474 37.6177C14.4733 37.6075 14.4834 37.6018 14.5017 37.6088C14.6553 37.6656 14.8326 37.6356 14.9734 37.7395C16.2731 37.9733 17.5829 38.1021 18.9037 38.1003C21.1758 38.0976 23.3078 37.5649 25.2592 36.3727C25.4336 36.2663 25.564 36.2351 25.7354 36.3693C25.8735 36.4776 26.0341 36.5637 26.1954 36.6346C26.3909 36.7207 26.4112 36.8132 26.2864 36.9883C25.9132 37.5116 25.5288 38.0262 25.108 38.511C24.1396 39.6273 23.0747 40.6339 21.8229 41.4327C20.9395 41.9962 19.9607 42.2576 18.9503 42.455C18.0152 42.6375 17.0864 42.8541 16.155 43.0557C16.1375 43.0877 16.0839 43.08 16.079 43.1259C16.1426 43.107 16.2122 43.1663 16.2733 43.1115C16.732 43.0582 17.1935 43.022 17.6482 42.9453C17.9493 42.8947 18.1553 42.9396 18.3459 43.2139C18.7178 43.7493 19.1321 44.2548 19.5688 44.7396C19.6362 44.814 19.7481 44.877 19.6315 45.0085C18.9168 45.8135 18.1523 46.5605 17.1079 46.9094C16.0822 47.2519 15.2373 46.8335 14.4869 46.1661C13.4997 45.2877 12.7995 44.1838 12.1297 43.0599C10.6348 40.5504 9.71267 37.8005 8.82732 35.0382C7.8892 32.11 7.07291 29.1459 6.3158 26.1654C6.29262 26.0746 6.21962 25.9821 6.30939 25.8876C7.24184 26.4598 8.17281 27.0342 9.10822 27.6016C9.21944 27.669 9.33091 27.8273 9.46334 27.7566C9.65841 27.6527 9.90897 27.557 9.98789 27.3459C10.3526 26.37 11.0412 25.6342 11.7386 24.9083C13.0346 23.5589 14.4999 22.3992 15.913 21.181C16.1236 21.2562 16.171 21.4662 16.2669 21.6302C16.8287 22.5914 17.5094 23.4344 18.5027 23.98C19.3166 24.4264 20.1834 24.6169 21.1109 24.5923C21.8641 24.5722 22.5911 24.4264 23.3137 24.2347Z" fill="#ED3438"/>
<path fill-rule="evenodd" clip-rule="evenodd" d="M17.0494 24.6491C18.5488 24.8175 20.0161 25.1421 21.4598 25.5766C22.2147 25.8038 22.9449 26.0954 23.649 26.4545C24.4907 26.8838 25.1696 27.4986 25.7645 28.229C26.3447 28.9413 26.9586 29.626 27.5561 30.3241C27.6054 30.3817 27.6792 30.4266 27.6787 30.5699C27.1887 30.1972 26.7963 29.7681 26.3854 29.3599C26.1921 29.2552 26.0836 29.0655 25.9393 28.9115C25.8809 28.7905 25.7608 28.7186 25.6949 28.6032C25.6708 28.5668 25.654 28.5244 25.6162 28.4978C25.6545 28.5321 25.6732 28.5797 25.7006 28.6216C25.7746 28.729 25.8878 28.8049 25.943 28.9274C26.0717 29.0911 26.2488 29.2171 26.328 29.4202C27.2498 30.5069 28.2871 31.454 29.5702 32.0974C30.531 32.5792 31.5276 32.7375 32.5747 32.4089C32.8011 32.3379 33.0366 32.3144 33.2751 32.3223C33.8569 32.3414 34.2302 32.7037 34.264 33.2885C34.3116 34.1072 33.9893 34.8008 33.5025 35.4196C32.7256 36.4064 31.7019 36.9548 30.4543 37.0993C29.0037 37.2675 27.6646 36.8965 26.3697 36.2896C25.3834 35.8268 24.4744 35.2383 23.6162 34.568C23.5474 34.5142 23.4771 34.4623 23.3686 34.3802C23.3901 34.5409 23.4865 34.5965 23.555 34.6637C24.0147 35.1136 24.5006 35.5332 25.0286 35.9C25.1516 35.9853 25.1758 36.0366 25.032 36.1242C23.6527 36.9647 22.1821 37.5517 20.5735 37.758C20.5444 37.7618 20.5145 37.7578 20.4849 37.7575C20.2943 37.8272 20.1893 37.7129 20.0973 37.5733C19.8132 37.1435 19.5527 36.6986 19.3093 36.2452C18.2716 34.3125 17.511 32.2789 17.094 30.1173C16.7877 28.5301 16.7401 26.9285 16.7823 25.3199C16.787 25.1513 16.8264 24.9859 16.8474 24.8187C16.8612 24.7088 16.8856 24.5888 17.0494 24.6491Z" fill="#F4A4C5"/>
<path fill-rule="evenodd" clip-rule="evenodd" d="M22.9955 41.2524C23.3591 41.5285 23.651 41.8796 23.9729 42.1991C25.5524 43.765 27.3993 44.8941 29.4756 45.6649C30.7713 46.146 32.1082 46.4479 33.4734 46.6056C34.4577 46.7192 35.4515 46.7859 36.4446 46.7343C38.8817 46.6081 41.2672 46.187 43.6024 45.4665C45.1925 44.9762 46.7489 44.3971 48.2634 43.7089C49.7514 43.0329 51.1026 42.14 52.3046 41.0245C52.3283 40.9915 52.353 40.9906 52.3791 41.0216C52.1865 41.4603 51.8782 41.8219 51.588 42.1919C49.8148 44.4517 47.6274 46.1783 44.9637 47.2474C44.6221 47.3846 44.4951 47.585 44.3533 47.8469C43.7893 48.8887 43.2364 49.9375 42.5491 50.9057C42.4904 50.9281 42.4305 50.9248 42.3767 50.8978C41.4699 50.439 40.5574 50.6076 39.6491 50.8822C39.1177 51.0429 38.6338 51.3063 38.182 51.6304C38.073 51.7083 37.9776 51.8233 37.8198 51.7966C37.5998 51.1064 37.4886 50.3939 37.3951 49.6789C37.3522 49.35 37.6289 49.1231 37.6977 48.8272C37.8047 48.479 37.9892 48.1655 38.1364 47.8359C38.1438 47.8106 38.1547 47.7863 38.1621 47.7606C38.1542 47.773 38.1468 47.7891 38.1384 47.8114C37.967 48.1281 37.8844 48.4892 37.6378 48.7632C37.1115 49.7262 36.5901 50.6922 35.9973 51.6165C35.9179 51.7403 35.8279 51.8571 35.7425 51.9771C35.6838 51.9992 35.6239 51.996 35.5704 51.9689C34.6636 51.5101 33.7514 51.6788 32.8426 51.9533C32.3018 52.1172 31.8098 52.3861 31.3521 52.7191C31.2514 52.7925 31.1597 52.8952 31.0135 52.8679C30.7567 52.056 30.6613 51.2125 30.5232 50.377C30.4887 50.1689 30.5676 49.9214 30.3602 49.7567C30.085 49.5978 29.7668 49.6171 29.4704 49.5531C28.644 49.3751 27.8284 49.167 27.038 48.8652C26.9983 48.8503 26.9618 48.8525 26.9241 48.8674C25.2639 48.2526 23.7756 47.3407 22.4118 46.2167C21.2332 45.2453 20.2214 44.1109 19.2603 42.9287C19.2243 42.8846 19.1967 42.8342 19.1498 42.7635C19.5614 42.6894 19.9499 42.6403 20.3277 42.5473C21.1881 42.3357 21.9617 41.9268 22.6964 41.4384C22.7943 41.3735 22.8957 41.3142 22.9955 41.2524Z" fill="#EC8FB7"/>
<path fill-rule="evenodd" clip-rule="evenodd" d="M17.0493 24.649C16.7936 24.8016 16.8801 25.0865 16.8777 25.2815C16.8629 26.3962 16.8385 27.5098 16.9628 28.626C17.1776 30.5543 17.6696 32.4014 18.4119 34.1825C18.9024 35.3601 19.4898 36.4907 20.1863 37.5616C20.2612 37.6769 20.3352 37.7689 20.4849 37.7575C20.0055 37.8872 19.5103 37.878 19.0215 37.9073C18.1053 37.9624 17.1899 37.9133 16.2764 37.8232C16.1393 37.8096 16.0732 37.76 16.0182 37.634C15.2505 35.8742 14.7373 34.0454 14.4799 32.1388C14.1413 29.6337 14.363 27.1628 14.8547 24.7021C14.9018 24.4663 14.982 24.3715 15.2394 24.4082C15.8417 24.4945 16.4523 24.5201 17.0493 24.649Z" fill="#EC8FB7"/>
<path fill-rule="evenodd" clip-rule="evenodd" d="M41.1847 11.1271C42.0636 9.64058 43.2052 8.43925 44.583 7.45914C45.2847 6.96016 46.0319 6.54128 46.809 6.1725C46.97 6.09612 47.0366 6.10703 47.1057 6.28485C47.806 8.0923 48.3604 9.93521 48.4388 11.89C48.4702 12.6665 48.3888 13.4333 48.0995 14.1659C48.0342 14.3313 47.99 14.4134 47.7972 14.2668C45.8713 12.8006 43.7196 11.8057 41.3867 11.1963C41.3299 11.1817 41.2754 11.1584 41.1847 11.1271Z" fill="#F4A4C5"/>
<path fill-rule="evenodd" clip-rule="evenodd" d="M52.9063 29.7416C53.0133 29.6759 53.0814 29.5536 53.2155 29.5278C53.3174 29.3884 53.4868 29.3693 53.6254 29.2962C53.7206 29.2575 53.8156 29.2188 53.9105 29.1799C54.0035 29.1385 54.1095 29.1412 54.2 29.0926C54.29 29.0983 54.3714 29.0648 54.454 29.0365C54.5707 29.0425 54.6829 28.9889 54.8008 29.0107C55.2538 28.9934 55.7063 28.984 56.1532 29.0814C57.5047 29.376 58.2618 30.2651 58.3444 31.6552C58.4359 33.1913 57.4978 34.2828 55.9663 34.417C55.2094 34.4832 54.4745 34.4026 53.7751 34.077C52.8853 33.663 52.4306 32.9614 52.365 31.984C52.3228 31.3596 52.396 30.7602 52.6688 30.1922C52.7023 30.0176 52.8412 29.8993 52.9063 29.7416Z" fill="#F4A4C5"/>
<path fill-rule="evenodd" clip-rule="evenodd" d="M37.8196 51.7966C38.6521 51.133 39.5895 50.7004 40.6443 50.566C41.3055 50.4817 41.9615 50.5246 42.5489 50.9058C41.9861 51.8078 41.3634 52.6589 40.5193 53.3216C40.4571 53.3705 40.3932 53.4171 40.3269 53.4597C39.4322 54.0339 38.7533 53.8642 38.2428 52.9312C38.0477 52.5749 37.9042 52.1962 37.8196 51.7966Z" fill="#F4A4C5"/>
<path fill-rule="evenodd" clip-rule="evenodd" d="M31.0134 52.868C31.8458 52.2038 32.7834 51.7718 33.8379 51.6374C34.4991 51.5531 35.1551 51.5957 35.7425 51.9772C35.18 52.8792 34.5573 53.7306 33.7129 54.3927C33.6507 54.4418 33.5871 54.4887 33.5208 54.5314C32.6251 55.106 31.9456 54.9361 31.4364 54.0026C31.2415 53.646 31.098 53.2673 31.0134 52.868Z" fill="#F4A4C5"/>
<path fill-rule="evenodd" clip-rule="evenodd" d="M53.8865 22.2083C55.1092 22.6847 56.1521 23.238 56.5265 24.5529C56.6858 25.1124 56.6187 25.6737 56.5072 26.2272C56.3403 27.0553 56.0175 27.8308 55.6411 28.6021C55.3558 26.4167 54.8056 24.3087 53.8865 22.2083Z" fill="#ED3438"/>
<path fill-rule="evenodd" clip-rule="evenodd" d="M55.3747 34.9476C55.722 35.2363 56.0416 35.4826 56.3387 35.7539C56.7508 36.1301 56.7629 36.6427 56.3967 37.0705C55.9794 37.5569 55.4243 37.8329 54.8613 38.097C54.7394 38.1543 54.6119 38.199 54.4406 38.2684C54.8497 37.1764 55.1454 36.0979 55.3747 34.9476Z" fill="#ED3438"/>
<path fill-rule="evenodd" clip-rule="evenodd" d="M26.9241 48.8674C27.0444 48.7642 27.1512 48.8694 27.2506 48.9038C28.2997 49.2694 29.3789 49.505 30.4911 49.6731C30.4366 49.7079 30.3984 49.7322 30.3601 49.7567C29.1754 49.6139 28.0346 49.2997 26.9241 48.8674Z" fill="#EE9EBE"/>
<path fill-rule="evenodd" clip-rule="evenodd" d="M37.6375 48.7634C37.7993 48.4286 37.9611 48.094 38.1231 47.7595C38.1707 47.7493 38.2042 47.752 38.1712 47.814C38.0299 48.1595 37.8942 48.5079 37.6974 48.8274L37.6375 48.7634Z" fill="#9E555F"/>
<path fill-rule="evenodd" clip-rule="evenodd" d="M13.7877 24.2895C13.4836 24.3324 13.1909 24.2381 12.8917 24.2066C13.251 24.2017 13.6109 24.1325 13.9675 24.2339C13.9058 24.2468 13.8338 24.2265 13.7877 24.2895Z" fill="#A2494C"/>
<path fill-rule="evenodd" clip-rule="evenodd" d="M26.3278 29.4201C26.1628 29.2842 26.0427 29.1089 25.916 28.9398C25.8903 28.8788 25.9192 28.8703 25.97 28.883C26.1086 29.0419 26.2469 29.2009 26.3853 29.3599C26.3663 29.38 26.347 29.4001 26.3278 29.4201Z" fill="#9D565F"/>
<path fill-rule="evenodd" clip-rule="evenodd" d="M14.9733 37.7395C14.8046 37.7038 14.6248 37.7097 14.4749 37.6003C14.6645 37.6003 14.8524 37.6023 15.0283 37.6862C15.01 37.7038 14.9915 37.7219 14.9733 37.7395Z" fill="#AE4648"/>
<path fill-rule="evenodd" clip-rule="evenodd" d="M52.908 29.7416C52.901 29.9303 52.7597 30.0479 52.6691 30.1922C52.6518 30.1736 52.6344 30.1548 52.6171 30.1362C52.6858 29.9839 52.7748 29.8462 52.908 29.7416Z" fill="#A45C65"/>
<path fill-rule="evenodd" clip-rule="evenodd" d="M54.8027 29.0106C54.6899 29.0775 54.5654 29.0592 54.4436 29.0599C54.4307 29.049 54.4265 29.0386 54.4315 29.0284C54.4362 29.0185 54.4409 29.0138 54.4456 29.0138L54.8015 28.952C54.8022 28.9716 54.8025 28.9912 54.8027 29.0106Z" fill="#944E56"/>
<path fill-rule="evenodd" clip-rule="evenodd" d="M16.2749 43.1116C16.1831 43.189 16.076 43.1646 15.9629 43.1604C15.9909 43.0476 16.0785 43.061 16.1558 43.0555C16.1955 43.0744 16.2352 43.093 16.2749 43.1116Z" fill="#A7484A"/>
<path fill-rule="evenodd" clip-rule="evenodd" d="M52.3795 41.0216L52.3046 41.0246C52.317 40.9489 52.3415 40.8807 52.4167 40.844C52.5288 40.9293 52.433 40.971 52.3795 41.0216Z" fill="#D57E9B"/>
<path fill-rule="evenodd" clip-rule="evenodd" d="M15.7403 20.7835C15.2288 21.0424 14.8029 21.4268 14.3454 21.7626C13.1545 22.6368 11.9883 23.5462 10.9616 24.6156C10.368 25.2334 9.79069 25.8737 9.4368 26.6743C9.36183 26.8437 9.29475 26.8551 9.12952 26.7594C6.8222 25.4192 4.5092 24.0886 2.19794 22.7549C2.18314 22.7464 2.17451 22.7268 2.15552 22.7033C3.29389 21.3946 4.22042 19.9214 5.28628 18.5562C6.26016 17.3087 7.46265 16.3132 8.82125 15.4948C9.27946 15.2188 9.55937 15.2686 9.9611 15.5908C11.6958 16.9811 13.4613 18.3327 15.2167 19.697C15.2618 19.7319 15.3185 19.752 15.3698 19.7791C15.6226 20.0655 15.7373 20.4038 15.7403 20.7835Z" fill="#74BF4F"/>
<path fill-rule="evenodd" clip-rule="evenodd" d="M15.8551 11.2623C15.3414 11.0951 14.806 11.0284 14.275 10.9746C13.5774 10.9039 13.583 10.9319 13.7115 10.2417C13.9749 8.82611 14.3905 7.45813 15.0223 6.16553C15.5727 5.0391 16.2822 4.03047 17.2495 3.20883C18.0976 2.48838 18.9055 1.72007 19.7279 0.969363C20.066 0.660846 20.0574 0.66779 20.3903 0.972339C21.3208 1.82324 22.2621 2.66223 23.1963 3.50966C23.7001 3.96648 24.1944 4.43397 24.6997 4.88931C24.8457 5.02075 24.7931 5.06861 24.676 5.20154C24.0755 5.88281 23.2106 5.87413 22.4397 6.07104C19.9869 6.69799 17.5215 7.27584 15.0613 7.87328C15.0442 7.8775 15.0294 7.89064 14.9929 7.91148C15.9525 9.0508 16.9086 10.1867 17.8648 11.3223C17.8083 11.3885 17.7304 11.4006 17.6512 11.4024C17.1025 11.4153 16.554 11.4175 16.009 11.3414C15.9498 11.3329 15.8953 11.3101 15.8551 11.2623Z" fill="#74BF4F"/>
<path fill-rule="evenodd" clip-rule="evenodd" d="M26.0344 12.0265C25.9764 11.6783 25.8941 11.3318 25.8664 10.9811C25.8243 10.4479 25.7143 9.92637 25.6053 9.40755C25.5357 9.07572 25.5853 8.84904 25.8048 8.58194C26.3752 7.88753 26.94 7.1894 27.5955 6.57411C28.3614 5.8549 29.1753 5.20389 30.1982 4.87999C30.6328 4.74235 31.0155 4.72598 31.4421 5.00796C32.839 5.93078 34.2688 6.80301 35.6856 7.69508C35.7103 7.71046 35.731 7.73154 35.7808 7.77246C35.2945 7.90712 34.8247 8.01798 34.3675 8.16753C32.9453 8.63229 31.7016 9.38721 30.7085 10.525C30.1016 11.2202 29.7373 12.0532 29.4017 12.9024C29.3242 13.0983 29.3067 13.3332 29.1109 13.4706C28.9898 13.483 28.9422 13.3808 28.8791 13.3121C28.3656 12.7516 27.7259 12.4369 26.9895 12.2856C26.6675 12.2194 26.3205 12.2313 26.0344 12.0265Z" fill="#74BF4F"/>
<path fill-rule="evenodd" clip-rule="evenodd" d="M0.85791 9.60711C3.40149 8.74951 5.93717 7.89514 8.47212 7.03928C8.87287 6.90387 9.27584 6.77293 9.66795 6.61544C9.85464 6.54055 9.96537 6.59362 10.0704 6.73548C10.2877 7.02936 10.486 7.3349 10.6576 7.65855C11.1866 8.65502 11.6216 9.69465 12.0682 10.7293C12.1617 10.9461 12.0897 10.9937 11.8801 11.0309C10.066 11.3506 8.39197 12.0336 6.84028 13.0268C6.8166 13.042 6.79687 13.0633 6.74977 13.1037C7.56877 13.7433 8.37964 14.3762 9.22627 15.0374C8.77151 15.2695 8.34487 15.4845 7.94313 15.7432C7.79467 15.8384 7.76113 15.6874 7.70614 15.6053C7.2938 14.9913 6.86716 14.3891 6.40747 13.8083C5.60301 12.7912 4.64862 11.9542 3.55513 11.2667C2.74623 10.7586 1.94992 10.2301 1.09861 9.7941C1.01204 9.74971 0.926222 9.70408 0.85791 9.60711Z" fill="#74BF4F"/>
<path fill-rule="evenodd" clip-rule="evenodd" d="M18.516 11.3686C18.2618 11.3428 18.1091 11.1893 17.9661 10.985C17.3436 10.0966 16.6425 9.26953 15.9651 8.42433C15.7705 8.18154 15.7799 8.17137 16.1056 8.10416C18.1496 7.68156 20.193 7.25624 22.2367 6.83165C22.7645 6.72204 23.2949 6.62457 23.8182 6.4961C24.0456 6.44006 24.1302 6.5033 24.1872 6.72005C24.5581 8.13169 24.9537 9.53688 25.2614 10.9646C25.3297 11.2816 25.4419 11.5911 25.4447 11.9212C25.3665 11.9995 25.2671 12.0028 25.1692 11.9899C23.6118 11.7838 22.048 11.6489 20.4796 11.5678C19.9089 11.5142 19.3373 11.477 18.7641 11.4641C18.6717 11.4577 18.576 11.4599 18.516 11.3686Z" fill="#74BF4F"/>
<path fill-rule="evenodd" clip-rule="evenodd" d="M13.242 11.6822C13.7022 11.6525 14.1533 11.7266 14.6043 11.8008C14.7328 11.9312 14.701 12.0956 14.6892 12.2499C14.6132 13.2476 14.6327 14.2436 14.6862 15.2425C14.7355 16.1641 14.8497 17.0743 15.0142 17.98C15.0833 18.36 15.1873 18.7317 15.2754 19.1074C15.304 19.2299 15.357 19.3559 15.2724 19.4789C14.9106 19.3101 14.6497 19.0077 14.3496 18.76C13.173 17.789 12.0085 16.8027 10.8403 15.8214C9.83753 14.9789 8.83949 14.1312 7.83108 13.296C7.66338 13.1573 7.71936 13.1182 7.86783 13.0452C9.18129 12.3972 10.5374 11.8935 12.0053 11.7286C12.3108 11.6941 12.6114 11.679 12.916 11.6884C12.846 11.9848 12.6447 12.211 12.4997 12.4666C12.4415 12.5691 12.3217 12.5802 12.2105 12.5857C12.0531 12.5931 11.8943 12.5758 11.7379 12.5993C11.261 12.6708 11.076 13.0566 11.3165 13.4728C11.3715 13.5675 11.4442 13.6489 11.5083 13.7364C11.6427 13.9202 11.5604 14.0836 11.4373 14.2188C11.3113 14.3572 11.1848 14.2481 11.0699 14.1734C10.9589 14.1015 10.8861 13.9961 10.8274 13.8793C10.7964 13.8173 10.7668 13.7545 10.732 13.6948C10.6356 13.5281 10.493 13.3736 10.3078 13.4921C10.1012 13.6246 10.2676 13.7974 10.3638 13.9202C10.5347 14.1377 10.7325 14.3341 10.9675 14.4847C11.1485 14.6005 11.1932 14.7431 11.0926 14.938C11.02 15.0789 10.9712 15.2306 10.933 15.3849C10.9101 15.4767 10.9098 15.5692 11.0119 15.6138C11.1229 15.6622 11.2011 15.6056 11.258 15.5116C11.33 15.3923 11.3796 15.2629 11.4307 15.1339C11.5244 14.8983 11.6852 14.7922 11.9429 14.8569C12.0571 14.8857 12.1737 14.9157 12.2926 14.9134C12.4733 14.91 12.6203 14.8336 12.6995 14.6654C12.7737 14.5077 12.6926 14.3788 12.5949 14.26C12.551 14.2064 12.5 14.159 12.4519 14.1094C12.167 13.8155 12.1663 13.8066 12.3944 13.4589C12.6457 13.0762 12.6529 13.0743 13.0724 13.2588C13.1084 13.2746 13.062 13.2588 13.0995 13.2707C13.2485 13.3183 13.4381 13.4073 13.5279 13.2419C13.6211 13.0703 13.4398 12.9627 13.3116 12.8746C12.9611 12.6345 12.9266 12.5495 13.225 12.2789C13.4726 12.0547 13.3195 11.8821 13.242 11.6822Z" fill="#74BF4F"/>
<path fill-rule="evenodd" clip-rule="evenodd" d="M15.2724 19.4791C15.0394 18.5493 14.8288 17.6161 14.7168 16.6613C14.5444 15.1924 14.5033 13.7212 14.5945 12.2456C14.6036 12.0978 14.6014 11.949 14.6046 11.8009C14.6253 11.701 14.646 11.601 14.6668 11.5013C14.7733 11.4068 14.9045 11.4192 15.0318 11.4182C16.4384 11.4078 17.8456 11.4125 19.2516 11.451C19.6622 11.4624 20.076 11.4383 20.4856 11.4956C21.7054 11.5127 22.9163 11.6494 24.1281 11.7721C24.5676 11.8168 25.0058 11.8713 25.4448 11.9212C25.6411 11.9564 25.8379 11.9916 26.0344 12.0268C26.3992 12.0985 26.7647 12.168 27.1289 12.2429C27.9376 12.4095 28.6017 12.814 29.1109 13.4707C29.2066 13.6223 29.3023 13.7735 29.398 13.9248C30.1862 15.6777 30.0575 17.4817 29.6932 19.2986C29.6708 19.3172 29.6493 19.3149 29.6288 19.2951C29.6878 18.7438 29.7674 18.1949 29.7936 17.6399C29.8407 16.6519 29.7682 15.6787 29.453 14.7355C28.9936 13.3599 28.0034 12.6987 26.6021 12.5057C24.7834 12.2558 22.9597 12.1037 21.1273 12.0286C19.2846 11.9529 17.4412 11.9147 15.597 11.9271C15.414 11.9284 15.2774 11.9296 15.2742 12.1826C15.2404 14.8097 15.3972 17.4135 16.2076 19.9364C16.5627 21.041 17.0722 22.0628 17.8797 22.9125C18.9317 24.0198 20.2526 24.4131 21.736 24.3876C22.2669 24.3782 22.7848 24.2539 23.3135 24.2348C22.9727 24.4501 22.5801 24.494 22.1981 24.5642C20.6634 24.8466 19.222 24.6472 17.9305 23.7046C17.0971 23.0962 16.5257 22.2724 16.0374 21.38C16 21.3114 15.9546 21.2471 15.9129 21.1809C15.8971 21.0301 15.8305 20.9019 15.7403 20.7838C15.617 20.4488 15.4934 20.114 15.3699 19.7792C15.3583 19.6723 15.3368 19.5686 15.2724 19.4791Z" fill="#8F4A50"/>
<path fill-rule="evenodd" clip-rule="evenodd" d="M13.2422 11.6822C13.5642 11.9202 13.5719 12.0326 13.2917 12.2893C13.2343 12.3416 13.1948 12.4133 13.144 12.4733C13.034 12.6037 13.0439 12.6948 13.2222 12.7409C13.3721 12.7796 13.4853 12.8753 13.5743 12.9973C13.6451 13.094 13.7095 13.2012 13.6367 13.3247C13.5699 13.438 13.4555 13.4254 13.3462 13.4179C13.1844 13.4068 13.0313 13.3554 12.9112 13.2515C12.7502 13.1121 12.654 13.163 12.5716 13.3277C12.5672 13.3366 12.5603 13.344 12.5546 13.352C12.2559 13.783 12.2559 13.783 12.6236 14.1677C12.7746 14.3256 12.8907 14.4985 12.7741 14.7234C12.653 14.957 12.4451 15.0168 12.1985 14.9804C11.632 14.8965 11.6332 14.8978 11.3879 15.4389C11.3514 15.5193 11.3023 15.5957 11.2478 15.6648C11.1558 15.7807 11.0433 15.7499 10.9277 15.6986C10.8118 15.6472 10.8019 15.5602 10.8308 15.4543C10.8359 15.4352 10.8406 15.4159 10.8473 15.3973C10.9324 15.1577 11.1245 14.8903 11.0722 14.6867C11.0241 14.5002 10.6964 14.4033 10.525 14.2232C10.3957 14.087 10.2598 13.9571 10.1716 13.7877C10.1148 13.6786 10.0687 13.564 10.1684 13.4581C10.2584 13.3621 10.3743 13.3619 10.4971 13.3899C10.669 13.4293 10.7661 13.5419 10.8261 13.6992C10.886 13.8574 10.9472 14.0228 11.1047 14.1054C11.1916 14.1508 11.2764 14.3417 11.3891 14.1848C11.4734 14.067 11.6221 13.9117 11.4251 13.7483C11.3807 13.7113 11.3486 13.658 11.3144 13.6094C11.1615 13.3929 11.0389 13.1672 11.1731 12.8954C11.3119 12.6137 11.5642 12.4797 11.8527 12.5172C12.2937 12.5745 12.5546 12.4066 12.6961 11.9986C12.7381 11.8773 12.8187 11.7749 12.9161 11.6886C13.0249 11.6864 13.1336 11.6844 13.2422 11.6822Z" fill="#FEFEFD"/>
<path fill-rule="evenodd" clip-rule="evenodd" d="M6.28099 16.9891C5.53547 16.7391 4.78971 16.4893 3.98871 16.2207C4.85284 15.5774 5.74164 15.0631 6.62649 14.5428C6.98236 14.9284 7.26374 15.3708 7.56905 15.7949C7.62923 15.8785 7.6455 15.945 7.54735 16.0189C7.12317 16.3393 6.7027 16.6652 6.28099 16.9891Z" fill="#4C2120"/>
<path fill-rule="evenodd" clip-rule="evenodd" d="M4.54993 18.8834C4.37631 18.1471 4.2022 17.4111 4.02982 16.6745C3.98321 16.4756 4.09616 16.5197 4.20886 16.5567C4.83205 16.7615 5.45574 16.9649 6.07943 17.1685C5.54427 17.7176 5.0286 18.2838 4.54993 18.8834Z" fill="#ED3438"/>
<path fill-rule="evenodd" clip-rule="evenodd" d="M18.5161 11.3687L18.7502 11.3915C18.742 11.5058 18.6525 11.4689 18.5938 11.4689C17.3136 11.4704 16.0332 11.4728 14.7528 11.4696C14.721 11.4696 14.6968 11.4535 14.6702 11.4418C14.6408 11.2888 14.7207 11.2593 14.8532 11.2613C15.1871 11.267 15.521 11.2625 15.8552 11.262C16.5242 11.3069 17.1938 11.3402 17.8648 11.3221C18.0801 11.3635 18.2959 11.3952 18.5161 11.3687Z" fill="#8E4C51"/>
<path fill-rule="evenodd" clip-rule="evenodd" d="M14.67 11.4419C15.9268 11.4419 17.1835 11.4429 18.4405 11.4404C18.5443 11.4402 18.658 11.4776 18.75 11.3916C19.3305 11.3921 19.9091 11.4233 20.4854 11.4955C18.5458 11.4972 16.6064 11.4992 14.6666 11.5012C14.6678 11.4813 14.669 11.4618 14.67 11.4419Z" fill="#8D5451"/>
<path fill-rule="evenodd" clip-rule="evenodd" d="M41.6511 17.8205C41.9594 17.8696 42.206 17.6735 42.479 17.5936C43.5286 17.2871 44.5986 17.1467 45.6815 17.2258C47.9144 17.3888 49.8601 18.2111 51.3625 19.9295C52.1921 20.8789 52.7001 21.988 52.8508 23.2558C52.9236 23.8661 52.9475 24.47 52.7934 25.0707C52.5958 25.775 52.1781 26.3546 51.7053 26.8828C50.1785 28.5888 48.2532 29.5032 45.9908 29.7418C44.3175 29.9181 42.7214 29.6471 41.2178 28.9083C39.3396 27.9854 38.0037 26.5582 37.4394 24.4965C37.231 23.7354 37.0917 22.9492 37.3376 22.1574C37.5361 21.4734 37.926 20.8933 38.3529 20.341C38.9978 19.5062 39.8059 18.8579 40.7196 18.3398C40.9773 18.0708 41.3226 17.9611 41.6511 17.8205Z" fill="#EE6CA2"/>
<path fill-rule="evenodd" clip-rule="evenodd" d="M37.3375 22.1574C37.2285 23.1963 37.3547 24.2044 37.7422 25.1746C38.1414 26.1743 38.7587 27.0146 39.5696 27.7219C40.6912 28.7002 41.9943 29.2835 43.4387 29.5633C44.4989 29.7684 45.5658 29.7711 46.6302 29.5844C48.0376 29.3376 49.3274 28.8069 50.4677 27.9337C51.4458 27.1847 52.2273 26.2715 52.7361 25.1362C52.7474 25.1109 52.774 25.0925 52.7933 25.071C52.6749 26.059 52.2719 26.9362 51.7025 27.731C50.3294 29.6474 48.4354 30.7225 46.1386 31.0843C43.7063 31.4675 41.4591 30.9958 39.4776 29.479C38.0502 28.3868 37.1636 26.9426 36.9459 25.1473C36.8228 24.1345 36.8919 23.1122 37.3375 22.1574Z" fill="#BE5F8D"/>
<path fill-rule="evenodd" clip-rule="evenodd" d="M26.5147 16.3365C26.3914 17.9121 25.8134 19.3093 24.8619 20.5545C24.3423 21.2346 23.7248 21.8132 23.0168 22.2963C22.7864 22.4538 22.5669 22.4867 22.3006 22.4287C21.1235 22.172 20.267 21.4674 19.6093 20.4911C18.7481 19.2121 18.3257 17.765 18.0448 16.2671C17.9316 15.6637 17.8625 15.0543 17.8095 14.4427C17.7935 14.257 17.8413 14.1925 18.0413 14.1746C19.2993 14.0616 20.5575 14.0063 21.8177 14.1238C23.1058 14.2438 24.3709 14.4678 25.5584 15.0176C25.5675 15.0776 25.529 15.1019 25.4824 15.1203C25.3384 15.1515 25.2119 15.0858 25.0814 15.0446C24.0614 14.7232 23.0185 14.5615 21.9504 14.4829C20.8128 14.3993 19.6914 14.4971 18.5654 14.6069C18.4073 14.6223 18.3057 14.655 18.3341 14.8557C18.5757 16.5758 18.9829 18.2429 19.8988 19.7423C20.3395 20.464 20.9124 21.055 21.6841 21.4278C21.7728 21.4707 21.8638 21.5081 21.9551 21.5453C22.3188 21.6934 22.6293 21.6676 22.9672 21.4102C24.7147 20.0779 25.7998 18.3302 26.2945 16.1949C26.3253 16.062 26.2982 15.8839 26.494 15.8397C26.5759 16.0022 26.5332 16.1698 26.5147 16.3365Z" fill="#8F4A51"/>
<path fill-rule="evenodd" clip-rule="evenodd" d="M32.5991 27.1496C32.6818 26.5668 32.8221 26.0014 33.1449 25.5014C33.4662 25.0044 33.867 24.9387 34.3489 25.2857C34.5765 25.4496 34.7726 25.6663 34.9008 25.899C34.6697 25.9835 34.4404 26.0691 34.2098 26.1512C34.1005 26.1899 34.0801 26.2452 34.1464 26.3461C35.5171 28.4239 37.07 30.277 39.6449 30.8766C40.0101 30.9617 40.3786 31.0192 40.7534 31.0383C40.8435 31.0428 40.9532 31.0019 41.0341 31.1189C40.3892 31.2739 39.7507 31.2075 39.125 31.1073C36.5082 30.6874 34.6894 29.2311 33.6734 26.7712C33.575 26.5321 33.5042 26.4939 33.2973 26.6623C33.0426 26.8694 32.8218 27.1055 32.6063 27.3495C32.5604 27.2846 32.5661 27.2176 32.5991 27.1496Z" fill="#8F4A51"/>
<path fill-rule="evenodd" clip-rule="evenodd" d="M34.8736 11.8587C35.499 11.8592 35.8428 12.039 35.9762 12.4179C36.0906 12.7428 36.0051 12.9611 35.698 13.1302C35.3064 13.3457 34.8613 13.3135 34.443 13.4052C33.8714 13.531 33.2782 13.5605 32.7406 13.836C32.4755 13.9717 32.1747 13.8556 32.0235 13.6059C31.877 13.3631 31.9603 13.0417 32.2331 12.82C32.8454 12.3225 33.5695 12.0834 34.3241 11.9212C34.515 11.8803 34.7074 11.8287 34.8736 11.8587Z" fill="#F1C1D9"/>
<path fill-rule="evenodd" clip-rule="evenodd" d="M38.208 17.5488C38.2026 17.2958 38.2598 16.9977 38.4477 16.7398C38.6941 16.4015 39.0573 16.404 39.3069 16.7398C39.63 17.175 39.625 18.0547 39.2975 18.4785C39.0507 18.7977 38.702 18.7972 38.4548 18.4775C38.295 18.2702 38.2095 17.9694 38.208 17.5488Z" fill="#8F4A51"/>
<path fill-rule="evenodd" clip-rule="evenodd" d="M41.6512 17.8205C41.3875 18.0787 41.0191 18.1464 40.7197 18.3399C40.3229 17.8793 40.2302 17.1651 40.5027 16.6262C40.6134 16.4074 40.7631 16.2125 41.0317 16.2157C41.299 16.2189 41.444 16.4139 41.5528 16.6358C41.7395 17.0178 41.7291 17.4163 41.6512 17.8205Z" fill="#8F4A51"/>
<path fill-rule="evenodd" clip-rule="evenodd" d="M36.7463 12.8482C36.7537 12.475 37.1202 12.1498 37.5246 12.1573C37.8904 12.1642 38.2327 12.5223 38.2265 12.8911C38.2198 13.2795 37.8682 13.5977 37.46 13.5845C37.0314 13.5711 36.7379 13.2681 36.7463 12.8482Z" fill="#F1C1D9"/>
<path fill-rule="evenodd" clip-rule="evenodd" d="M25.4825 15.0861C25.5079 15.0633 25.5331 15.0405 25.5583 15.0179C25.8172 15.0943 26.0441 15.2341 26.268 15.3797C26.2742 15.4375 26.2372 15.4544 26.1906 15.4623C25.9435 15.3581 25.6485 15.3445 25.4825 15.0861Z" fill="#9C555D"/>
<path fill-rule="evenodd" clip-rule="evenodd" d="M26.206 15.4319C26.2268 15.4146 26.2474 15.397 26.2682 15.3796C26.6199 15.5837 26.6601 15.739 26.5165 16.3367C26.4691 16.1774 26.5676 16.0004 26.4575 15.8488C26.419 15.6824 26.264 15.5864 26.206 15.4319Z" fill="#9F5760"/>
<path fill-rule="evenodd" clip-rule="evenodd" d="M53.6278 29.2963C53.5152 29.4176 53.3537 29.452 53.2156 29.5279C53.2895 29.3375 53.4554 29.3114 53.6278 29.2963Z" fill="#B46A77"/>
<path fill-rule="evenodd" clip-rule="evenodd" d="M29.6292 19.295C29.6508 19.2963 29.6724 19.2973 29.694 19.2985C29.6759 19.3915 29.658 19.4843 29.6297 19.6311C29.5598 19.4768 29.5789 19.3853 29.6292 19.295Z" fill="#904B52"/>
<path fill-rule="evenodd" clip-rule="evenodd" d="M54.2085 29.1155C54.1195 29.1835 54.016 29.186 53.9106 29.18C53.9885 29.0858 54.1095 29.1081 54.2085 29.0706C54.2278 29.0806 54.2343 29.0905 54.2278 29.1007C54.2216 29.1106 54.2149 29.1155 54.2085 29.1155Z" fill="#A05961"/>
<path fill-rule="evenodd" clip-rule="evenodd" d="M54.2068 29.1155V29.0706C54.2869 29.0518 54.367 29.0327 54.4469 29.0139C54.4476 29.0292 54.4469 29.0449 54.4449 29.06C54.3782 29.1326 54.2921 29.1217 54.2068 29.1155Z" fill="#A05861"/>
<path fill-rule="evenodd" clip-rule="evenodd" d="M32.5995 27.1496C32.602 27.2163 32.6045 27.283 32.6067 27.3495C32.5998 27.3807 32.5814 27.44 32.5554 27.3829C32.5221 27.3095 32.5422 27.2198 32.5995 27.1496Z" fill="#A85F6A"/>
<path fill-rule="evenodd" clip-rule="evenodd" d="M25.9718 28.883C25.9536 28.9018 25.9355 28.9209 25.9174 28.9398L25.6776 28.6449C25.6491 28.5827 25.6801 28.576 25.7309 28.5874C25.8113 28.6858 25.8914 28.7845 25.9718 28.883Z" fill="#A45C66"/>
<path fill-rule="evenodd" clip-rule="evenodd" d="M25.7322 28.5875C25.7143 28.6066 25.6965 28.6259 25.6789 28.645C25.6012 28.5498 25.5236 28.4546 25.446 28.3591C25.6017 28.3725 25.665 28.4818 25.7322 28.5875Z" fill="#B06773"/>
<path fill-rule="evenodd" clip-rule="evenodd" d="M38.1717 47.814C38.1555 47.7959 38.1392 47.7777 38.1233 47.7594C38.1434 47.7081 38.1682 47.6044 38.2012 47.6267C38.2842 47.6825 38.224 47.7564 38.1717 47.814Z" fill="#B26374"/>
<path fill-rule="evenodd" clip-rule="evenodd" d="M10.011 21.3997C9.98313 21.5939 9.96587 21.8332 9.91038 22.0631C9.87018 22.229 9.92888 22.2943 10.0667 22.3523C10.3745 22.4817 10.6808 22.6157 10.9812 22.761C11.1647 22.85 11.232 23.003 11.157 23.2067C11.0835 23.4056 10.9878 23.5124 10.741 23.4358C10.4404 23.3426 10.1254 23.2821 9.84897 23.1325C9.64157 23.0202 9.5772 23.0936 9.48028 23.2697C9.22997 23.7247 8.89556 24.1163 8.47558 24.4241C8.29259 24.558 8.09061 24.7031 7.86373 24.5052C7.69948 24.3621 7.70935 24.0191 7.86841 23.7877C7.96237 23.6513 8.10097 23.5794 8.24795 23.5164C8.44845 23.4306 8.63243 23.3287 8.76732 23.1412C9.05783 22.7372 9.05759 22.7288 8.59987 22.5254C8.49408 22.4783 8.42453 22.4847 8.34019 22.5638C8.21047 22.6851 8.07434 22.8012 7.93007 22.9043C7.29084 23.3612 6.58923 23.0695 6.43879 22.2913C6.38577 22.0165 6.37813 21.7387 6.38725 21.4617C6.39218 21.3119 6.34335 21.2273 6.2087 21.1629C5.94211 21.0354 5.68539 20.8876 5.42126 20.7551C5.2077 20.6483 5.13001 20.4737 5.14037 20.2452C5.15073 20.0233 5.2289 19.8494 5.4331 19.7319C5.64864 19.6081 5.80993 19.6696 5.94162 19.8494C6.00007 19.9295 6.0521 20.0089 6.13447 20.0684C6.53941 20.3618 6.54114 20.3643 6.72585 19.9211C6.81759 19.7009 6.96877 19.5365 7.17148 19.4226C7.43931 19.2726 7.67606 19.4055 7.67975 19.7138C7.68345 20.0191 7.58777 20.3028 7.4033 20.5443C7.26717 20.7227 7.29232 20.8238 7.49036 20.9268C7.70836 21.0403 7.91404 21.1795 8.117 21.3191C8.2376 21.4022 8.32145 21.3987 8.4159 21.2804C8.53304 21.1341 8.66597 21.0002 8.79248 20.8613C9.05093 20.5781 9.31505 20.4861 9.57424 20.589C9.87043 20.7065 10.0255 20.9786 10.011 21.3997Z" fill="#FEFEFE"/>
<path fill-rule="evenodd" clip-rule="evenodd" d="M18.3908 4.57911C18.504 4.25869 18.2784 4.17114 18.0019 4.1141C17.8682 4.08632 17.7353 4.04516 17.6086 3.99407C17.4697 3.93827 17.4303 3.83138 17.469 3.68009C17.5087 3.52534 17.6071 3.50872 17.7353 3.52708C17.7545 3.5298 17.7748 3.52782 17.7943 3.53154C18.0332 3.57693 18.3129 3.71978 18.4991 3.64066C18.6687 3.56849 18.7306 3.2513 18.8525 3.04967C18.9551 2.88053 19.0794 2.72429 19.2389 2.6045C19.3346 2.53283 19.4424 2.46661 19.5627 2.55143C19.67 2.62658 19.6996 2.74363 19.6853 2.86689C19.6661 3.03454 19.5817 3.16152 19.4296 3.24212C19.2705 3.32694 19.1235 3.4311 19.0586 3.60793C19.0278 3.6925 18.8877 3.80385 19.0313 3.8718C19.1516 3.92884 19.307 4.06425 19.45 3.87255C19.5203 3.7783 19.6074 3.69448 19.6966 3.61735C20.051 3.31107 20.5055 3.41027 20.6865 3.84551C20.7576 4.01589 20.8042 4.2071 20.8126 4.39112C20.8217 4.58952 20.9174 4.66541 21.0833 4.71625C21.2429 4.76511 21.4007 4.82364 21.5524 4.89308C21.8059 5.00915 21.858 5.3442 21.6599 5.53591C21.5351 5.65668 21.4072 5.67851 21.2727 5.55277C21.2298 5.51284 21.1931 5.46423 21.1455 5.43125C20.8858 5.2502 20.8214 5.27178 20.7233 5.56691C20.7142 5.59493 20.7102 5.62643 20.6952 5.65098C20.5923 5.81937 20.4912 6.03786 20.2564 5.96892C20.0116 5.89675 20.1183 5.65891 20.1149 5.48159C20.1146 5.46225 20.122 5.44266 20.124 5.42306C20.1381 5.27947 20.3344 5.12124 20.2323 5.02799C20.0717 4.88192 19.8382 4.81595 19.6342 4.71923C19.5521 4.68029 19.507 4.73981 19.4656 4.79735C19.3908 4.90176 19.3191 5.00815 19.2426 5.11132C19.1186 5.27873 18.9684 5.40942 18.7445 5.34519C18.5067 5.27699 18.4004 5.09619 18.3913 4.85414C18.3883 4.77503 18.3908 4.69567 18.3908 4.57911Z" fill="#FDFEFD"/>
<path fill-rule="evenodd" clip-rule="evenodd" d="M31.4371 7.54481C31.61 7.71519 31.7757 7.87192 31.8135 8.11398C31.83 8.21938 31.8211 8.31684 31.7348 8.38306C31.6472 8.45052 31.5451 8.43192 31.4554 8.38281C31.2877 8.2913 31.1501 8.16308 31.0618 7.99196C30.9954 7.86424 30.9173 7.84415 30.8075 7.93318C30.7999 7.93938 30.791 7.94409 30.7826 7.94905C30.281 8.24319 30.2788 8.24418 30.478 8.78532C30.552 8.98596 30.5693 9.17766 30.3967 9.33143C30.2208 9.48816 30.0193 9.47428 29.8181 9.37706C29.774 9.35573 29.7333 9.32721 29.6918 9.30042C29.2578 9.01993 29.2578 9.01993 28.882 9.39541C28.6082 9.66871 28.4797 9.69401 28.3202 9.51371C28.2454 9.42914 28.2129 9.35176 28.3044 9.26099C28.3113 9.25405 28.3162 9.24512 28.3229 9.23793C28.5056 9.03333 28.8203 8.8374 28.8344 8.62189C28.8484 8.40265 28.5725 8.1601 28.4802 7.89796C28.4346 7.76776 28.3956 7.63434 28.3668 7.49942C28.3364 7.35831 28.3387 7.21447 28.495 7.14279C28.6432 7.07484 28.7614 7.15767 28.8667 7.25167C28.9784 7.35161 29.0045 7.48603 28.9956 7.63062C28.985 7.80124 28.9853 7.97658 29.1005 8.111C29.1619 8.18317 29.153 8.39695 29.3209 8.29527C29.4442 8.22062 29.6208 8.15366 29.536 7.91086C29.4282 7.60259 29.3409 7.26283 29.6511 7.00614C29.9577 6.75244 30.2914 6.85065 30.5935 7.01185C30.8381 7.14255 31.0238 7.12841 31.213 6.92728C31.2995 6.83527 31.4139 6.7693 31.5155 6.69118C31.6537 6.58503 31.792 6.60983 31.9284 6.69217C32.066 6.77525 32.14 6.89429 32.1257 7.0617C32.1101 7.24448 31.9742 7.2601 31.8354 7.29507C31.6914 7.33103 31.5747 7.42924 31.4371 7.54481Z" fill="#FEFEFD"/>
<path fill-rule="evenodd" clip-rule="evenodd" d="M7.40097 10.3846C7.40097 10.5406 7.40763 10.6304 7.39974 10.7187C7.36941 11.0634 7.06459 11.2278 6.75583 11.0708C6.59923 10.9912 6.4922 10.8553 6.40983 10.7127C6.26828 10.4665 6.10206 10.457 5.87813 10.589C5.74373 10.6683 5.59625 10.7311 5.44754 10.7785C5.29514 10.8271 5.19575 10.7648 5.12645 10.6056C5.05494 10.4412 5.15407 10.3893 5.25494 10.3303C5.47467 10.2018 5.7928 10.1299 5.89219 9.9402C5.98196 9.76908 5.82264 9.47321 5.79428 9.23017C5.77505 9.064 5.7822 8.89288 5.79675 8.72598C5.80859 8.5861 5.84829 8.43507 6.01624 8.41374C6.20292 8.39018 6.30404 8.52633 6.36643 8.67762C6.42142 8.81079 6.39183 8.94844 6.34053 9.0826C6.28332 9.23165 6.23893 9.38666 6.30823 9.54414C6.34596 9.6297 6.29343 9.81074 6.46359 9.76561C6.59603 9.73064 6.7985 9.72543 6.78123 9.48958C6.77556 9.41121 6.78617 9.3311 6.79233 9.25224C6.83919 8.65356 7.31367 8.41845 7.82022 8.74234C7.84513 8.75822 7.87595 8.77086 7.89223 8.79343C8.19729 9.21405 8.56549 9.16271 8.965 8.95067C9.15983 8.8475 9.32481 8.91347 9.4565 9.08384C9.55244 9.20785 9.55071 9.34251 9.49892 9.47767C9.44516 9.6178 9.3221 9.60961 9.19978 9.6044C9.12234 9.60118 9.04367 9.61135 8.96673 9.62251C8.765 9.65177 8.6698 9.71005 8.80865 9.9402C8.95341 10.18 8.8999 10.5185 8.75291 10.5939C8.59113 10.677 8.39212 10.5061 8.25401 10.1917C8.20543 10.0811 8.24588 9.86605 8.10136 9.87398C7.87151 9.88638 7.62959 9.9526 7.42539 10.0592C7.3048 10.1222 7.41232 10.3174 7.40097 10.3846Z" fill="#FEFEFD"/>
<path fill-rule="evenodd" clip-rule="evenodd" d="M22.7364 8.91307C22.9075 9.0832 23.0752 9.23919 23.1134 9.48099C23.1302 9.58565 23.1213 9.68361 23.0357 9.75082C22.9484 9.81952 22.8463 9.80117 22.7566 9.75256C22.5881 9.66179 22.4508 9.53332 22.3617 9.36245C22.2964 9.23646 22.2199 9.21017 22.1087 9.30119C22.1011 9.30739 22.0922 9.3121 22.0836 9.31706C21.5792 9.61169 21.5773 9.61243 21.777 10.1526C21.851 10.3527 21.87 10.5457 21.6974 10.6989C21.5109 10.8644 21.303 10.8388 21.0922 10.7342C20.9109 10.6441 20.7696 10.4088 20.5671 10.4527C20.3763 10.4938 20.2475 10.7027 20.0976 10.8455C20.0127 10.9266 19.9166 11.0092 19.7888 10.996C19.5947 10.9762 19.5084 10.7438 19.6406 10.5858C19.8103 10.3832 20.1074 10.2069 20.1363 9.99064C20.1622 9.79497 19.8867 9.56829 19.8049 9.32277C19.755 9.17297 19.7025 9.02343 19.6667 8.87016C19.6339 8.73004 19.6372 8.5852 19.7925 8.51254C19.941 8.44285 20.0594 8.52568 20.1647 8.61918C20.2766 8.71863 20.3038 8.8528 20.2949 8.99763C20.2845 9.16801 20.2843 9.3436 20.3987 9.47851C20.4606 9.55118 20.4527 9.76372 20.6187 9.66501C20.742 9.5916 20.9198 9.52439 20.8355 9.28135C20.7282 8.97308 20.6401 8.63332 20.9491 8.37589C21.2554 8.12119 21.5894 8.2189 21.8917 8.38011C22.1358 8.51006 22.3215 8.4989 22.5112 8.29727C22.5978 8.20502 22.7124 8.13929 22.8138 8.06093C22.9514 7.95453 23.0898 7.9776 23.2264 8.06018C23.3637 8.14301 23.4387 8.26156 23.4251 8.42896C23.4104 8.61199 23.2757 8.6291 23.1364 8.66333C22.9918 8.69879 22.8757 8.79774 22.7364 8.91307Z" fill="#FEFEFD"/>
<path fill-rule="evenodd" clip-rule="evenodd" d="M12.0825 13.007C12.0317 13.1044 11.9997 13.188 11.9478 13.2567C11.9129 13.3033 11.9171 13.4496 11.8008 13.3574C11.7331 13.3041 11.6894 13.2163 11.7574 13.1228C11.827 13.0268 11.9205 12.9881 12.0825 13.007Z" fill="#85C55F"/>
<path fill-rule="evenodd" clip-rule="evenodd" d="M11.9757 14.2642C12.0576 14.3051 12.1268 14.3409 12.1161 14.4222C12.1052 14.5033 12.0539 14.5755 11.9656 14.5779C11.9182 14.5794 11.8292 14.5574 11.8512 14.4817C11.8741 14.4031 11.9333 14.3352 11.9757 14.2642Z" fill="#82C35A"/>
<path fill-rule="evenodd" clip-rule="evenodd" d="M40.5117 23.9564C39.4204 23.9601 38.83 23.2655 38.9879 22.1631C39.2374 20.4209 41.3292 18.5482 43.056 18.5211C44.2232 18.5028 44.8378 19.2401 44.6257 20.4037C44.3046 22.1653 42.2375 23.9507 40.5117 23.9564Z" fill="#8F4A50"/>
<path fill-rule="evenodd" clip-rule="evenodd" d="M47.1337 18.5259C48.4708 18.7253 49.747 19.4509 50.4817 20.9362C50.95 21.8834 50.4427 22.6256 49.3929 22.6241C49.1976 22.6239 48.9966 22.6085 48.8079 22.5614C47.5522 22.2469 46.542 21.5771 45.8582 20.4531C45.6759 20.1533 45.558 19.8225 45.5847 19.4673C45.6296 18.8642 46.1063 18.5237 47.1337 18.5259Z" fill="#8F4A50"/>
<path fill-rule="evenodd" clip-rule="evenodd" d="M26.206 15.4318C26.3386 15.5406 26.5608 15.5955 26.456 15.8487C26.2309 16.9205 25.8836 17.9458 25.3241 18.8927C24.6745 19.9916 23.8303 20.9045 22.7849 21.6329C22.6148 21.7512 22.455 21.7752 22.2606 21.7236C21.2313 21.4503 20.4956 20.7909 19.923 19.9236C19.1474 18.7488 18.738 17.4302 18.4588 16.0642C18.372 15.6384 18.3165 15.2058 18.2396 14.7778C18.2112 14.6203 18.2396 14.5526 18.4206 14.5318C20.0515 14.3453 21.6811 14.2917 23.3112 14.5367C24.053 14.6481 24.7729 14.8462 25.4824 15.0858C25.7236 15.2011 25.9648 15.3165 26.206 15.4318Z" fill="#E386AD"/>
<path fill-rule="evenodd" clip-rule="evenodd" d="M7.12177 21.7182C7.35408 21.8171 7.55137 21.9089 7.73781 22.0475C7.61573 22.1584 7.50944 22.2712 7.34742 22.2035C7.15728 22.1237 7.13385 21.9466 7.12177 21.7182Z" fill="#79C152"/>
<path fill-rule="evenodd" clip-rule="evenodd" d="M9.4459 21.7992C9.40126 21.8726 9.41532 22.0172 9.29818 21.98C9.18252 21.9433 9.00668 21.9269 8.99361 21.7662C8.98621 21.6792 9.08634 21.5805 9.19263 21.5916C9.30903 21.6035 9.40694 21.674 9.4459 21.7992Z" fill="#7CC155"/>
<path fill-rule="evenodd" clip-rule="evenodd" d="M19.8687 4.21899C20.119 3.99157 20.1905 4.01538 20.2978 4.3487C20.1415 4.35663 20.0228 4.27231 19.8687 4.21899Z" fill="#7DC255"/>
<path fill-rule="evenodd" clip-rule="evenodd" d="M18.9067 4.64608C18.8323 4.61012 18.741 4.59623 18.7475 4.49182C18.7512 4.43701 18.7551 4.35442 18.8414 4.38592C18.9158 4.41295 19.0408 4.3941 19.0413 4.51662C19.0416 4.58631 18.9771 4.63268 18.9067 4.64608Z" fill="#86C55F"/>
<path fill-rule="evenodd" clip-rule="evenodd" d="M30.4151 7.48915C30.3507 7.54297 30.2956 7.60001 30.2304 7.64044C30.1704 7.67764 30.1252 7.7813 30.0354 7.71806C30.0069 7.69797 30.004 7.62754 30.0064 7.58092C30.0114 7.48866 30.0823 7.44898 30.1604 7.42418C30.252 7.39516 30.3298 7.43038 30.4151 7.48915Z" fill="#87C661"/>
<path fill-rule="evenodd" clip-rule="evenodd" d="M29.9232 8.7296C29.9071 8.84219 29.8379 8.88782 29.7439 8.89006C29.6839 8.89179 29.6179 8.84889 29.6266 8.79036C29.642 8.68471 29.7385 8.63238 29.831 8.61452C29.9056 8.59989 29.8841 8.69959 29.9232 8.7296Z" fill="#8BC765"/>
<path fill-rule="evenodd" clip-rule="evenodd" d="M7.77266 9.32846C7.66908 9.37063 7.60817 9.40584 7.54257 9.41923C7.47228 9.43362 7.39855 9.52662 7.33245 9.44304C7.3073 9.41155 7.3221 9.3235 7.34898 9.2801C7.39978 9.19727 7.48659 9.17148 7.57956 9.21339C7.63135 9.23646 7.67821 9.27142 7.77266 9.32846Z" fill="#84C45C"/>
<path fill-rule="evenodd" clip-rule="evenodd" d="M6.90177 10.3176C6.90921 10.4175 6.84101 10.457 6.76215 10.4785C6.6627 10.5058 6.6002 10.4426 6.59524 10.3597C6.58755 10.2338 6.71503 10.2566 6.78819 10.2253C6.87177 10.1899 6.88342 10.261 6.90177 10.3176Z" fill="#96CB74"/>
<path fill-rule="evenodd" clip-rule="evenodd" d="M21.7351 8.84051C21.6525 8.91094 21.6066 8.96625 21.5479 8.99576C21.4781 9.03073 21.4355 9.1582 21.3319 9.08256C21.304 9.06222 21.2993 8.98981 21.3067 8.94492C21.3255 8.82736 21.4192 8.78867 21.5213 8.78495C21.5768 8.78322 21.6332 8.81273 21.7351 8.84051Z" fill="#87C661"/>
<path fill-rule="evenodd" clip-rule="evenodd" d="M21.0614 10.2622C20.9872 10.2518 20.9123 10.2275 20.9282 10.1452C20.946 10.0544 21.0356 10.009 21.1164 9.98446C21.1968 9.9604 21.2037 10.0487 21.2119 10.0943C21.2322 10.2074 21.1437 10.2362 21.0614 10.2622Z" fill="#8BC765"/>
<path d="M77.3644 30.3465C81.802 30.3465 85.5178 28.1812 85.5178 23.6366C85.5178 19.3594 82.2564 18.3168 78.1663 18.3168C76.295 18.3168 74.6644 18.504 73.0871 18.7178V37.0297H77.3644V30.3465ZM77.3644 27.2723V21.3911C77.5515 21.3376 77.9525 21.2574 78.6208 21.2574C79.9307 21.2574 81.3743 21.8455 81.3743 24.1178C81.3743 26.5238 79.396 27.2723 77.3644 27.2723Z" fill="#899197"/>
<path d="M91.7288 37.0297V23.4762L87.7723 24.6525V37.0297H91.7288ZM91.4882 16.8733L87.104 18.1297V18.9851L89.5902 21.7119L91.2743 21.1238L91.9961 17.3812L91.4882 16.8733Z" fill="#899197"/>
<path d="M106.491 22.5406C105.342 22.6208 103.711 23.4495 102.989 24.1445C102.321 23.7436 101.385 23.4762 99.9418 23.4762C97.215 23.4762 94.5952 25.1337 94.5952 28.3416C94.5952 30.7208 96.0655 31.7901 96.7873 32.1109C96.0388 32.7257 95.0764 33.8752 94.7556 34.6772C94.8358 35.4257 95.317 36.0673 95.8784 36.4148C94.9695 37.1366 94.0338 38.2861 94.0338 39.4624C94.0338 41.1465 96.2527 42.5901 99.4606 42.5901C102.856 42.5901 106.866 41.1733 106.866 37.1099C106.866 34.4366 103.978 34.1158 101.252 34.0624C98.4715 34.0089 98.418 33.795 98.418 33.4475C98.418 33.1535 98.6853 32.7257 98.9259 32.5119C99.2467 32.5653 99.6744 32.5653 100.022 32.5653C102.642 32.5653 105.181 31.2287 105.181 28.2346C105.181 27.299 104.861 26.3634 104.486 25.802C105.048 25.5881 106.277 25.401 106.892 25.401L106.491 22.5406ZM101.733 28.4218C101.733 29.2772 101.225 29.9723 100.102 29.9723C98.819 29.9723 98.0972 29.0099 98.0972 27.7535C98.0972 26.7376 98.819 26.1228 99.7546 26.1228C100.931 26.1228 101.733 27.0049 101.733 28.4218ZM97.9636 37.0297C101.973 37.0297 103.176 37.1901 103.176 38.2327C103.176 39.3554 101.786 39.8634 100.209 39.8634C98.418 39.8634 97.4824 39.2752 97.4824 38.2594C97.4824 37.7247 97.723 37.297 97.9636 37.0297Z" fill="#899197"/>
<path d="M119.884 22.5406C118.734 22.6208 117.104 23.4495 116.382 24.1445C115.713 23.7436 114.778 23.4762 113.334 23.4762C110.607 23.4762 107.988 25.1337 107.988 28.3416C107.988 30.7208 109.458 31.7901 110.18 32.1109C109.431 32.7257 108.469 33.8752 108.148 34.6772C108.228 35.4257 108.709 36.0673 109.271 36.4148C108.362 37.1366 107.426 38.2861 107.426 39.4624C107.426 41.1465 109.645 42.5901 112.853 42.5901C116.248 42.5901 120.258 41.1733 120.258 37.1099C120.258 34.4366 117.371 34.1158 114.644 34.0624C111.864 34.0089 111.81 33.795 111.81 33.4475C111.81 33.1535 112.078 32.7257 112.318 32.5119C112.639 32.5653 113.067 32.5653 113.414 32.5653C116.034 32.5653 118.574 31.2287 118.574 28.2346C118.574 27.299 118.253 26.3634 117.879 25.802C118.44 25.5881 119.67 25.401 120.285 25.401L119.884 22.5406ZM115.125 28.4218C115.125 29.2772 114.617 29.9723 113.495 29.9723C112.211 29.9723 111.49 29.0099 111.49 27.7535C111.49 26.7376 112.211 26.1228 113.147 26.1228C114.323 26.1228 115.125 27.0049 115.125 28.4218ZM111.356 37.0297C115.366 37.0297 116.569 37.1901 116.569 38.2327C116.569 39.3554 115.179 39.8634 113.602 39.8634C111.81 39.8634 110.875 39.2752 110.875 38.2594C110.875 37.7247 111.115 37.297 111.356 37.0297Z" fill="#899197"/>
<path d="M127.662 33.5544H127.582L124.615 23.4762L120.632 24.6792L124.588 37.0297H126.112L123.412 41.895L127.235 42.9109L134.506 23.8772H130.469L127.662 33.5544Z" fill="#899197"/>
</svg>
