<svg width="315" height="207" viewBox="0 0 315 207" xmlns="http://www.w3.org/2000/svg" xmlns:xlink="http://www.w3.org/1999/xlink"><title>piggy-laptop</title><defs><circle id="a" cx="74.5" cy="74.5" r="74.5"/><path id="c" d="M.565.122h41.531v44.684H.565z"/></defs><g fill="none" fill-rule="evenodd"><path fill="#FFF" d="M0 .215h315v206H0z"/><g opacity=".12"><path d="M289.376 72.32H274.98m7.198-7.198v14.396" stroke="#75848F" stroke-linecap="round" stroke-width="4.12"/><path d="M27.897 159.283H21.28m3.308-3.309v6.618" stroke="#C2C8CD" stroke-linecap="round" stroke-width="2.08"/><path d="M39.676 83.038l1.412 1.16c.263.215.66.54.94 1.243.042.104.065.187.077.249-.156-.11-.454-.353-.984-.9-1.155-1.228-2.994-2.77-5.51-1.854l-.151.058c-.12.048-.234.1-.346.156-1.512.756-2.405 2.268-2.424 4.039l-2.05.82 1.587 3.989 1.803-.722c.464.678 1.019 1.252 1.582 1.625l.98.653 3.23-2.922-1.603-1.159a3.399 3.399 0 0 1-1.108-1.419c-.088-.22-.147-.569-.024-.62.056-.017.32.005 1.013.744 1.301 1.421 3.107 2.95 5.482 2.086l.133-.05c1.617-.645 2.617-2.175 2.664-3.997l2-.799-1.588-3.989-1.77.71a6.456 6.456 0 0 0-1.141-1.225l-1.032-.85-3.172 2.974z" fill="#FFF"/><path d="M36.683 94.636l-1.08-.719-.44-.292a6.529 6.529 0 0 1-1.406-1.305l-.43.172-1.559.623-.642-1.611-.945-2.376-.642-1.612 1.56-.625.78-.313c.195-1.842 1.22-3.391 2.853-4.207a5.715 5.715 0 0 1 .583-.25c1.532-.557 2.855-.33 3.91.158l.595-.56 1.924-1.805 1.056-.99 1.137.94.463.382a7.3 7.3 0 0 1 .876.856l.415-.166 1.559-.625.641 1.613.945 2.375.643 1.614-1.56.623-.738.295c-.232 1.91-1.382 3.485-3.146 4.19l-.156.06a4.62 4.62 0 0 1-3.267.002l-1.02.922-1.962 1.775-.947.856zm-.183-2.164l1.963-1.775-.72-.52a4.28 4.28 0 0 1-1.412-1.81c-.267-.672-.237-1.46.425-1.735l.048-.019c.364-.132.855-.14 1.897.973 1.2 1.31 2.685 2.554 4.584 1.863.037-.013.073-.028.11-.042 1.477-.589 2.288-2.068 2.122-3.78l1.76-.704-.945-2.374-1.632.652a5.635 5.635 0 0 0-1.34-1.617l-.463-.382-1.924 1.805.633.52c.293.24.838.686 1.202 1.602.406 1.02-.096 1.351-.333 1.444a.72.72 0 0 1-.04.015c-.335.122-.682.068-1.906-1.196-1.084-1.153-2.59-2.378-4.62-1.64-.043.016-.085.031-.128.049a4.045 4.045 0 0 0-.283.127c-1.387.694-2.12 2.165-1.937 3.847l-1.82.728.944 2.376 1.675-.67c.453.828 1.071 1.553 1.7 1.97l.44.293z" fill="#7ED321"/><path d="M61.8 134.86l-3.533-.41c-.658-.077-1.65-.193-3.01.365-.203.082-.35.162-.454.228.365.072 1.108.16 2.59.162 3.282-.044 7.925.447 10.045 5.208l.123.29c.094.232.176.462.25.694.985 3.138.076 6.433-2.378 8.854l1.624 3.98-7.73 3.17-1.427-3.5c-1.577.267-3.13.266-4.414-.017l-2.237-.49-.278-8.472 3.789.677c1.111.2 2.447.06 3.485-.367.428-.176.995-.563.9-.805-.052-.1-.438-.44-2.41-.412-3.749.1-8.331-.361-10.332-4.855l-.11-.255c-1.282-3.134-.493-6.602 1.994-9.132l-1.585-3.879 7.731-3.17 1.398 3.436c1.088-.16 2.163-.18 3.259-.057l2.586.294.124 8.463z" fill="#FFF"/><path d="M49.61 154.729l2.466.54 1.003.221c1.136.248 2.407.315 3.728.205l.342.834 1.234 3.025 3.124-1.28 4.603-1.889 3.126-1.28-1.234-3.03-.619-1.515c2.317-2.762 3.099-6.293 2.034-9.681a11.122 11.122 0 0 0-.438-1.153c-1.29-2.9-3.398-4.443-5.505-5.26l-.022-1.59-.075-5.134-.041-2.818-2.853-.322-1.162-.13a14.11 14.11 0 0 0-2.38-.07l-.33-.805-1.233-3.028-3.125 1.283-4.603 1.888-3.128 1.282 1.237 3.027.584 1.431c-2.36 2.909-3.01 6.647-1.612 10.069.04.1.084.2.128.299 1.036 2.326 2.662 3.733 4.412 4.578l.088 2.672.169 5.148.081 2.483zm3.277-2.669l-.17-5.147 1.702.305a8.33 8.33 0 0 0 4.443-.472c1.302-.535 2.364-1.641 1.854-2.94-.014-.032-.025-.062-.039-.092-.307-.69-.96-1.387-3.927-1.342-3.458.092-7.205-.306-8.805-3.898l-.09-.21c-1.171-2.864-.197-6 2.423-8.08l-1.393-3.417 4.601-1.888 1.294 3.167a10.967 10.967 0 0 1 4.076-.31l1.16.132.075 5.134-1.585-.184c-.732-.086-2.094-.245-3.868.484-1.976.81-1.762 1.96-1.571 2.417l.032.077c.283.635.828 1.047 4.252 1.052 3.08-.042 6.832.412 8.542 4.252a7.006 7.006 0 0 1 .31.812c.903 2.88-.165 5.896-2.768 7.913l1.442 3.533-4.603 1.888-1.327-3.25c-1.771.486-3.622.6-5.056.284l-1.004-.22z" fill="#7ED321"/><path d="M254.68 132.495l-1.854-1.481c-.345-.277-.866-.693-1.833-.86a1.93 1.93 0 0 0-.337-.03c.181.17.57.482 1.409 1.008 1.872 1.135 4.326 3.055 3.842 6.498l-.032.208a6.327 6.327 0 0 1-.104.481c-.553 2.124-2.232 3.667-4.477 4.17l-.488 2.826-5.496-.94.43-2.485c-.986-.406-1.865-.956-2.492-1.57l-1.093-1.068 2.84-4.892 1.904 1.722a4.414 4.414 0 0 0 2.102 1.025c.305.052.762.033.794-.137.006-.076-.092-.404-1.219-1.086-2.156-1.269-4.586-3.15-4.13-6.4l.029-.184c.382-2.227 2.056-3.91 4.357-4.463l.475-2.755 5.496.94-.424 2.439a8.384 8.384 0 0 1 1.864 1.12l1.36 1.08-2.923 4.834z" fill="#FFF"/><path d="M240.756 139.427l1.205 1.179.489.48a8.477 8.477 0 0 0 2.037 1.433l-.101.593-.371 2.148 2.22.38 3.273.56 2.222.38.373-2.15.185-1.077c2.288-.743 3.979-2.465 4.574-4.76a7.421 7.421 0 0 0 .16-.806c.295-2.098-.351-3.716-1.255-4.924l.55-.907 1.773-2.932.973-1.609-1.5-1.191-.612-.485a9.39 9.39 0 0 0-1.323-.88l.099-.573.373-2.15-2.222-.379-3.273-.559-2.223-.38-.37 2.15-.176 1.017c-2.365.81-4.054 2.697-4.473 5.127a6.969 6.969 0 0 0-.033.215c-.237 1.682.186 3.054.878 4.15l-.895 1.544-1.725 2.972-.832 1.434zm2.798-.35l1.725-2.974.855.775a5.558 5.558 0 0 0 2.68 1.304c.927.158 1.92-.093 2.09-1.008l.01-.066c.07-.5-.052-1.124-1.748-2.148-1.989-1.17-3.97-2.721-3.604-5.32l.024-.15c.35-2.035 2.01-3.465 4.228-3.716l.42-2.426 3.27.559-.387 2.25a7.32 7.32 0 0 1 2.416 1.265l.61.485-1.773 2.932-.832-.665c-.384-.307-1.098-.879-2.36-1.094-1.404-.24-1.69.486-1.744.813a.934.934 0 0 0-.008.055c-.065.459.098.885 2.033 2.098 1.758 1.066 3.721 2.65 3.331 5.427-.008.057-.016.116-.027.175a5.204 5.204 0 0 1-.085.394c-.507 1.949-2.178 3.278-4.364 3.5l-.433 2.508-3.273-.559.399-2.308c-1.175-.352-2.262-.942-2.962-1.627l-.49-.48z" fill="#7ED321"/><path d="M277.698 55.57h-10.4m5.2-5.2v10.4" stroke="#F8E71C" stroke-linecap="round" stroke-width="3.12"/><path d="M111.678 47.374h-5.672m2.836-2.836v5.673" stroke="#75848F" stroke-linecap="round" stroke-width="2.08"/><path d="M72.882 77.604h-5.673m2.837-2.836v5.673" stroke="#F8E71C" stroke-linecap="round" stroke-width="2.08"/></g><g transform="translate(83.5 57.215)"><mask id="b" fill="#fff"><use xlink:href="#a"/></mask><use fill="#F7F7F7" xlink:href="#a"/><g mask="url(#b)"><path d="M78.596 117.292c-.071 4.119-19.066 7.132-42.427 6.728-23.36-.405-42.24-4.075-42.168-8.193.07-4.119 19.068-7.134 42.426-6.729 23.362.405 42.24 4.074 42.17 8.194" fill="#C1C0C0"/><path d="M94.293 64.005s12.393-11.082 8.153-31.94c0 0-25.763 4.562-23.806 17.599" fill="#F4A0C4"/><path d="M94.293 64.005s12.393-11.082 8.153-31.94c0 0-25.763 4.562-23.806 17.599" stroke="#8A3D45" stroke-width="1.2"/><path d="M74.4 108.248s10.517 2.689 16.876.488c6.36-2.2 4.402 10.267-5.38 10.267-9.784 0-17.855-7.089-17.855-7.089" fill="#EB8BB4"/><path d="M74.412 108.2s.838.203 2.326.463c1.485.261 3.623.573 6.203.7 1.287.043 2.687.071 4.152-.07.368-.019.734-.09 1.108-.132a9.923 9.923 0 0 0 1.123-.193c.377-.071.756-.15 1.126-.275l1.151-.345c.183-.066.423-.09.64-.131a4.13 4.13 0 0 1 .673-.024c.456.034.924.19 1.312.48.397.286.656.716.82 1.15.171.437.23.9.237 1.353.004 1.828-.8 3.55-1.942 4.933a9.194 9.194 0 0 1-4.443 2.932 9.855 9.855 0 0 1-2.601.437l-.326.015c-.153.007-.222-.004-.335-.006l-.619-.022c-.414-.025-.812-.006-1.231-.067-.832-.109-1.654-.201-2.424-.39-.784-.14-1.527-.37-2.25-.588a29.883 29.883 0 0 1-3.932-1.588c-1.188-.556-2.206-1.2-3.11-1.753a28.66 28.66 0 0 1-2.243-1.583c-1.204-.929-1.819-1.545-1.819-1.545l.065-.074s.17.132.5.364c.333.23.814.576 1.453.975.635.404 1.42.87 2.33 1.381a39.39 39.39 0 0 0 3.15 1.53 28.97 28.97 0 0 0 3.876 1.393c1.404.382 2.92.715 4.467.861.381.063.806.054 1.212.085l.618.032c.091.003.23.017.285.01l.299-.01a9.408 9.408 0 0 0 2.376-.341 8.334 8.334 0 0 0 4.106-2.556c1.072-1.235 1.84-2.827 1.865-4.42.003-.394-.041-.787-.17-1.137-.125-.349-.313-.674-.595-.884a1.895 1.895 0 0 0-.98-.375 3.418 3.418 0 0 0-1.108.109l-1.162.32a8.914 8.914 0 0 1-1.173.262c-.39.075-.774.143-1.159.173-.383.034-.76.094-1.135.103-1.497.101-2.91.032-4.208-.048a50.237 50.237 0 0 1-6.213-.879 40.678 40.678 0 0 1-2.32-.53l.025-.094z" fill="#8A3D45"/><path fill="#717171" d="M89.197 127.68l15.41-32.266 28.86-6.844-11.862 27.377-30.512 12.894z"/><path fill="#5A5A5A" d="M67.674 120.959l-17.732 4.97.244 3.586 40.907-.673 1.529-4.828-4.953-4.094z"/><path fill="#777" d="M100.163 116.151l-25.436-.651-24.785 10.429 42.395-.978z"/><path fill="#5B5B5B" d="M91.093 128.842l30.512-12.894 11.284-26.042-27.182 6.73-15.592 31.606z"/><path d="M70.967 114.52s31.082-13.605 25.798-45.862c-5.284-32.256-58.231-45.172-86.849-11.67-28.618 33.502-.88 63.849 27.655 64.625 24.265.66 33.396-7.092 33.396-7.092" fill="#F4A0C4"/><path d="M71.029 114.624c-.113.098-.982.828-2.72 1.795-1.862 1.043-4.743 2.328-8.582 3.407-3.834 1.087-8.621 1.984-14.164 2.333a99.825 99.825 0 0 1-8.847.184 43.733 43.733 0 0 1-9.798-1.433c-6.664-1.803-13.59-5.277-19.355-10.84-2.869-2.773-5.453-6.058-7.345-9.844A33.031 33.031 0 0 1-3.266 87.83c-.349-4.392.252-8.906 1.61-13.187 1.348-4.294 3.426-8.367 5.955-12.134l.97-1.4 1.012-1.371c.69-.9 1.41-1.826 2.13-2.666 1.467-1.74 3.017-3.434 4.69-5.004 3.33-3.151 7.035-5.943 11.043-8.21 8.004-4.558 17.125-7.055 26.157-7.33 9.029-.287 17.979 1.57 25.709 5.358 3.861 1.894 7.413 4.275 10.464 7.085 3.052 2.806 5.6 6.046 7.44 9.548a32.24 32.24 0 0 1 2.25 5.387c.28.917.533 1.834.734 2.768.12.467.18.916.27 1.37.088.449.153.935.215 1.382.51 3.656.575 7.253.198 10.66-.733 6.838-3.284 12.776-6.369 17.368-3.094 4.62-6.613 8.01-9.685 10.511a54.372 54.372 0 0 1-7.606 5.182c-1.745.977-2.775 1.426-2.892 1.477zm-.11-.212s1.03-.453 2.861-1.512a53.945 53.945 0 0 0 7.488-5.25c3.013-2.523 6.453-5.932 9.441-10.526 2.979-4.57 5.397-10.428 6.023-17.126.323-3.338.211-6.854-.337-10.429-.07-.457-.13-.88-.226-1.336-.094-.448-.166-.916-.283-1.349a32.876 32.876 0 0 0-.744-2.65 31.1 31.1 0 0 0-2.241-5.172c-1.828-3.351-4.308-6.46-7.29-9.144-2.98-2.69-6.447-4.965-10.215-6.765-7.543-3.605-16.27-5.323-25.034-4.956-8.764.358-17.572 2.862-25.243 7.351-3.84 2.235-7.374 4.973-10.545 8.05-1.593 1.534-3.062 3.18-4.46 4.884a61.059 61.059 0 0 0-2.028 2.602l-.959 1.333-.915 1.358C3.836 67.427 1.899 71.317.659 75.36A33.706 33.706 0 0 0-.798 87.647a30.581 30.581 0 0 0 3.171 11.5 36.422 36.422 0 0 0 3.032 4.987 37.527 37.527 0 0 0 3.725 4.344c5.35 5.36 11.918 8.822 18.28 10.666a42.604 42.604 0 0 0 9.379 1.669c3.054.161 5.974.169 8.706.066 5.47-.213 10.214-.891 14.032-1.811 3.828-.909 6.706-2.08 8.595-3.003a21.625 21.625 0 0 0 2.097-1.17c.456-.293.67-.465.67-.465l.016-.013.013-.005z" fill="#8A3D45"/><path d="M76.428 109.836s-9.055 7.62-33.118 6.972c-28.297-.763-55.803-30.597-27.425-63.532.8-.928 1.621-1.814 2.458-2.67a56.704 56.704 0 0 0-7.794 7.476c-28.378 32.935-.872 62.769 27.425 63.532 24.062.65 33.117-6.972 33.117-6.972s7.746-3.362 14.812-10.71c-5.14 4.023-9.475 5.904-9.475 5.904" fill="#EB8BB4"/><path d="M61.702 54.493s2.353-13.658-5.521-20.751c-7.873-7.094-17.356-8.81-17.356-8.81s-8.247 14.259-1.41 23.76" stroke="#04B5E8" stroke-width=".6"/><path d="M63.417 56.857s12.82-14 3.927-21.766c-8.893-7.768-30.386-19.419-30.386-19.419s-15.425 23.216-.047 43.556" fill="#F4A0C4"/><g transform="translate(28.7 14.476)"><mask id="d" fill="#fff"><use xlink:href="#c"/></mask><path d="M34.65 42.321a36.473 36.473 0 0 0 4.276-6.215c1.187-2.207 2.145-4.573 2.456-7.036.148-1.227.113-2.473-.18-3.654a8.182 8.182 0 0 0-1.605-3.221c-.204-.225-.38-.472-.606-.677-.217-.202-.45-.43-.655-.61l-1.502-1.16-1.498-1.166a20.178 20.178 0 0 0-1.523-1.12l-3.108-2.128c-1.02-.725-2.116-1.368-3.174-2.051-1.07-.67-2.125-1.36-3.207-2.011l-3.25-1.945c-1.078-.655-2.174-1.283-3.27-1.91s-2.184-1.268-3.288-1.88a357.44 357.44 0 0 0-6.645-3.63l1.06-.263c-.479.767-.94 1.62-1.369 2.456a46.926 46.926 0 0 0-1.214 2.573 51.02 51.02 0 0 0-1.992 5.325c-.144.45-.275.906-.406 1.36-.138.453-.264.91-.376 1.37-.243.914-.44 1.84-.62 2.767-.079.466-.172.93-.242 1.396l-.198 1.403c-.104.938-.21 1.877-.248 2.82-.034.472-.05.943-.047 1.415.004.472-.022.945.004 1.416l.051 1.415.125 1.411c.031.473.113.938.181 1.405.075.467.124.94.228 1.4l.278 1.395.361 1.375c.11.463.26.913.414 1.362.156.448.288.908.464 1.35.363.878.698 1.773 1.124 2.629.21.428.392.874.626 1.292l.695 1.258c.22.43.49.826.745 1.234l.767 1.227-.144.108c-.589-.766-1.238-1.499-1.771-2.311l-.82-1.212c-.274-.403-.499-.836-.752-1.255-.522-.83-.917-1.726-1.349-2.607-.21-.442-.376-.905-.567-1.357a15.36 15.36 0 0 1-.517-1.38l-.465-1.4-.38-1.427c-.142-.473-.221-.96-.318-1.444-.091-.484-.198-.967-.253-1.458L.75 27.488l-.119-1.476c-.051-.492-.034-.986-.053-1.48-.019-.493-.017-.987.003-1.48.01-.988.091-1.971.17-2.956.102-.981.241-1.958.416-2.929a42.7 42.7 0 0 1 .615-2.89c.112-.48.237-.956.376-1.43.127-.475.268-.947.428-1.412.302-.937.635-1.863.997-2.777a47.52 47.52 0 0 1 1.155-2.711c.419-.89.854-1.77 1.326-2.634.476-.87.952-1.707 1.519-2.564l.414-.627.646.363a372.073 372.073 0 0 1 6.586 3.816c1.096.636 2.174 1.303 3.263 1.953 1.086.652 2.173 1.303 3.244 1.983l3.223 2.02c1.073.675 2.122 1.391 3.184 2.085 1.053.71 2.13 1.37 3.157 2.133l3.112 2.223c.527.36 1.02.757 1.508 1.16l1.473 1.194 1.47 1.2c.264.243.477.466.716.7.236.23.425.504.639.754a8.94 8.94 0 0 1 1.656 3.555c.281 1.285.278 2.61.09 3.887-.396 2.563-1.443 4.941-2.703 7.144a36.768 36.768 0 0 1-4.478 6.15l-.133-.12z" fill="#8A3D45" mask="url(#d)"/></g><path d="M61.542 40.073s-3.234-8.539-19.847-15.756c0 0-9.596 18.769.22 26.395 0 0 11.595.564 19.627-10.639" fill="#E281AA"/><path d="M41.86 24.784a57.315 57.315 0 0 1 6.77 3.46c-2.068 1.043-5.133 4.394-5.555 7.989-.595 5.084 1.882 9.586 3.747 13.885-2.909.69-4.908.594-4.908.594-9.815-7.626-.054-25.928-.054-25.928" fill="#BE6489"/><path d="M60.678 38.704a19.596 19.596 0 0 0-.935-1.309c-.315-.434-.683-.826-1.022-1.241-.365-.391-.728-.786-1.1-1.168l-1.16-1.109-1.214-1.048c-.41-.343-.84-.658-1.26-.99a19.666 19.666 0 0 0-1.294-.94c-.44-.3-.867-.622-1.318-.903l-1.357-.846c-.9-.57-1.854-1.05-2.775-1.579-.469-.253-.951-.48-1.425-.722l-1.426-.713-2.917-1.292.719-.263a41.52 41.52 0 0 0-1.352 3.214 48.006 48.006 0 0 0-1.11 3.32c-.659 2.236-1.137 4.525-1.342 6.818-.037.575-.082 1.149-.08 1.718-.017.573.014 1.142.045 1.706l.08.845.13.831c.11.547.214 1.096.393 1.618.146.532.37 1.032.581 1.532l.362.727.427.683c.133.234.322.427.477.643.156.219.339.414.527.602.353.401.772.736 1.172 1.09l-.543-.202c.395.008.875-.005 1.323-.04.457-.02.913-.083 1.372-.131.453-.072.91-.138 1.365-.223.45-.101.912-.167 1.357-.294.448-.128.903-.221 1.342-.375l1.321-.444 1.3-.518c.43-.184.843-.402 1.266-.602.429-.191.83-.434 1.237-.667.402-.241.832-.444 1.21-.726l1.171-.797c.393-.266.745-.585 1.12-.874.369-.303.756-.583 1.094-.921l1.05-.98c.368-.313.66-.696.991-1.049l.949-1.028c-.21-.468-.483-.911-.751-1.353zm.969 1.38l-.845 1.269c-.286.398-.536.828-.865 1.194l-.94 1.14c-.302.396-.669.725-1.018 1.075-.356.341-.691.71-1.069 1.03l-1.15.946c-.374.328-.8.58-1.205.87-.409.282-.813.575-1.254.804-.434.241-.86.5-1.303.728l-1.348.641c-.456.202-.927.364-1.39.546-.466.184-.948.308-1.422.466-.473.157-.964.254-1.446.382-.484.12-.98.197-1.472.287-.496.066-.99.144-1.494.182-.51.049-.992.063-1.557.054l-.315-.005-.228-.195c-.482-.421-.99-.813-1.403-1.31a6.056 6.056 0 0 1-.618-.738c-.185-.265-.4-.507-.557-.788l-.49-.83-.41-.868a12.4 12.4 0 0 1-.615-1.804c-.178-.61-.275-1.232-.37-1.85l-.109-.928-.052-.931a21.147 21.147 0 0 1 .012-1.849c.02-.614.087-1.221.146-1.828.3-2.421.858-4.78 1.607-7.064a49.748 49.748 0 0 1 1.237-3.377 41.73 41.73 0 0 1 1.493-3.28l.25-.487.468.224 2.923 1.403 1.43.766c.474.26.955.505 1.422.776.92.574 1.865 1.098 2.756 1.715l1.345.912c.448.304.87.648 1.303.97.436.323.868.649 1.276 1.008.414.352.838.688 1.24 1.054l1.19 1.11 1.133 1.172c.364.404.716.817 1.07 1.23.329.433.687.845.989 1.3.32.44.613.9.896 1.365.268.477.54.949.739 1.466l.02.047z" fill="#8A3D45"/><path d="M73.3 103.237s1.467 11.733.121 15.4c-1.344 3.666 10.518 7.333 9.906-5.256-.611-12.589-1.223-12.71-1.223-12.71" fill="#F4A0C4"/><path d="M73.359 103.23l.258 1.978c.15 1.26.352 3.062.502 5.237a54.77 54.77 0 0 1 .144 3.522c.007 1.254-.02 2.58-.282 3.967l-.14.523-.071.263-.051.218-.03.126.002.09c.005.06-.01.111.004.179.02.134.044.27.105.4.213.53.721.974 1.28 1.293 1.15.625 2.591.808 3.858.454 1.283-.345 2.296-1.295 2.872-2.462.59-1.17.824-2.506.884-3.803.05-.649.034-1.296.02-1.929a75.811 75.811 0 0 1-.076-1.914l-.114-3.504c-.039-1.082-.048-2.077-.097-2.956l-.112-2.277c-.04-.629-.09-1.125-.14-1.453-.032-.335-.133-.492-.082-.454l.023-.116c.074.018.155.189.262.519.117.33.223.82.354 1.447l.198 1.04c.064.38.114.79.18 1.23.127.88.262 1.871.37 2.957.124 1.087.222 2.261.313 3.503.052.62.094 1.258.133 1.911.027.675.054 1.363.012 2.071-.1 1.405-.373 2.9-1.135 4.26-.378.672-.872 1.306-1.494 1.808a5.356 5.356 0 0 1-2.128 1.048 6.168 6.168 0 0 1-4.513-.668c-.65-.405-1.277-.948-1.575-1.733a2.2 2.2 0 0 1-.138-.612c-.014-.104.004-.228.01-.34l.016-.169.035-.124.148-.514.139-.46c.29-1.28.35-2.595.396-3.827.046-1.236.032-2.41.002-3.494a103.83 103.83 0 0 0-.285-5.238l-.176-1.984.119-.013z" fill="#8A3D45"/><path d="M85.265 54.165c-.89.356-1.276 1.371-.862 2.269.413.897 1.469 1.337 2.357.98.889-.355 1.275-1.371.86-2.27-.411-.896-1.468-1.336-2.355-.98m-3.718-5.57s3.298 1.681 2.595 3.805c0 0-.548 1.833-2.766.403 0 0-1.232-.923-3.322-2.23 0 0-.695-.57-1.916-.91 0 0-1.123-.254-1.005-1.646 0 0 .167-1.371 2.388-.956 0 0 1.696.21 4.026 1.534" fill="#F0BFD8"/><path d="M82.901 80.457c-.659.998-1.65 1.508-2.211 1.136-.562-.37-.483-1.48.177-2.478.658-.998 1.648-1.508 2.21-1.137s.484 1.48-.176 2.48m4.736.908c-.271 1.165-1.023 1.985-1.678 1.833-.656-.152-.968-1.221-.697-2.385.27-1.166 1.022-1.987 1.678-1.834.656.152.967 1.22.697 2.386" fill="#8A3D45"/><path d="M52.876 107.514s7.95 12.833 14.798 13.444c6.848.612 7.582-3.91 5.748-5.744-1.835-1.833-9.54-11.977-9.54-11.977" fill="#F4A0C4"/><path d="M52.927 107.483s.396.611 1.142 1.645a58.342 58.342 0 0 0 3.276 4.131c.717.82 1.519 1.686 2.412 2.553.895.862 1.87 1.74 2.955 2.534 1.09.778 2.289 1.506 3.599 1.903.161.06.327.093.493.13.166.038.33.08.498.094.162.016.346.052.49.054l.544.017.546.017.513-.033.511-.033.508-.089c1.337-.227 2.625-.908 3.074-2.02.232-.54.257-1.147.104-1.694-.037-.137-.103-.263-.148-.395l-.21-.358-.63-.723-1.299-1.541-.627-.748c-.196-.259-.39-.515-.582-.766a193.474 193.474 0 0 1-2.133-2.854c-.658-.884-1.21-1.719-1.727-2.446a73.411 73.411 0 0 1-1.303-1.903c-.71-1.064-1.098-1.685-1.098-1.685l.096-.073s.497.538 1.337 1.502a75.18 75.18 0 0 1 1.51 1.741l1.936 2.27c.706.826 1.463 1.727 2.253 2.686.776.962 1.673 1.95 2.562 2.984l.707.854c.104.181.215.361.307.55.07.196.157.39.207.593.215.81.13 1.704-.235 2.47a3.956 3.956 0 0 1-1.7 1.775 6.293 6.293 0 0 1-2.241.724l-.573.081-.582.02-.577.017-.545-.034-.544-.034c-.219-.012-.39-.054-.587-.08-.193-.024-.377-.076-.561-.124-.185-.048-.37-.093-.545-.162-1.434-.485-2.66-1.293-3.764-2.132-2.192-1.72-3.892-3.668-5.272-5.374a58.73 58.73 0 0 1-3.122-4.285c-.705-1.066-1.077-1.696-1.077-1.696l.102-.063z" fill="#8A3D45"/><path d="M59.213 92.28c-1.872 7.366 4.7 15.04 14.678 17.14 9.978 2.1 19.584-2.168 21.455-9.534 1.871-7.366-4.7-15.04-14.679-17.138-9.978-2.102-19.583 2.167-21.454 9.532" fill="#BC5588"/><path d="M75.927 106.95c-9.979-2.1-16.55-9.775-14.679-17.14.272-1.07.711-2.073 1.287-3.003 4.063-3.81 11.002-5.562 18.133-4.06 9.977 2.1 16.55 9.773 14.678 17.14a10.711 10.711 0 0 1-1.286 3c-4.064 3.81-11.003 5.563-18.133 4.063" fill="#ED659F"/><path d="M78.167 85.114c-4.077.312-7.865 2.492-8.461 4.872-.595 2.382 2.23 4.06 6.308 3.751 4.078-.31 7.867-2.493 8.46-4.873.595-2.38-2.228-4.06-6.307-3.75m7.32 9.419c1.16 3.564 3.924 6.465 6.175 6.48 2.252.014 3.137-2.863 1.98-6.43-1.159-3.564-3.926-6.465-6.176-6.479-2.252-.014-3.137 2.864-1.979 6.43" fill="#8A3D45"/><path d="M106.685 97.206l23.807-5.562-7.73 18.54s-1.546-11.742-16.077-12.978" fill="#FEFEFE"/><path d="M41.136 115.459a153.088 153.088 0 0 0-3.435-1.486c-4.065 1.037-9.446.223-14.542-2.67l.612-.489s-7.215 4.767-.612 12.222c6.604 7.456 20.913 7.334 23.358 4.4 2.446-2.933 2.568-8.433-5.38-11.977" fill="#EB8BB4"/><path d="M41.353 115.56c-6.499 1.336-11.223 5.382-11.223 10.165 0 .69.101 1.362.289 2.015 6.682 2.438 14.365 1.774 16.098-.304 2.423-2.905 2.56-8.329-5.164-11.876" fill="#F4A0C4"/><path d="M23.812 110.875s-.208.14-.562.457a9.036 9.036 0 0 0-1.363 1.526c-.507.715-1.018 1.684-1.22 2.88-.211 1.191-.036 2.591.584 3.946.625 1.355 1.623 2.664 2.874 3.86a17.53 17.53 0 0 0 2.06 1.628c.755.491 1.56.94 2.408 1.343a23.724 23.724 0 0 0 5.508 1.738c1.938.376 3.95.529 5.94.45a18.163 18.163 0 0 0 2.935-.356c.946-.196 1.883-.503 2.577-.974l.232-.184.183-.192.408-.571.296-.548.252-.604c.294-.821.37-1.693.245-2.52-.11-.832-.43-1.612-.837-2.335-.25-.335-.444-.703-.74-1l-.406-.47c-.147-.145-.303-.283-.452-.423-1.213-1.114-2.635-1.92-3.95-2.58-1.391-.64-2.66-1.245-3.785-1.781l-.815-.393-.765-.33a391.7 391.7 0 0 1-1.346-.593c-.81-.384-1.47-.588-1.916-.763a3.69 3.69 0 0 0-.51-.173 16.54 16.54 0 0 1-.177-.048l.01-.146.192.021c.13.01.316.043.548.097.472.102 1.174.246 2.027.526.853.272 1.932.554 3.086 1.012 1.165.439 2.481.933 3.909 1.491 1.462.617 3.008 1.384 4.434 2.599.176.152.358.301.533.462l.493.528c.347.338.605.775.907 1.174.53.864.927 1.857 1.076 2.925a6.69 6.69 0 0 1-.377 3.222c-.106.253-.222.504-.334.755-.14.251-.296.499-.447.745l-.489.628c-.114.114-.229.233-.348.338l-.37.27c-1.006.62-2.054.885-3.098 1.08a19.435 19.435 0 0 1-3.145.284 27.073 27.073 0 0 1-6.178-.634 24.727 24.727 0 0 1-5.676-1.961c-.872-.443-1.7-.935-2.476-1.47a16.795 16.795 0 0 1-2.12-1.787c-1.236-1.273-2.24-2.682-2.848-4.136-.605-1.456-.74-2.966-.47-4.217a7.312 7.312 0 0 1 1.378-2.96 9.289 9.289 0 0 1 1.449-1.51c.372-.309.594-.447.594-.447l.082.12z" fill="#8A3D45"/></g></g></g></svg>