<svg width="315" height="206" viewBox="0 0 315 206" xmlns="http://www.w3.org/2000/svg" xmlns:xlink="http://www.w3.org/1999/xlink"><title>head-BG-nocoupons</title><defs><path d="M39.161 72.514c-.002-.124-.003-.249-.007-.373-.03-1.018-.03-1.018-1.033-1.188-6.02-1.016-11.09-3.75-15.18-8.26-.546-.602-.547-.6-1.125.002-.715.744-1.465 1.45-2.35 1.997-1.867 1.152-3.562 1.088-5.32-.223-1.256-.938-2.212-2.15-3.103-3.417-2.377-3.378-4.01-7.116-5.39-10.978C3.477 43.985 1.693 37.78.03 31.536c.45-.033.718.246.967.557.156 1.034.486 2.027.754 3.034C3.095 40.15 4.563 45.14 6.277 50.054c1.349 3.867 2.987 7.595 5.347 10.977.834 1.195 1.762 2.305 2.933 3.194a4.62 4.62 0 0 0 1.37.71c1.036.336 2.019.156 2.948-.347 1.084-.585 2.01-1.377 2.85-2.268.336-.356.323-.437-.016-.815a30.134 30.134 0 0 1-1.735-2.147c-.269-.364-.563-.466-1.005-.407-.742.1-1.48.268-2.238.227-.098-.033-.194-.066-.18-.198.19-.19.451-.207.692-.262 1.604-.364 3.215-.705 4.831-1.013 1.51-.287 2.857-.927 4.102-1.788 2.472-1.71 4.484-3.875 6.237-6.29.29-.4.274-.444-.17-.705-.08-.047-.169-.086-.24-.146-.406-.335-.781-.23-1.202.012-1.873 1.077-3.861 1.871-6.007 2.216-1.859.298-3.724.433-5.615.29-1.298-.1-2.59-.21-3.876-.405-.215-.033-.437-.051-.62-.194-.037-.083.006-.145.053-.207.122-.208.004-.396-.065-.577a33.563 33.563 0 0 1-1.947-7.766 32 32 0 0 1-.18-6.09c.132-1.977.427-3.923.874-5.85.068-.292.03-.493-.327-.51a.49.49 0 0 1-.264-.087c-.093-.203.086-.193.192-.24 1.27-.069 2.531.085 3.791.196 1.934.172 3.858.432 5.761.824 2.185.45 4.32 1.052 6.328 2.04 1.311.646 2.404 1.55 3.356 2.652 1.01 1.167 2.09 2.27 3.119 3.421.696.779 1.461 1.494 2.136 2.292.141.166.294.325.474.45.137.096.294.276.451.183.18-.107.1-.339.071-.519a7.23 7.23 0 0 0-.28-1.132c-.889-2.678-2.305-5.06-4.107-7.228-1.212-1.457-2.59-2.74-4.08-3.909-.134-.105-.28-.202-.337-.377.207-.452.439-.544.826-.293.552.357 1.055.782 1.546 1.216 2.944 2.595 5.32 5.607 6.786 9.267.387.967.774 1.944.69 3.022-.028.356.197.464.496.475.767.03 1.53.046 2.282-.182.643-.196 1.294-.357 1.986-.194.926.217 1.568.878 1.713 1.82.198 1.281-.156 2.453-.832 3.51-1.537 2.407-3.74 3.663-6.646 3.72-1.586.03-3.081-.281-4.53-.874-.303-.123-.484-.084-.664.194a24.86 24.86 0 0 1-3.98 4.761 22.72 22.72 0 0 1-1.837 1.526c-.706.462-1.424.902-2.18 1.283-1.061.534-2.17.886-3.35 1.028-.451.056-.473.102-.179.463 2.485 3.048 5.316 5.698 8.81 7.597a24.543 24.543 0 0 0 3.158 1.432c1.743.681 3.562 1.075 5.398 1.407.264.091.253.328.285.538.218 1.444.402 2.893.803 4.302.193.821.491 1.6.975 2.302.512.743 1.28.978 2.14.67.98-.35 1.68-1.06 2.347-1.803.696-.777 1.31-1.62 1.877-2.496.942-1.387 1.783-2.833 2.573-4.31.144-.266.235-.58.554-.716.08.023.115.083.132.159a.527.527 0 0 1-.088.355c-.362.546-.34 1.127-.223 1.741.157.82.312 1.641.537 2.447.197.805.488 1.57.962 2.261.514.75 1.277.99 2.137.686.982-.349 1.686-1.058 2.353-1.802a20.246 20.246 0 0 0 1.88-2.497c1.085-1.567 1.996-3.237 2.908-4.904.238-.434.47-.745 1.014-.91.939-.286 1.813-.773 2.673-1.253a26.038 26.038 0 0 0 6.005-4.606c1.132-1.163 2.176-2.407 3.012-3.807.086-.098.211-.182.131-.344.085-.357.317-.64.492-.95 1.374-2.433 2.319-5.025 2.962-7.733.078-.33.007-.484-.338-.559a5.93 5.93 0 0 1-2.093-.914c-1.114-.756-1.593-1.833-1.657-3.134-.053-1.062.142-2.073.625-3.025.084-.165.15-.346.336-.435.09-.006.136.045.157.125.017.162-.043.307-.103.45-.38.894-.348 1.828-.246 2.759.143 1.311.9 2.23 2.079 2.739 1.81.782 3.658.867 5.43-.123 1.041-.582 1.56-1.55 1.677-2.719a4.981 4.981 0 0 0-.278-2.207c-.45-1.245-1.333-2.046-2.62-2.396-.638-.172-1.285-.284-1.95-.26-.217.008-.442.037-.642-.089a.129.129 0 0 1-.029-.138c.242-.16.267-.38.236-.653a33.233 33.233 0 0 0-3.593-11.717 32.855 32.855 0 0 0-5.084-7.195c-3.172-3.406-7.025-5.73-11.42-7.197-2.533-.845-5.146-1.337-7.808-1.603-2.158-.216-4.317-.175-6.476-.153-1.012.01-2.022.175-3.038.2-.096-.267-.052-.329.289-.423 1.983-.154 3.965-.316 5.96-.295 2.702.03 5.38.262 8.02.842.374.082.54-.016.732-.329 2.375-3.875 5.812-6.49 9.968-8.254.257-.109.314-.005.4.19 1.015 2.33 1.797 4.732 2.233 7.239.316 1.82.444 3.642.002 5.464-.11.454-.253.898-.468 1.313-.099.192-.108.31.082.47 3.624 3.07 6.32 6.83 8.317 11.1.12.254.285.376.54.448.897.252 1.724.65 2.473 1.204 1.54 1.141 2.098 2.684 1.888 4.545-.166 1.466-.664 2.836-1.213 4.193-.064.158-.125.316-.207.522 1.37.155 2.576.602 3.41 1.735.703.956.939 2.062.951 3.213.024 2.233-1.203 3.59-4.083 4.502.214.178.396.327.576.479 1.377 1.16 1.337 2.645-.11 3.723-.84.624-1.801 1-2.806 1.258-.325.083-.49.23-.618.536-2.378 5.679-6.133 10.18-11.548 13.255-1.306.742-2.686 1.33-4.073 1.9-.316.13-.501.318-.651.612-1.06 2.082-2.23 4.101-3.67 5.954-.027.089-.028.191-.091.262-.981 1.096-1.962 2.194-3.52 2.482-.9.167-1.628-.135-2.216-.808-.625-.714-.904-1.585-1.131-2.48a11.266 11.266 0 0 1-.306-1.97c-.008-.153-.008-.333-.196-.382-.202-.053-.318.092-.406.245-.376.66-.742 1.326-1.161 1.961-.853 1.382-1.79 2.697-2.996 3.803-.7.642-1.467 1.16-2.434 1.32-.901.148-1.629-.151-2.205-.835-.85-1.008-1.074-2.249-1.328-3.486-.105-.512.036-1.015-.044-1.519z" id="a"/><path d="M10.029 40.615l-.894-.526c-1.797-1.102-3.569-2.246-5.4-3.287-1.138-.647-2.012-1.543-2.958-2.582.599.211 1.028.492 1.446.766.359.235.568.199.85-.117a54.045 54.045 0 0 0 3.592-4.49c.087-.32.34-.538.51-.807.716-.983 1.558-1.855 2.433-2.698.11-.105.217-.213.34-.305.58-.468 1.153-.946 1.764-1.374.254-.178.242-.344.069-.578-.433-.586-.863-1.175-1.315-1.747-.11-.156-.323-.248-.312-.481a15.768 15.768 0 0 0-4.237-3.785c-1.825-1.113-3.636-2.258-5.63-3.068-.335-.136-.213-.449-.276-.68-.068-.247.2-.23.342-.282 4.68-1.71 9.36-3.417 14.042-5.125.161-.059.328-.108.48-.185.81-.412 1.226-.355 1.859.312.817.863 1.308 1.927 1.798 2.986.634 1.37 1.156 2.784 1.643 4.21.202.594.637.282.97.328.35.049.258-.28.287-.466.502-3.28 1.354-6.442 3.131-9.299.613-.986 1.369-1.856 2.214-2.65 1.606-1.507 3.22-3.007 4.824-4.515.178-.168.285-.256.529-.05a1555.48 1555.48 0 0 0 8.922 7.523c.284.239.288.34-.006.564-.484.368-.931.785-1.39 1.185-.102.087-.236.155-.18.34.37 1.213.672 2.444.978 3.74.768-1.03 1.508-1.993 2.332-2.888 1.278-1.385 2.658-2.641 4.411-3.422.242-.107.496-.19.748-.273.849-.276 1.604-.254 2.438.25 3.102 1.874 6.258 3.657 9.394 5.474l.517.3c-.791.102-1.464.162-2.128.276-2.813.482-5.446 1.402-7.7 3.21-.097.077-.181.17-.271.255-.137.094-.27.19-.352.34.004.101-.047.18-.113.246-1.073 1.053-1.674 2.405-2.387 3.687-.185.332-.258.736-.6.973-.323-.163-.464-.441-.508-.783.374-.788.656-1.616 1.03-2.404 1.27-2.675 3.426-4.39 6.096-5.552 1.023-.445 2.093-.742 3.254-.993-.578-.413-1.142-.732-1.691-1.073-1.728-1.071-3.465-2.13-5.174-3.231-.446-.287-.873-.301-1.34-.191-1.024.241-1.932.727-2.777 1.332-1.85 1.326-3.316 3.025-4.72 4.785-.187.235-.185.48-.127.749.258 1.203.436 2.419.591 3.638.032.246.146.516-.04.76-.334.033-.662.035-.934-.208-.328-1.104-.52-2.24-.807-3.353a173.37 173.37 0 0 0-1.234-4.596c-.14-.486-.196-.514-.7-.41-3.91.805-7.828 1.578-11.734 2.4l-.092.02c-.52.108-.525.121-.206.52.72.9 1.447 1.797 2.171 2.695.235.292.458.591.675.896.233.329.44.687.875.804.075.02.124.093.07.184-.332.178-.656.081-.979-.03-.395-.224-.616-.615-.896-.944a319.527 319.527 0 0 0-3.344-3.848c-.602-.683-.588-.756.287-.968 4.382-1.063 8.771-2.1 13.155-3.16.6-.145 1.04-.468 1.469-.86.227-.209.065-.33-.076-.45-.771-.659-1.503-1.36-2.263-2.032a553.84 553.84 0 0 1-3.35-2.993c-.406-.365-.844-.695-1.214-1.1-.27-.295-.509-.135-.724.072-.53.507-1.092.978-1.64 1.465-.967.86-1.965 1.69-2.905 2.578-1.344 1.268-2.328 2.79-3.114 4.456-.938 1.987-1.532 4.073-1.962 6.214-.135.673-.136.688.564.768.81.092 1.612.234 2.412.387.12.023.437-.054.316.283-.41.145-.835.038-1.251.08-.156.015-.356-.08-.45.14-.01.05-.023.097-.036.145-.063.165-.063.361-.234.474-.7.064-1.385-.176-2.085-.11-.178.008-.355-.003-.532-.003-1.961-.067-3.813.44-5.632 1.088-.722.257-1.429.555-2.114.9-.405.204-.415.245-.069.529 1.146.94 2.285 1.888 3.432 2.828a1027.4 1027.4 0 0 1 7.209 5.97c.299.25.584.517.918.724.15.138.227.301.173.508-.258.203-.408-.043-.56-.159-1.567-1.192-3.126-2.394-4.693-3.586a287.216 287.216 0 0 1-3.932-3.036c-.237-.187-.445-.218-.725-.067-2.82 1.52-5.13 3.6-6.974 6.198-1.192 1.679-2.394 3.35-3.73 4.92-.23.27-.243.379.093.571 2.866 1.636 5.732 3.269 8.602 4.897.598.34 1.199.676 1.786 1.034.306.186.478.164.655-.18.791-1.532 1.968-2.764 3.222-3.92 1.92-1.77 4.039-3.297 6.154-4.825.197-.143.375-.345.664-.289a.66.66 0 0 1 .311.674c-.484.573-1.093 1.014-1.66 1.495-1.726 1.46-3.492 2.878-5.054 4.516-1.03 1.081-2.053 2.18-2.627 3.598-.162.402-.54.59-.899.784-.14.076-.275.027-.4-.046-1.51-.883-2.99-1.816-4.489-2.717-.095-.057-.177-.13-.201-.247z" id="c"/><path d="M4.724.016l.38.427c-.01.22-.207.256-.347.335a44.898 44.898 0 0 0-3.145 1.947c-.124.084-.283.133-.37.341.876.295 1.749.574 2.615.872.245.084.531.097.697.343l-.321.283c-.204.11-.396.02-.587-.042-.712-.233-1.421-.474-2.135-.703-.381-.122-.409-.094-.322.302.177.803.363 1.603.555 2.402.058.24.144.479.058.73-.151.28-.343.53-.568.754L.03 3.181c-.048-.19.074-.28.207-.372C1.689 1.81 3.163.844 4.724.016z" id="e"/><path d="M22.64 5.148c.62-1.07 1.108-2.212 1.777-3.256.376-.587.79-1.147 1.336-1.596a48.844 48.844 0 0 1 7.084-.254C38.24.244 43.413 1.361 48.18 3.995c5.287 2.92 9.002 7.3 11.726 12.575 1.882 3.644 3.014 7.517 3.47 11.587.033.292.078.577-.36.568-.148.122-.326.167-.51.193-.131.01-.255.053-.382.08-.163.03-.32.075-.462.166-.174.072-.34.167-.53.206a.97.97 0 0 0-.61.298c-.152.136-.308.268-.46.402-.199.144-.275.41-.515.512-.858 1.38-1.063 2.88-.72 4.436.23 1.042.939 1.77 1.86 2.29.561.318 1.152.57 1.793.66.344.05.414.18.338.511-.62 2.675-1.541 5.239-2.865 7.653-.231.422-.483.834-.726 1.25-.05.131-.126.25-.184.377-.933 1.03-2.082 1.79-3.237 2.537-2.222 1.437-4.67 2.405-7.14 3.32-2.575.953-5.202 1.73-7.898 2.268-2.03.406-4.072.697-6.145.792-.83.038-1.658.097-2.488.074-4.333-.116-8.49-.978-12.37-2.96-2.722-1.389-5.07-3.262-7.137-5.492-.074-.08-.15-.16-.165-.275 1.53-1.198 2.94-2.517 4.158-4.032.608-.753 1.196-1.52 1.7-2.345.183-.299.335-.344.664-.202 1.908.825 3.89 1.13 5.964.805 2.788-.437 5.296-2.733 5.926-5.458.15-.648.169-1.298-.054-1.931-.349-.994-1.316-1.534-2.447-1.348-.554.092-1.094.268-1.646.374a5.18 5.18 0 0 1-2.053-.032c-.152-.031-.275-.059-.247-.256.184-1.33-.337-2.514-.845-3.678-1.772-4.062-4.557-7.328-8.082-10.004-.388-.295-.548-.02-.775.17-.533.545-1.12 1.017-1.827 1.326-1.44.256-2.88.388-4.34.156-2.233-.354-3.941-1.503-5.234-3.32-1.188-1.67-1.847-3.56-2.325-5.52C.453 10.484.22 8.199.107 5.894a71.27 71.27 0 0 1-.07-3.17c-.003-.723.136-.855.844-.857 1.3-.005 2.603-.047 3.902.008 2.47.104 4.946.103 7.412.285 2.186.161 4.368.367 6.534.726 2.08.344 3.42 1.504 4.099 3.458.577 1.66.688 3.366.519 5.103-.066.678-.173 1.35-.268 2.023-.035.154-.04.32-.12.45.094-.119.086-.283.123-.432.213-1.193.367-2.398.355-3.604-.014-1.428-.12-2.86-.716-4.2-.075-.17-.167-.341-.082-.536z" id="g"/><path d="M27.136 4.828l1.758-1.237c3.35 2.52 6.022 5.598 7.802 9.401.475 1.015.892 2.052 1.1 3.161.055.298.15.68-.103.813-.202.108-.514-.152-.71-.362-1.31-1.4-2.605-2.816-3.929-4.205-1.085-1.138-2.015-2.428-3.268-3.404-1.593-1.24-3.46-1.92-5.376-2.473-2.604-.752-5.27-1.166-7.966-1.422-1.386-.13-2.77-.273-4.164-.274-.544-.035-1.094.062-1.633-.075.44.115.912.006 1.347.163.9.068.925-.135.686.908a35.533 35.533 0 0 0-.808 5.466c-.35 4.946.47 9.701 2.258 14.311.067.172.201.372-.164.333-.29-.02-.577-.05-.859-.128-.063.001-.017.083-.022.02 0-.016.015-.025.044-.014.244.09.526.042.75.205 2.066.367 4.148.57 6.247.567 3.612-.005 7-.84 10.103-2.71.277-.168.484-.217.757-.006.22.17.474.305.73.416.312.135.344.28.145.555a31.768 31.768 0 0 1-1.873 2.389c-1.539 1.751-3.232 3.33-5.222 4.584-1.404.884-2.96 1.294-4.566 1.604-1.486.286-2.962.626-4.443.942-.028.05-.113.038-.12.11.1-.03.211.064.308-.022.73-.084 1.463-.14 2.186-.261.478-.08.806-.01 1.109.421.59.84 1.25 1.633 1.944 2.394.107.117.285.216.1.422-1.137 1.263-2.352 2.435-4.012 2.982-1.63.538-2.974-.119-4.166-1.166-1.57-1.378-2.682-3.11-3.747-4.873-2.376-3.938-3.842-8.252-5.25-12.586-1.49-4.594-2.788-9.244-3.992-13.92-.036-.143-.152-.288-.01-.436 1.482.898 2.962 1.799 4.45 2.689.176.106.353.354.564.243.31-.163.708-.313.833-.644.58-1.531 1.675-2.686 2.783-3.825 2.06-2.117 4.39-3.936 6.636-5.847.334.118.41.447.562.704.893 1.508 1.975 2.831 3.554 3.687 1.294.7 2.671 1 4.146.96 1.197-.03 2.353-.26 3.501-.56z" id="i"/><path d="M.48.047C2.862.31 5.194.82 7.49 1.502c1.2.356 2.36.814 3.48 1.377 1.338.674 2.417 1.638 3.362 2.784.923 1.118 1.898 2.192 2.848 3.287.079.09.196.161.195.386-.779-.585-1.403-1.258-2.056-1.899-.307-.164-.48-.461-.709-.703-.093-.19-.284-.303-.388-.484-.039-.057-.065-.123-.125-.165.06.054.09.128.134.194.117.169.297.288.385.48.205.257.486.454.612.773 1.465 1.705 3.114 3.191 5.154 4.2 1.527.756 3.111 1.005 4.775.489.36-.111.735-.148 1.114-.136.924.03 1.518.599 1.572 1.516.075 1.285-.437 2.373-1.21 3.344-1.236 1.548-2.863 2.408-4.846 2.635-2.306.264-4.434-.318-6.493-1.27-1.567-.726-3.012-1.65-4.376-2.702-.11-.084-.222-.165-.394-.294.034.252.187.34.296.445a18.296 18.296 0 0 0 2.343 1.94c.195.133.234.214.005.351-2.192 1.319-4.53 2.24-7.087 2.563-.046.006-.094 0-.14 0-.304.109-.47-.07-.617-.29a26.473 26.473 0 0 1-1.252-2.083C2.422 15.208 1.213 12.017.55 8.626.063 6.136-.012 3.623.055 1.099.062.835.125.575.158.313.18.14.22-.047.48.047z" id="k"/><path d="M6.134.4c.578.432 1.042.983 1.553 1.485 2.511 2.456 5.447 4.228 8.747 5.437 2.06.755 4.185 1.228 6.355 1.476 1.564.178 3.144.283 4.723.202a47.172 47.172 0 0 0 11.377-1.99 62.626 62.626 0 0 0 7.409-2.757A23.968 23.968 0 0 0 52.722.042c.037-.052.077-.054.118-.005-.306.688-.796 1.256-1.257 1.836-2.819 3.546-6.296 6.255-10.53 7.932-.543.215-.745.53-.97.94-.897 1.635-1.776 3.28-2.868 4.8a.337.337 0 0 1-.274-.013c-1.442-.72-2.892-.455-4.336-.024-.844.252-1.614.665-2.332 1.173-.173.123-.325.303-.576.261-.35-1.083-.526-2.2-.675-3.322-.068-.516.372-.872.481-1.337.17-.546.464-1.038.698-1.555.012-.04.029-.078.04-.118a.431.431 0 0 0-.037.08c-.273.497-.404 1.063-.796 1.493-.836 1.51-1.665 3.026-2.607 4.477-.127.194-.27.377-.405.565a.338.338 0 0 1-.274-.012c-1.441-.72-2.891-.456-4.336-.025-.86.257-1.642.679-2.37 1.202-.16.115-.305.276-.537.233-.408-1.274-.56-2.597-.78-3.908-.055-.327.07-.715-.259-.973-.437-.25-.943-.22-1.414-.32-1.314-.279-2.61-.605-3.866-1.079a.243.243 0 0 0-.182.004c-2.639-.965-5.004-2.396-7.172-4.16C3.333 6.665 1.724 4.885.196 3.03.14 2.96.097 2.881.022 2.77c.654-.116 1.272-.193 1.872-.34C3.261 2.1 4.491 1.458 5.658.692 5.814.59 5.975.496 6.134.4z" id="m"/><path d="M4.358.411c-.406.24-.269.687-.273.993-.023 1.749-.062 3.496.136 5.247a31.328 31.328 0 0 0 2.303 8.718 32.772 32.772 0 0 0 2.82 5.301c.12.18.237.325.475.307-.762.204-1.549.19-2.326.235-1.456.087-2.911.01-4.363-.132-.218-.02-.323-.099-.41-.296a31.91 31.91 0 0 1-2.446-8.622C-.264 8.232.088 4.355.87.495c.075-.37.202-.519.611-.461C2.44.169 3.41.209 4.358.41z" id="o"/><path d="M.014 7.852C1.411 5.52 3.226 3.635 5.416 2.097 6.53 1.314 7.719.657 8.954.08c.256-.12.362-.103.472.176 1.113 2.836 1.994 5.727 2.119 8.794.05 1.218-.08 2.421-.54 3.57-.104.26-.174.389-.48.159-3.061-2.3-6.482-3.861-10.19-4.817-.09-.023-.177-.06-.321-.109z" id="q"/><path d="M.885 1.187c.17-.103.278-.295.491-.336.162-.218.432-.248.652-.363l.453-.183c.148-.065.317-.06.46-.137.143.01.273-.043.404-.088.186.01.364-.074.551-.04.72-.027 1.44-.042 2.15.11 2.148.464 3.352 1.859 3.483 4.04.145 2.41-1.346 4.122-3.78 4.333-1.203.104-2.371-.023-3.483-.534C.852 7.34.129 6.238.024 4.705c-.067-.98.05-1.92.483-2.811.054-.274.274-.46.378-.707z" id="s"/><path d="M.014 2.027C1.337.985 2.827.307 4.504.096 5.555-.036 6.598.031 7.531.629c-.894 1.415-1.884 2.75-3.226 3.79-.098.077-.2.15-.306.217-1.422.9-2.5.635-3.312-.83a6.448 6.448 0 0 1-.673-1.78z" id="u"/><path d="M.015 2.005C1.338.963 2.83.285 4.505.075c1.05-.133 2.094-.066 3.027.533-.894 1.415-1.884 2.75-3.226 3.79-.099.077-.2.15-.305.217-1.424.902-2.504.635-3.313-.83a6.47 6.47 0 0 1-.673-1.78z" id="w"/><path d="M.034.027C1.978.774 3.635 1.642 4.23 3.705c.254.878.147 1.759-.03 2.627-.266 1.3-.779 2.516-1.377 3.726C2.37 6.63 1.495 3.322.034.027z" id="y"/><path d="M1.502.032c.551.453 1.06.84 1.532 1.265.655.59.674 1.395.092 2.066-.663.763-1.546 1.196-2.44 1.61-.194.09-.397.16-.67.27A32.684 32.684 0 0 0 1.503.032z" id="A"/><path d="M2.27 2.554c-.737-.176-1.504.01-2.241-.18C.423 1.69.827 1.012 1.203.318c.14-.257.354-.307.586-.279.268.033.18.292.189.45.042.696.196 1.377.292 2.066z" id="C"/><path d="M.007.106c.191-.162.361.003.52.057 1.667.574 3.382.944 5.15 1.207l-.208.132C3.586 1.277 1.772.784.007.106z" id="E"/><path d="M.014 1.605C.354 1.079.694.555 1.036.03c.1-.016.17-.012.1.085C.84.657.555 1.204.14 1.705l-.126-.1z" id="G"/><path d="M1.46.298C.977.394.512.184.036.113c.571-.01 1.143-.165 1.71.061-.098.029-.212-.016-.286.124z" id="I"/><path d="M.917 1.183C.569.898.317.53.05.176-.004.048.057.03.164.056l.874 1a26.1 26.1 0 0 1-.121.127z" id="K"/><path d="M1.077.318C.722.243.343.255.028.026c.399 0 .794.004 1.164.18l-.115.112z" id="M"/><path d="M.631.015C.616.411.321.657.131.96L.022.842C.166.522.352.234.631.015z" id="O"/><path d="M.834.183C.598.35.337.303.082.305.055.278.046.253.057.228.067.203.077.19.087.19L.83.04l.003.144z" id="Q"/><path d="M.677.17C.485.359.261.3.024.29.083.016.266.049.428.035l.25.136z" id="S"/><path d="M.17.375L.014.38C.039.222.09.079.248.002.483.182.282.27.17.375z" id="U"/><path d="M21.631 8.614c-.813.406-1.49 1.009-2.217 1.536-1.893 1.371-3.747 2.798-5.379 4.476-.943.97-1.861 1.974-2.424 3.23-.119.266-.225.283-.488.133C7.455 15.887 3.779 13.8.105 11.707c-.024-.014-.037-.044-.067-.081C1.847 9.572 3.32 7.26 5.014 5.119 6.562 3.162 8.474 1.6 10.633.316c.728-.433 1.173-.355 1.812.15 2.757 2.182 5.563 4.303 8.354 6.443.071.055.162.086.243.129.402.45.584.98.589 1.576z" id="W"/><path d="M3.522 16.535c-.817-.262-1.668-.367-2.512-.452-1.109-.11-1.1-.066-.896-1.15.419-2.22 1.08-4.367 2.084-6.395.875-1.767 2.003-3.35 3.54-4.638C7.086 2.77 8.37 1.564 9.678.386c.537-.484.523-.473 1.053.005 1.479 1.335 2.975 2.651 4.46 3.98.8.717 1.586 1.45 2.39 2.165.231.206.148.282-.038.49-.955 1.069-2.33 1.055-3.555 1.364-3.899.984-7.818 1.89-11.728 2.828-.027.006-.05.027-.109.06l4.565 5.35c-.09.105-.214.124-.34.127-.872.02-1.743.023-2.61-.096a.377.377 0 0 1-.244-.124z" id="Y"/><path d="M.757 11.37C.665 10.825.534 10.28.49 9.73.423 8.895.248 8.077.075 7.263c-.11-.52-.032-.876.317-1.296.906-1.089 1.804-2.184 2.846-3.15C4.456 1.688 5.75.666 7.375.158c.691-.215 1.3-.241 1.978.201 2.22 1.448 4.493 2.817 6.745 4.216.039.024.072.057.151.122-.773.21-1.52.385-2.247.62-2.26.728-4.237 1.913-5.816 3.698-.964 1.09-1.543 2.398-2.077 3.73-.123.307-.15.676-.462.891-.193.02-.268-.14-.369-.248-.816-.88-1.833-1.373-3.003-1.61-.512-.105-1.064-.086-1.518-.407z" id="aa"/><path d="M.016 4.778L12.12.75c.637-.212 1.278-.418 1.901-.665.297-.117.473-.034.64.189.345.46.66.94.933 1.448.841 1.563 1.533 3.194 2.243 4.818.148.34.034.414-.3.473-2.883.501-5.544 1.573-8.01 3.131-.038.024-.07.057-.144.12l3.936 3.035c-.723.364-1.4.701-2.04 1.107-.235.15-.289-.088-.376-.216a44.488 44.488 0 0 0-2.064-2.82 17.728 17.728 0 0 0-4.535-3.988C3.018 6.585 1.752 5.755.399 5.072.26 5.001.125 4.93.016 4.777z" id="ac"/><path d="M4.28 7.704c-.403-.04-.646-.281-.873-.602-.99-1.394-2.104-2.691-3.181-4.017-.31-.381-.295-.397.223-.503C3.7 1.92 6.946 1.252 10.195.586c.839-.172 1.682-.325 2.514-.526.361-.088.496.01.586.35.59 2.216 1.219 4.42 1.708 6.66.108.498.287.983.291 1.501-.124.123-.282.128-.438.108a94.857 94.857 0 0 0-7.454-.662 38.901 38.901 0 0 0-2.727-.163c-.147-.01-.299-.007-.394-.15z" id="ae"/><path d="M8.8.05c.731-.048 1.448.069 2.165.185.204.205.154.463.135.705-.12 1.565-.09 3.128-.005 4.695.079 1.446.26 2.874.522 4.295.11.596.275 1.18.415 1.769.045.192.13.39-.005.583-.575-.265-.99-.74-1.467-1.128-1.87-1.524-3.72-3.071-5.578-4.61C3.388 5.22 1.802 3.89.2 2.58c-.267-.218-.178-.279.058-.393C2.345 1.17 4.501.38 6.834.122 7.32.068 7.797.044 8.282.059c-.112.465-.432.82-.662 1.22-.093.162-.283.179-.46.188-.25.011-.503-.016-.751.021-.758.112-1.052.717-.67 1.37.087.149.203.277.305.414.214.288.083.545-.113.757-.2.217-.401.046-.584-.071-.176-.113-.292-.279-.385-.462-.05-.097-.097-.196-.152-.29-.153-.26-.38-.503-.674-.317-.329.208-.064.479.089.671.271.342.586.65.96.886.287.182.358.405.198.711-.115.221-.193.46-.254.701-.036.144-.036.29.126.36.176.075.3-.013.391-.16.115-.188.193-.391.275-.593.148-.37.404-.537.814-.435.181.045.367.092.556.089.287-.006.52-.126.646-.39.118-.247-.01-.45-.166-.636-.07-.084-.15-.158-.227-.236-.453-.46-.454-.475-.092-1.02.4-.6.411-.604 1.078-.314.057.024-.016 0 .043.018.237.075.538.215.681-.045.148-.27-.14-.438-.344-.576-.557-.377-.612-.51-.137-.935.393-.351.15-.622.027-.936z" id="ag"/><path d="M1.166 12.687c-.37-1.459-.705-2.923-.883-4.42a38.275 38.275 0 0 1-.193-6.93C.104 1.105.1.872.106.64L.204.17C.373.022.58.04.784.04A194.67 194.67 0 0 1 7.49.09C8.143.108 8.8.07 9.452.16c1.939.027 3.863.242 5.79.434.698.07 1.395.156 2.093.234l.937.166c.58.113 1.16.221 1.74.339 1.285.261 2.34.896 3.15 1.926l.456.713c1.253 2.75 1.049 5.58.47 8.43-.036.03-.07.026-.103-.005.094-.865.22-1.726.262-2.597.075-1.55-.04-3.076-.541-4.556-.73-2.159-2.304-3.196-4.532-3.499a92.477 92.477 0 0 0-8.702-.748 186.54 186.54 0 0 0-8.79-.16c-.292.003-.509.005-.514.401-.054 4.122.196 8.207 1.484 12.165.564 1.734 1.374 3.337 2.658 4.67 1.672 1.737 3.771 2.354 6.13 2.314.843-.015 1.666-.21 2.507-.24-.542.338-1.166.407-1.773.517-2.44.443-4.73.13-6.784-1.349-1.324-.954-2.233-2.247-3.009-3.647-.06-.107-.131-.208-.198-.312a1.221 1.221 0 0 0-.274-.623l-.589-1.576c-.018-.168-.052-.33-.155-.471z" id="ai"/><path d="M5.003.009c.512.373.524.55.078.952-.09.082-.154.195-.234.289-.175.204-.16.347.124.42.238.06.418.21.56.402.112.152.214.32.099.514-.106.177-.288.158-.462.146a1.171 1.171 0 0 1-.691-.261c-.256-.219-.41-.14-.54.12-.007.013-.018.025-.027.037-.475.677-.475.677.11 1.28.24.248.424.52.239.872-.193.367-.523.46-.915.403-.9-.131-.899-.13-1.289.72a1.747 1.747 0 0 1-.223.354c-.146.182-.324.134-.508.053-.185-.08-.2-.217-.154-.383.008-.03.015-.06.026-.09.135-.376.44-.795.357-1.115-.076-.292-.597-.444-.87-.727-.205-.213-.42-.417-.561-.683-.09-.171-.164-.35-.005-.517.143-.15.327-.151.522-.107.273.062.428.238.523.485.095.248.193.508.443.637.138.072.273.371.452.125.134-.185.37-.428.057-.685-.07-.058-.121-.141-.176-.218-.243-.34-.438-.693-.224-1.12.22-.442.621-.652 1.08-.593.701.09 1.116-.174 1.34-.814.067-.19.196-.35.35-.486l.519-.01z" id="ak"/><path d="M3.655 3.876L.012 2.671C1.385 1.66 2.798.854 4.204.038c.566.605 1.013 1.3 1.499 1.965.095.13.121.235-.035.35-.674.504-1.342 1.015-2.013 1.523z" id="am"/><path d="M.863 3.727C.587 2.572.31 1.417.036.262-.038-.05.141.019.321.077c.99.321 1.982.64 2.973.96-.85.861-1.67 1.75-2.431 2.69z" id="ao"/><path d="M6.159.275l.372.048c-.013.24-.155.162-.249.162C4.248.488 2.212.494.177.487.127.487.088.453.046.429-.001.108.126.046.336.05.868.062 1.399.053 1.93.052c1.064.094 2.128.163 3.195.125.342.087.685.154 1.035.098z" id="aq"/><path d="M.046.177c1.997 0 3.995.002 5.993-.004.165 0 .346.092.492-.12a14.5 14.5 0 0 1 2.758.256L.04.323.046.177z" id="as"/><path d="M7.084 1.006c.49.077.882-.23 1.316-.356 1.668-.48 3.37-.701 5.09-.577 3.55.256 6.643 1.546 9.03 4.242 1.32 1.49 2.127 3.23 2.367 5.218.115.958.153 1.905-.092 2.848-.314 1.105-.978 2.014-1.73 2.843-2.426 2.677-5.487 4.111-9.083 4.485-2.66.277-5.197-.148-7.587-1.307C3.41 16.954 1.286 14.715.39 11.48.058 10.286-.163 9.053.228 7.81c.315-1.073.935-1.983 1.614-2.85 1.025-1.31 2.31-2.326 3.762-3.14.41-.421.958-.593 1.48-.814z" id="au"/><path d="M.718.028c-.174 1.63.027 3.212.643 4.734.634 1.569 1.616 2.887 2.905 3.996 1.782 1.535 3.854 2.45 6.15 2.89 1.685.321 3.38.326 5.073.033 2.237-.388 4.287-1.22 6.1-2.59 1.554-1.175 2.796-2.608 3.605-4.39.018-.039.06-.068.091-.102-.188 1.55-.829 2.927-1.734 4.174-2.182 3.006-5.193 4.693-8.844 5.26-3.866.602-7.438-.138-10.588-2.518C1.85 9.802.441 7.536.095 4.72-.1 3.13.01 1.526.718.03z" id="aw"/><path d="M13.85 3.582c-.195 2.472-1.114 4.664-2.626 6.618a12.531 12.531 0 0 1-2.933 2.732c-.366.248-.715.3-1.139.208-1.87-.402-3.232-1.508-4.278-3.04C1.506 8.094.834 5.823.388 3.473.208 2.527.098 1.571.014.611-.012.32.064.218.382.191c2-.178 4-.265 6.003-.08 2.047.188 4.058.54 5.946 1.402.014.094-.047.132-.121.161-.229.049-.43-.054-.637-.119C9.95 1.051 8.293.797 6.596.674 4.787.543 3.005.696 1.216.869c-.252.024-.414.075-.369.39.385 2.699 1.032 5.314 2.488 7.667.7 1.132 1.61 2.06 2.837 2.644.141.067.286.126.431.184.578.233 1.072.192 1.609-.212C10.99 9.452 12.714 6.71 13.5 3.36c.049-.209.006-.488.317-.557.13.255.062.518.033.78z" id="ay"/><path d="M.045 3.28C.176 2.367.4 1.48.913.696c.51-.78 1.147-.883 1.913-.339.362.257.674.597.878.962-.368.133-.732.267-1.099.396-.173.06-.206.148-.1.306 2.178 3.26 4.647 6.167 8.74 7.108.58.133 1.166.224 1.762.254.143.007.317-.058.446.126-1.025.243-2.04.139-3.035-.018-4.16-.659-7.05-2.944-8.665-6.803-.157-.375-.27-.435-.598-.17C.75 2.84.399 3.21.056 3.593c-.072-.102-.063-.207-.01-.313z" id="aA"/><path d="M4.681.042c.994.001 1.54.283 1.753.878.182.51.046.852-.442 1.117-.623.338-1.33.288-1.995.432-.909.197-1.852.243-2.706.676-.422.212-.9.03-1.14-.361-.233-.381-.1-.886.333-1.233C1.457.77 2.608.395 3.808.14c.303-.065.609-.146.873-.099z" id="aC"/><path d="M.019 1.674a2.053 2.053 0 0 1 .38-1.27c.392-.53.97-.526 1.366 0 .514.683.506 2.064-.014 2.729-.393.5-.947.5-1.34-.002-.254-.325-.39-.797-.392-1.457z" id="aE"/><path d="M2.103 2.546c-.42.405-1.005.511-1.48.815-.632-.723-.78-1.843-.347-2.689C.453.33.691.023 1.118.028c.425.005.656.311.828.66.297.599.28 1.224.157 1.858z" id="aG"/><path d="M.023 1.108C.034.523.617.013 1.26.024c.581.011 1.125.573 1.115 1.152-.01.61-.57 1.108-1.218 1.088C.476 2.243.01 1.767.023 1.108z" id="aI"/><path d="M.002.16l.13-.142c.445.16.835.453 1.22.758.01.121-.053.157-.133.173C.794.731.287.702.002.161z" id="aK"/><path d="M.012.095C.133.338.457.488.538.75c.23.237.024.515.123.765C.961.577.878.334.141.013l-.13.082z" id="aM"/><path d="M.901.002C.665.256.328.329.039.488.193.088.54.034.9.002z" id="aO"/><path d="M.15.049l.16.007-.16.697C-.02.43.026.238.151.05z" id="aQ"/><path d="M.665.126C.479.29.262.296.042.282.205.053.458.108.665.017c.04.024.054.048.04.072C.693.114.68.126.665.126z" id="aS"/><path d="M.016.265V.151L.52.006C.52.045.519.085.515.123.375.31.195.281.016.265z" id="aU"/><path d="M.283.051l.03.419C.283.536.21.66.105.54-.027.386.054.198.283.051z" id="aW"/><path d="M.65.652l-.113.12-.502-.62C-.025.023.04.01.146.033l.504.62z" id="aY"/><path d="M.633.52L.521.64.034.04C.36.07.492.299.633.52z" id="ba"/><path d="M.119.425L.009.31C.054.203.11-.015.186.032.374.15.237.304.119.425z" id="bc"/><path d="M7.747 3.217c-.045.305-.072.68-.16 1.04-.064.261.03.364.248.455.49.203.976.413 1.454.64.292.14.399.38.28.7-.117.312-.27.48-.662.36-.478-.147-.978-.242-1.418-.476-.33-.177-.432-.061-.586.215a5.54 5.54 0 0 1-1.597 1.811c-.29.21-.612.438-.972.127-.262-.224-.246-.762.007-1.125.15-.214.37-.327.603-.426.319-.135.611-.295.826-.589.462-.634.461-.647-.266-.966-.168-.074-.279-.064-.413.06a6.55 6.55 0 0 1-.652.535c-1.016.716-2.131.259-2.37-.962a5.756 5.756 0 0 1-.082-1.302c.008-.235-.07-.367-.284-.468-.424-.2-.832-.432-1.252-.64-.34-.168-.463-.442-.446-.8C.02 1.058.145.785.47.6c.343-.194.599-.097.808.185.093.126.176.25.307.343.644.46.646.465.94-.23.146-.346.386-.604.708-.783.426-.235.802-.027.808.457.006.479-.146.924-.44 1.303-.216.28-.176.439.14.6.346.178.673.397.995.616.192.13.325.125.475-.061.186-.23.398-.44.599-.658.41-.444.83-.588 1.242-.427.471.185.718.611.695 1.272z" id="be"/><path d="M1.51 3.253c.18-.503-.18-.64-.619-.73a3.73 3.73 0 0 1-.625-.188c-.22-.088-.284-.255-.222-.493.063-.242.22-.268.423-.24.03.005.063.002.094.007.38.072.824.296 1.12.172.27-.114.368-.611.562-.928.163-.265.36-.51.614-.698.152-.113.324-.216.515-.083.17.118.218.301.195.495a.726.726 0 0 1-.407.588c-.253.133-.486.297-.59.574-.048.133-.27.308-.043.414.192.09.439.302.666.001a2.6 2.6 0 0 1 .392-.4c.563-.48 1.286-.325 1.573.358.113.267.187.567.2.856.015.311.167.43.431.51.254.077.505.169.746.277a.616.616 0 0 1 .17 1.009c-.198.19-.401.224-.615.026-.068-.062-.126-.138-.202-.19-.413-.284-.515-.25-.671.213-.015.044-.021.093-.045.132-.163.264-.324.607-.697.498-.39-.113-.22-.486-.225-.764 0-.03.011-.061.014-.092.023-.225.335-.474.172-.62-.255-.229-.626-.333-.95-.484-.13-.061-.203.032-.268.122-.12.164-.233.331-.355.493-.197.263-.436.468-.792.367-.378-.107-.546-.39-.561-.77-.005-.125 0-.25 0-.432z" id="bg"/><path d="M5.098 1.461c.275.268.538.513.598.893.027.166.013.319-.125.422-.139.106-.301.077-.444 0a1.474 1.474 0 0 1-.625-.613c-.106-.2-.23-.232-.405-.092-.012.01-.026.017-.04.025-.796.461-.8.463-.483 1.312.117.314.145.615-.13.856-.28.246-.6.224-.92.072-.07-.034-.134-.078-.2-.12-.69-.44-.69-.44-1.287.149-.435.428-.64.468-.893.185-.119-.132-.17-.254-.025-.396.01-.011.019-.025.03-.036.29-.321.79-.629.812-.967.022-.344-.416-.724-.563-1.136a5.106 5.106 0 0 1-.18-.625C.17 1.17.173.943.422.83c.235-.106.423.024.59.171.178.157.22.368.205.595-.016.268-.016.543.167.754.098.113.084.448.35.289.197-.117.477-.222.342-.603-.171-.484-.31-1.017.183-1.42.488-.398 1.018-.244 1.498.01.39.204.684.182.985-.134.138-.144.32-.247.48-.37.22-.167.44-.128.657.002.219.13.336.317.314.58-.025.286-.24.31-.462.365-.229.057-.414.211-.633.392z" id="bi"/><path d="M3.68 3.12c0 .245.01.386-.002.524-.049.541-.533.799-1.024.553-.249-.125-.419-.338-.55-.562-.225-.386-.489-.401-.845-.194a3.38 3.38 0 0 1-.684.297c-.243.076-.4-.021-.51-.271-.114-.258.043-.34.203-.432.35-.202.855-.314 1.013-.612.143-.269-.11-.733-.155-1.114-.03-.26-.02-.53.004-.791.018-.22.082-.457.349-.49.296-.037.457.177.556.414.088.209.04.425-.041.635-.09.234-.161.477-.051.724.06.135-.024.419.247.348.21-.055.532-.063.505-.433-.01-.123.007-.249.017-.373.075-.939.829-1.308 1.634-.8.04.025.089.045.115.08.484.66 1.07.58 1.705.247.31-.162.572-.058.781.21.152.194.15.405.067.617-.085.22-.28.207-.475.199a2.043 2.043 0 0 0-.37.028c-.321.046-.473.138-.252.499.23.376.145.907-.088 1.025-.258.13-.574-.137-.793-.63-.078-.174-.013-.512-.243-.5-.365.02-.75.124-1.075.292-.191.098-.02.405-.038.51z" id="bk"/><path d="M5.028 1.46c.272.267.538.512.6.891.026.164.012.318-.124.424-.139.107-.301.079-.444.002a1.472 1.472 0 0 1-.628-.612c-.103-.197-.225-.239-.402-.096-.012.01-.026.017-.04.025-.801.462-.805.463-.487 1.31.118.315.148.618-.127.858-.296.26-.626.22-.962.055-.288-.14-.512-.51-.834-.441-.304.064-.508.392-.747.616-.134.127-.287.257-.49.236-.309-.03-.446-.395-.236-.643.27-.318.742-.595.788-.934.041-.307-.397-.663-.527-1.048-.08-.235-.163-.47-.22-.71-.052-.22-.046-.447.2-.561.236-.11.425.02.592.167.178.156.221.367.207.594-.016.267-.017.543.165.754.098.114.086.448.35.293.196-.115.478-.22.344-.602-.17-.484-.31-1.017.181-1.42.487-.4 1.018-.247 1.498.006.388.204.683.186.985-.13.138-.145.32-.248.48-.37.22-.168.44-.131.657-.002.218.13.337.316.316.579-.024.287-.238.314-.46.367-.23.056-.414.211-.635.392z" id="bm"/><path d="M.773.027C.666.23.6.407.49.55.418.648.427.955.183.761.042.65-.05.466.093.27c.145-.2.341-.282.68-.242z" id="bo"/><path d="M.28.009c.172.086.317.16.295.331C.552.51.445.661.26.666.16.67-.026.623.02.465.068.3.192.158.28.009z" id="bq"/><path d="M2.497 8.565C.762 8.571-.176 7.481.074 5.752.471 3.019 3.796.08 6.541.038 8.396.01 9.373 1.166 9.036 2.992c-.51 2.763-3.796 5.564-6.54 5.573z" id="bs"/><path d="M2.488.005C4.614.318 6.642 1.456 7.81 3.787c.745 1.486-.062 2.65-1.73 2.648-.311 0-.63-.025-.93-.099C3.154 5.843 1.548 4.792.46 3.03c-.289-.47-.476-.99-.434-1.547C.098.536.856.002 2.488.005z" id="bu"/><path d="M12.707 1.676c.21.171.564.257.397.654-.358 1.682-.91 3.29-1.799 4.776a13.692 13.692 0 0 1-4.036 4.3.936.936 0 0 1-.833.142c-1.637-.43-2.806-1.464-3.716-2.825C1.487 6.88.836 4.812.392 2.668.255 2 .166 1.322.044.65-.001.403.044.297.332.264c2.592-.292 5.182-.376 7.774.008 1.179.175 2.323.486 3.45.861l1.15.543z" id="bw"/><path d="M.014.038c.489.207.904.4 1.296.69-.257.233-.48.47-.821.327C.089.888.039.517.014.038z" id="by"/><path d="M.959.478C.865.632.894.935.648.858.404.78.034.745.007.408-.01.227.202.019.426.043a.603.603 0 0 1 .533.435z" id="bA"/><path d="M.027.342C.554-.135.704-.085.93.614.601.631.352.454.027.342z" id="bC"/><path d="M.38.588C.222.512.031.483.045.264.054.15.062-.024.243.042.398.1.66.06.66.316.66.462.526.56.379.588z" id="bE"/><path d="M.864.212C.73.324.614.444.478.529.352.607.258.824.07.69.01.65.004.501.01.404.02.211.167.127.33.075c.192-.06.355.013.533.137z" id="bG"/><path d="M.641.266C.608.502.463.598.266.603.14.606.002.516.021.393.053.174.255.064.448.026c.156-.03.111.178.193.241z" id="bI"/><path d="M1.005.33C.787.42.659.492.521.52.373.55.218.746.079.57.026.504.057.32.113.23.22.055.403 0 .6.089c.109.048.207.122.406.241z" id="bK"/><path d="M.682.238C.698.448.555.53.39.575.182.632.051.5.041.326.025.062.291.11.445.044.62-.03.644.12.682.238z" id="bM"/><path d="M.928.12C.754.267.658.383.534.445.387.518.297.785.079.627.02.585.011.433.026.34.066.092.263.01.478.003.594 0 .713.061.928.12z" id="bO"/><path d="M.32.609C.163.587.006.536.04.364.078.174.265.078.434.027c.168-.05.183.134.2.23C.677.494.491.554.32.61z" id="bQ"/></defs><g fill="none" fill-rule="evenodd"><path fill="#FFF" d="M0 0h315v206H0z"/><g opacity=".12"><path d="M289.376 72.105H274.98m7.198-7.198v14.397" stroke="#75848F" stroke-linecap="round" stroke-width="4.12"/><path d="M27.897 159.068H21.28m3.308-3.309v6.618" stroke="#C2C8CD" stroke-linecap="round" stroke-width="2.08"/><path d="M39.676 82.823l1.412 1.16c.263.215.66.541.94 1.243.042.104.065.187.077.249-.156-.11-.454-.353-.984-.9-1.155-1.228-2.994-2.77-5.51-1.854l-.151.058c-.12.048-.234.1-.346.156-1.512.756-2.405 2.268-2.424 4.04l-2.05.82 1.587 3.988 1.803-.722c.464.678 1.019 1.252 1.582 1.626l.98.652 3.23-2.922-1.603-1.158a3.399 3.399 0 0 1-1.108-1.42c-.088-.22-.147-.568-.024-.62.056-.016.32.005 1.013.745 1.301 1.42 3.107 2.95 5.482 2.085l.133-.05c1.617-.645 2.617-2.175 2.664-3.997l2-.799-1.588-3.988-1.77.709a6.456 6.456 0 0 0-1.141-1.225l-1.032-.85-3.172 2.974z" fill="#FFF"/><path d="M36.683 94.421l-1.08-.719-.44-.291a6.529 6.529 0 0 1-1.406-1.306l-.43.172-1.559.624-.642-1.612-.945-2.376-.642-1.612 1.56-.625.78-.312c.195-1.842 1.22-3.392 2.853-4.208a5.715 5.715 0 0 1 .583-.25c1.532-.557 2.855-.33 3.91.158l.595-.56 1.924-1.805 1.056-.99 1.137.94.463.382a7.3 7.3 0 0 1 .876.856l.415-.166 1.559-.625.641 1.613.945 2.375.643 1.614-1.56.623-.738.295c-.232 1.911-1.382 3.485-3.146 4.19l-.156.06a4.62 4.62 0 0 1-3.267.003l-1.02.92-1.962 1.776-.947.856zm-.183-2.164l1.963-1.775-.72-.52a4.28 4.28 0 0 1-1.412-1.81c-.267-.672-.237-1.46.425-1.735l.048-.019c.364-.132.855-.14 1.897.973 1.2 1.311 2.685 2.554 4.584 1.863.037-.013.073-.027.11-.042 1.477-.589 2.288-2.068 2.122-3.78l1.76-.704-.945-2.374-1.632.652a5.635 5.635 0 0 0-1.34-1.617l-.463-.382-1.924 1.805.633.52c.293.24.838.686 1.202 1.602.406 1.02-.096 1.351-.333 1.444a.72.72 0 0 1-.04.015c-.335.123-.682.068-1.906-1.195-1.084-1.154-2.59-2.38-4.62-1.64a4.007 4.007 0 0 0-.41.175c-1.388.694-2.122 2.166-1.938 3.847l-1.82.729.944 2.375 1.675-.67c.453.828 1.071 1.553 1.7 1.97l.44.293z" fill="#7ED321"/><path d="M61.8 134.646l-3.533-.41c-.658-.077-1.65-.194-3.01.364-.203.082-.35.162-.454.228.365.072 1.108.16 2.59.162 3.282-.044 7.925.447 10.045 5.208l.123.29c.094.232.176.462.25.694.985 3.138.076 6.433-2.378 8.855l1.624 3.979-7.73 3.17-1.427-3.5c-1.577.267-3.13.266-4.414-.017l-2.237-.49-.278-8.471 3.789.676c1.111.2 2.447.06 3.485-.367.428-.176.995-.563.9-.805-.052-.1-.438-.44-2.41-.412-3.749.1-8.331-.361-10.332-4.854l-.11-.256c-1.282-3.134-.493-6.602 1.994-9.132l-1.585-3.879 7.731-3.17 1.398 3.436c1.088-.16 2.163-.18 3.259-.057l2.586.294.124 8.464z" fill="#FFF"/><path d="M49.61 154.514l2.466.54 1.003.221c1.136.248 2.407.315 3.728.205l.342.834 1.234 3.025 3.124-1.28 4.603-1.888 3.126-1.281-1.234-3.03-.619-1.515c2.317-2.761 3.099-6.292 2.034-9.681a11.122 11.122 0 0 0-.438-1.153c-1.29-2.9-3.398-4.443-5.505-5.26l-.022-1.59-.075-5.134-.041-2.818-2.853-.322-1.162-.13a14.11 14.11 0 0 0-2.38-.07l-.33-.805-1.233-3.027-3.125 1.282-4.603 1.888-3.128 1.282 1.237 3.028.584 1.43c-2.36 2.909-3.01 6.647-1.612 10.069.04.1.084.2.128.299 1.036 2.326 2.662 3.733 4.412 4.579l.088 2.671.169 5.148.081 2.483zm3.277-2.669l-.17-5.147 1.702.305a8.33 8.33 0 0 0 4.443-.472c1.302-.535 2.364-1.641 1.854-2.94-.014-.032-.025-.062-.039-.092-.307-.69-.96-1.387-3.927-1.341-3.458.092-7.205-.306-8.805-3.9l-.09-.21c-1.171-2.863-.197-5.999 2.423-8.08l-1.393-3.416 4.601-1.887 1.294 3.167a10.967 10.967 0 0 1 4.076-.31l1.16.13.075 5.135-1.585-.184c-.732-.085-2.094-.245-3.868.484-1.976.81-1.762 1.96-1.571 2.417.01.027.021.053.032.077.283.635.828 1.047 4.252 1.052 3.08-.042 6.832.412 8.542 4.252a7.006 7.006 0 0 1 .31.812c.903 2.88-.165 5.896-2.768 7.914l1.442 3.532-4.603 1.888-1.327-3.25c-1.771.486-3.622.6-5.056.285l-1.004-.22z" fill="#7ED321"/><path d="M254.68 132.28l-1.854-1.481c-.345-.276-.866-.693-1.833-.859a1.93 1.93 0 0 0-.337-.03c.181.169.57.481 1.409 1.007 1.872 1.135 4.326 3.055 3.842 6.498l-.032.208a6.327 6.327 0 0 1-.104.482c-.553 2.124-2.232 3.666-4.477 4.17l-.488 2.825-5.496-.94.43-2.484c-.986-.407-1.865-.957-2.492-1.571l-1.093-1.068 2.84-4.892 1.904 1.723a4.414 4.414 0 0 0 2.102 1.024c.305.052.762.033.794-.137.006-.075-.092-.404-1.219-1.086-2.156-1.269-4.586-3.15-4.13-6.4l.029-.183c.382-2.228 2.056-3.911 4.357-4.463l.475-2.756 5.496.94-.424 2.439a8.384 8.384 0 0 1 1.864 1.12l1.36 1.08-2.923 4.834z" fill="#FFF"/><path d="M240.756 139.213l1.205 1.178.489.48a8.477 8.477 0 0 0 2.037 1.433l-.101.593-.371 2.148 2.22.38 3.273.56 2.222.38.373-2.15.185-1.076c2.288-.744 3.979-2.466 4.574-4.76a7.421 7.421 0 0 0 .16-.807c.295-2.098-.351-3.716-1.255-4.924l.55-.907 1.773-2.932.973-1.609-1.5-1.19-.612-.486a9.39 9.39 0 0 0-1.323-.88l.099-.573.373-2.149-2.222-.38-3.273-.559-2.223-.38-.37 2.15-.176 1.017c-2.365.81-4.054 2.697-4.473 5.127a6.969 6.969 0 0 0-.033.215c-.237 1.683.186 3.054.878 4.151l-.895 1.543-1.725 2.973-.832 1.434zm2.798-.352l1.725-2.973.855.775a5.558 5.558 0 0 0 2.68 1.304c.927.158 1.92-.093 2.09-1.008l.01-.066c.07-.499-.052-1.124-1.748-2.148-1.989-1.17-3.97-2.72-3.604-5.32l.024-.15c.35-2.035 2.01-3.465 4.228-3.716l.42-2.426 3.27.559-.387 2.25a7.32 7.32 0 0 1 2.416 1.265l.61.485-1.773 2.932-.832-.665c-.384-.307-1.098-.879-2.36-1.093-1.404-.24-1.69.486-1.744.812a.934.934 0 0 0-.008.055c-.065.459.098.885 2.033 2.099 1.758 1.065 3.721 2.648 3.331 5.426-.008.058-.016.116-.027.175a5.204 5.204 0 0 1-.085.394c-.507 1.95-2.178 3.278-4.364 3.5l-.433 2.509-3.273-.56.399-2.308c-1.175-.351-2.262-.942-2.962-1.627l-.49-.48z" fill="#7ED321"/><path d="M277.698 55.356h-10.4m5.2-5.2v10.4" stroke="#F8E71C" stroke-linecap="round" stroke-width="3.12"/><path d="M111.678 47.16h-5.672m2.836-2.837v5.673" stroke="#75848F" stroke-linecap="round" stroke-width="2.08"/><path d="M72.882 77.39h-5.673m2.837-2.837v5.673" stroke="#F8E71C" stroke-linecap="round" stroke-width="2.08"/></g><path d="M232.148 130.847c0 41.335-33.277 74.846-74.324 74.846S83.5 172.182 83.5 130.847C83.5 89.509 116.777 56 157.824 56s74.324 33.509 74.324 74.847" fill="#F7F7F7"/><g transform="translate(116.929 94.338)"><mask id="b" fill="#fff"><use xlink:href="#a"/></mask><path fill="#8F4A50" mask="url(#b)" d="M-.174 78.593h84.557V-.18H-.174z"/></g><g transform="translate(107.824 85.786)"><mask id="d" fill="#fff"><use xlink:href="#c"/></mask><path fill="#5F9D45" mask="url(#d)" d="M-.204 43.866h60.702V-.203H-.204z"/></g><g transform="translate(113.254 108.159)"><mask id="f" fill="#fff"><use xlink:href="#e"/></mask><path fill="#8F4A51" mask="url(#f)" d="M-.186 8.21h5.493V-.186H-.186z"/></g><g transform="translate(131.913 102.484)"><mask id="h" fill="#fff"><use xlink:href="#g"/></mask><path fill="#F4A3C5" mask="url(#h)" d="M-.167 56.958H63.6V-.194H-.167z"/></g><g transform="translate(117.745 118.98)"><mask id="j" fill="#fff"><use xlink:href="#i"/></mask><path fill="#ED3438" mask="url(#j)" d="M-.166 40.797h38.23V-.166H-.166z"/></g><g transform="translate(134.445 124.412)"><mask id="l" fill="#fff"><use xlink:href="#k"/></mask><path fill="#F4A4C5" mask="url(#l)" d="M-.17 20.848h28.224V-.182H-.17z"/></g><g transform="translate(138.242 150.108)"><mask id="n" fill="#fff"><use xlink:href="#m"/></mask><path fill="#EC8FB7" mask="url(#n)" d="M-.183 18.833h53.227V-.201H-.183z"/></g><g transform="translate(130.566 124.047)"><mask id="p" fill="#fff"><use xlink:href="#o"/></mask><path fill="#EC8FB7" mask="url(#p)" d="M-.189 21.451h10.212V-.18H-.189z"/></g><g transform="translate(173.274 95.391)"><mask id="r" fill="#fff"><use xlink:href="#q"/></mask><path fill="#F4A4C5" mask="url(#r)" d="M-.19 13.1h11.949V-.194H-.191z"/></g><g transform="translate(191.035 131.261)"><mask id="t" fill="#fff"><use xlink:href="#s"/></mask><path fill="#F4A4C5" mask="url(#t)" d="M-.197 8.758h9.94V-.18h-9.94z"/></g><g transform="translate(167.925 165.023)"><mask id="v" fill="#fff"><use xlink:href="#u"/></mask><path fill="#F4A4C5" mask="url(#v)" d="M-.19 5.358h7.926V-.164H-.19z"/></g><g transform="translate(157.105 166.726)"><mask id="x" fill="#fff"><use xlink:href="#w"/></mask><path fill="#F4A4C5" mask="url(#x)" d="M-.189 5.338h7.925V-.185H-.189z"/></g><g transform="translate(193.444 120.602)"><mask id="z" fill="#fff"><use xlink:href="#y"/></mask><path fill="#ED3438" mask="url(#z)" d="M-.17 10.26h4.755V-.175H-.17z"/></g><g transform="translate(194.342 140.583)"><mask id="B" fill="#fff"><use xlink:href="#A"/></mask><path fill="#ED3438" mask="url(#B)" d="M-.187 5.445h3.936V-.17H-.187z"/></g><g transform="translate(164.985 165.145)"><mask id="D" fill="#fff"><use xlink:href="#C"/></mask><path fill="#FDFCFC" mask="url(#D)" d="M-.175 2.757h2.65V-.172h-2.65z"/></g><g transform="translate(150.613 162.348)"><mask id="F" fill="#fff"><use xlink:href="#E"/></mask><path fill="#EE9EBE" mask="url(#F)" d="M-.197 1.704H5.88v-1.87H-.197z"/></g><g transform="translate(167.64 160.687)"><mask id="H" fill="#fff"><use xlink:href="#G"/></mask><path fill="#9E555F" mask="url(#H)" d="M-.256 1.908h1.69V-.18h-1.69z"/></g><g transform="translate(128.28 123.682)"><mask id="J" fill="#fff"><use xlink:href="#I"/></mask><path fill="#A2494C" mask="url(#J)" d="M-.168.577H1.95v-.796H-.168z"/></g><g transform="translate(148.98 131.059)"><mask id="L" fill="#fff"><use xlink:href="#K"/></mask><path fill="#9D565F" mask="url(#L)" d="M-.24 1.453h1.548V-.225H-.24z"/></g><g transform="translate(130.81 144.758)"><mask id="N" fill="#fff"><use xlink:href="#M"/></mask><path fill="#AE4648" mask="url(#N)" d="M-.242.589h1.705v-.834H-.242z"/></g><g transform="translate(191.443 132.437)"><mask id="P" fill="#fff"><use xlink:href="#O"/></mask><path fill="#A45C65" mask="url(#P)" d="M-.248 1.23h1.15V-.256h-1.15z"/></g><g transform="translate(194.301 131.18)"><mask id="R" fill="#fff"><use xlink:href="#Q"/></mask><path fill="#944E56" mask="url(#R)" d="M-.218.54h1.322v-.772H-.218z"/></g><g transform="translate(133.179 153.31)"><mask id="T" fill="#fff"><use xlink:href="#S"/></mask><path fill="#A7484A" mask="url(#T)" d="M-.246.54H.947v-.776H-.246z"/></g><g transform="translate(190.953 149.865)"><mask id="V" fill="#fff"><use xlink:href="#U"/></mask><path fill="#D57E9B" mask="url(#V)" d="M-.257.652h.884v-.92h-.884z"/></g><g transform="translate(111.212 109.78)"><mask id="X" fill="#fff"><use xlink:href="#W"/></mask><path fill="#74BF4F" mask="url(#X)" d="M-.167 18.286h22.002V-.168H-.167z"/></g><g transform="translate(129.504 86.92)"><mask id="Z" fill="#fff"><use xlink:href="#Y"/></mask><path fill="#74BF4F" mask="url(#Z)" d="M-.196 16.968h18.122V-.175H-.196z"/></g><g transform="translate(148.45 93.284)"><mask id="ab" fill="#fff"><use xlink:href="#aa"/></mask><path fill="#74BF4F" mask="url(#ab)" d="M-.176 13.84h16.63V-.194H-.177z"/></g><g transform="translate(109.17 96.08)"><mask id="ad" fill="#fff"><use xlink:href="#ac"/></mask><path fill="#74BF4F" mask="url(#ad)" d="M-.188 14.655h18.292V-.172H-.188z"/></g><g transform="translate(132.975 95.918)"><mask id="af" fill="#fff"><use xlink:href="#ae"/></mask><path fill="#74BF4F" mask="url(#af)" d="M-.183 8.89h15.681V-.172H-.183z"/></g><g transform="translate(120.073 104.065)"><mask id="ah" fill="#fff"><use xlink:href="#ag"/></mask><path fill="#74BF4F" mask="url(#ah)" d="M-.168 12.484h12.472V-.164H-.168z"/></g><g transform="translate(130.933 103.66)"><mask id="aj" fill="#fff"><use xlink:href="#ai"/></mask><path fill="#8F4A50" mask="url(#aj)" d="M-.19 21.053h24.939V-.17H-.191z"/></g><g transform="translate(123.87 104.106)"><mask id="al" fill="#fff"><use xlink:href="#ak"/></mask><path fill="#FEFEFD" mask="url(#al)" d="M-.18 6.585h6.065v-6.78H-.18z"/></g><g transform="translate(114.152 108.564)"><mask id="an" fill="#fff"><use xlink:href="#am"/></mask><path fill="#4C2120" mask="url(#an)" d="M-.193 4.079h6.177V-.165H-.193z"/></g><g transform="translate(114.193 111.685)"><mask id="ap" fill="#fff"><use xlink:href="#ao"/></mask><path fill="#ED3438" mask="url(#ap)" d="M-.185 3.93h3.683V-.176H-.185z"/></g><g transform="translate(131.097 103.417)"><mask id="ar" fill="#fff"><use xlink:href="#aq"/></mask><path fill="#8E4C51" mask="url(#ar)" d="M-.168.768h6.903v-.989H-.168z"/></g><g transform="translate(131.097 103.62)"><mask id="at" fill="#fff"><use xlink:href="#as"/></mask><path fill="#8D5451" mask="url(#at)" d="M-.164.553h9.658v-.771H-.164z"/></g><g transform="translate(166.945 112.739)"><mask id="av" fill="#fff"><use xlink:href="#au"/></mask><path fill="#EE6CA2" mask="url(#av)" d="M-.184 19.994H25.18V-.164H-.184z"/></g><g transform="translate(166.455 120.52)"><mask id="ax" fill="#fff"><use xlink:href="#aw"/></mask><path fill="#BE5F8D" mask="url(#ax)" d="M-.195 14.435h25.684V-.175H-.195z"/></g><g transform="translate(136.119 107.834)"><mask id="az" fill="#fff"><use xlink:href="#ay"/></mask><path fill="#8F4A51" mask="url(#az)" d="M-.195 13.385h14.294V-.195H-.195z"/></g><g transform="translate(159.596 125.1)"><mask id="aB" fill="#fff"><use xlink:href="#aA"/></mask><path fill="#8F4A51" mask="url(#aB)" d="M-.2 9.855h13.857V-.188H-.2z"/></g><g transform="translate(158.575 104.349)"><mask id="aD" fill="#fff"><use xlink:href="#aC"/></mask><path fill="#F1C1D9" mask="url(#aD)" d="M-.167 3.437h6.882V-.174H-.167z"/></g><g transform="translate(168.538 111.644)"><mask id="aF" fill="#fff"><use xlink:href="#aE"/></mask><path fill="#8F4A51" mask="url(#aF)" d="M-.186 3.71H2.35V-.195H-.186z"/></g><g transform="translate(171.927 111.198)"><mask id="aH" fill="#fff"><use xlink:href="#aG"/></mask><path fill="#8F4A51" mask="url(#aH)" d="M-.174 3.564H2.39V-.174H-.174z"/></g><g transform="translate(166.21 104.835)"><mask id="aJ" fill="#fff"><use xlink:href="#aI"/></mask><path fill="#F1C1D9" mask="url(#aJ)" d="M-.182 2.467H2.58V-.178H-.182z"/></g><g transform="translate(148.327 109.334)"><mask id="aL" fill="#fff"><use xlink:href="#aK"/></mask><path fill="#9C555D" mask="url(#aL)" d="M-.216 1.22h1.77V-.253h-1.77z"/></g><g transform="translate(149.47 109.902)"><mask id="aN" fill="#fff"><use xlink:href="#aM"/></mask><path fill="#9F5760" mask="url(#aN)" d="M-.259 1.718h1.353V-.19H-.259z"/></g><g transform="translate(192.382 131.748)"><mask id="aP" fill="#fff"><use xlink:href="#aO"/></mask><path fill="#B46A77" mask="url(#aP)" d="M-.232.758h1.403V-.269H-.232z"/></g><g transform="translate(154.819 116.022)"><mask id="aR" fill="#fff"><use xlink:href="#aQ"/></mask><path fill="#904B52" mask="url(#aR)" d="M-.231 1.024h.77V-.222h-.77z"/></g><g transform="translate(193.485 131.383)"><mask id="aT" fill="#fff"><use xlink:href="#aS"/></mask><path fill="#A05961" mask="url(#aT)" d="M-.229.521h1.21v-.775H-.23z"/></g><g transform="translate(193.975 131.302)"><mask id="aV" fill="#fff"><use xlink:href="#aU"/></mask><path fill="#A05861" mask="url(#aV)" d="M-.254.5H.79v-.765H-.254z"/></g><g transform="translate(159.514 128.343)"><mask id="aX" fill="#fff"><use xlink:href="#aW"/></mask><path fill="#A85F6A" mask="url(#aX)" d="M-.228.861h.681v-1.08h-.681z"/></g><g transform="translate(148.613 130.613)"><mask id="aZ" fill="#fff"><use xlink:href="#aY"/></mask><path fill="#A45C66" mask="url(#aZ)" d="M-.258 1.042H.92v-1.29H-.258z"/></g><g transform="translate(148.245 130.248)"><mask id="bb" fill="#fff"><use xlink:href="#ba"/></mask><path fill="#B06773" mask="url(#bb)" d="M-.236.911h1.14v-1.14h-1.14z"/></g><g transform="translate(168.415 160.484)"><mask id="bd" fill="#fff"><use xlink:href="#bc"/></mask><path fill="#B26374" mask="url(#bd)" d="M-.262.695h.79v-.94h-.79z"/></g><g transform="translate(115.99 116.143)"><mask id="bf" fill="#fff"><use xlink:href="#be"/></mask><path fill="#FEFEFE" mask="url(#bf)" d="M-.2 8.444H9.82V-.184H-.2z"/></g><g transform="translate(135.547 89.717)"><mask id="bh" fill="#fff"><use xlink:href="#bg"/></mask><path fill="#FDFEFD" mask="url(#bh)" d="M-.183 5.657h7.285v-5.85H-.183z"/></g><g transform="translate(152.696 96.162)"><mask id="bj" fill="#fff"><use xlink:href="#bi"/></mask><path fill="#FEFEFD" mask="url(#bj)" d="M-.174 4.934H6.4V-.191H-.174z"/></g><g transform="translate(115.908 98.958)"><mask id="bl" fill="#fff"><use xlink:href="#bk"/></mask><path fill="#FEFEFD" mask="url(#bl)" d="M-.179 4.493h7.454V-.179H-.18z"/></g><g transform="translate(138.936 98.31)"><mask id="bn" fill="#fff"><use xlink:href="#bm"/></mask><path fill="#FEFEFD" mask="url(#bn)" d="M-.198 4.933h6.527V-.19H-.198z"/></g><g transform="translate(126.442 106.173)"><mask id="bp" fill="#fff"><use xlink:href="#bo"/></mask><path fill="#85C55F" mask="url(#bp)" d="M-.25 1.095h1.293V-.254H-.249z"/></g><g transform="translate(126.646 108.159)"><mask id="br" fill="#fff"><use xlink:href="#bq"/></mask><path fill="#82C35A" mask="url(#br)" d="M-.257.937H.847V-.262H-.257z"/></g><g transform="translate(169.722 114.806)"><mask id="bt" fill="#fff"><use xlink:href="#bs"/></mask><path fill="#8F4A50" mask="url(#bt)" d="M-.17 8.768h9.476V-.165H-.17z"/></g><g transform="translate(180.256 114.846)"><mask id="bv" fill="#fff"><use xlink:href="#bu"/></mask><path fill="#8F4A50" mask="url(#bv)" d="M-.184 6.637h8.477V-.198H-.184z"/></g><g transform="translate(136.772 108.32)"><mask id="bx" fill="#fff"><use xlink:href="#bw"/></mask><path fill="#E386AD" mask="url(#bx)" d="M-.175 11.79h13.527V-.19H-.175z"/></g><g transform="translate(119.133 119.832)"><mask id="bz" fill="#fff"><use xlink:href="#by"/></mask><path fill="#79C152" mask="url(#bz)" d="M-.256 1.37H1.58V-.234H-.256z"/></g><g transform="translate(122.114 119.629)"><mask id="bB" fill="#fff"><use xlink:href="#bA"/></mask><path fill="#7CC155" mask="url(#bB)" d="M-.264 1.14h1.493V-.23H-.264z"/></g><g transform="translate(139.385 92.149)"><mask id="bD" fill="#fff"><use xlink:href="#bC"/></mask><path fill="#7DC255" mask="url(#bD)" d="M-.243.886H1.2V-.242H-.243z"/></g><g transform="translate(137.589 92.635)"><mask id="bF" fill="#fff"><use xlink:href="#bE"/></mask><path fill="#86C55F" mask="url(#bF)" d="M-.225.858H.931V-.243H-.225z"/></g><g transform="translate(155.513 97.377)"><mask id="bH" fill="#fff"><use xlink:href="#bG"/></mask><path fill="#87C661" mask="url(#bH)" d="M-.263 1.004h1.398V-.217H-.263z"/></g><g transform="translate(154.9 99.282)"><mask id="bJ" fill="#fff"><use xlink:href="#bI"/></mask><path fill="#8BC765" mask="url(#bJ)" d="M-.251.874H.912V-.25H-.251z"/></g><g transform="translate(119.42 100.174)"><mask id="bL" fill="#fff"><use xlink:href="#bK"/></mask><path fill="#84C45C" mask="url(#bL)" d="M-.219.913h1.494V-.223H-.219z"/></g><g transform="translate(118.276 101.795)"><mask id="bN" fill="#fff"><use xlink:href="#bM"/></mask><path fill="#96CB74" mask="url(#bN)" d="M-.23.86H.954V-.247H-.23z"/></g><g transform="translate(141.672 99.566)"><mask id="bP" fill="#fff"><use xlink:href="#bO"/></mask><path fill="#87C661" mask="url(#bP)" d="M-.25.947h1.448V-.268H-.251z"/></g><g transform="translate(141.06 101.43)"><mask id="bR" fill="#fff"><use xlink:href="#bQ"/></mask><path fill="#8BC765" mask="url(#bR)" d="M-.234.88H.91V-.253H-.234z"/></g></g></svg>