<svg width="16" height="19" viewBox="0 0 16 19" xmlns="http://www.w3.org/2000/svg"><title>piggy-icon</title><path d="M12.655.474C10.462-.676 7.616.43 6.267 2.036 5.282 3.208 4.133 4.94 3.83 8.562 3.88 8.575 1.1 6.89 1.1 6.89L0 8.011c2.01 1.665 3.527 2.5 3.47 2.525C2.985 15.57 4.614 19 4.614 19l2.25-.183c-.627-2.432-1.257-4.981-1.075-7.482.975.475 1.687.616 1.95.66 2.645.444 5.774-.163 7.109-3.486 1.335-3.324 0-6.886-2.193-8.035m-.017 9.043c-1.897 1.502-3.923.773-5.802-.389.246-2.146.616-3.977.734-4.238.272-.596.822-3.897 3.83-3.013 3.01.883 2.597 6.564 1.238 7.64" fill="#FFF" fill-rule="evenodd"/></svg>