<svg width="315" height="164" viewBox="0 0 315 164" xmlns="http://www.w3.org/2000/svg" xmlns:xlink="http://www.w3.org/1999/xlink"><title>transitional-head</title><defs><path d="M32.035 58.809c-.001-.101-.002-.202-.005-.303-.024-.825-.024-.826-.845-.963-4.925-.824-9.073-3.042-12.419-6.699-.446-.488-.447-.487-.92.001-.585.604-1.198 1.176-1.923 1.62-1.526.935-2.913.882-4.35-.181-1.029-.76-1.81-1.743-2.54-2.77-1.944-2.74-3.28-5.772-4.409-8.904-1.78-4.938-3.24-9.971-4.6-15.034.369-.027.588.199.791.452.128.838.398 1.644.618 2.46 1.1 4.075 2.3 8.12 3.702 12.106 1.103 3.136 2.443 6.16 4.374 8.902.682.97 1.441 1.87 2.4 2.59.338.255.715.445 1.12.576.848.273 1.651.127 2.412-.28.886-.476 1.644-1.118 2.331-1.84.275-.29.264-.355-.013-.661a24.479 24.479 0 0 1-1.42-1.742c-.22-.295-.46-.378-.821-.33-.608.08-1.211.217-1.832.184-.08-.027-.158-.054-.147-.16.156-.155.37-.168.566-.213 1.313-.295 2.63-.571 3.953-.821 1.235-.233 2.337-.752 3.355-1.45 2.022-1.387 3.668-3.143 5.102-5.101.237-.324.225-.36-.139-.572-.066-.039-.138-.07-.197-.118-.332-.273-.638-.187-.982.009-1.533.873-3.16 1.518-4.914 1.797-1.521.242-3.047.351-4.594.235-1.062-.08-2.119-.17-3.17-.328-.177-.027-.358-.042-.508-.157-.03-.068.005-.118.043-.168.1-.17.004-.321-.053-.469a27.028 27.028 0 0 1-1.592-6.297 25.73 25.73 0 0 1-.147-4.94 29.33 29.33 0 0 1 .715-4.743c.055-.238.024-.401-.268-.414a.403.403 0 0 1-.216-.07c-.076-.166.07-.157.157-.195 1.039-.056 2.07.068 3.101.159a42.05 42.05 0 0 1 4.713.667c1.787.365 3.533.854 5.177 1.656 1.072.523 1.966 1.256 2.745 2.15.825.946 1.71 1.841 2.551 2.774.57.632 1.196 1.211 1.748 1.859.115.134.24.264.387.365.112.078.241.224.37.148.147-.087.081-.274.058-.42a5.822 5.822 0 0 0-.23-.918c-.727-2.172-1.885-4.104-3.36-5.862-.99-1.182-2.118-2.222-3.337-3.17-.11-.086-.229-.165-.275-.306.168-.367.358-.441.675-.238.452.29.863.635 1.265.986 2.408 2.105 4.351 4.548 5.55 7.516.318.784.634 1.576.565 2.45-.022.29.162.376.406.386.628.024 1.252.037 1.867-.148.526-.159 1.058-.29 1.624-.158.758.177 1.283.713 1.402 1.477.162 1.039-.128 1.989-.68 2.847-1.258 1.951-3.06 2.97-5.437 3.016-1.298.025-2.52-.228-3.706-.708-.248-.1-.396-.069-.543.157a20.204 20.204 0 0 1-3.256 3.861c-.477.44-.981.85-1.503 1.237a18.09 18.09 0 0 1-1.784 1.041 8.3 8.3 0 0 1-2.74.834c-.369.045-.387.082-.146.375 2.033 2.472 4.348 4.621 7.206 6.162.835.45 1.696.832 2.584 1.16 1.426.553 2.914.873 4.416 1.142.216.074.207.266.233.437.178 1.17.33 2.345.657 3.488.158.666.402 1.298.797 1.867.42.603 1.048.793 1.75.544.802-.285 1.376-.86 1.92-1.463.57-.63 1.073-1.314 1.537-2.024a38.824 38.824 0 0 0 2.105-3.495c.117-.216.192-.47.453-.581.065.019.094.067.107.129a.424.424 0 0 1-.071.287c-.297.444-.279.915-.183 1.413.128.665.255 1.33.44 1.984.161.653.399 1.274.786 1.834.421.608 1.045.803 1.749.556.803-.283 1.379-.858 1.924-1.461a16.536 16.536 0 0 0 1.539-2.025c.887-1.271 1.632-2.625 2.378-3.977.195-.352.384-.605.83-.739.768-.231 1.483-.626 2.187-1.016a21.28 21.28 0 0 0 4.912-3.735c.926-.943 1.78-1.952 2.463-3.088.071-.08.173-.147.108-.278.07-.29.26-.52.402-.771 1.124-1.973 1.897-4.075 2.423-6.271.064-.267.006-.393-.276-.454a4.873 4.873 0 0 1-1.712-.741c-.911-.613-1.304-1.487-1.356-2.542a4.762 4.762 0 0 1 .511-2.453c.069-.133.123-.28.275-.353.075-.005.111.037.129.102.013.13-.036.249-.085.365-.31.724-.284 1.482-.201 2.237.117 1.063.737 1.808 1.7 2.221 1.482.634 2.993.704 4.443-.1.852-.472 1.276-1.256 1.371-2.204a4.007 4.007 0 0 0-.227-1.79c-.367-1.01-1.09-1.66-2.144-1.943-.52-.14-1.05-.23-1.595-.211-.176.006-.36.03-.525-.072a.104.104 0 0 1-.023-.112c.197-.13.218-.309.193-.53a26.784 26.784 0 0 0-2.94-9.502 26.647 26.647 0 0 0-4.158-5.836c-2.595-2.762-5.747-4.646-9.343-5.836-2.071-.686-4.208-1.084-6.386-1.3-1.765-.175-3.532-.142-5.298-.125-.828.009-1.654.142-2.485.162-.078-.215-.043-.266.236-.343 1.622-.124 3.244-.256 4.875-.239 2.21.024 4.402.213 6.562.683.305.067.441-.012.598-.266 1.943-3.143 4.755-5.264 8.154-6.694.21-.089.258-.005.327.153.831 1.89 1.47 3.839 1.827 5.871.259 1.476.363 2.954.002 4.431-.09.369-.207.729-.383 1.066-.08.155-.088.25.067.381 2.965 2.49 5.17 5.539 6.804 9.002a.624.624 0 0 0 .442.363c.733.205 1.41.527 2.022.976 1.26.926 1.717 2.177 1.545 3.686-.136 1.19-.543 2.3-.992 3.401l-.17.423c1.12.126 2.108.488 2.79 1.408.575.775.768 1.671.778 2.605.02 1.811-.985 2.911-3.34 3.651.175.145.324.266.471.389 1.126.94 1.094 2.145-.09 3.02-.687.505-1.473.81-2.295 1.019-.267.068-.4.187-.506.435-1.945 4.605-5.017 8.256-9.446 10.75-1.07.602-2.198 1.078-3.333 1.54a.969.969 0 0 0-.532.497c-.868 1.689-1.824 3.326-3.002 4.829-.023.072-.023.155-.075.212-.802.889-1.604 1.78-2.88 2.013-.736.136-1.33-.11-1.812-.655-.51-.58-.74-1.285-.925-2.01a9.064 9.064 0 0 1-.25-1.598c-.007-.125-.007-.27-.16-.311-.166-.043-.261.075-.333.199-.307.535-.607 1.075-.95 1.59-.697 1.12-1.464 2.187-2.451 3.084-.573.52-1.2.94-1.99 1.07-.738.121-1.333-.122-1.804-.676-.695-.818-.88-1.824-1.087-2.827-.086-.416.03-.824-.036-1.232z" id="a"/><path d="M8.204 32.939l-.731-.427c-1.47-.893-2.92-1.821-4.418-2.665-.93-.525-1.645-1.252-2.42-2.095.49.172.842.4 1.184.622.293.19.464.16.695-.095a43.898 43.898 0 0 0 2.938-3.641c.072-.26.278-.437.417-.655.586-.797 1.275-1.505 1.99-2.188.091-.085.178-.173.279-.248.475-.38.943-.767 1.443-1.114.207-.145.198-.279.056-.469-.354-.475-.706-.952-1.076-1.416-.09-.127-.264-.201-.254-.39a12.863 12.863 0 0 0-3.467-3.07C3.347 14.185 1.866 13.256.235 12.6c-.274-.11-.174-.364-.226-.552-.056-.2.163-.186.28-.228 3.828-1.388 7.657-2.772 11.486-4.157.132-.048.27-.087.394-.15.663-.334 1.003-.288 1.52.253.669.7 1.07 1.563 1.47 2.422.52 1.11.947 2.258 1.345 3.414.165.482.521.229.793.266.287.04.212-.228.235-.378.411-2.66 1.108-5.224 2.562-7.541.501-.8 1.12-1.506 1.81-2.15 1.315-1.222 2.634-2.438 3.947-3.661.146-.136.233-.208.433-.04 2.425 2.042 4.858 4.076 7.298 6.1.233.194.236.277-.005.458-.396.298-.761.637-1.138.96-.082.072-.192.126-.146.276.302.984.55 1.983.8 3.034.628-.836 1.233-1.617 1.908-2.342 1.045-1.124 2.174-2.142 3.608-2.776.198-.087.406-.154.612-.221.694-.224 1.312-.206 1.995.203 2.536 1.52 5.119 2.965 7.684 4.44.11.062.218.125.423.243-.647.082-1.198.131-1.74.223-2.303.39-4.456 1.137-6.3 2.603-.079.063-.148.138-.222.207-.112.076-.22.155-.288.276.004.082-.038.147-.092.2-.878.853-1.37 1.95-1.953 2.99-.15.27-.21.596-.49.789-.264-.132-.38-.358-.416-.635.306-.64.537-1.31.843-1.95 1.038-2.17 2.802-3.56 4.986-4.502.837-.361 1.713-.602 2.662-.806-.472-.335-.934-.594-1.383-.87-1.414-.869-2.834-1.728-4.233-2.62-.364-.233-.714-.245-1.096-.156-.837.196-1.58.59-2.271 1.081-1.514 1.075-2.713 2.453-3.862 3.88-.153.19-.151.39-.104.608.212.975.357 1.962.484 2.95.026.2.12.419-.033.616-.273.028-.541.03-.764-.168-.268-.895-.425-1.816-.66-2.72-.324-1.245-.65-2.49-1.01-3.726-.114-.395-.16-.417-.573-.332-3.198.652-6.402 1.279-9.598 1.946l-.075.015c-.425.088-.43.099-.169.422.59.73 1.184 1.458 1.776 2.186.193.236.375.48.553.727.19.266.36.556.715.652.062.016.101.075.058.149-.272.145-.537.066-.801-.025-.323-.181-.504-.498-.733-.765a259.8 259.8 0 0 0-2.736-3.121c-.492-.553-.481-.612.235-.784 3.585-.863 7.175-1.703 10.761-2.563.491-.118.85-.38 1.202-.698.186-.17.053-.267-.062-.364-.631-.535-1.23-1.104-1.851-1.649a452.15 452.15 0 0 1-2.741-2.427c-.332-.296-.69-.564-.993-.892-.221-.24-.416-.11-.592.058-.433.412-.894.793-1.342 1.188-.791.698-1.607 1.37-2.377 2.09-1.099 1.03-1.904 2.264-2.547 3.614-.767 1.612-1.253 3.304-1.605 5.04-.11.546-.111.559.462.623.663.075 1.319.19 1.973.314.098.018.357-.044.258.23-.335.117-.683.03-1.023.064-.128.013-.291-.064-.368.114-.008.04-.019.079-.03.118-.051.134-.05.293-.19.384-.574.052-1.134-.143-1.707-.089-.145.006-.29-.002-.435-.002-1.604-.055-3.119.356-4.607.882-.59.208-1.169.45-1.73.73-.33.165-.34.198-.056.428.938.763 1.87 1.532 2.807 2.294a835.459 835.459 0 0 1 5.898 4.842c.244.202.478.419.75.587.124.112.186.244.143.412-.211.164-.334-.035-.46-.129-1.28-.967-2.556-1.941-3.838-2.908a234.72 234.72 0 0 1-3.216-2.463c-.194-.151-.365-.177-.594-.054-2.305 1.233-4.196 2.92-5.705 5.027-.974 1.361-1.958 2.716-3.05 3.99-.188.22-.2.307.076.463a2934.38 2934.38 0 0 0 7.036 3.971c.49.276.981.549 1.461.839.25.15.391.133.537-.147.646-1.242 1.61-2.24 2.634-3.178 1.571-1.435 3.305-2.674 5.035-3.913.161-.116.307-.28.543-.234a.533.533 0 0 1 .255.546c-.396.465-.894.822-1.359 1.212-1.411 1.185-2.856 2.335-4.133 3.663-.844.877-1.68 1.768-2.15 2.918-.132.326-.442.478-.735.636-.114.061-.225.022-.327-.037-1.236-.717-2.446-1.473-3.672-2.204-.078-.046-.145-.106-.165-.2z" id="c"/><path d="M3.864.013l.31.347c-.007.178-.168.207-.283.27A36.784 36.784 0 0 0 1.32 2.21c-.102.068-.232.108-.303.277.717.239 1.43.465 2.14.707.2.067.434.078.569.278l-.262.229c-.167.09-.325.017-.48-.034-.583-.189-1.163-.384-1.747-.57-.312-.1-.335-.076-.263.245.144.651.296 1.3.454 1.948.047.195.117.389.047.593-.124.226-.28.429-.464.61L.023 2.58c-.038-.154.061-.227.17-.302C1.382 1.468 2.587.684 3.864.013z" id="e"/><path d="M18.52 4.175c.507-.868.907-1.794 1.454-2.64.308-.477.646-.93 1.093-1.295a40.3 40.3 0 0 1 5.795-.206c4.42.164 8.651 1.07 12.551 3.206 4.325 2.368 7.364 5.92 9.592 10.198 1.54 2.956 2.466 6.097 2.84 9.397.026.237.063.468-.296.46-.12.1-.266.136-.417.157-.107.009-.208.043-.312.065a1.035 1.035 0 0 0-.378.135c-.143.058-.279.135-.433.167a.797.797 0 0 0-.5.242c-.124.11-.251.217-.376.326-.162.117-.225.332-.421.415-.702 1.12-.87 2.335-.589 3.598.188.845.768 1.434 1.522 1.857.458.258.941.462 1.466.535.282.04.34.147.277.414-.508 2.17-1.261 4.249-2.344 6.207-.19.342-.395.676-.594 1.014-.04.106-.103.202-.15.305-.763.835-1.704 1.452-2.648 2.058-1.818 1.165-3.82 1.95-5.841 2.692a42.958 42.958 0 0 1-6.461 1.84c-1.66.33-3.331.565-5.027.642-.679.031-1.357.079-2.035.06-3.545-.094-6.946-.793-10.12-2.4-2.226-1.127-4.147-2.646-5.838-4.455-.06-.065-.123-.129-.135-.223 1.251-.971 2.405-2.04 3.402-3.27.497-.61.978-1.233 1.391-1.902.15-.242.274-.278.543-.163 1.56.67 3.182.916 4.879.653 2.28-.355 4.332-2.217 4.847-4.427.122-.525.138-1.052-.044-1.566-.286-.805-1.077-1.243-2.002-1.093-.453.075-.895.217-1.346.303a4.28 4.28 0 0 1-1.68-.025c-.124-.026-.225-.048-.202-.208.15-1.08-.276-2.039-.691-2.983-1.45-3.295-3.728-5.943-6.612-8.113-.317-.24-.448-.016-.634.138-.436.442-.915.824-1.495 1.075-1.177.208-2.355.315-3.549.127-1.827-.288-3.224-1.22-4.282-2.693-.972-1.355-1.51-2.887-1.902-4.477C.37 8.502.18 6.65.088 4.78A57.303 57.303 0 0 1 .03 2.21c-.003-.587.11-.694.69-.696 1.064-.004 2.13-.038 3.192.007 2.02.084 4.046.083 6.063.23 1.788.132 3.573.299 5.345.59 1.702.278 2.797 1.219 3.353 2.804.472 1.346.563 2.73.424 4.138-.053.55-.14 1.096-.218 1.641-.03.125-.033.26-.1.365.078-.096.071-.23.102-.35.174-.968.3-1.945.29-2.923-.011-1.158-.098-2.32-.586-3.407-.061-.136-.136-.276-.066-.434z" id="g"/><path d="M22.198 3.915c.48-.334.96-.668 1.438-1.003 2.741 2.044 4.927 4.54 6.383 7.625.388.823.73 1.664.9 2.563.045.242.122.551-.085.66-.165.087-.42-.124-.58-.294-1.072-1.136-2.132-2.284-3.214-3.41-.888-.923-1.649-1.97-2.674-2.76-1.303-1.007-2.83-1.558-4.398-2.007-2.13-.61-4.311-.945-6.517-1.153-1.133-.106-2.265-.221-3.405-.222-.445-.028-.896.05-1.336-.061.36.093.746.005 1.102.132.735.055.756-.11.56.736a28.67 28.67 0 0 0-.66 4.433c-.286 4.011.384 7.868 1.847 11.607.055.139.165.301-.134.27a3.578 3.578 0 0 1-.703-.104c-.052.001-.014.067-.018.016 0-.012.012-.02.036-.01.2.071.43.033.614.165 1.69.298 3.393.462 5.11.46 2.955-.004 5.727-.682 8.264-2.199.227-.135.397-.175.62-.004.179.138.388.247.597.338.255.11.281.227.119.45-.485.665-.985 1.32-1.532 1.937-1.26 1.42-2.644 2.701-4.272 3.718-1.149.717-2.421 1.05-3.735 1.3-1.216.233-2.424.508-3.635.765-.023.04-.092.03-.099.089.083-.024.173.051.253-.018.596-.068 1.196-.114 1.788-.212.391-.064.659-.007.907.342a19.817 19.817 0 0 0 1.59 1.941c.088.095.233.175.081.342-.929 1.025-1.923 1.975-3.281 2.42-1.334.435-2.432-.097-3.408-.947-1.284-1.117-2.194-2.522-3.065-3.952-1.944-3.193-3.143-6.692-4.294-10.207-1.22-3.725-2.281-7.497-3.266-11.29-.03-.115-.125-.232-.008-.353C1.3 6.746 2.51 7.478 3.728 8.2c.144.086.289.287.46.197.254-.132.58-.254.683-.522.474-1.242 1.37-2.178 2.276-3.102C8.832 3.055 10.737 1.58 12.575.03c.274.095.336.363.46.571.731 1.223 1.616 2.296 2.908 2.99 1.058.568 2.185.81 3.391.78.98-.026 1.925-.212 2.864-.456z" id="i"/><path d="M.392.038c1.95.214 3.858.627 5.735 1.18.982.289 1.931.66 2.847 1.117 1.094.546 1.977 1.329 2.75 2.258.755.906 1.553 1.777 2.33 2.666.064.073.16.13.16.312-.638-.474-1.148-1.02-1.682-1.54-.252-.132-.393-.374-.58-.57-.076-.154-.232-.245-.318-.392-.031-.046-.053-.1-.102-.134.05.043.074.104.11.157.096.137.243.234.315.39.167.208.397.368.5.626 1.199 1.383 2.548 2.588 4.216 3.407 1.25.613 2.545.814 3.907.396.294-.09.6-.12.91-.11.757.024 1.242.485 1.286 1.23.062 1.041-.357 1.924-.99 2.711-1.01 1.256-2.341 1.953-3.963 2.137-1.887.214-3.628-.258-5.312-1.03-1.282-.589-2.464-1.338-3.58-2.19-.09-.069-.18-.135-.322-.24.028.205.153.276.242.361a14.86 14.86 0 0 0 1.917 1.573c.16.109.191.174.004.286-1.794 1.069-3.706 1.816-5.797 2.078-.038.005-.077 0-.116 0-.247.088-.384-.057-.504-.235a21.433 21.433 0 0 1-1.024-1.69C1.98 12.334.992 9.747.45 6.996.05 4.975-.01 2.938.044.891.05.677.102.466.13.254.147.114.18-.04.392.038z" id="k"/><path d="M5.018.324c.472.351.852.798 1.27 1.204 2.054 1.993 4.456 3.43 7.156 4.41 1.685.612 3.423.996 5.198 1.197 1.28.145 2.572.23 3.864.164 3.168-.16 6.27-.697 9.307-1.613a51.513 51.513 0 0 0 6.06-2.237A19.623 19.623 0 0 0 43.128.034c.031-.042.063-.043.097-.004-.25.558-.651 1.018-1.029 1.49-2.305 2.875-5.15 5.071-8.613 6.432-.444.174-.61.43-.794.762-.733 1.326-1.452 2.66-2.346 3.893a.278.278 0 0 1-.224-.01c-1.18-.584-2.366-.37-3.547-.02-.69.204-1.32.54-1.907.952-.142.099-.266.245-.471.211-.286-.878-.431-1.785-.553-2.695-.055-.418.304-.707.394-1.083.14-.443.379-.842.57-1.261.01-.033.024-.064.034-.096a.348.348 0 0 0-.031.064c-.223.403-.33.863-.651 1.211-.684 1.226-1.362 2.455-2.133 3.63-.103.158-.22.307-.331.46a.279.279 0 0 1-.224-.01c-1.18-.584-2.365-.37-3.547-.02-.703.208-1.343.55-1.938.974-.131.093-.25.224-.44.19-.334-1.034-.458-2.107-.638-3.17-.045-.265.058-.58-.212-.79-.358-.202-.772-.177-1.157-.259-1.075-.226-2.135-.49-3.163-.875a.2.2 0 0 0-.148.003C7.967 9.231 6.032 8.07 4.259 6.64 2.726 5.404 1.41 3.96.16 2.457c-.047-.056-.083-.12-.144-.21.535-.095 1.04-.157 1.532-.276 1.119-.269 2.124-.79 3.08-1.41.127-.083.259-.159.389-.237z" id="m"/><path d="M3.565.334c-.332.194-.22.556-.223.804-.02 1.419-.051 2.836.11 4.256.28 2.453.92 4.804 1.885 7.07a26.502 26.502 0 0 0 2.307 4.3c.098.146.194.263.388.249-.623.165-1.267.153-1.902.19-1.192.07-2.382.008-3.57-.107-.178-.017-.264-.08-.336-.24a25.708 25.708 0 0 1-2-6.993C-.216 6.676.072 3.533.712.401c.06-.3.165-.42.5-.374.783.11 1.577.143 2.353.307z" id="o"/><path d="M.011 6.368C1.154 4.477 2.64 2.948 4.431 1.7A19.182 19.182 0 0 1 7.324.064c.21-.097.296-.084.385.143.911 2.3 1.632 4.644 1.734 7.132.04.988-.065 1.963-.441 2.895-.085.21-.143.315-.393.129C6.106 8.497 3.308 7.23.274 6.456.2 6.437.13 6.408.011 6.368z" id="q"/><path d="M.724.962C.864.88.952.723 1.126.69c.132-.177.353-.201.533-.294l.37-.148c.122-.053.26-.05.377-.111.117.007.223-.036.33-.072.152.008.298-.06.451-.033.59-.022 1.178-.034 1.759.09 1.757.375 2.742 1.506 2.849 3.275.119 1.955-1.1 3.343-3.092 3.514-.984.084-1.94-.018-2.85-.432C.698 5.952.106 5.059.02 3.816c-.055-.795.04-1.558.395-2.28.044-.222.224-.373.309-.574z" id="s"/><path d="M.011 1.644C1.094.799 2.313.249 3.684.078 4.544-.03 5.397.025 6.161.51c-.732 1.148-1.541 2.23-2.64 3.074-.08.062-.163.121-.25.176-1.163.73-2.045.514-2.71-.673a5.201 5.201 0 0 1-.55-1.443z" id="u"/><path d="M.012 1.626C1.095.781 2.314.232 3.685.061c.86-.108 1.713-.053 2.477.432-.732 1.148-1.541 2.23-2.64 3.073-.08.063-.163.123-.25.177-1.164.73-2.047.515-2.71-.673a5.22 5.22 0 0 1-.55-1.444z" id="w"/><path d="M.028.022c1.59.606 2.946 1.31 3.433 2.983.207.712.12 1.426-.025 2.13-.218 1.054-.637 2.04-1.127 3.022C1.94 5.377 1.223 2.694.028.022z" id="y"/><path d="M1.228.026c.452.367.867.68 1.254 1.026.536.479.551 1.13.075 1.675-.542.619-1.264.97-1.996 1.306-.159.073-.325.13-.547.218A26.33 26.33 0 0 0 1.228.026z" id="A"/><path d="M1.857 2.071c-.603-.143-1.23.008-1.833-.145C.346 1.37.677.82.984.257c.114-.208.29-.25.48-.226.219.027.146.237.154.364.034.566.16 1.117.24 1.676z" id="C"/><path d="M.006.086C.162-.045.3.09.43.133c1.364.465 2.768.764 4.214.978l-.17.107C2.934 1.036 1.45.636.006.086z" id="E"/><path d="M.008 1.301L.636.024C.697.011.74.014.698.094.515.532.34.975.086 1.382L.008 1.3z" id="G"/><path d="M1.195.181C.799.24.418.111.03.07c.467-.007.935-.1 1.398.037-.08.017-.174-.01-.233.075z" id="I"/><path d="M.563.72C.35.546.194.323.03.107-.002.029.035.018.1.034l.536.609L.563.72z" id="K"/><path d="M.661.193C.443.148.211.155.017.016c.245 0 .488.002.715.11L.661.192z" id="M"/><path d="M.387.01C.378.25.197.4.081.583L.014.513C.102.318.216.143.387.009z" id="O"/><path d="M.512.112C.367.212.207.185.05.186.034.169.029.154.035.138.04.124.047.116.053.116L.51.024l.002.088z" id="Q"/><path d="M.416.104C.298.218.16.182.015.176.05.01.163.029.263.02l.153.083z" id="S"/><path d="M.104.228L.008.232C.024.135.055.048.151.002.294.11.172.162.104.227z" id="U"/><path d="M17.695 6.986c-.665.33-1.219.818-1.814 1.245-1.548 1.113-3.065 2.27-4.4 3.63-.772.787-1.522 1.601-1.982 2.62-.098.216-.185.23-.4.108-3-1.705-6.008-3.398-9.013-5.095-.02-.01-.03-.036-.055-.066 1.48-1.665 2.685-3.54 4.07-5.276C5.369 2.564 6.932 1.298 8.699.256c.596-.35.96-.287 1.482.123 2.256 1.769 4.552 3.488 6.834 5.224.059.045.133.07.2.105.328.364.477.795.481 1.278z" id="W"/><path d="M2.88 13.41c-.667-.213-1.363-.298-2.054-.366-.907-.09-.9-.055-.732-.933.342-1.801.882-3.542 1.704-5.186.716-1.434 1.638-2.717 2.896-3.762 1.103-.917 2.153-1.895 3.223-2.85.44-.392.428-.384.861.004 1.21 1.083 2.434 2.15 3.649 3.228.655.582 1.297 1.176 1.954 1.756.19.167.122.228-.03.397-.781.867-1.906.856-2.908 1.106-3.19.798-6.395 1.533-9.594 2.294-.023.005-.042.022-.09.048l3.735 4.34c-.073.084-.175.1-.278.102-.713.016-1.426.02-2.135-.078a.31.31 0 0 1-.2-.1z" id="Y"/><path d="M.619 9.222c-.075-.443-.182-.884-.218-1.33C.346 7.212.203 6.548.06 5.888c-.09-.422-.026-.71.26-1.05.741-.884 1.476-1.772 2.328-2.555C3.645 1.37 4.703.541 6.033.13c.565-.176 1.063-.196 1.618.162 1.816 1.175 3.675 2.284 5.518 3.42.032.019.059.046.123.098-.632.171-1.243.312-1.837.503-1.85.59-3.467 1.551-4.758 3-.79.884-1.263 1.944-1.7 3.024-.1.25-.123.548-.378.723-.157.016-.219-.114-.301-.202-.668-.713-1.5-1.113-2.457-1.306-.419-.084-.87-.069-1.242-.33z" id="aa"/><path d="M.013 3.875C3.321 2.784 6.618 1.697 9.914.608c.521-.173 1.045-.34 1.555-.54.243-.095.387-.027.523.153.283.374.54.763.764 1.175.688 1.268 1.253 2.59 1.834 3.907.122.276.028.336-.245.384-2.358.406-4.535 1.275-6.553 2.54-.03.018-.056.046-.117.097l3.22 2.46c-.592.296-1.146.57-1.669.898-.193.122-.236-.07-.308-.175A36.097 36.097 0 0 0 7.23 9.22a14.44 14.44 0 0 0-3.708-3.233C2.469 5.34 1.433 4.667.326 4.113a.773.773 0 0 1-.313-.238z" id="ac"/><path d="M3.502 6.248c-.33-.033-.53-.228-.715-.488-.81-1.13-1.721-2.183-2.602-3.258-.253-.31-.241-.322.183-.408C3.025 1.557 5.682 1.015 8.34.475c.686-.14 1.376-.263 2.056-.427.296-.071.406.01.48.285.482 1.796.997 3.584 1.397 5.401.089.403.235.797.238 1.217-.102.1-.23.104-.358.087a78.254 78.254 0 0 0-6.098-.537 32.096 32.096 0 0 0-2.23-.131c-.12-.009-.245-.006-.323-.122z" id="ae"/><path d="M7.199.04C7.797.002 8.383.096 8.97.19c.167.167.126.376.11.572-.099 1.27-.073 2.537-.004 3.808.065 1.173.213 2.33.427 3.483.09.483.225.957.34 1.435.037.155.106.316-.004.472-.47-.215-.81-.6-1.2-.915-1.53-1.235-3.044-2.49-4.563-3.739C2.772 4.235 1.474 3.156.163 2.093c-.218-.176-.146-.226.047-.319C1.918.95 3.682.31 5.59.1A8.413 8.413 0 0 1 6.775.048c-.091.377-.353.665-.542.99-.075.13-.231.144-.376.151-.204.01-.41-.012-.614.018-.62.09-.86.582-.548 1.111.071.12.166.224.25.336.174.233.067.441-.093.613-.164.176-.328.038-.478-.057a.915.915 0 0 1-.315-.375c-.04-.079-.079-.158-.124-.234-.126-.212-.311-.41-.552-.258-.269.168-.052.388.073.544.222.277.48.527.785.719.235.147.293.328.163.576a2.56 2.56 0 0 0-.208.57c-.03.116-.03.234.103.29.144.062.246-.01.32-.13.093-.151.158-.316.224-.48.122-.3.331-.435.666-.353.149.037.3.075.455.072.235-.004.426-.101.53-.315.096-.201-.01-.365-.137-.516-.057-.068-.123-.129-.186-.192-.37-.374-.371-.385-.075-.828.327-.486.336-.489.882-.254.047.02-.014 0 .035.015.194.06.44.174.557-.037.121-.218-.114-.355-.281-.467-.456-.305-.5-.414-.113-.758.322-.285.123-.505.023-.76z" id="ag"/><path d="M.954 10.29C.651 9.105.377 7.918.232 6.703a30.775 30.775 0 0 1-.16-5.619C.085.897.083.708.087.52l.08-.382c.14-.12.31-.104.475-.105C2.471.019 4.3.025 6.128.074 6.662.09 7.2.058 7.733.131c1.586.022 3.16.196 4.736.352.572.057 1.141.126 1.712.19l.767.134c.474.091.95.18 1.423.275 1.052.212 1.915.727 2.577 1.562l.374.578c1.024 2.23.857 4.526.383 6.837-.029.024-.057.021-.083-.004.076-.702.18-1.4.214-2.106.061-1.257-.033-2.495-.443-3.696-.597-1.75-1.885-2.591-3.707-2.837A76.292 76.292 0 0 0 8.567.81a153.92 153.92 0 0 0-7.19-.13c-.239.002-.416.003-.42.325-.045 3.343.16 6.656 1.213 9.866.462 1.405 1.124 2.706 2.174 3.787 1.368 1.409 3.086 1.91 5.015 1.877.69-.012 1.363-.17 2.051-.195-.443.274-.954.33-1.45.42-1.996.359-3.87.105-5.55-1.094-1.083-.775-1.826-1.823-2.461-2.958-.049-.088-.108-.17-.162-.254a.986.986 0 0 0-.225-.505l-.481-1.278a.762.762 0 0 0-.127-.382z" id="ai"/><path d="M4.092.007c.42.303.43.446.065.772-.075.067-.126.158-.192.235-.143.166-.13.281.101.34.195.05.343.171.458.326.092.123.176.26.081.417-.087.144-.235.128-.377.119a.963.963 0 0 1-.566-.212c-.21-.178-.334-.113-.442.097-.005.011-.014.02-.022.03-.388.549-.388.549.09 1.038.196.201.347.421.196.708-.158.297-.428.373-.749.327C2 4.097 2 4.098 1.681 4.787c-.047.102-.111.2-.182.287-.12.148-.266.109-.416.043-.15-.065-.164-.176-.126-.31.007-.025.013-.05.021-.073.11-.305.36-.645.293-.904-.063-.237-.489-.36-.712-.59-.168-.173-.345-.338-.46-.554-.073-.139-.133-.285-.004-.42.118-.121.268-.122.428-.086.223.05.35.193.428.393.078.202.157.412.362.517.113.058.223.301.37.101.11-.15.303-.347.047-.555-.058-.047-.1-.115-.144-.177-.2-.275-.359-.562-.184-.908.18-.359.508-.53.884-.482.573.073.912-.14 1.096-.66a.952.952 0 0 1 .286-.394l.424-.008z" id="ak"/><path d="M2.99 3.143L.01 2.166C1.132 1.347 2.288.693 3.44.03c.462.49.828 1.053 1.225 1.593.078.106.1.191-.028.285-.552.408-1.099.822-1.647 1.234z" id="am"/><path d="M.706 3.023L.029.213C-.03-.042.116.014.262.062L2.695.84a29.78 29.78 0 0 0-1.99 2.182z" id="ao"/><path d="M5.038.167l.305.03c-.011.145-.127.098-.204.098C3.475.297 1.81.3.145.296.103.296.072.276.037.261 0 .066.103.028.275.03c.434.007.869.001 1.303 0 .87.058 1.74.1 2.613.077.28.053.56.093.847.06z" id="aq"/><path d="M.037.108c1.634 0 3.269.001 4.903-.003.135 0 .283.056.403-.073.754 0 1.507.048 2.256.156L.033.197l.004-.09z" id="as"/><path d="M5.795.816c.4.062.722-.187 1.077-.289C8.236.137 9.628-.04 11.036.06c2.903.208 5.433 1.254 7.387 3.44 1.079 1.208 1.74 2.62 1.935 4.233.095.776.126 1.545-.075 2.309-.256.896-.8 1.633-1.414 2.306-1.986 2.17-4.49 3.334-7.431 3.637-2.176.225-4.251-.12-6.206-1.06-2.443-1.174-4.18-2.99-4.913-5.614-.271-.968-.452-1.968-.133-2.976.258-.87.765-1.608 1.32-2.311.839-1.062 1.89-1.887 3.078-2.546.335-.343.784-.482 1.211-.661z" id="au"/><path d="M.587.023a7.805 7.805 0 0 0 .526 3.839c.52 1.272 1.322 2.341 2.376 3.241C4.948 8.348 6.642 9.09 8.52 9.446c1.379.261 2.766.265 4.15.027 1.83-.314 3.507-.99 4.99-2.1 1.272-.953 2.288-2.115 2.95-3.56.015-.032.05-.055.074-.083-.154 1.257-.678 2.373-1.418 3.385-1.786 2.438-4.248 3.806-7.235 4.266-3.163.488-6.085-.112-8.661-2.042C1.514 7.949.36 6.112.078 3.827-.082 2.54.008 1.237.587.023z" id="aw"/><path d="M11.33 2.905c-.16 2.005-.911 3.783-2.149 5.367a10.217 10.217 0 0 1-2.399 2.216c-.3.2-.585.243-.931.169-1.53-.327-2.644-1.223-3.5-2.466C1.231 6.564.682 4.723.317 2.817A23.17 23.17 0 0 1 .011.496C-.009.259.053.177.313.154 1.948.011 3.584-.06 5.223.09c1.675.152 3.32.437 4.864 1.137.012.076-.038.107-.099.13-.187.04-.352-.043-.521-.096C8.14.852 6.784.647 5.396.547 3.916.44 2.458.565.994.704c-.206.02-.338.062-.3.317.313 2.189.843 4.31 2.034 6.218.573.918 1.318 1.67 2.321 2.144.116.055.234.102.353.15.473.188.876.155 1.316-.172C8.99 7.666 10.4 5.44 11.044 2.725c.04-.17.005-.396.26-.452.106.207.05.42.027.632z" id="ay"/><path d="M.037 2.66c.107-.74.29-1.46.71-2.096.417-.632.938-.716 1.565-.274.296.208.551.484.718.78-.3.108-.599.217-.899.321-.142.05-.168.12-.082.248C3.83 4.282 5.85 6.64 9.199 7.403c.474.108.953.181 1.44.206.118.005.26-.047.366.102-.839.197-1.669.113-2.482-.015C5.12 7.162 2.755 5.31 1.433 2.18c-.127-.304-.22-.353-.488-.138a7.58 7.58 0 0 0-.899.874c-.06-.083-.052-.168-.01-.254z" id="aA"/><path d="M3.83.034c.813.001 1.26.23 1.433.712.149.413.038.691-.362.906-.509.274-1.088.233-1.632.35-.743.16-1.514.198-2.213.548-.345.173-.736.025-.933-.293-.19-.308-.082-.717.273-1C1.192.624 2.134.32 3.115.114c.248-.052.498-.118.714-.08z" id="aC"/><path d="M.015 1.357A1.655 1.655 0 0 1 .327.328c.32-.43.793-.427 1.117 0 .42.554.414 1.673-.012 2.212-.321.407-.774.406-1.096 0-.208-.265-.319-.647-.32-1.183z" id="aE"/><path d="M1.72 2.065c-.343.328-.822.415-1.21.66C-.008 2.14-.128 1.232.226.546.37.267.566.02.915.023c.347.004.536.252.677.535.243.486.23.993.128 1.507z" id="aG"/><path d="M.019.899C.029.424.505.01 1.03.019c.475.01.92.465.912.935-.008.494-.466.899-.996.882-.558-.017-.94-.403-.928-.937z" id="aI"/><path d="M.002.098L.1.01c.337.097.632.276.923.461.008.074-.04.096-.1.106C.6.445.216.428.001.098z" id="aK"/><path d="M.007.077c.075.197.274.32.323.53.142.194.015.419.076.622C.59.469.539.27.087.01l-.08.066z" id="aM"/><path d="M.553.001C.408.156.201.2.023.297.12.054.333.02.554 0z" id="aO"/><path d="M.092.03l.097.004-.097.424C-.013.262.016.145.092.03z" id="aQ"/><path d="M.408.076C.294.176.161.18.026.172.126.032.28.065.408.01c.025.015.033.03.025.044C.425.07.417.076.408.076z" id="aS"/><path d="M.01.161v-.07L.316.005a.488.488 0 0 1-.002.071C.229.188.119.171.01.161z" id="aU"/><path d="M.173.03L.19.287C.173.326.128.4.065.329-.016.235.033.12.173.03z" id="aW"/><path d="M.4.397L.33.469.02.093C-.015.013.025.005.09.02L.4.397z" id="aY"/><path d="M.389.315L.32.388.02.025c.202.017.283.155.37.29z" id="ba"/><path d="M.072.258L.005.188C.033.124.067-.008.113.02c.115.07.032.165-.04.238z" id="bc"/><path d="M6.337 2.61c-.036.246-.059.55-.13.843-.053.211.023.294.203.368.4.165.798.335 1.189.52.238.113.326.308.228.567-.095.253-.22.39-.54.292-.392-.119-.801-.196-1.16-.386-.27-.143-.354-.05-.48.174a4.505 4.505 0 0 1-1.306 1.47c-.238.17-.501.354-.796.102-.214-.182-.2-.618.006-.912.122-.174.303-.266.494-.346.26-.109.5-.239.675-.477.378-.514.377-.525-.218-.784-.137-.06-.228-.051-.337.05a5.288 5.288 0 0 1-.534.433c-.83.58-1.743.21-1.939-.78a4.628 4.628 0 0 1-.067-1.056c.007-.19-.057-.298-.232-.38-.347-.162-.68-.35-1.024-.52-.278-.135-.379-.357-.365-.648C.017.858.119.637.384.487c.28-.158.49-.08.662.15.076.101.143.202.25.278.527.373.53.377.77-.187.119-.28.315-.49.579-.635.348-.19.656-.021.66.37.006.39-.119.75-.359 1.058-.177.227-.144.355.114.486.283.145.55.322.814.5.157.105.266.1.389-.05.152-.186.325-.356.49-.533.336-.36.68-.477 1.016-.346.385.15.587.495.568 1.031z" id="be"/><path d="M1.235 2.638c.147-.408-.147-.519-.506-.592a3.07 3.07 0 0 1-.512-.152c-.18-.071-.231-.207-.181-.4.052-.197.18-.218.346-.195.025.004.052.001.077.006.31.058.674.24.916.139.221-.092.301-.495.46-.752.133-.215.295-.414.502-.566.125-.092.265-.176.421-.068.14.096.178.245.16.401a.589.589 0 0 1-.333.478c-.207.108-.398.24-.482.465-.04.108-.222.25-.036.336.157.073.359.245.545.001.091-.12.204-.227.32-.325.461-.39 1.052-.263 1.288.29.092.217.153.46.164.695.011.252.136.349.352.414.207.062.412.136.61.225.33.147.397.574.14.817-.163.154-.33.182-.504.022-.056-.05-.104-.113-.165-.155-.338-.23-.422-.203-.55.173-.011.036-.016.076-.036.107-.134.214-.265.492-.57.404-.319-.091-.18-.394-.185-.62 0-.024.01-.05.012-.074.019-.183.274-.384.141-.503-.209-.186-.512-.27-.778-.393-.106-.05-.165.027-.219.1-.097.133-.19.268-.29.4-.161.212-.356.379-.648.297-.309-.087-.447-.317-.459-.625-.004-.1 0-.202 0-.35z" id="bg"/><path d="M4.17 1.185c.225.217.44.416.49.724.021.134.01.258-.102.343-.114.086-.247.062-.364 0a1.2 1.2 0 0 1-.511-.498c-.087-.162-.188-.188-.331-.075-.01.008-.022.014-.032.02-.653.375-.656.376-.397 1.065.097.255.12.499-.105.694-.229.2-.491.182-.753.058-.057-.027-.11-.063-.164-.097-.564-.357-.564-.357-1.053.12-.356.349-.523.38-.73.151-.098-.107-.14-.206-.02-.321.008-.01.014-.02.023-.03.238-.26.647-.51.665-.783.018-.28-.34-.588-.46-.922a4.114 4.114 0 0 1-.148-.507C.138.947.142.765.345.674.538.587.691.693.828.812c.145.127.18.298.168.482-.014.217-.014.44.136.612.08.091.069.363.287.234.16-.095.39-.18.28-.49-.14-.391-.254-.824.15-1.15.398-.323.832-.198 1.225.007.318.166.56.148.805-.108.113-.117.261-.2.394-.3.18-.135.359-.104.536.001.18.106.276.257.257.47-.02.233-.197.253-.378.297-.187.046-.338.171-.517.318z" id="bi"/><path d="M3.01 2.53c0 .199.009.313-.002.425-.039.44-.435.648-.837.449-.203-.102-.343-.275-.45-.456-.184-.313-.4-.325-.691-.158a2.837 2.837 0 0 1-.56.242c-.198.061-.327-.018-.417-.22-.093-.21.035-.276.167-.35.285-.164.699-.256.828-.497.117-.218-.09-.594-.127-.904A3.131 3.131 0 0 1 .924.42C.94.242.991.05 1.21.023c.242-.03.374.143.455.335.071.17.033.345-.034.516-.074.19-.132.387-.042.587.05.109-.02.34.202.282.172-.045.436-.051.413-.351-.007-.1.007-.202.015-.302.06-.762.678-1.061 1.336-.65.033.021.073.037.094.066.397.535.875.47 1.395.2.253-.131.468-.047.639.17.125.157.122.328.055.5-.07.179-.23.168-.389.162-.1-.004-.203.008-.303.023-.262.037-.386.111-.206.404.189.305.12.736-.072.832-.21.105-.47-.112-.649-.512-.063-.14-.01-.414-.198-.404-.3.015-.614.1-.88.235-.156.08-.016.329-.03.414z" id="bk"/><path d="M4.113 1.184c.223.217.44.415.49.723.022.133.01.258-.1.343-.114.088-.247.064-.364.002a1.2 1.2 0 0 1-.513-.496c-.085-.16-.185-.194-.33-.078a.173.173 0 0 1-.032.02c-.656.375-.658.376-.398 1.063.096.255.12.5-.104.696-.242.21-.513.178-.787.044-.236-.114-.42-.414-.683-.358-.248.053-.415.318-.61.5-.11.103-.236.208-.402.192-.252-.026-.364-.321-.192-.522.22-.258.607-.483.644-.758.034-.249-.324-.537-.43-.85-.066-.19-.134-.38-.18-.575C.079.95.083.767.285.675.478.585.632.69.77.81c.146.127.18.298.17.482-.014.217-.014.44.134.612.08.092.07.363.286.237.16-.093.392-.179.282-.488C1.501 1.26 1.387.828 1.79.5c.398-.324.833-.2 1.226.005.317.165.559.151.805-.105.112-.117.261-.2.393-.3.179-.135.358-.106.536-.001.179.105.276.256.259.47-.02.232-.195.254-.376.297-.188.046-.339.172-.52.318z" id="bm"/><path d="M.474.016C.41.141.368.247.301.335.257.395.262.58.113.463.026.395-.031.283.057.164c.09-.122.21-.172.417-.148z" id="bo"/><path d="M.172.005c.105.053.193.098.18.202C.336.31.271.402.158.406.099.408-.016.379.012.283c.03-.1.106-.187.16-.278z" id="bq"/><path d="M2.042 6.947C.623 6.95-.144 6.067.061 4.665.385 2.448 3.105.065 5.35.03 6.868.007 7.668.946 7.39 2.426c-.417 2.242-3.105 4.513-5.349 4.52z" id="bs"/><path d="M2.036.004c1.738.254 3.398 1.177 4.353 3.067.609 1.205-.05 2.15-1.416 2.148a3.25 3.25 0 0 1-.76-.08C2.58 4.739 1.266 3.886.377 2.456c-.237-.381-.39-.802-.356-1.254C.08.434.7.002 2.036.004z" id="bu"/><path d="M10.395 1.36c.172.138.461.208.325.53-.293 1.364-.744 2.668-1.472 3.873A11.144 11.144 0 0 1 5.946 9.25a.77.77 0 0 1-.681.115c-1.339-.348-2.295-1.187-3.04-2.29C1.216 5.58.685 3.902.32 2.165.208 1.621.136 1.071.036.526c-.037-.2 0-.286.235-.313 2.121-.237 4.24-.305 6.36.007.964.141 1.9.393 2.823.698l.94.44z" id="bw"/><path d="M.009.023c.3.126.554.243.795.42C.647.585.51.73.3.643.054.54.024.314.009.022z" id="by"/><path d="M.589.291C.53.385.549.569.398.521.248.476.02.455.004.25-.006.138.124.012.261.026A.37.37 0 0 1 .59.291z" id="bA"/><path d="M.017.208c.323-.29.415-.26.554.165C.369.383.216.276.017.208z" id="bC"/><path d="M.233.357C.137.312.02.294.028.161.033.09.038-.015.15.026c.096.034.256.01.257.166 0 .09-.083.148-.173.165z" id="bE"/><path d="M.53.129C.449.197.378.27.294.322.216.369.158.502.043.42.006.395.003.305.006.246.012.128.103.078.203.046.321.009.421.054.531.129z" id="bG"/><path d="M.394.162C.373.306.284.364.164.367.085.369.001.314.012.239.033.105.156.038.275.015c.096-.018.068.109.119.147z" id="bI"/><path d="M.617.2C.483.254.404.298.32.315.229.334.134.452.048.345.016.306.035.195.07.14.135.033.247 0 .368.054.434.084.495.128.617.2z" id="bK"/><path d="M.419.145C.429.272.34.322.239.35.113.385.033.304.026.198.015.038.18.067.273.027.38-.018.395.072.419.145z" id="bM"/><path d="M.57.073C.462.163.402.233.327.27.238.316.182.478.048.38.014.357.008.264.017.207.04.056.161.006.293.002.365 0 .438.037.57.072z" id="bO"/><path d="M.196.37C.1.357.004.326.025.221.048.105.163.048.267.016c.103-.03.112.082.122.14C.415.301.302.337.196.37z" id="bQ"/></defs><g fill="none" fill-rule="evenodd"><path d="M7.692 0h299.616c2.675 0 3.645.278 4.623.801a5.452 5.452 0 0 1 2.268 2.268c.523.978.801 1.948.801 4.623V163H0V7.692c0-2.675.278-3.645.801-4.623A5.452 5.452 0 0 1 3.07.801C4.047.278 5.017 0 7.692 0z" fill="#FFF"/><g opacity=".1"><path d="M27.897 159.068H21.28m3.308-3.309v6.618" stroke="#C2C8CD" stroke-linecap="round" stroke-width="2.08"/><path d="M39.676 82.823l1.412 1.16c.263.215.66.541.94 1.243.042.104.065.187.077.249-.156-.11-.454-.353-.984-.9-1.155-1.228-2.994-2.77-5.51-1.854l-.151.058c-.12.048-.234.1-.346.156-1.512.756-2.405 2.268-2.424 4.04l-2.05.82 1.587 3.988 1.803-.722c.464.678 1.019 1.252 1.582 1.626l.98.652 3.23-2.922-1.603-1.158a3.399 3.399 0 0 1-1.108-1.42c-.088-.22-.147-.568-.024-.62.056-.016.32.005 1.013.745 1.301 1.42 3.107 2.95 5.482 2.085l.133-.05c1.617-.645 2.617-2.175 2.664-3.997l2-.799-1.588-3.988-1.77.709a6.456 6.456 0 0 0-1.141-1.225l-1.032-.85-3.172 2.974z" fill="#FFF"/><path d="M36.683 94.421l-1.08-.719-.44-.291a6.529 6.529 0 0 1-1.406-1.306l-.43.172-1.559.624-.642-1.612-.945-2.376-.642-1.612 1.56-.625.78-.312c.195-1.842 1.22-3.392 2.853-4.208a5.715 5.715 0 0 1 .583-.25c1.532-.557 2.855-.33 3.91.158l.595-.56 1.924-1.805 1.056-.99 1.137.94.463.382a7.3 7.3 0 0 1 .876.856l.415-.166 1.559-.625.641 1.613.945 2.375.643 1.614-1.56.623-.738.295c-.232 1.911-1.382 3.485-3.146 4.19l-.156.06a4.62 4.62 0 0 1-3.267.003l-1.02.92-1.962 1.776-.947.856zm-.183-2.164l1.963-1.775-.72-.52a4.28 4.28 0 0 1-1.412-1.81c-.267-.672-.237-1.46.425-1.735l.048-.019c.364-.132.855-.14 1.897.973 1.2 1.311 2.685 2.554 4.584 1.863.037-.013.073-.027.11-.042 1.477-.589 2.288-2.068 2.122-3.78l1.76-.704-.945-2.374-1.632.652a5.635 5.635 0 0 0-1.34-1.617l-.463-.382-1.924 1.805.633.52c.293.24.838.686 1.202 1.602.406 1.02-.096 1.351-.333 1.444a.72.72 0 0 1-.04.015c-.335.123-.682.068-1.906-1.195-1.084-1.154-2.59-2.38-4.62-1.64a4.007 4.007 0 0 0-.41.175c-1.388.694-2.122 2.166-1.938 3.847l-1.82.729.944 2.375 1.675-.67c.453.828 1.071 1.553 1.7 1.97l.44.293z" fill="#7ED321"/><path d="M61.8 134.646l-3.533-.41c-.658-.077-1.65-.194-3.01.364-.203.082-.35.162-.454.228.365.072 1.108.16 2.59.162 3.282-.044 7.925.447 10.045 5.208l.123.29c.094.232.176.462.25.694.985 3.138.076 6.433-2.378 8.855l1.624 3.979-7.73 3.17-1.427-3.5c-1.577.267-3.13.266-4.414-.017l-2.237-.49-.278-8.471 3.789.676c1.111.2 2.447.06 3.485-.367.428-.176.995-.563.9-.805-.052-.1-.438-.44-2.41-.412-3.749.1-8.331-.361-10.332-4.854l-.11-.256c-1.282-3.134-.493-6.602 1.994-9.132l-1.585-3.879 7.731-3.17 1.398 3.436c1.088-.16 2.163-.18 3.259-.057l2.586.294.124 8.464z" fill="#FFF"/><path d="M49.61 154.514l2.466.54 1.003.221c1.136.248 2.407.315 3.728.205l.342.834 1.234 3.025 3.124-1.28 4.603-1.888 3.126-1.281-1.234-3.03-.619-1.515c2.317-2.761 3.099-6.292 2.034-9.681a11.122 11.122 0 0 0-.438-1.153c-1.29-2.9-3.398-4.443-5.505-5.26l-.022-1.59-.075-5.134-.041-2.818-2.853-.322-1.162-.13a14.11 14.11 0 0 0-2.38-.07l-.33-.805-1.233-3.027-3.125 1.282-4.603 1.888-3.128 1.282 1.237 3.028.584 1.43c-2.36 2.909-3.01 6.647-1.612 10.069.04.1.084.2.128.299 1.036 2.326 2.662 3.733 4.412 4.579l.088 2.671.169 5.148.081 2.483zm3.277-2.669l-.17-5.147 1.702.305a8.33 8.33 0 0 0 4.443-.472c1.302-.535 2.364-1.641 1.854-2.94-.014-.032-.025-.062-.039-.092-.307-.69-.96-1.387-3.927-1.341-3.458.092-7.205-.306-8.805-3.9l-.09-.21c-1.171-2.863-.197-5.999 2.423-8.08l-1.393-3.416 4.601-1.887 1.294 3.167a10.967 10.967 0 0 1 4.076-.31l1.16.13.075 5.135-1.585-.184c-.732-.085-2.094-.245-3.868.484-1.976.81-1.762 1.96-1.571 2.417.01.027.021.053.032.077.283.635.828 1.047 4.252 1.052 3.08-.042 6.832.412 8.542 4.252a7.006 7.006 0 0 1 .31.812c.903 2.88-.165 5.896-2.768 7.914l1.442 3.532-4.603 1.888-1.327-3.25c-1.771.486-3.622.6-5.056.285l-1.004-.22z" fill="#7ED321"/><path d="M254.68 132.28l-1.854-1.481c-.345-.276-.866-.693-1.833-.859a1.93 1.93 0 0 0-.337-.03c.181.169.57.481 1.409 1.007 1.872 1.135 4.326 3.055 3.842 6.498l-.032.208a6.327 6.327 0 0 1-.104.482c-.553 2.124-2.232 3.666-4.477 4.17l-.488 2.825-5.496-.94.43-2.484c-.986-.407-1.865-.957-2.492-1.571l-1.093-1.068 2.84-4.892 1.904 1.723a4.414 4.414 0 0 0 2.102 1.024c.305.052.762.033.794-.137.006-.075-.092-.404-1.219-1.086-2.156-1.269-4.586-3.15-4.13-6.4l.029-.183c.382-2.228 2.056-3.911 4.357-4.463l.475-2.756 5.496.94-.424 2.439a8.384 8.384 0 0 1 1.864 1.12l1.36 1.08-2.923 4.834z" fill="#FFF"/><path d="M240.756 139.213l1.205 1.178.489.48a8.477 8.477 0 0 0 2.037 1.433l-.101.593-.371 2.148 2.22.38 3.273.56 2.222.38.373-2.15.185-1.076c2.288-.744 3.979-2.466 4.574-4.76a7.421 7.421 0 0 0 .16-.807c.295-2.098-.351-3.716-1.255-4.924l.55-.907 1.773-2.932.973-1.609-1.5-1.19-.612-.486a9.39 9.39 0 0 0-1.323-.88l.099-.573.373-2.149-2.222-.38-3.273-.559-2.223-.38-.37 2.15-.176 1.017c-2.365.81-4.054 2.697-4.473 5.127a6.969 6.969 0 0 0-.033.215c-.237 1.683.186 3.054.878 4.151l-.895 1.543-1.725 2.973-.832 1.434zm2.798-.352l1.725-2.973.855.775a5.558 5.558 0 0 0 2.68 1.304c.927.158 1.92-.093 2.09-1.008l.01-.066c.07-.499-.052-1.124-1.748-2.148-1.989-1.17-3.97-2.72-3.604-5.32l.024-.15c.35-2.035 2.01-3.465 4.228-3.716l.42-2.426 3.27.559-.387 2.25a7.32 7.32 0 0 1 2.416 1.265l.61.485-1.773 2.932-.832-.665c-.384-.307-1.098-.879-2.36-1.093-1.404-.24-1.69.486-1.744.812a.934.934 0 0 0-.008.055c-.065.459.098.885 2.033 2.099 1.758 1.065 3.721 2.648 3.331 5.426-.008.058-.016.116-.027.175a5.204 5.204 0 0 1-.085.394c-.507 1.95-2.178 3.278-4.364 3.5l-.433 2.509-3.273-.56.399-2.308c-1.175-.351-2.262-.942-2.962-1.627l-.49-.48z" fill="#7ED321"/><path d="M111.678 47.16h-5.672m2.836-2.837v5.673" stroke="#75848F" stroke-linecap="round" stroke-width="2.08"/><path d="M72.882 77.39h-5.673m2.837-2.837v5.673" stroke="#F8E71C" stroke-linecap="round" stroke-width="2.08"/></g><g transform="translate(126.848 60.176)"><mask id="b" fill="#fff"><use xlink:href="#a"/></mask><path fill="#8F4A50" mask="url(#b)" d="M-.142 63.739h69.17V-.147H-.142z"/></g><g transform="translate(119.4 53.24)"><mask id="d" fill="#fff"><use xlink:href="#c"/></mask><path fill="#5F9D45" mask="url(#d)" d="M-.167 35.575H49.49V-.165H-.167z"/></g><g transform="translate(123.842 71.384)"><mask id="f" fill="#fff"><use xlink:href="#e"/></mask><path fill="#8F4A51" mask="url(#f)" d="M-.152 6.658h4.494v-6.81H-.152z"/></g><g transform="translate(139.106 66.783)"><mask id="h" fill="#fff"><use xlink:href="#g"/></mask><path fill="#F4A3C5" mask="url(#h)" d="M-.136 46.193h52.163V-.157H-.136z"/></g><g transform="translate(127.516 80.16)"><mask id="j" fill="#fff"><use xlink:href="#i"/></mask><path fill="#ED3438" mask="url(#j)" d="M-.136 33.086h31.274V-.134H-.136z"/></g><g transform="translate(141.177 84.565)"><mask id="l" fill="#fff"><use xlink:href="#k"/></mask><path fill="#F4A4C5" mask="url(#l)" d="M-.14 16.908h23.09V-.147H-.14z"/></g><g transform="translate(144.283 105.405)"><mask id="n" fill="#fff"><use xlink:href="#m"/></mask><path fill="#EC8FB7" mask="url(#n)" d="M-.15 15.273h43.542V-.163H-.15z"/></g><g transform="translate(138.004 84.27)"><mask id="p" fill="#fff"><use xlink:href="#o"/></mask><path fill="#EC8FB7" mask="url(#p)" d="M-.154 17.397h8.353V-.147H-.154z"/></g><g transform="translate(172.94 61.03)"><mask id="r" fill="#fff"><use xlink:href="#q"/></mask><path fill="#F4A4C5" mask="url(#r)" d="M-.156 10.624H9.62V-.158H-.156z"/></g><g transform="translate(187.47 90.12)"><mask id="t" fill="#fff"><use xlink:href="#s"/></mask><path fill="#F4A4C5" mask="url(#t)" d="M-.161 7.103H7.97V-.146H-.161z"/></g><g transform="translate(168.565 117.502)"><mask id="v" fill="#fff"><use xlink:href="#u"/></mask><path fill="#F4A4C5" mask="url(#v)" d="M-.156 4.346h6.484V-.133H-.156z"/></g><g transform="translate(159.714 118.882)"><mask id="x" fill="#fff"><use xlink:href="#w"/></mask><path fill="#F4A4C5" mask="url(#x)" d="M-.155 4.329H6.33V-.15H-.155z"/></g><g transform="translate(189.44 81.476)"><mask id="z" fill="#fff"><use xlink:href="#y"/></mask><path fill="#ED3438" mask="url(#z)" d="M-.14 8.321h3.89V-.143H-.14z"/></g><g transform="translate(190.176 97.68)"><mask id="B" fill="#fff"><use xlink:href="#A"/></mask><path fill="#ED3438" mask="url(#B)" d="M-.153 4.416h3.22V-.138h-3.22z"/></g><g transform="translate(166.16 117.6)"><mask id="D" fill="#fff"><use xlink:href="#C"/></mask><path fill="#FDFCFC" mask="url(#D)" d="M-.143 2.236h2.167V-.14H-.143z"/></g><g transform="translate(154.404 115.332)"><mask id="F" fill="#fff"><use xlink:href="#E"/></mask><path fill="#EE9EBE" mask="url(#F)" d="M-.161 1.382H4.81V-.134H-.161z"/></g><g transform="translate(168.332 113.984)"><mask id="H" fill="#fff"><use xlink:href="#G"/></mask><path fill="#9E555F" mask="url(#H)" d="M-.157 1.547H.88V-.146H-.157z"/></g><g transform="translate(136.134 83.974)"><mask id="J" fill="#fff"><use xlink:href="#I"/></mask><path fill="#A2494C" mask="url(#J)" d="M-.137.351h1.732v-.484H-.137z"/></g><g transform="translate(153.068 89.956)"><mask id="L" fill="#fff"><use xlink:href="#K"/></mask><path fill="#9D565F" mask="url(#L)" d="M-.148.885h.95V-.137h-.95z"/></g><g transform="translate(138.204 101.066)"><mask id="N" fill="#fff"><use xlink:href="#M"/></mask><path fill="#AE4648" mask="url(#N)" d="M-.149.358H.898v-.507H-.149z"/></g><g transform="translate(187.804 91.074)"><mask id="P" fill="#fff"><use xlink:href="#O"/></mask><path fill="#A45C65" mask="url(#P)" d="M-.152.749h.705v-.905h-.705z"/></g><g transform="translate(190.142 90.055)"><mask id="R" fill="#fff"><use xlink:href="#Q"/></mask><path fill="#944E56" mask="url(#R)" d="M-.134.328h.812v-.47h-.812z"/></g><g transform="translate(140.142 108.002)"><mask id="T" fill="#fff"><use xlink:href="#S"/></mask><path fill="#A7484A" mask="url(#T)" d="M-.151.329h.733v-.472h-.733z"/></g><g transform="translate(187.403 105.208)"><mask id="V" fill="#fff"><use xlink:href="#U"/></mask><path fill="#D57E9B" mask="url(#V)" d="M-.156.396h.538v-.56h-.538z"/></g><g transform="translate(122.172 72.7)"><mask id="X" fill="#fff"><use xlink:href="#W"/></mask><path fill="#74BF4F" mask="url(#X)" d="M-.136 14.83h17.998V-.137H-.136z"/></g><g transform="translate(137.136 54.16)"><mask id="Z" fill="#fff"><use xlink:href="#Y"/></mask><path fill="#74BF4F" mask="url(#Z)" d="M-.16 13.761h14.824V-.142H-.16z"/></g><g transform="translate(152.633 59.321)"><mask id="ab" fill="#fff"><use xlink:href="#aa"/></mask><path fill="#74BF4F" mask="url(#ab)" d="M-.144 11.225h13.603V-.158H-.144z"/></g><g transform="translate(120.502 61.59)"><mask id="ad" fill="#fff"><use xlink:href="#ac"/></mask><path fill="#74BF4F" mask="url(#ad)" d="M-.154 11.886H14.81V-.14H-.154z"/></g><g transform="translate(139.975 61.458)"><mask id="af" fill="#fff"><use xlink:href="#ae"/></mask><path fill="#74BF4F" mask="url(#af)" d="M-.15 7.21h12.828V-.14H-.15z"/></g><g transform="translate(129.42 68.065)"><mask id="ah" fill="#fff"><use xlink:href="#ag"/></mask><path fill="#74BF4F" mask="url(#ah)" d="M-.138 10.125h10.203V-.133H-.138z"/></g><g transform="translate(138.305 67.736)"><mask id="aj" fill="#fff"><use xlink:href="#ai"/></mask><path fill="#8F4A50" mask="url(#aj)" d="M-.156 17.074h20.401V-.138h-20.4z"/></g><g transform="translate(132.526 68.097)"><mask id="al" fill="#fff"><use xlink:href="#ak"/></mask><path fill="#FEFEFD" mask="url(#al)" d="M-.148 5.34h4.962V-.157H-.148z"/></g><g transform="translate(124.577 71.713)"><mask id="an" fill="#fff"><use xlink:href="#am"/></mask><path fill="#4C2120" mask="url(#an)" d="M-.158 3.308h5.053V-.133H-.158z"/></g><g transform="translate(124.61 74.244)"><mask id="ap" fill="#fff"><use xlink:href="#ao"/></mask><path fill="#ED3438" mask="url(#ap)" d="M-.152 3.187h3.014v-3.33H-.152z"/></g><g transform="translate(138.438 67.539)"><mask id="ar" fill="#fff"><use xlink:href="#aq"/></mask><path fill="#8E4C51" mask="url(#ar)" d="M-.138.467H5.51v-.601H-.138z"/></g><g transform="translate(138.438 67.703)"><mask id="at" fill="#fff"><use xlink:href="#as"/></mask><path fill="#8D5451" mask="url(#at)" d="M-.134.336h7.9v-.469h-7.9z"/></g><g transform="translate(167.764 75.099)"><mask id="av" fill="#fff"><use xlink:href="#au"/></mask><path fill="#EE6CA2" mask="url(#av)" d="M-.15 16.215h20.749V-.133H-.151z"/></g><g transform="translate(167.363 81.41)"><mask id="ax" fill="#fff"><use xlink:href="#aw"/></mask><path fill="#BE5F8D" mask="url(#ax)" d="M-.16 11.707h21.011V-.141H-.159z"/></g><g transform="translate(142.547 71.121)"><mask id="az" fill="#fff"><use xlink:href="#ay"/></mask><path fill="#8F4A51" mask="url(#az)" d="M-.16 10.855h11.694V-.158H-.16z"/></g><g transform="translate(161.752 85.124)"><mask id="aB" fill="#fff"><use xlink:href="#aA"/></mask><path fill="#8F4A51" mask="url(#aB)" d="M-.164 7.992h11.336V-.152H-.164z"/></g><g transform="translate(160.917 68.295)"><mask id="aD" fill="#fff"><use xlink:href="#aC"/></mask><path fill="#F1C1D9" mask="url(#aD)" d="M-.137 2.788h5.63v-2.93h-5.63z"/></g><g transform="translate(169.066 74.211)"><mask id="aF" fill="#fff"><use xlink:href="#aE"/></mask><path fill="#8F4A51" mask="url(#aF)" d="M-.152 3.01h2.074V-.159H-.152z"/></g><g transform="translate(171.839 73.85)"><mask id="aH" fill="#fff"><use xlink:href="#aG"/></mask><path fill="#8F4A51" mask="url(#aH)" d="M-.143 2.89h2.099V-.14H-.143z"/></g><g transform="translate(167.163 68.69)"><mask id="aJ" fill="#fff"><use xlink:href="#aI"/></mask><path fill="#F1C1D9" mask="url(#aJ)" d="M-.149 2h2.26V-.144H-.15z"/></g><g transform="translate(152.533 72.338)"><mask id="aL" fill="#fff"><use xlink:href="#aK"/></mask><path fill="#9C555D" mask="url(#aL)" d="M-.165.743H1.19v-.897H-.165z"/></g><g transform="translate(153.468 72.798)"><mask id="aN" fill="#fff"><use xlink:href="#aM"/></mask><path fill="#9F5760" mask="url(#aN)" d="M-.159 1.393h.83V-.153h-.83z"/></g><g transform="translate(188.572 90.515)"><mask id="aP" fill="#fff"><use xlink:href="#aO"/></mask><path fill="#B46A77" mask="url(#aP)" d="M-.142.461h.861v-.624h-.861z"/></g><g transform="translate(157.844 77.761)"><mask id="aR" fill="#fff"><use xlink:href="#aQ"/></mask><path fill="#904B52" mask="url(#aR)" d="M-.14.623h.469v-.758h-.47z"/></g><g transform="translate(189.474 90.22)"><mask id="aT" fill="#fff"><use xlink:href="#aS"/></mask><path fill="#A05961" mask="url(#aT)" d="M-.14.317h.742v-.472H-.14z"/></g><g transform="translate(189.875 90.153)"><mask id="aV" fill="#fff"><use xlink:href="#aU"/></mask><path fill="#A05861" mask="url(#aV)" d="M-.155.304h.638v-.465h-.638z"/></g><g transform="translate(161.685 87.754)"><mask id="aX" fill="#fff"><use xlink:href="#aW"/></mask><path fill="#A85F6A" mask="url(#aX)" d="M-.14.522h.416v-.655h-.415z"/></g><g transform="translate(152.767 89.595)"><mask id="aZ" fill="#fff"><use xlink:href="#aY"/></mask><path fill="#A45C66" mask="url(#aZ)" d="M-.159.634h.724V-.15h-.724z"/></g><g transform="translate(152.466 89.299)"><mask id="bb" fill="#fff"><use xlink:href="#ba"/></mask><path fill="#B06773" mask="url(#bb)" d="M-.145.552h.7v-.691h-.7z"/></g><g transform="translate(168.966 113.82)"><mask id="bd" fill="#fff"><use xlink:href="#bc"/></mask><path fill="#B26374" mask="url(#bd)" d="M-.16.423h.482v-.572H-.16z"/></g><g transform="translate(126.08 77.86)"><mask id="bf" fill="#fff"><use xlink:href="#be"/></mask><path fill="#FEFEFE" mask="url(#bf)" d="M-.164 6.848h8.197V-.15H-.164z"/></g><g transform="translate(142.079 56.428)"><mask id="bh" fill="#fff"><use xlink:href="#bg"/></mask><path fill="#FDFEFD" mask="url(#bh)" d="M-.15 4.587h5.96V-.157H-.15z"/></g><g transform="translate(156.107 61.655)"><mask id="bj" fill="#fff"><use xlink:href="#bi"/></mask><path fill="#FEFEFD" mask="url(#bj)" d="M-.142 4.001h5.377V-.155H-.142z"/></g><g transform="translate(126.013 63.923)"><mask id="bl" fill="#fff"><use xlink:href="#bk"/></mask><path fill="#FEFEFD" mask="url(#bl)" d="M-.146 3.644H5.95v-3.79H-.146z"/></g><g transform="translate(144.851 63.397)"><mask id="bn" fill="#fff"><use xlink:href="#bm"/></mask><path fill="#FEFEFD" mask="url(#bn)" d="M-.162 4h5.34V-.154h-5.34z"/></g><g transform="translate(134.63 69.774)"><mask id="bp" fill="#fff"><use xlink:href="#bo"/></mask><path fill="#85C55F" mask="url(#bp)" d="M-.153.666H.64v-.82h-.793z"/></g><g transform="translate(134.798 71.384)"><mask id="br" fill="#fff"><use xlink:href="#bq"/></mask><path fill="#82C35A" mask="url(#br)" d="M-.158.57H.52v-.73h-.678z"/></g><g transform="translate(170.035 76.775)"><mask id="bt" fill="#fff"><use xlink:href="#bs"/></mask><path fill="#8F4A50" mask="url(#bt)" d="M-.139 7.11h7.752V-.133H-.14z"/></g><g transform="translate(178.652 76.808)"><mask id="bv" fill="#fff"><use xlink:href="#bu"/></mask><path fill="#8F4A50" mask="url(#bv)" d="M-.15 5.383h6.934V-.16H-.15z"/></g><g transform="translate(143.08 71.516)"><mask id="bx" fill="#fff"><use xlink:href="#bw"/></mask><path fill="#E386AD" mask="url(#bx)" d="M-.143 9.562h11.065V-.153H-.143z"/></g><g transform="translate(128.652 80.851)"><mask id="bz" fill="#fff"><use xlink:href="#by"/></mask><path fill="#79C152" mask="url(#bz)" d="M-.158.833H.977v-.975H-.158z"/></g><g transform="translate(131.09 80.687)"><mask id="bB" fill="#fff"><use xlink:href="#bA"/></mask><path fill="#7CC155" mask="url(#bB)" d="M-.162.694h.916V-.14h-.916z"/></g><g transform="translate(145.219 58.4)"><mask id="bD" fill="#fff"><use xlink:href="#bC"/></mask><path fill="#7DC255" mask="url(#bD)" d="M-.15.537h.887v-.684H-.15z"/></g><g transform="translate(143.749 58.795)"><mask id="bF" fill="#fff"><use xlink:href="#bE"/></mask><path fill="#86C55F" mask="url(#bF)" d="M-.138.52h.71v-.667h-.71z"/></g><g transform="translate(158.412 62.64)"><mask id="bH" fill="#fff"><use xlink:href="#bG"/></mask><path fill="#87C661" mask="url(#bH)" d="M-.161.611h.858v-.743h-.858z"/></g><g transform="translate(157.91 64.186)"><mask id="bJ" fill="#fff"><use xlink:href="#bI"/></mask><path fill="#8BC765" mask="url(#bJ)" d="M-.154.53H.56v-.68h-.714z"/></g><g transform="translate(128.886 64.909)"><mask id="bL" fill="#fff"><use xlink:href="#bK"/></mask><path fill="#84C45C" mask="url(#bL)" d="M-.134.554h.917v-.69h-.917z"/></g><g transform="translate(127.95 66.224)"><mask id="bN" fill="#fff"><use xlink:href="#bM"/></mask><path fill="#96CB74" mask="url(#bN)" d="M-.141.52h.727v-.67h-.727z"/></g><g transform="translate(147.089 64.416)"><mask id="bP" fill="#fff"><use xlink:href="#bO"/></mask><path fill="#87C661" mask="url(#bP)" d="M-.154.577h.89v-.74h-.89z"/></g><g transform="translate(146.588 65.928)"><mask id="bR" fill="#fff"><use xlink:href="#bQ"/></mask><path fill="#8BC765" mask="url(#bR)" d="M-.144.533H.56v-.686h-.703z"/></g></g></svg>