<svg width="16" height="20" viewBox="0 0 16 20" xmlns="http://www.w3.org/2000/svg" xmlns:xlink="http://www.w3.org/1999/xlink"><title>668CF5D4-057A-41CE-B3D4-37DF35860C2C</title><defs><path d="M26.655 13.474c-2.193-1.15-5.039-.043-6.388 1.562-.985 1.172-2.134 2.905-2.437 6.526.05.013-2.73-1.672-2.73-1.672L14 21.011c2.01 1.665 3.527 2.5 3.47 2.525C16.985 28.57 18.614 32 18.614 32l2.25-.183c-.627-2.432-1.257-4.981-1.075-7.482.975.475 1.687.616 1.95.66 2.645.444 5.774-.163 7.109-3.486 1.335-3.324 0-6.886-2.193-8.035m-.017 9.043c-1.897 1.502-3.923.773-5.802-.389.246-2.146.616-3.977.734-4.238.272-.596.822-3.897 3.83-3.013 3.01.883 2.597 6.564 1.238 7.64" id="b"/><filter x="-3.3%" y="-2.6%" width="106.5%" height="110.5%" filterUnits="objectBoundingBox" id="a"><feOffset dy="1" in="SourceAlpha" result="shadowOffsetOuter1"/><feColorMatrix values="0 0 0 0 0.75866284 0 0 0 0 0.75866284 0 0 0 0 0.75866284 0 0 0 1 0" in="shadowOffsetOuter1"/></filter></defs><g transform="translate(-14 -13)" fill="none" fill-rule="evenodd"><use fill="#000" filter="url(#a)" xlink:href="#b"/><use fill="#E3E3E3" xlink:href="#b"/></g></svg>