<svg width="75" height="65" viewBox="0 0 75 65" fill="none" xmlns="http://www.w3.org/2000/svg"><path fill-rule="evenodd" clip-rule="evenodd" d="M44.277 56.874c-.038 2.233-9.98 3.868-22.206 3.648C9.845 60.303-.037 58.312 0 56.08c.036-2.234 9.98-3.87 22.205-3.65 12.227.22 22.108 2.21 22.071 4.445z" fill="#C0C0C0"/><path fill-rule="evenodd" clip-rule="evenodd" d="M53.466 26.205s7.226-5.957 4.754-17.169c0 0-15.022 2.453-13.88 9.46" fill="#F4A0C4"/><path d="M53.466 26.205s7.226-5.957 4.754-17.169c0 0-15.022 2.453-13.88 9.46" stroke="#8A3E46" stroke-width=".943"/><path fill-rule="evenodd" clip-rule="evenodd" d="M43.389 52.41s6.003 1.355 9.633.246c3.63-1.109 2.513 5.175-3.071 5.175-5.585 0-10.192-3.573-10.192-3.573" fill="#EB8BB4"/><path fill-rule="evenodd" clip-rule="evenodd" d="M43.578 52.415s.5.097 1.387.222a36.9 36.9 0 0 0 3.699.335c.767.02 1.602.034 2.476-.033.22-.01.438-.043.66-.063a7.25 7.25 0 0 0 .67-.093c.225-.035.451-.072.672-.132l.686-.166c.11-.031.253-.043.382-.063a3.15 3.15 0 0 1 .401-.01c.272.015.551.09.783.229.236.138.39.344.488.551.103.21.138.432.142.65.002.876-.477 1.702-1.158 2.365-.686.666-1.628 1.166-2.65 1.407a7.217 7.217 0 0 1-1.55.209l-.195.007c-.092.004-.132-.002-.2-.002l-.369-.011c-.247-.012-.484-.003-.734-.032-.496-.052-.986-.097-1.446-.187-.467-.068-.91-.177-1.342-.282a20.508 20.508 0 0 1-2.344-.762c-.709-.267-1.316-.575-1.855-.84a17.603 17.603 0 0 1-1.338-.76c-.717-.445-1.084-.74-1.084-.74l.038-.036s.101.063.299.175c.198.11.485.275.866.467.378.194.847.417 1.39.662.55.237 1.175.493 1.878.734a20.138 20.138 0 0 0 4.975 1.081c.228.03.48.026.723.04l.369.016c.054.001.137.008.17.005l.178-.005a6.89 6.89 0 0 0 1.417-.164c.933-.197 1.8-.63 2.449-1.225.64-.592 1.097-1.356 1.111-2.12a1.263 1.263 0 0 0-.101-.545.906.906 0 0 0-.355-.424 1.303 1.303 0 0 0-.584-.18 2.518 2.518 0 0 0-.66.052l-.694.154a6.438 6.438 0 0 1-.7.125 7.526 7.526 0 0 1-.69.083c-.229.017-.454.045-.677.05-.893.048-1.736.015-2.51-.023a36.845 36.845 0 0 1-5.088-.676l.014-.045z" fill="#8A3E46"/><path fill-rule="evenodd" clip-rule="evenodd" d="M51.506 62.602l8.177-18.1L75 40.662 68.704 56.02l-16.192 7.233-1.006-.651z" fill="#404041"/><path fill-rule="evenodd" clip-rule="evenodd" d="M40.637 58.516l-9.01 3.277.124 2.364 20.786-.444.777-3.183-2.517-2.699-10.16.685z" fill="#231F20"/><path fill-rule="evenodd" clip-rule="evenodd" d="M56.928 54.725l-12.815-.508-12.486 8.132 21.358-.762 3.943-6.862z" fill="#404041"/><path fill-rule="evenodd" clip-rule="evenodd" d="M52.043 63.253l16.76-6.882L75 42.47l-14.93 3.593-8.564 16.87.537.32z" fill="#231F20"/><path fill-rule="evenodd" clip-rule="evenodd" d="M41.397 54.087s17.219-7.144 14.292-24.08C52.76 13.07 23.429 6.289 7.574 23.879-8.28 41.47 7.086 57.404 22.894 57.81c13.444.347 18.503-3.723 18.503-3.723z" fill="#F4A0C4"/><path fill-rule="evenodd" clip-rule="evenodd" d="M42.093 54.577c-.644.508-1.387.919-2.134 1.285a21.12 21.12 0 0 1-2.322.95 32.21 32.21 0 0 1-4.873 1.246c-1.654.301-3.33.476-5.007.577a54.925 54.925 0 0 1-5.05.072 25.32 25.32 0 0 1-5.037-.756 25.884 25.884 0 0 1-4.772-1.762c-3.048-1.48-5.814-3.569-7.942-6.197-2.138-2.613-3.554-5.822-3.935-9.166-.41-3.35.28-6.754 1.628-9.798C4 27.965 5.977 25.23 8.237 22.786a31.46 31.46 0 0 1 7.897-6.185c5.907-3.27 12.917-4.558 19.63-3.683 3.355.427 6.645 1.388 9.652 2.904 3 1.512 5.727 3.602 7.767 6.24.514.656.977 1.349 1.386 2.07.415.717.78 1.464 1.078 2.233.619 1.531.974 3.163 1.14 4.783.366 3.247.023 6.587-1.136 9.658-1.145 3.077-3.063 5.845-5.42 8.153a28.9 28.9 0 0 1-3.825 3.152c-1.362.937-2.805 1.794-4.313 2.466zm-.489-.236c1.518-.699 2.924-1.557 4.272-2.505a28.69 28.69 0 0 0 3.755-3.165c2.305-2.308 4.157-5.053 5.238-8.074 1.096-3.017 1.385-6.272.982-9.434-.188-1.588-.552-3.14-1.171-4.61-.3-.738-.662-1.45-1.072-2.136a16.751 16.751 0 0 0-1.365-1.974c-1.998-2.52-4.663-4.512-7.595-5.947-2.938-1.438-6.152-2.34-9.422-2.72-6.543-.784-13.337.529-19.006 3.736a30.293 30.293 0 0 0-7.544 6.034 34.223 34.223 0 0 0-2.98 3.775c-.886 1.327-1.671 2.713-2.297 4.16a19.528 19.528 0 0 0-1.352 4.486 17.109 17.109 0 0 0-.228 2.316c-.031.774 0 1.55.088 2.32.328 3.087 1.647 6.037 3.603 8.518 1.952 2.493 4.544 4.523 7.436 5.984a24.856 24.856 0 0 0 4.545 1.763c1.571.443 3.19.741 4.825.868 3.294.19 6.644.107 9.926-.349a31.943 31.943 0 0 0 4.855-1.039c.791-.24 1.572-.516 2.33-.842.76-.326 1.499-.685 2.177-1.165z" fill="#8A3E46"/><path fill-rule="evenodd" clip-rule="evenodd" d="M44.5 51.67s-4.967 3.973-18.169 3.635c-15.524-.398-30.614-15.955-15.045-33.13.439-.483.889-.945 1.348-1.392a30.487 30.487 0 0 0-4.276 3.899C-7.21 41.856 7.88 57.413 23.404 57.81c13.201.339 18.17-3.636 18.17-3.636s4.248-1.753 8.125-5.584c-2.82 2.097-5.198 3.078-5.198 3.078z" fill="#EB8BB4"/><path d="M35.95 21.687s1.4-7.098-3.287-10.784c-4.686-3.687-10.33-4.578-10.33-4.578s-4.909 7.41-.84 12.347" stroke="#00B5E8" stroke-width=".471"/><path fill-rule="evenodd" clip-rule="evenodd" d="M37.614 24.828s7.169-8.133 2.196-12.644C34.836 7.672 22.817.904 22.817.904s-8.626 13.486-.026 25.3" fill="#F4A0C4"/><path fill-rule="evenodd" clip-rule="evenodd" d="M37.515 24.748a21.523 21.523 0 0 0 2.326-3.645c.646-1.294 1.167-2.681 1.336-4.126.08-.719.062-1.45-.097-2.142a4.948 4.948 0 0 0-.874-1.889c-.111-.131-.207-.276-.33-.397l-.362-.364-.797-.693c-.263-.234-.545-.445-.816-.668a22.55 22.55 0 0 0-.83-.651c-2.238-1.705-4.575-3.267-6.938-4.775a172.316 172.316 0 0 0-7.185-4.347l.576-.154c-.524.92-.993 1.935-1.405 2.948a31.12 31.12 0 0 0-1.084 3.123c-.622 2.116-1.031 4.306-1.137 6.518-.111 2.21.093 4.44.643 6.586.06.271.14.535.225.798.085.263.157.532.252.792.198.515.38 1.04.612 1.541.422 1.028.981 1.98 1.54 2.939l-.077.063c-1.348-1.744-2.457-3.748-3.142-5.935-.711-2.175-1.024-4.508-.97-6.82.032-2.32.451-4.613 1.091-6.812.672-2.198 1.544-4.293 2.719-6.266L23.01 0l.356.217a213.549 213.549 0 0 1 7.125 4.542c2.345 1.566 4.662 3.185 6.888 4.954.281.217.555.446.828.676.27.233.55.451.814.696l.792.728c.13.13.255.27.382.405.129.134.232.295.348.442a5.42 5.42 0 0 1 .9 2.085c.154.753.152 1.53.05 2.278-.215 1.503-.785 2.898-1.47 4.19a21.587 21.587 0 0 1-2.437 3.606l-.072-.071z" fill="#8A3E46"/><path fill-rule="evenodd" clip-rule="evenodd" d="M36.145 14.954s-1.702-4.676-10.441-8.629c0 0-5.048 10.28.116 14.455 0 0 6.1.31 10.325-5.826z" fill="#E280AA"/><path fill-rule="evenodd" clip-rule="evenodd" d="M25.959 6.325a32.962 32.962 0 0 1 3.86 1.929c-1.179.581-2.927 2.45-3.167 4.454-.34 2.834 1.073 5.344 2.136 7.742-1.658.384-2.798.33-2.798.33-5.597-4.251-.031-14.455-.031-14.455z" fill="#BE6588"/><path fill-rule="evenodd" clip-rule="evenodd" d="M35.734 13.877a10.47 10.47 0 0 0-.512-.7c-.172-.232-.373-.441-.559-.663-.2-.21-.398-.42-.602-.625l-.635-.593-.663-.56c-.224-.184-.46-.352-.69-.53-.226-.18-.466-.34-.707-.502-.241-.16-.475-.333-.721-.483l-.743-.453c-.492-.305-1.014-.56-1.518-.844-.256-.135-.52-.257-.78-.386l-.78-.381-1.596-.691.394-.14c-.27.551-.516 1.136-.74 1.718a25.277 25.277 0 0 0-.607 1.776 18.508 18.508 0 0 0-.734 3.645c-.02.308-.045.614-.044.919-.01.306.008.61.025.912l.043.452.072.444c.06.293.117.587.215.865.08.285.202.553.317.82l.198.388.234.366c.073.125.176.228.26.343.086.118.186.222.29.323.192.214.422.393.64.582l-.297-.108c.216.005.48-.003.724-.021.25-.011.5-.044.75-.07.249-.039.499-.074.747-.12.247-.053.5-.089.743-.157.245-.068.494-.118.734-.2l.723-.238.711-.276c.235-.1.461-.215.692-.322.235-.103.454-.233.677-.357.22-.129.455-.237.662-.388l.64-.427c.216-.142.408-.313.614-.467.201-.162.413-.312.598-.492l.575-.524c.2-.168.36-.373.542-.561l.519-.55c-.115-.25-.264-.488-.411-.724zm.41 1.467l-.427.693c-.145.217-.272.452-.439.652l-.477.622c-.152.217-.338.396-.515.587-.18.187-.35.388-.542.563l-.583.516c-.19.18-.406.317-.61.475-.208.154-.413.314-.636.44-.22.13-.436.273-.661.397l-.683.35c-.231.11-.47.198-.705.298-.236.1-.48.168-.72.254s-.489.139-.733.209c-.246.065-.497.107-.746.157-.252.036-.502.078-.758.099a6.37 6.37 0 0 1-.789.03l-.16-.003-.115-.107c-.244-.23-.501-.444-.711-.715a3.265 3.265 0 0 1-.313-.403c-.094-.145-.203-.277-.282-.43l-.25-.453-.207-.474a7.14 7.14 0 0 1-.312-.985 8.37 8.37 0 0 1-.187-1.01l-.055-.508-.026-.508a12.57 12.57 0 0 1 .005-1.009c.01-.335.044-.667.075-.998a21.77 21.77 0 0 1 .814-3.857c.188-.623.398-1.238.627-1.844.23-.607.474-1.198.757-1.791l.126-.266.237.123 1.482.765.724.419c.241.141.485.275.722.423.466.314.945.6 1.397.937l.681.498c.227.166.441.353.66.53.222.176.44.354.648.55.21.192.424.375.628.575l.603.607.575.64c.184.22.363.445.542.67.166.237.348.462.501.71.163.24.31.492.454.746.136.26.274.518.375.8l.01.026z" fill="#8A3E46"/><path fill-rule="evenodd" clip-rule="evenodd" d="M43.373 49.189s.66 5.932.055 7.785c-.605 1.854 4.728 3.708 4.453-2.656-.275-6.365-.55-6.426-.55-6.426" fill="#F4A0C4"/><path fill-rule="evenodd" clip-rule="evenodd" d="M43.573 49.184c.132.946.238 1.895.32 2.848.079.952.139 1.908.125 2.87-.017.482-.033.965-.124 1.451-.038.234-.144.518-.156.675a.792.792 0 0 0 .188.534c.256.325.675.536 1.098.644.428.106.881.105 1.298-.01a2.216 2.216 0 0 0 1.065-.684c.278-.328.47-.731.59-1.158.13-.426.183-.88.2-1.338.03-.455.002-.92-.017-1.4l-.09-2.855a46.946 46.946 0 0 0-.06-1.426 16.79 16.79 0 0 0-.042-.712 8.255 8.255 0 0 0-.036-.353c-.009-.058-.014-.118-.026-.174-.005-.028-.01-.058-.018-.084-.004-.014-.006-.03-.011-.04 0-.011-.02-.03 0-.023l.01-.057c.045.024.036.035.05.05.01.015.014.029.021.043.014.03.024.058.035.087.023.058.038.115.057.174.032.116.061.234.086.351.053.236.098.471.141.708.078.474.141.949.203 1.423.12.951.198 1.904.268 2.858.065.94.111 1.97-.213 2.94-.157.482-.4.952-.755 1.34a2.717 2.717 0 0 1-1.338.787 3.023 3.023 0 0 1-1.528-.034c-.488-.143-.966-.389-1.294-.827-.16-.215-.272-.501-.242-.794.05-.315.14-.476.183-.712.1-.45.132-.924.163-1.394.052-.945.032-1.898-.008-2.849a53.358 53.358 0 0 0-.202-2.852l.059-.007z" fill="#8A3E46"/><path fill-rule="evenodd" clip-rule="evenodd" d="M49.318 21.783c-.453.276-.65 1.063-.438 1.758.21.695.747 1.037 1.2.76.452-.275.648-1.063.437-1.759-.21-.695-.747-1.036-1.199-.76zm-2.125-2.121s1.961.716 1.543 1.62c0 0-.326.782-1.645.172 0 0-.733-.393-1.976-.95 0 0-.413-.242-1.14-.387 0 0-.667-.108-.597-.7 0 0 .1-.585 1.42-.408 0 0 1.009.09 2.395.653z" fill="#F0BFD8"/><path fill-rule="evenodd" clip-rule="evenodd" d="M48.727 35.476c-.19.989-.72 1.686-1.18 1.557-.461-.13-.68-1.037-.49-2.026.19-.99.719-1.687 1.18-1.558.461.13.68 1.037.49 2.027zm-3.615 0c-.191.989-.72 1.686-1.18 1.557-.461-.13-.681-1.037-.49-2.026.19-.99.718-1.687 1.18-1.558.46.13.68 1.037.49 2.027z" fill="#8A3D46"/><path fill-rule="evenodd" clip-rule="evenodd" d="M31.627 51.656s4.362 5.87 8.12 6.15c3.758.279 4.16-1.79 3.154-2.628-1.007-.839-5.235-5.48-5.235-5.48" fill="#F4A0C4"/><path fill-rule="evenodd" clip-rule="evenodd" d="M31.681 51.606c1.158 1.431 2.461 2.792 3.964 3.965.748.584 1.563 1.121 2.466 1.488.45.181.927.314 1.406.35.497.024 1.006.034 1.484-.048.476-.073.937-.219 1.266-.471.329-.247.516-.599.473-.952a.913.913 0 0 0-.185-.493c-.045-.078-.122-.135-.184-.202-.093-.082-.194-.164-.28-.248-.348-.334-.67-.674-.997-1.013a59.422 59.422 0 0 1-1.854-2.093l-.89-1.068c-.286-.363-.58-.72-.856-1.09l.051-.032c.353.32.689.65 1.035.974l1.011.988 1.999 1.986c.329.33.658.666.997.98l.249.228c.1.101.21.199.28.317.16.224.243.48.254.737.022.258-.055.516-.177.748-.07.114-.139.229-.24.323a1.605 1.605 0 0 1-.312.269c-.457.32-1.016.465-1.555.532-.545.077-1.081.052-1.616.013a5.268 5.268 0 0 1-1.544-.425c-.95-.417-1.76-.992-2.503-1.606-1.469-1.246-2.705-2.654-3.796-4.13l.054-.027z" fill="#8A3E46"/><path fill-rule="evenodd" clip-rule="evenodd" d="M35.421 43.199c-1.058 3.839 2.657 7.837 8.296 8.932 5.64 1.094 11.07-1.13 12.127-4.968 1.058-3.839-2.657-7.838-8.296-8.932-5.64-1.095-11.07 1.13-12.127 4.968z" fill="#BC5588"/><path fill-rule="evenodd" clip-rule="evenodd" d="M44.215 50.335c-5.971-1.052-9.903-4.893-8.783-8.58a4.939 4.939 0 0 1 .77-1.503c2.43-1.907 6.582-2.784 10.85-2.032 5.97 1.051 9.902 4.892 8.782 8.58a4.946 4.946 0 0 1-.77 1.501c-2.431 1.908-6.583 2.785-10.85 2.034z" fill="#ED659F"/><path fill-rule="evenodd" clip-rule="evenodd" d="M45.702 37.979c-1.974.226-3.809 1.812-4.097 3.543-.288 1.732 1.08 2.953 3.055 2.729 1.975-.226 3.81-1.814 4.097-3.545.288-1.731-1.08-2.952-3.055-2.727zm3.444 6.284c.8 1.995 2.706 3.62 4.258 3.629 1.554.008 2.164-1.604 1.365-3.601-.798-1.996-2.707-3.62-4.259-3.628-1.552-.008-2.163 1.603-1.364 3.6z" fill="#8A3D46"/><path fill-rule="evenodd" clip-rule="evenodd" d="M60.542 45.452l13.554-2.982-4.4 9.94s-.88-6.295-9.154-6.958z" fill="#fff"/><path fill-rule="evenodd" clip-rule="evenodd" d="M26.008 55.81a86.954 86.954 0 0 0-1.911-.798c-2.262.557-5.255.12-8.09-1.435l.34-.264s-4.014 2.563-.34 6.571c3.674 4.008 11.634 3.942 12.995 2.365 1.36-1.576 1.428-4.533-2.994-6.439z" fill="#EB8BB4"/><path fill-rule="evenodd" clip-rule="evenodd" d="M25.791 54.217c-3.946.878-6.815 3.54-6.815 6.685 0 .453.061.895.175 1.325 4.058 1.603 8.724 1.167 9.776-.2 1.471-1.91 1.555-5.477-3.136-7.81z" fill="#F4A0C4"/><path fill-rule="evenodd" clip-rule="evenodd" d="M16.528 53.382s-.118.08-.32.26c-.2.178-.486.456-.776.864-.289.406-.58.955-.695 1.633-.12.676-.02 1.47.333 2.238.356.768.924 1.51 1.637 2.188.35.326.75.636 1.172.923.43.279.889.534 1.372.762.97.444 2.032.778 3.136.986 1.103.213 2.25.3 3.383.255a10.44 10.44 0 0 0 1.67-.202c.54-.112 1.073-.285 1.468-.553l.132-.104.105-.109.232-.324.168-.31.144-.343c.167-.465.21-.96.14-1.429-.063-.471-.245-.913-.477-1.323-.143-.19-.253-.4-.422-.568l-.23-.266c-.085-.082-.173-.16-.258-.24-.691-.631-1.5-1.088-2.249-1.462-.793-.364-1.515-.707-2.156-1.01l-.464-.223-.435-.188-.767-.336c-.46-.217-.837-.333-1.09-.432a2.108 2.108 0 0 0-.291-.098 8.503 8.503 0 0 1-.101-.027l.006-.083.11.012c.073.005.179.024.311.055.269.058.668.14 1.154.298.486.154 1.1.314 1.757.574.664.248 1.413.528 2.226.845.833.35 1.713.785 2.525 1.473.1.087.204.171.304.263l.28.299c.198.192.345.44.517.666.301.49.527 1.052.612 1.658.08.605.008 1.243-.214 1.827-.06.143-.126.285-.19.428-.08.143-.169.283-.255.423l-.278.355c-.065.065-.13.133-.199.192l-.21.154c-.573.35-1.17.5-1.764.611a10.95 10.95 0 0 1-1.791.161 15.476 15.476 0 0 1-3.518-.359 14.123 14.123 0 0 1-3.232-1.112 12.26 12.26 0 0 1-1.41-.833 9.555 9.555 0 0 1-1.207-1.013c-.704-.722-1.276-1.521-1.622-2.346-.344-.825-.421-1.681-.267-2.39a4.138 4.138 0 0 1 .784-1.678c.314-.41.614-.682.825-.858.212-.174.339-.253.339-.253l.046.07z" fill="#8A3E46"/></svg>